<?xml version="1.0" standalone="no"?>
<!DOCTYPE svg PUBLIC "-//W3C//DTD SVG 20010904//EN"
 "http://www.w3.org/TR/2001/REC-SVG-20010904/DTD/svg10.dtd">
<svg version="1.0" xmlns="http://www.w3.org/2000/svg"
 width="300.000000pt" height="188.000000pt" viewBox="0 0 300.000000 188.000000"
 preserveAspectRatio="xMidYMid meet">
<metadata>
Created by potrace 1.10, written by Peter Selinger 2001-2011
</metadata>
<g transform="translate(0.000000,188.000000) scale(0.100000,-0.100000)"
fill="#000000" stroke="none">
<path d="M1430 1856 c0 -6 38 -46 44 -46 10 0 -17 39 -31 44 -7 3 -13 4 -13 2z"/>
<path d="M2405 1790 c4 -6 11 -8 16 -5 14 9 11 15 -7 15 -8 0 -12 -5 -9 -10z"/>
<path d="M1917 1771 c-4 -17 -3 -21 5 -13 5 5 8 16 6 23 -3 8 -7 3 -11 -10z"/>
<path d="M1088 1739 c6 -9 9 -19 5 -22 -3 -4 -2 -7 4 -7 6 0 27 -11 48 -25 20
-15 40 -23 44 -20 3 4 -2 11 -11 16 -9 5 -24 16 -32 24 -8 8 -18 15 -22 15 -4
0 -17 8 -28 18 -16 13 -18 13 -8 1z"/>
<path d="M2691 1724 c-20 -24 -7 -27 19 -4 14 13 18 20 9 20 -8 -1 -20 -8 -28
-16z"/>
<path d="M1058 1713 c-21 -5 -24 -33 -4 -33 7 0 16 9 19 20 3 11 4 19 4 19 -1
-1 -10 -3 -19 -6z"/>
<path d="M1326 1695 c4 -8 11 -15 16 -15 6 0 5 6 -2 15 -7 8 -14 15 -16 15 -2
0 -1 -7 2 -15z"/>
<path d="M1197 1685 c18 -13 33 -11 33 4 0 5 -11 9 -25 9 -23 0 -24 -2 -8 -13z"/>
<path d="M1236 1685 c-3 -9 0 -15 8 -15 8 0 16 -6 19 -12 2 -7 7 -11 10 -8 3
3 -3 15 -13 27 -14 18 -19 20 -24 8z"/>
<path d="M1366 1679 c3 -5 -3 -9 -12 -9 -10 0 -15 -3 -12 -6 3 -3 21 -1 39 4
l34 8 -27 6 c-15 3 -25 1 -22 -3z"/>
<path d="M988 1673 c7 -3 16 -2 19 1 4 3 -2 6 -13 5 -11 0 -14 -3 -6 -6z"/>
<path d="M1451 1677 c2 -1 12 -9 22 -16 15 -12 17 -12 11 3 -3 9 -13 16 -22
16 -8 0 -13 -1 -11 -3z"/>
<path d="M905 1659 c-3 -4 -21 -6 -40 -4 -19 2 -35 -1 -35 -7 0 -5 -4 -7 -9
-3 -5 3 -13 0 -17 -6 -5 -9 6 -10 45 -5 28 4 59 10 68 13 11 4 14 3 9 -5 -4
-7 -2 -12 3 -12 6 0 11 7 11 16 0 11 6 15 20 11 11 -3 18 -1 15 3 -7 11 -64
10 -70 -1z"/>
<path d="M1507 1649 c4 -13 8 -18 11 -10 2 7 -1 18 -6 23 -8 8 -9 4 -5 -13z"/>
<path d="M2291 1654 c0 -11 3 -14 6 -6 3 7 2 16 -1 19 -3 4 -6 -2 -5 -13z"/>
<path d="M770 1630 c0 -5 5 -10 11 -10 5 0 7 5 4 10 -3 6 -8 10 -11 10 -2 0
-4 -4 -4 -10z"/>
<path d="M1450 1620 c0 -5 5 -10 11 -10 5 0 7 5 4 10 -3 6 -8 10 -11 10 -2 0
-4 -4 -4 -10z"/>
<path d="M726 1593 c-6 -14 -5 -15 5 -6 7 7 10 15 7 18 -3 3 -9 -2 -12 -12z"/>
<path d="M2105 1599 c-10 -15 3 -25 16 -12 7 7 7 13 1 17 -6 3 -14 1 -17 -5z"/>
<path d="M1917 1571 c3 -12 9 -21 14 -21 14 0 11 16 -5 29 -12 10 -13 8 -9 -8z"/>
<path d="M880 1506 c0 -2 7 -7 16 -10 8 -3 12 -2 9 4 -6 10 -25 14 -25 6z"/>
<path d="M2587 1498 c6 -12 63 -10 63 2 0 5 -15 9 -34 7 -19 -1 -32 -5 -29 -9z"/>
<path d="M496 1491 c-5 -7 20 -17 93 -37 15 -4 21 -2 17 5 -4 5 -22 13 -41 17
-20 3 -38 10 -41 15 -7 11 -21 12 -28 0z"/>
<path d="M2444 1489 c-3 -5 -2 -9 3 -9 4 0 19 -3 32 -7 16 -4 22 -2 18 4 -9
15 -46 23 -53 12z"/>
<path d="M2517 1483 c-14 -13 -7 -25 8 -13 17 14 38 4 29 -13 -4 -7 -3 -8 1
-4 18 16 13 37 -9 37 -13 0 -26 -3 -29 -7z"/>
<path d="M2372 1449 c-12 -19 -11 -19 8 -9 11 6 18 15 15 21 -8 12 -8 12 -23
-12z"/>
<path d="M2940 1450 c0 -6 7 -10 15 -10 8 0 15 2 15 4 0 2 -7 6 -15 10 -8 3
-15 1 -15 -4z"/>
<path d="M1489 1442 c12 -9 12 -15 3 -34 l-13 -23 5 24 c4 17 2 21 -6 13 -14
-14 -2 -45 14 -40 18 6 16 60 -2 65 -13 4 -13 3 -1 -5z"/>
<path d="M1546 1437 c3 -10 9 -15 12 -12 3 3 0 11 -7 18 -10 9 -11 8 -5 -6z"/>
<path d="M608 1433 c7 -3 16 -2 19 1 4 3 -2 6 -13 5 -11 0 -14 -3 -6 -6z"/>
<path d="M1000 1425 c-10 -13 -9 -15 8 -15 15 0 20 5 16 15 -4 8 -7 15 -9 15
-1 0 -8 -7 -15 -15z"/>
<path d="M401 1414 c0 -11 3 -14 6 -6 3 7 2 16 -1 19 -3 4 -6 -2 -5 -13z"/>
<path d="M1085 1420 c28 -12 47 -12 40 0 -3 6 -18 10 -33 9 -24 0 -25 -1 -7
-9z"/>
<path d="M2797 1408 c-3 -10 -1 -18 4 -18 5 0 9 5 9 11 0 7 10 9 25 7 14 -3
28 -2 30 2 3 4 -11 10 -29 12 -27 3 -36 0 -39 -14z"/>
<path d="M850 1410 c0 -14 15 -19 29 -11 9 6 7 10 -8 14 -12 3 -21 1 -21 -3z"/>
<path d="M938 1390 c15 -16 28 -25 30 -20 4 11 -34 50 -48 50 -5 0 3 -13 18
-30z"/>
<path d="M1715 1400 c-3 -5 -1 -10 4 -10 6 0 11 5 11 10 0 6 -2 10 -4 10 -3 0
-8 -4 -11 -10z"/>
<path d="M2903 1395 c0 -11 4 -12 14 -4 7 6 13 13 13 15 0 2 -6 4 -13 4 -8 0
-14 -7 -14 -15z"/>
<path d="M2230 1392 c0 -5 11 -14 25 -20 29 -14 34 2 6 18 -24 12 -31 13 -31
2z"/>
<path d="M1538 1383 c7 -3 16 -2 19 1 4 3 -2 6 -13 5 -11 0 -14 -3 -6 -6z"/>
<path d="M2156 1378 c3 -5 -1 -11 -9 -14 -7 -2 -14 -11 -14 -18 0 -17 29 -2
44 23 8 13 7 17 -8 17 -9 0 -15 -4 -13 -8z"/>
<path d="M1915 1370 c-3 -5 -2 -10 4 -10 5 0 13 5 16 10 3 6 2 10 -4 10 -5 0
-13 -4 -16 -10z"/>
<path d="M2008 1368 c12 -11 85 -14 89 -3 2 6 -18 10 -46 10 -28 0 -47 -3 -43
-7z"/>
<path d="M2306 1366 c3 -8 12 -17 20 -20 12 -4 12 -2 4 14 -12 23 -32 27 -24
6z"/>
<path d="M386 1362 c-14 -14 -4 -24 19 -18 14 4 25 2 25 -4 0 -5 5 -10 11 -10
8 0 8 4 0 14 -13 16 -47 27 -55 18z"/>
<path d="M1472 1348 c-7 -14 -13 -93 -16 -196 -3 -148 -6 -175 -21 -192 -10
-11 -25 -20 -34 -20 -13 0 -13 -2 -2 -9 9 -6 12 -24 10 -60 -2 -28 0 -51 4
-51 8 0 8 -83 -1 -107 -2 -7 -11 -13 -18 -13 -8 0 -41 -14 -74 -30 l-60 -30 2
-48 2 -47 3 46 c4 45 5 46 56 67 85 36 87 35 87 -58 0 -47 4 -80 10 -80 13 0
13 104 1 148 -9 29 -7 34 12 42 12 5 16 9 10 9 -10 1 -13 30 -13 111 0 114 2
119 44 111 5 -1 6 21 3 50 -8 69 4 359 15 359 4 0 8 -47 8 -104 0 -59 4 -108
10 -111 6 -3 10 -49 10 -102 0 -75 -3 -93 -12 -85 -10 8 -12 -14 -10 -106 2
-65 5 -121 7 -127 2 -5 3 41 2 102 -2 122 -3 121 57 129 37 5 40 9 31 31 -8
17 -8 17 -12 1 -3 -10 -9 -18 -14 -18 -6 0 -7 4 -4 10 3 6 -1 7 -9 4 -17 -6
-17 -4 -21 104 -1 36 2 42 20 43 19 0 19 1 -2 9 -13 5 -23 15 -24 22 0 7 -2
22 -4 33 -7 37 -8 122 -2 132 6 9 -23 53 -35 53 -3 0 -10 -10 -16 -22z"/>
<path d="M858 1343 c7 -3 16 -2 19 1 4 3 -2 6 -13 5 -11 0 -14 -3 -6 -6z"/>
<path d="M1650 1338 c0 -4 4 -8 9 -8 6 0 12 4 15 8 3 5 -1 9 -9 9 -8 0 -15 -4
-15 -9z"/>
<path d="M1935 1340 c-3 -5 -1 -10 4 -10 6 0 11 5 11 10 0 6 -2 10 -4 10 -3 0
-8 -4 -11 -10z"/>
<path d="M1778 1313 c11 -19 62 -30 62 -13 0 6 -4 10 -10 10 -18 0 -25 2 -43
12 -16 8 -17 7 -9 -9z"/>
<path d="M1895 1320 c-3 -5 -1 -10 4 -10 6 0 11 5 11 10 0 6 -2 10 -4 10 -3 0
-8 -4 -11 -10z"/>
<path d="M1630 1305 c7 -8 18 -15 25 -15 7 0 18 -6 25 -14 6 -8 17 -13 25 -10
7 3 16 -3 20 -15 3 -12 12 -18 20 -15 11 5 9 11 -8 29 -12 12 -25 21 -29 19
-3 -3 -9 4 -11 13 -4 17 -5 17 -6 0 -1 -17 -3 -17 -27 2 -31 24 -52 28 -34 6z"/>
<path d="M849 1289 c24 -11 46 -18 48 -15 4 4 -73 36 -85 35 -4 0 13 -9 37
-20z"/>
<path d="M2960 1297 c19 -7 37 -12 39 -10 9 6 -6 13 -40 18 l-34 6 35 -14z"/>
<path d="M190 1290 c0 -5 5 -10 11 -10 5 0 7 5 4 10 -3 6 -8 10 -11 10 -2 0
-4 -4 -4 -10z"/>
<path d="M265 1290 c4 -6 11 -8 16 -5 14 9 11 15 -7 15 -8 0 -12 -5 -9 -10z"/>
<path d="M950 1285 c0 -8 5 -15 10 -15 6 0 10 7 10 15 0 8 -4 15 -10 15 -5 0
-10 -7 -10 -15z"/>
<path d="M803 1279 c9 -6 14 -15 11 -21 -4 -7 -2 -8 5 -4 14 9 -3 36 -23 36
-6 0 -3 -5 7 -11z"/>
<path d="M1850 1281 c0 -5 5 -13 10 -16 6 -3 10 -2 10 4 0 5 -4 13 -10 16 -5
3 -10 2 -10 -4z"/>
<path d="M710 1256 c0 -2 7 -7 16 -10 8 -3 12 -2 9 4 -6 10 -25 14 -25 6z"/>
<path d="M2815 1240 c3 -5 11 -10 16 -10 6 0 7 5 4 10 -3 6 -11 10 -16 10 -6
0 -7 -4 -4 -10z"/>
<path d="M1845 1230 c-3 -6 1 -7 9 -4 18 7 21 14 7 14 -6 0 -13 -4 -16 -10z"/>
<path d="M2751 1237 c2 -1 13 -9 24 -17 19 -14 19 -14 6 3 -7 9 -18 17 -24 17
-6 0 -8 -1 -6 -3z"/>
<path d="M856 1213 c-6 -14 -5 -15 5 -6 7 7 10 15 7 18 -3 3 -9 -2 -12 -12z"/>
<path d="M1700 1203 c0 -17 28 -48 36 -40 4 4 2 7 -4 7 -7 0 -12 6 -12 14 0 8
-4 18 -10 21 -5 3 -10 2 -10 -2z"/>
<path d="M2180 1202 c0 -11 -47 -22 -56 -13 -8 8 -54 9 -54 0 0 -3 18 -9 40
-13 43 -7 104 14 81 28 -6 4 -11 3 -11 -2z"/>
<path d="M2225 1201 c-3 -5 4 -13 16 -16 28 -9 36 1 10 14 -12 7 -22 7 -26 2z"/>
<path d="M1050 1186 c0 -2 7 -6 15 -10 8 -3 15 -1 15 4 0 6 -7 10 -15 10 -8 0
-15 -2 -15 -4z"/>
<path d="M621 1171 c-8 -6 -9 -11 -3 -15 6 -3 13 -2 17 4 4 6 17 4 36 -5 16
-9 29 -13 29 -10 0 3 11 -2 25 -11 28 -18 118 -26 152 -13 14 5 23 4 25 -3 3
-7 12 -9 23 -5 32 13 7 20 -68 18 -55 -1 -87 4 -121 19 -25 10 -48 20 -51 20
-3 0 -6 0 -7 1 -23 6 -46 6 -57 0z"/>
<path d="M1160 1169 c0 -5 5 -7 10 -4 6 3 10 8 10 11 0 2 -4 4 -10 4 -5 0 -10
-5 -10 -11z"/>
<path d="M2015 1171 c-11 -5 -23 -7 -27 -4 -11 6 -10 -15 1 -21 5 -3 20 3 32
14 26 21 25 23 -6 11z"/>
<path d="M233 1135 c0 -22 2 -30 4 -17 2 12 2 30 0 40 -3 9 -5 -1 -4 -23z"/>
<path d="M208 1085 c-2 -41 0 -75 5 -75 4 0 7 34 7 75 0 41 -2 75 -4 75 -3 0
-6 -34 -8 -75z"/>
<path d="M935 1150 c3 -5 8 -10 11 -10 2 0 4 5 4 10 0 6 -5 10 -11 10 -5 0 -7
-4 -4 -10z"/>
<path d="M1844 1141 c-13 -13 1 -17 34 -11 21 3 50 5 66 3 18 -3 25 0 21 7 -6
10 -111 11 -121 1z"/>
<path d="M614 1125 c-7 -18 10 -35 35 -35 11 0 9 6 -5 23 -10 12 -20 24 -21
26 -1 2 -6 -4 -9 -14z"/>
<path d="M1351 1117 c-6 -6 -11 -16 -11 -21 0 -6 5 -3 10 6 6 10 19 15 32 13
11 -3 18 -1 14 2 -11 12 -34 11 -45 0z"/>
<path d="M1684 1109 c-3 -6 -2 -15 3 -20 5 -5 9 -1 9 11 0 23 -2 24 -12 9z"/>
<path d="M1855 1100 c-19 -8 -19 -9 3 -9 12 -1 22 4 22 9 0 6 -1 10 -2 9 -2 0
-12 -4 -23 -9z"/>
<path d="M550 1070 c0 -5 7 -7 15 -4 8 4 15 8 15 10 0 2 -7 4 -15 4 -8 0 -15
-4 -15 -10z"/>
<path d="M241 1038 c-1 -16 4 -28 9 -28 12 0 12 8 0 35 -8 18 -9 17 -9 -7z"/>
<path d="M1730 1056 c0 -2 7 -9 15 -16 9 -7 15 -8 15 -2 0 5 -7 12 -15 16 -8
3 -15 4 -15 2z"/>
<path d="M726 1031 c-17 -6 -17 -8 -3 -14 8 -3 21 1 27 9 13 15 6 17 -24 5z"/>
<path d="M2786 1033 c5 -5 12 -12 16 -18 4 -6 8 -2 8 8 0 9 -7 17 -17 17 -9 0
-12 -3 -7 -7z"/>
<path d="M587 1019 c7 -7 15 -10 18 -7 3 3 -2 9 -12 12 -14 6 -15 5 -6 -5z"/>
<path d="M810 1020 c18 -12 30 -13 30 -2 0 4 -10 9 -22 9 -18 2 -20 0 -8 -7z"/>
<path d="M300 1000 l-25 -21 28 12 c15 7 27 16 27 21 0 11 -1 10 -30 -12z"/>
<path d="M360 1010 c0 -5 5 -10 10 -10 6 0 10 5 10 10 0 6 -4 10 -10 10 -5 0
-10 -4 -10 -10z"/>
<path d="M417 1009 c7 -7 15 -10 18 -7 3 3 -2 9 -12 12 -14 6 -15 5 -6 -5z"/>
<path d="M535 1010 c-3 -5 -1 -10 4 -10 6 0 11 5 11 10 0 6 -2 10 -4 10 -3 0
-8 -4 -11 -10z"/>
<path d="M850 1010 c0 -5 10 -10 23 -10 18 0 19 2 7 10 -19 13 -30 13 -30 0z"/>
<path d="M2707 1009 c7 -7 15 -10 18 -7 3 3 -2 9 -12 12 -14 6 -15 5 -6 -5z"/>
<path d="M1705 1000 c3 -5 10 -10 16 -10 5 0 9 5 9 10 0 6 -7 10 -16 10 -8 0
-12 -4 -9 -10z"/>
<path d="M2245 1000 c-4 -6 -11 -8 -16 -5 -5 4 -9 2 -9 -4 0 -19 15 -18 34 0
11 11 14 19 8 19 -6 0 -14 -5 -17 -10z"/>
<path d="M2384 1003 c4 -4 16 -8 28 -10 28 -4 18 6 -12 12 -12 2 -20 1 -16 -2z"/>
<path d="M2440 1001 c0 -5 5 -11 11 -13 16 -5 79 3 79 11 0 10 -54 7 -62 -4
-5 -6 -8 -6 -8 3 0 6 -4 12 -10 12 -5 0 -10 -4 -10 -9z"/>
<path d="M201 991 c-10 -6 -10 -10 -1 -16 13 -8 24 -1 19 14 -3 6 -10 7 -18 2z"/>
<path d="M1785 990 c3 -5 8 -10 11 -10 2 0 4 5 4 10 0 6 -5 10 -11 10 -5 0 -7
-4 -4 -10z"/>
<path d="M2310 990 c0 -4 11 -10 25 -12 16 -3 25 -1 25 7 0 7 -11 13 -25 13
-14 0 -25 -4 -25 -8z"/>
<path d="M145 980 c4 -6 11 -8 16 -5 14 9 11 15 -7 15 -8 0 -12 -5 -9 -10z"/>
<path d="M240 980 c0 -5 7 -10 16 -10 8 0 12 5 9 10 -3 6 -10 10 -16 10 -5 0
-9 -4 -9 -10z"/>
<path d="M2117 979 c7 -7 15 -10 18 -7 3 3 -2 9 -12 12 -14 6 -15 5 -6 -5z"/>
<path d="M1630 960 c0 -5 5 -10 11 -10 5 0 7 5 4 10 -3 6 -8 10 -11 10 -2 0
-4 -4 -4 -10z"/>
<path d="M1875 960 c3 -5 11 -10 16 -10 6 0 7 5 4 10 -3 6 -11 10 -16 10 -6 0
-7 -4 -4 -10z"/>
<path d="M30 950 c-19 -4 -28 -8 -20 -9 73 -10 94 -10 106 0 15 12 21 9 68
-33 11 -10 23 -18 27 -18 4 0 8 -27 8 -59 0 -52 -3 -61 -20 -66 -27 -9 -19
-16 9 -8 21 5 22 11 22 97 -1 78 -3 88 -14 74 -17 -23 -30 -23 -22 -1 4 10 4
14 0 10 -4 -4 -14 -1 -22 5 -16 14 -92 18 -92 6 0 -5 -5 -8 -11 -8 -5 0 -7 5
-4 10 3 6 5 9 3 9 -2 -1 -19 -5 -38 -9z"/>
<path d="M1979 949 c-7 -4 9 -8 35 -10 25 -2 46 -1 46 2 0 10 -68 16 -81 8z"/>
<path d="M2070 950 c0 -5 5 -10 10 -10 6 0 10 5 10 10 0 6 -4 10 -10 10 -5 0
-10 -4 -10 -10z"/>
<path d="M911 932 c-13 -11 -9 -12 29 -6 64 9 86 24 31 21 -24 -1 -51 -8 -60
-15z"/>
<path d="M1040 943 c8 -3 21 -11 29 -17 11 -8 13 -8 8 1 -4 7 0 13 10 16 10 3
0 5 -22 5 -22 0 -33 -2 -25 -5z"/>
<path d="M1116 942 c-2 -4 7 -9 22 -10 21 -1 24 0 12 8 -18 12 -27 12 -34 2z"/>
<path d="M241 824 c1 -71 4 -103 8 -79 6 38 8 40 46 42 22 1 65 -4 97 -11 32
-7 58 -11 58 -9 0 15 -83 36 -138 34 l-63 -2 3 65 c1 36 -1 68 -5 72 -4 4 -6
-46 -6 -112z"/>
<path d="M528 933 c7 -3 16 -2 19 1 4 3 -2 6 -13 5 -11 0 -14 -3 -6 -6z"/>
<path d="M849 929 c-10 -6 -7 -9 14 -9 29 0 35 5 14 13 -8 3 -20 1 -28 -4z"/>
<path d="M1247 933 c-13 -12 -7 -23 12 -23 26 0 35 16 15 24 -19 7 -19 7 -27
-1z"/>
<path d="M1765 930 c-3 -5 -2 -10 4 -10 5 0 13 5 16 10 3 6 2 10 -4 10 -5 0
-13 -4 -16 -10z"/>
<path d="M590 922 c0 -24 105 -48 143 -32 20 8 20 9 -8 10 -77 3 -105 8 -120
20 -8 7 -15 8 -15 2z"/>
<path d="M1300 920 c0 -14 28 -19 38 -7 8 9 4 12 -14 13 -13 1 -24 -2 -24 -6z"/>
<path d="M1571 913 c-3 -22 -4 -88 -2 -98 1 -3 14 1 31 10 16 8 40 15 54 15
14 0 27 4 30 9 10 15 -25 22 -42 9 -13 -11 -14 -11 -7 2 5 10 1 9 -13 -3 -11
-11 -26 -16 -32 -12 -9 6 -9 10 1 16 10 7 11 11 3 17 -7 4 -14 18 -17 32 -4
24 -4 24 -6 3z"/>
<path d="M1940 910 c0 -5 5 -10 11 -10 5 0 7 5 4 10 -3 6 -8 10 -11 10 -2 0
-4 -4 -4 -10z"/>
<path d="M806 899 c3 -5 11 -9 19 -9 8 0 16 4 19 9 3 5 -5 9 -19 9 -14 0 -22
-4 -19 -9z"/>
<path d="M1287 866 c-3 -8 1 -20 9 -27 20 -16 23 -9 9 19 -10 18 -14 20 -18 8z"/>
<path d="M2365 873 c-11 -3 -25 -9 -31 -14 -6 -5 -24 -9 -41 -11 -18 -1 -29
-7 -26 -14 3 -8 24 -8 80 2 75 13 104 26 89 41 -4 4 -11 1 -15 -6 -6 -9 -11
-10 -15 -2 -8 12 -9 12 -41 4z"/>
<path d="M2803 869 c-11 -3 6 -8 40 -11 33 -3 62 -11 67 -18 4 -7 13 -9 20 -5
28 17 -86 49 -127 34z"/>
<path d="M2712 861 c-11 -7 -11 -9 2 -14 10 -4 16 -1 16 8 0 17 -1 17 -18 6z"/>
<path d="M1851 848 c-1 -12 6 -18 19 -18 11 0 20 5 20 11 0 6 -6 9 -14 6 -8
-3 -17 -1 -20 6 -2 7 -5 4 -5 -5z"/>
<path d="M566 839 c2 -4 -4 -9 -13 -12 -10 -2 -1 -4 21 -3 26 0 43 -6 52 -19
12 -17 14 -17 14 -2 0 9 -4 17 -10 17 -5 0 -8 6 -6 13 1 6 1 9 -1 5 -6 -11
-33 -10 -33 0 0 5 -7 9 -15 9 -8 0 -12 -4 -9 -8z"/>
<path d="M1370 841 c0 -5 -10 -12 -22 -14 -20 -4 -19 -4 5 -6 18 -1 27 4 27
14 0 8 -2 15 -5 15 -3 0 -5 -4 -5 -9z"/>
<path d="M1753 839 c-14 -5 -14 -6 -2 -11 19 -7 67 1 75 13 5 9 -46 8 -73 -2z"/>
<path d="M2675 840 c-3 -5 -1 -10 4 -10 6 0 11 5 11 10 0 6 -2 10 -4 10 -3 0
-8 -4 -11 -10z"/>
<path d="M2750 840 c0 -5 5 -10 11 -10 5 0 7 5 4 10 -3 6 -8 10 -11 10 -2 0
-4 -4 -4 -10z"/>
<path d="M134 832 c3 -5 0 -13 -6 -15 -9 -4 -10 -6 -1 -6 17 -1 25 16 12 25
-7 4 -9 3 -5 -4z"/>
<path d="M500 830 c0 -5 5 -10 11 -10 5 0 7 5 4 10 -3 6 -8 10 -11 10 -2 0 -4
-4 -4 -10z"/>
<path d="M2177 833 c-4 -3 -7 -16 -6 -27 0 -19 1 -19 10 3 10 24 8 36 -4 24z"/>
<path d="M2630 830 c0 -5 4 -10 9 -10 6 0 13 5 16 10 3 6 -1 10 -9 10 -9 0
-16 -4 -16 -10z"/>
<path d="M437 819 c7 -7 15 -10 18 -7 3 3 -2 9 -12 12 -14 6 -15 5 -6 -5z"/>
<path d="M2566 818 c3 -5 10 -6 15 -3 13 9 11 12 -6 12 -8 0 -12 -4 -9 -9z"/>
<path d="M2125 804 c-18 -14 -18 -14 2 -14 23 0 39 15 26 23 -5 3 -17 -1 -28
-9z"/>
<path d="M2190 810 c0 -5 7 -10 16 -10 8 0 12 5 9 10 -3 6 -10 10 -16 10 -5 0
-9 -4 -9 -10z"/>
<path d="M2240 809 c0 -5 5 -7 10 -4 6 3 10 8 10 11 0 2 -4 4 -10 4 -5 0 -10
-5 -10 -11z"/>
<path d="M80 800 c0 -5 5 -10 11 -10 5 0 7 5 4 10 -3 6 -8 10 -11 10 -2 0 -4
-4 -4 -10z"/>
<path d="M650 797 c0 -7 9 -13 20 -14 11 -1 20 0 20 2 0 2 -9 9 -20 15 -15 8
-20 8 -20 -3z"/>
<path d="M2975 801 c-3 -6 -15 -8 -27 -6 -24 5 -63 -29 -53 -45 3 -6 20 -10
36 -10 28 0 29 1 15 16 -18 17 -21 28 -6 19 15 -9 60 6 60 21 0 16 -16 19 -25
5z"/>
<path d="M1572 749 c-2 -59 -20 -81 -47 -59 -6 5 -15 7 -19 3 -4 -4 -11 -2
-15 5 -4 7 -6 -35 -3 -93 3 -71 1 -105 -6 -105 -18 0 -21 13 -23 104 -1 47 -6
89 -12 93 -6 4 -7 -27 -2 -91 l7 -96 -45 0 c-25 0 -53 -3 -62 -7 -14 -5 -16
-2 -10 15 4 13 2 22 -4 22 -6 0 -11 -8 -11 -18 0 -10 -6 -24 -12 -31 -10 -11
-10 -14 0 -18 6 -3 12 -20 12 -39 0 -30 3 -34 25 -34 18 0 25 5 25 20 0 11 5
20 10 20 20 0 10 -42 -11 -47 -16 -4 -17 -8 -7 -14 22 -14 39 -10 36 9 -2 11
3 17 16 17 14 0 20 8 20 28 1 15 -3 28 -9 28 -5 1 -17 2 -25 3 -8 0 -25 -10
-37 -24 l-22 -25 -1 28 c0 19 5 27 18 28 9 0 26 3 37 5 36 9 210 5 276 -5 35
-6 86 -8 114 -5 l51 6 -4 -36 c-5 -43 -22 -48 -22 -6 0 17 -4 30 -10 30 -12 0
-13 -70 -1 -88 5 -9 23 -12 52 -10 l44 3 -27 14 c-22 11 -28 21 -28 48 0 22 5
33 14 33 8 0 21 3 30 6 13 5 16 -2 16 -39 0 -38 3 -45 18 -42 9 2 20 4 25 4 4
1 7 28 7 61 0 60 0 60 29 60 l29 0 0 -112 c-1 -62 -3 -101 -5 -85 -3 16 -9 25
-15 21 -7 -5 -9 0 -6 14 4 14 2 22 -7 22 -8 0 -11 -7 -8 -19 3 -13 -1 -21 -14
-24 -11 -2 -8 -4 7 -3 33 1 37 -27 10 -78 -32 -64 -14 -59 32 8 4 6 10 7 14 4
3 -4 -1 -14 -10 -23 -18 -18 -21 -35 -6 -35 5 0 16 14 25 30 9 17 18 30 20 30
2 0 2 -13 -1 -30 -4 -19 -2 -30 5 -30 6 0 11 6 11 14 0 14 29 31 38 21 3 -2 0
-11 -6 -18 -18 -22 -1 -29 21 -10 20 17 20 17 14 -1 -6 -15 -3 -17 13 -13 13
3 20 0 20 -10 0 -8 5 -11 11 -8 6 4 13 -2 16 -14 3 -12 10 -22 17 -22 6 -1 21
-3 32 -4 12 -1 26 -5 32 -9 6 -3 13 -3 16 2 6 10 346 10 361 0 6 -4 17 -3 25
3 20 12 53 12 45 -1 -4 -6 10 -9 37 -9 l43 2 -35 7 -35 7 33 3 c17 1 37 4 42
5 6 1 38 4 73 5 53 3 56 4 19 7 -23 2 -40 8 -37 14 4 5 -1 9 -11 9 -12 0 -15
6 -11 26 3 18 0 27 -12 31 -9 2 -41 16 -73 30 -41 19 -55 30 -51 42 4 14 3 14
-6 1 -9 -13 -16 -11 -58 8 -26 12 -39 16 -29 7 11 -8 23 -15 28 -15 4 0 8 -15
7 -32 0 -18 -3 -27 -6 -20 -2 6 -9 12 -15 12 -6 0 -6 -6 2 -15 7 -8 19 -15 26
-15 8 0 14 -8 14 -17 0 -15 2 -16 10 -3 6 9 10 10 10 3 0 -6 8 -13 18 -16 9
-2 0 -4 -20 -4 -21 -1 -36 3 -33 7 3 5 0 12 -6 16 -8 4 -9 3 -5 -4 4 -7 1 -12
-8 -12 -9 0 -16 -5 -16 -11 0 -8 -4 -9 -13 0 -8 6 -16 8 -20 5 -3 -3 -8 3 -11
14 -6 18 -36 39 -36 26 0 -13 50 -65 50 -52 1 9 5 7 14 -5 8 -10 16 -13 17 -8
2 6 33 10 69 10 100 0 120 -3 120 -16 0 -10 -37 -13 -149 -12 -82 1 -155 -2
-161 -6 -7 -4 -16 -1 -21 6 -6 10 -9 10 -9 2 0 -9 -29 -11 -112 -8 l-112 4
-65 45 c-69 47 -117 71 -138 67 -16 -2 -19 234 -3 244 6 3 10 11 10 16 0 6 -5
7 -11 3 -8 -5 -10 11 -7 55 3 48 1 61 -9 57 -7 -3 -13 -1 -13 5 0 6 -5 7 -12
3 -8 -5 -6 -11 5 -19 12 -9 17 -27 17 -63 l0 -50 -47 0 c-27 1 -55 6 -63 13
-22 18 -55 24 -73 13 -11 -6 -27 -4 -46 7 -18 9 -41 12 -60 9 -27 -6 -29 -9
-24 -35 5 -28 4 -29 -36 -29 l-41 0 0 101 c0 90 -2 100 -15 89 -9 -7 -18 -10
-22 -6 -3 3 -1 6 5 6 7 0 12 6 12 14 0 14 40 30 50 20 3 -3 8 -54 11 -112 l6
-107 1 83 c2 89 22 117 22 30 0 -44 2 -49 13 -35 7 9 31 18 57 20 l45 4 -47 1
c-46 2 -48 3 -48 32 0 18 -6 33 -15 36 -8 4 -15 12 -15 19 0 28 -31 46 -65 39
-33 -6 -34 -5 -38 33 -3 30 -4 26 -5 -18z m-54 -159 c3 -60 0 -90 -7 -90 -7 0
-11 32 -11 90 0 50 3 90 8 90 4 0 8 -41 10 -90z m44 -17 c3 -65 2 -73 -14 -73
-10 0 -18 5 -18 11 0 5 5 7 10 4 6 -4 10 26 11 82 2 97 6 87 11 -24z m48 12
c0 -69 -3 -85 -15 -85 -8 0 -15 8 -15 18 0 14 2 15 10 2 7 -10 10 8 10 60 0
52 -3 70 -10 60 -8 -12 -10 -11 -10 8 0 13 6 22 15 22 12 0 15 -16 15 -85z
m-23 13 c-3 -8 -6 -5 -6 6 -1 11 2 17 5 13 3 -3 4 -12 1 -19z m0 -40 c-3 -8
-6 -5 -6 6 -1 11 2 17 5 13 3 -3 4 -12 1 -19z m163 -8 c0 -5 -5 -10 -11 -10
-5 0 -7 5 -4 10 3 6 8 10 11 10 2 0 4 -4 4 -10z m110 -20 c0 -5 -8 -10 -17
-10 -15 0 -16 2 -3 10 19 12 20 12 20 0z m-70 -25 c0 -17 -4 -18 -49 -9 -44 9
-39 24 9 24 29 0 40 -4 40 -15z m40 -5 c0 -5 -4 -10 -9 -10 -6 0 -13 5 -16 10
-3 6 1 10 9 10 9 0 16 -4 16 -10z m70 0 c0 -5 -13 -10 -30 -10 -16 0 -30 5
-30 10 0 6 14 10 30 10 17 0 30 -4 30 -10z m30 -51 c0 -37 -4 -58 -10 -54 -5
3 -10 31 -10 61 0 30 5 54 10 54 6 0 10 -27 10 -61z m808 -220 c2 -31 1 -33
-12 -15 -9 10 -20 15 -27 10 -9 -5 -10 -2 -6 10 4 10 2 16 -6 15 -28 -3 -37 2
-37 26 l0 24 43 -18 c37 -15 42 -22 45 -52z m65 4 c9 -3 17 -14 17 -24 0 -16
-5 -18 -27 -13 -39 9 -43 13 -43 36 0 15 4 18 18 13 9 -4 25 -10 35 -12z m37
-69 c0 -2 -7 -4 -15 -4 -8 0 -15 4 -15 10 0 5 7 7 15 4 8 -4 15 -8 15 -10z"/>
<path d="M1265 781 c-3 -5 -2 -12 3 -15 5 -3 9 1 9 9 0 17 -3 19 -12 6z"/>
<path d="M130 771 c0 -5 9 -11 20 -14 24 -6 27 8 4 17 -21 8 -24 8 -24 -3z"/>
<path d="M735 770 c3 -5 11 -10 16 -10 6 0 7 5 4 10 -3 6 -11 10 -16 10 -6 0
-7 -4 -4 -10z"/>
<path d="M1230 770 c0 -5 5 -10 10 -10 6 0 10 5 10 10 0 6 -4 10 -10 10 -5 0
-10 -4 -10 -10z"/>
<path d="M2777 763 c-59 -5 -52 -23 9 -23 32 0 44 4 44 15 0 8 -1 14 -2 13 -2
-1 -24 -3 -51 -5z"/>
<path d="M2847 756 c-7 -18 27 -46 44 -35 11 6 10 12 -5 28 -22 24 -32 26 -39
7z"/>
<path d="M2980 759 c0 -5 5 -7 10 -4 6 3 10 8 10 11 0 2 -4 4 -10 4 -5 0 -10
-5 -10 -11z"/>
<path d="M520 750 c-12 -7 -10 -9 7 -7 12 0 19 5 17 9 -6 10 -6 10 -24 -2z"/>
<path d="M2490 750 c-12 -8 -10 -10 8 -10 13 0 20 4 17 10 -7 12 -6 12 -25 0z"/>
<path d="M2615 745 c-30 -13 -30 -13 18 -10 27 1 54 8 60 14 16 16 -40 14 -78
-4z"/>
<path d="M53 743 c-20 -8 -15 -23 7 -23 11 0 20 7 20 15 0 15 -6 17 -27 8z"/>
<path d="M747 732 c-38 -18 -32 -21 27 -12 27 4 59 5 70 2 15 -3 18 -1 11 6
-16 17 -77 19 -108 4z"/>
<path d="M1450 740 c-13 -9 -13 -10 0 -10 8 0 22 5 30 10 13 9 13 10 0 10 -8
0 -22 -5 -30 -10z"/>
<path d="M1778 743 c7 -3 16 -2 19 1 4 3 -2 6 -13 5 -11 0 -14 -3 -6 -6z"/>
<path d="M2394 738 c-3 -4 -3 -8 0 -8 2 0 11 -3 19 -6 8 -3 17 2 20 10 4 10 0
14 -14 13 -11 -1 -23 -5 -25 -9z"/>
<path d="M108 733 c7 -3 16 -2 19 1 4 3 -2 6 -13 5 -11 0 -14 -3 -6 -6z"/>
<path d="M608 733 c7 -3 16 -2 19 1 4 3 -2 6 -13 5 -11 0 -14 -3 -6 -6z"/>
<path d="M676 731 c-3 -5 1 -11 9 -15 8 -3 15 -1 15 4 0 13 -18 22 -24 11z"/>
<path d="M2008 729 c-6 -4 -6 -9 -1 -12 13 -8 293 -5 293 3 0 9 -5 9 -153 12
-71 2 -133 0 -139 -3z"/>
<path d="M2310 730 c0 -14 28 -19 33 -6 3 6 -4 13 -14 13 -10 1 -19 -2 -19 -7z"/>
<path d="M180 717 c32 -11 35 -15 37 -56 2 -25 6 -48 10 -53 5 -4 6 22 5 57
l-4 65 -41 -1 -42 0 35 -12z"/>
<path d="M878 723 c7 -3 16 -2 19 1 4 3 -2 6 -13 5 -11 0 -14 -3 -6 -6z"/>
<path d="M2970 715 c0 -13 -4 -14 -20 -5 -15 8 -27 7 -49 -5 -21 -10 -32 -12
-37 -4 -3 6 -17 8 -33 4 -52 -13 -66 -17 -79 -17 -7 -1 -11 -6 -9 -11 4 -13
35 -18 43 -6 3 5 15 9 28 9 12 0 27 5 33 11 7 7 13 7 17 1 3 -6 -3 -13 -14
-17 -25 -8 -26 -25 -2 -26 9 0 12 -3 5 -5 -7 -3 -9 -12 -6 -20 9 -23 20 -16
18 10 -4 32 18 65 30 46 6 -9 4 -11 -6 -5 -11 6 -11 5 -2 -5 6 -6 27 -12 47
-12 30 0 35 -3 26 -13 -6 -8 -19 -11 -28 -9 -16 5 -16 5 0 -8 11 -10 14 -19 7
-29 -14 -22 -11 -31 9 -25 13 4 18 0 19 -14 2 -22 -7 -26 -24 -9 -9 9 -16 7
-29 -5 -12 -13 -14 -20 -5 -29 8 -8 11 -7 11 6 0 9 5 17 10 17 6 0 10 -7 10
-15 0 -13 4 -14 20 -5 16 9 18 8 14 -5 -4 -8 -1 -15 4 -15 6 0 9 9 7 20 -2 11
0 22 6 25 5 4 9 12 9 18 0 8 -3 8 -9 -1 -6 -10 -10 -8 -14 8 -4 16 -2 20 9 16
8 -3 14 1 14 10 0 8 -4 13 -9 10 -4 -3 -17 1 -27 9 -18 14 -17 14 11 15 19 1
25 4 15 8 -20 9 -24 32 -5 32 8 0 15 4 15 9 0 6 -15 4 -32 -3 -37 -15 -58 -11
-58 10 0 12 8 13 35 8 29 -5 35 -3 35 10 0 11 5 14 12 10 7 -4 8 -3 4 4 -10
17 -26 15 -26 -3z m-5 -115 c3 -5 1 -10 -4 -10 -6 0 -11 5 -11 10 0 6 2 10 4
10 3 0 8 -4 11 -10z"/>
<path d="M10 711 c0 -12 41 -37 59 -36 15 0 25 35 10 35 -5 0 -9 -5 -9 -11 0
-7 -10 -5 -25 5 -28 18 -35 20 -35 7z"/>
<path d="M532 704 c-7 -8 -10 -19 -7 -24 11 -17 20 -11 21 15 1 14 1 25 0 25
0 -1 -7 -7 -14 -16z"/>
<path d="M2448 713 c7 -3 16 -2 19 1 4 3 -2 6 -13 5 -11 0 -14 -3 -6 -6z"/>
<path d="M252 659 l-2 -46 42 -6 c24 -3 44 -11 46 -17 3 -8 8 -8 18 1 8 6 22
9 33 6 10 -2 25 -1 32 4 9 6 -4 9 -35 9 -27 0 -66 5 -87 11 -34 11 -38 16 -42
48 -3 32 -4 31 -5 -10z"/>
<path d="M270 690 c0 -5 5 -10 11 -10 5 0 7 5 4 10 -3 6 -8 10 -11 10 -2 0 -4
-4 -4 -10z"/>
<path d="M445 690 c3 -5 8 -10 11 -10 2 0 4 5 4 10 0 6 -5 10 -11 10 -5 0 -7
-4 -4 -10z"/>
<path d="M1140 688 c0 -5 15 -8 33 -9 17 0 41 -4 52 -9 19 -9 19 -9 -3 -16
-17 -5 -20 -9 -11 -15 9 -5 -4 -16 -41 -32 -48 -21 -97 -43 -123 -55 -5 -2 -8
2 -6 9 4 34 -1 41 -26 35 -15 -4 -25 -2 -25 4 0 6 -4 9 -9 5 -5 -3 -12 -1 -16
5 -9 15 -25 12 -25 -4 0 -14 45 -30 70 -24 8 2 16 -5 18 -14 3 -14 -3 -18 -25
-18 -16 0 -35 6 -42 13 -8 7 -15 8 -17 2 -2 -6 -28 -8 -59 -7 l-55 4 0 -91 c0
-54 -4 -91 -10 -91 -5 0 -10 6 -10 13 0 8 -4 7 -10 -3 -7 -11 -10 -8 -10 16 0
20 6 34 16 38 11 4 13 10 6 19 -5 6 -8 23 -6 37 1 14 0 19 -2 13 -6 -14 -25
-18 -23 -5 1 4 -2 17 -6 30 -8 24 -6 23 -172 27 -46 1 -73 -3 -74 -9 0 -6 -5
-2 -10 9 -9 20 -9 20 -7 0 4 -31 -11 -48 -28 -34 -8 6 -14 18 -14 25 0 23 -36
16 -53 -10 -12 -18 -13 -26 -4 -36 10 -10 8 -10 -10 -1 -12 6 -40 11 -61 11
-37 0 -40 2 -38 25 2 13 -1 22 -6 19 -5 -3 -7 -13 -6 -22 2 -9 -5 -18 -15 -20
-26 -5 -49 17 -42 42 5 15 4 17 -3 7 -8 -11 -11 -9 -17 8 -4 14 -12 20 -21 17
-7 -3 -16 0 -20 6 -4 6 -3 8 4 4 6 -3 13 -2 16 3 3 5 -1 11 -9 15 -8 3 -17 1
-20 -3 -8 -14 25 -70 38 -65 7 2 13 -6 14 -23 1 -26 0 -27 -13 -9 -7 11 -17
16 -21 12 -4 -4 0 -12 10 -17 9 -6 17 -21 17 -34 0 -16 6 -25 16 -25 8 0 13 4
10 9 -3 5 2 8 12 7 11 0 16 5 14 15 -2 14 7 16 64 13 74 -5 90 -10 76 -27 -5
-7 -13 -28 -18 -47 -4 -19 -9 -38 -10 -42 -1 -5 -2 -19 -3 -33 0 -14 -5 -25
-10 -25 -17 0 -21 48 -7 75 13 24 13 31 -1 52 -19 28 -29 24 -14 -5 16 -30 13
-40 -4 -18 -8 11 -15 18 -16 15 -6 -25 -4 -59 3 -59 4 0 8 -16 8 -36 0 -28 -3
-35 -15 -30 -9 3 -19 -3 -25 -14 -6 -11 -8 -20 -4 -20 3 0 1 -7 -6 -15 -7 -8
-16 -13 -19 -10 -4 2 -8 -2 -8 -10 0 -11 4 -12 13 -4 7 6 19 7 25 3 8 -4 9 -3
5 4 -4 7 -2 20 3 29 6 10 11 14 11 8 0 -5 4 -4 8 2 4 7 24 14 43 15 20 2 36 8
36 15 0 7 -5 10 -11 7 -6 -3 -2 2 8 10 13 10 15 16 7 16 -11 0 -11 3 -1 15 9
10 9 15 1 15 -6 0 -11 5 -11 10 0 7 6 7 19 0 13 -7 22 -7 26 0 6 10 5 11 -15
14 -5 0 -9 6 -7 11 1 6 5 9 9 8 4 -2 5 3 2 10 -5 13 0 15 51 18 14 1 25 5 25
9 0 5 -13 6 -29 4 -17 -3 -32 0 -37 7 -4 8 -3 9 4 5 7 -4 12 -2 12 4 0 6 5 8
10 5 6 -3 10 -1 10 5 0 7 -8 9 -22 4 -19 -6 -21 -5 -11 8 10 11 10 17 1 26 -8
8 -9 12 -1 12 6 0 28 -17 49 -37 36 -36 37 -37 31 -12 -5 19 -3 29 8 33 12 4
14 0 9 -22 -4 -22 -3 -24 6 -10 6 10 10 25 8 34 -2 9 3 19 10 21 9 4 12 -20
12 -97 0 -65 -4 -99 -10 -95 -5 3 -10 -1 -10 -9 0 -8 5 -18 10 -21 7 -4 7 -13
0 -26 -7 -13 -7 -19 0 -19 5 0 10 6 10 13 1 6 7 -3 15 -21 8 -18 19 -31 25
-27 15 9 12 25 -5 25 -8 0 -15 5 -15 10 0 14 37 12 43 -2 3 -8 6 -7 6 4 1 9 6
20 13 24 8 5 9 2 5 -9 -5 -14 -2 -16 16 -12 12 3 42 7 67 9 39 3 46 7 55 32
l10 29 83 -3 c69 -2 82 0 82 13 0 13 -8 15 -40 12 -22 -2 -40 0 -40 4 0 5 5 9
11 9 8 0 8 5 -1 15 -13 16 -31 20 -29 8 4 -25 -3 -43 -16 -43 -12 0 -15 16
-15 85 l0 85 45 0 c25 0 45 -2 45 -5 0 -2 -9 -20 -20 -40 -11 -19 -17 -35 -13
-35 4 0 2 -5 -5 -12 -9 -9 -8 -16 5 -30 20 -22 29 -23 37 -2 3 8 2 12 -4 9 -6
-3 -10 -3 -11 2 0 4 -2 16 -4 25 -2 9 3 19 11 22 8 3 14 14 14 25 0 26 15 35
18 10 4 -42 6 -49 13 -49 12 0 17 36 7 54 -6 11 -5 16 5 16 12 0 16 -19 19
-82 2 -46 1 -96 -3 -113 -4 -16 -7 -25 -8 -20 -1 11 -41 16 -41 5 0 -3 -33 -5
-72 -5 -53 0 -72 -3 -70 -12 1 -7 -2 -13 -7 -13 -18 0 -64 -21 -58 -26 3 -3
25 3 49 13 51 23 127 23 179 1 27 -12 40 -13 48 -5 17 17 13 25 -11 21 -13 -2
-17 -2 -10 2 6 3 12 17 12 30 0 22 4 24 54 24 38 0 56 -4 59 -15 5 -12 -3 -13
-43 -9 -42 5 -50 3 -50 -11 0 -21 30 -32 41 -14 5 8 9 12 10 9 0 -3 2 -13 4
-23 3 -14 -1 -16 -16 -12 -11 4 -26 0 -35 -9 -14 -15 -13 -16 6 -16 14 0 19 4
14 12 -5 8 -2 9 9 5 20 -8 69 12 61 24 -3 5 8 6 24 3 19 -4 32 -1 41 10 7 9
17 13 22 10 5 -3 9 0 9 5 0 14 -37 14 -45 1 -3 -5 -14 -9 -23 -9 -15 1 -15 2
1 6 9 2 17 8 17 13 0 4 -9 6 -20 3 -15 -4 -20 0 -20 16 0 21 -8 25 -42 22 -10
-1 -18 3 -18 8 0 6 -11 11 -25 11 -24 0 -25 2 -25 70 l0 70 35 0 c33 0 35 -2
36 -32 1 -18 0 -40 -1 -48 -7 -35 -4 -53 8 -57 9 -4 12 14 12 67 0 53 3 71 13
67 8 -2 12 -26 11 -70 0 -37 3 -67 8 -67 4 0 8 32 8 70 0 40 -4 70 -10 70 -5
0 -10 8 -10 18 0 13 17 25 56 41 37 16 54 28 50 37 -3 9 4 16 20 20 15 4 24
12 22 21 -2 11 -20 15 -71 16 -37 1 -67 -1 -67 -5z m-20 -128 c0 -5 -12 -10
-27 -9 -25 0 -26 1 -8 9 27 12 35 12 35 0z m-419 -10 c27 0 49 -4 49 -9 0 -4
-12 -6 -27 -3 -16 2 -25 1 -21 -3 5 -5 0 -14 -10 -21 -11 -7 -17 -23 -16 -41
1 -15 -3 -34 -9 -40 -7 -9 -5 -13 6 -13 20 0 32 19 28 45 -2 16 -1 17 13 6 9
-7 13 -17 10 -22 -3 -5 0 -9 5 -9 15 0 14 6 -5 35 -11 17 -12 25 -5 25 7 0 10
4 7 9 -8 12 21 8 34 -5 5 -5 12 -36 15 -69 4 -44 3 -54 -4 -37 -6 12 -16 22
-23 22 -9 0 -9 -3 0 -12 20 -20 14 -24 -23 -20 -19 2 -35 8 -35 13 0 5 -12 9
-27 9 -22 0 -25 -2 -13 -10 13 -8 13 -11 0 -24 -8 -8 -28 -18 -44 -22 -25 -6
-28 -5 -23 10 4 10 7 58 7 108 l0 91 31 -7 c17 -3 53 -6 80 -6z m-454 -45 c0
-8 -6 -15 -14 -15 -17 0 -17 17 0 23 6 3 12 6 13 6 0 1 1 -6 1 -14z m524 -141
c9 -2 16 -11 16 -19 0 -19 -67 -21 -68 -2 0 6 -4 4 -8 -7 -6 -16 -9 -17 -22
-4 -8 8 -20 13 -27 10 -6 -2 -12 3 -12 11 0 11 13 15 53 15 28 0 59 -1 68 -4z
m-141 -28 c0 -17 -14 -29 -23 -20 -8 8 3 34 14 34 5 0 9 -6 9 -14z m350 -20
c0 -3 -4 -8 -10 -11 -5 -3 -10 -1 -10 4 0 6 5 11 10 11 6 0 10 -2 10 -4z m127
-18 c-3 -8 -6 -5 -6 6 -1 11 2 17 5 13 3 -3 4 -12 1 -19z"/>
<path d="M706 421 c-19 -7 -19 -8 2 -13 15 -4 22 -2 22 8 0 8 -1 14 -2 13 -2
0 -12 -4 -22 -8z"/>
<path d="M2513 673 c-15 -16 -23 -22 -19 -15 4 6 2 12 -4 12 -6 0 -15 -12 -21
-27 -8 -23 -6 -30 21 -58 17 -18 32 -42 33 -54 2 -26 17 -28 17 -1 0 10 -16
34 -35 53 -37 36 -45 53 -20 43 9 -3 18 1 21 9 3 7 12 11 20 8 10 -4 12 0 7
13 -5 14 -3 16 11 11 10 -4 20 -7 22 -7 2 0 4 -7 4 -15 0 -16 21 -26 75 -39
30 -7 30 -7 7 9 -12 9 -26 14 -31 11 -5 -4 -7 3 -4 14 5 18 -5 25 -29 21 -4 0
-12 8 -18 19 -14 27 -26 25 -57 -7z m92 -33 c3 -5 -1 -10 -9 -10 -9 0 -16 5
-16 10 0 6 4 10 9 10 6 0 13 -4 16 -10z"/>
<path d="M2684 683 c-10 -10 -21 -18 -26 -18 -4 0 -8 -3 -8 -7 0 -5 0 -15 0
-24 0 -13 7 -15 30 -10 23 4 30 2 30 -10 0 -9 -6 -14 -12 -12 -15 5 -43 -20
-34 -30 4 -3 10 -1 14 5 14 22 61 27 82 8 12 -11 20 -13 20 -7 0 7 5 12 11 12
5 0 8 -4 4 -9 -3 -5 -1 -12 5 -16 5 -3 10 1 10 10 0 8 -8 18 -17 21 -58 19
-71 27 -66 40 3 8 10 11 17 7 6 -4 5 1 -3 10 -14 18 -26 23 -17 8 7 -10 -19
-23 -28 -14 -9 9 -7 25 2 20 9 -6 33 19 25 27 -10 10 -21 7 -39 -11z"/>
<path d="M496 668 c-3 -13 -2 -26 3 -31 4 -4 8 6 9 23 1 36 -3 39 -12 8z"/>
<path d="M630 679 c0 -5 5 -7 10 -4 6 3 10 8 10 11 0 2 -4 4 -10 4 -5 0 -10
-5 -10 -11z"/>
<path d="M703 675 c0 -8 3 -12 7 -10 3 2 13 -5 20 -16 9 -12 26 -19 47 -19 22
0 37 -7 45 -20 8 -12 24 -20 40 -20 15 0 30 -5 33 -10 4 -6 11 -8 16 -4 5 3 6
10 3 16 -4 6 0 14 7 19 11 7 10 9 -3 9 -10 0 -18 -4 -18 -8 0 -11 -53 -9 -66
3 -6 5 -9 15 -7 22 3 7 -7 10 -32 8 -27 -3 -42 2 -62 21 -31 28 -30 28 -30 9z"/>
<path d="M4 660 c0 -11 6 -20 13 -20 7 0 13 -4 13 -10 0 -5 -7 -7 -16 -3 -11
4 -15 2 -13 -6 3 -7 8 -12 13 -11 5 1 13 -4 18 -12 7 -10 9 -10 7 2 -3 31 1
42 15 37 8 -3 17 1 20 10 5 11 2 14 -9 9 -9 -3 -26 1 -38 9 -21 13 -23 13 -23
-5z"/>
<path d="M115 670 c3 -5 -1 -10 -9 -10 -9 0 -16 -4 -16 -10 0 -5 5 -10 11 -10
5 0 7 -5 3 -12 -5 -7 -3 -8 5 -4 7 5 10 10 7 13 -6 7 14 28 34 36 9 3 3 6 -13
6 -16 1 -26 -3 -22 -9z"/>
<path d="M288 672 c-24 -5 -23 -22 1 -22 11 0 26 -3 35 -6 9 -3 16 -2 16 3 0
13 -33 29 -52 25z"/>
<path d="M346 665 c4 -8 8 -15 10 -15 2 0 4 7 4 15 0 8 -4 15 -10 15 -5 0 -7
-7 -4 -15z"/>
<path d="M426 663 c-4 -9 -3 -20 1 -24 4 -4 9 3 9 17 2 28 -1 31 -10 7z"/>
<path d="M999 659 c-16 -10 -15 -10 24 -13 16 -1 31 3 34 9 4 5 3 7 -2 3 -4
-4 -15 -3 -24 2 -10 5 -23 5 -32 -1z"/>
<path d="M2297 651 c-3 -12 -1 -21 3 -21 15 0 23 21 12 32 -6 6 -11 2 -15 -11z"/>
<path d="M124 610 c-16 -30 -30 -46 -34 -39 -6 8 -9 8 -15 0 -5 -9 -10 -9 -21
0 -12 10 -13 9 -8 -6 6 -15 3 -17 -19 -13 -35 7 -34 2 4 -18 17 -8 28 -11 25
-6 -4 6 -2 13 3 16 5 3 11 -4 14 -16 4 -12 9 -19 12 -16 4 3 2 16 -5 27 -7 14
-7 21 0 21 5 0 10 -6 10 -12 0 -9 3 -9 8 -3 4 6 17 10 30 9 12 -1 25 3 28 7 3
5 -2 9 -10 9 -8 0 -18 5 -22 12 -5 7 0 9 14 6 18 -5 19 -4 9 13 -10 16 -9 21
3 29 8 5 20 8 27 5 7 -2 15 1 19 7 4 7 3 8 -4 4 -7 -4 -12 -2 -12 3 0 28 -32
6 -56 -39z m1 -40 c3 -5 1 -10 -4 -10 -6 0 -11 5 -11 10 0 6 2 10 4 10 3 0 8
-4 11 -10z"/>
<path d="M2384 644 c3 -9 6 -18 6 -20 0 -2 8 -4 18 -3 10 0 12 3 5 6 -7 2 -13
11 -13 19 0 8 -5 14 -11 14 -6 0 -8 -7 -5 -16z"/>
<path d="M2410 650 c0 -5 5 -10 11 -10 5 0 7 5 4 10 -3 6 -8 10 -11 10 -2 0
-4 -4 -4 -10z"/>
<path d="M2791 653 c-13 -3 -31 -11 -38 -19 -12 -12 -10 -14 14 -14 22 0 25 2
13 10 -12 8 -11 10 7 10 12 0 25 5 28 10 3 6 5 9 3 9 -2 -1 -14 -4 -27 -6z"/>
<path d="M1104 635 c-16 -12 -16 -14 -3 -15 9 0 22 7 29 15 16 19 0 19 -26 0z"/>
<path d="M1160 635 c0 -8 4 -15 10 -15 5 0 7 7 4 15 -4 8 -8 15 -10 15 -2 0
-4 -7 -4 -15z"/>
<path d="M2140 638 c0 -14 21 -20 34 -9 7 6 16 8 19 4 13 -13 -27 -32 -46 -21
-13 7 -23 6 -30 -1 -18 -18 -31 -13 -16 6 13 15 12 15 -8 4 -31 -16 -29 -35 2
-29 16 4 25 0 28 -11 4 -14 5 -14 6 -1 1 12 10 15 37 12 23 -3 34 -1 30 6 -6
10 22 27 39 23 6 -1 4 3 -3 11 -13 13 -92 19 -92 6z"/>
<path d="M2270 627 c0 -14 6 -24 14 -24 11 0 12 5 6 17 -5 10 -6 20 -3 24 3 3
1 6 -5 6 -7 0 -12 -10 -12 -23z"/>
<path d="M2820 631 c0 -5 4 -21 10 -35 6 -16 6 -27 0 -31 -6 -4 -10 -11 -10
-16 0 -6 7 -4 15 4 10 11 13 25 9 46 -6 30 -24 54 -24 32z"/>
<path d="M2324 619 c-3 -5 4 -9 15 -9 12 0 20 -5 19 -11 -2 -6 3 -14 9 -16 10
-3 11 1 5 18 -9 23 -38 34 -48 18z"/>
<path d="M1810 609 c0 -5 5 -7 10 -4 6 3 10 8 10 11 0 2 -4 4 -10 4 -5 0 -10
-5 -10 -11z"/>
<path d="M2517 609 c7 -7 15 -10 18 -7 3 3 -2 9 -12 12 -14 6 -15 5 -6 -5z"/>
<path d="M2890 610 c0 -5 5 -10 10 -10 6 0 10 5 10 10 0 6 -4 10 -10 10 -5 0
-10 -4 -10 -10z"/>
<path d="M534 599 c3 -15 36 -21 36 -7 0 6 -6 8 -14 5 -8 -3 -17 -2 -20 4 -2
5 -3 4 -2 -2z"/>
<path d="M590 595 c-11 -13 -10 -14 4 -9 9 3 16 10 16 15 0 13 -6 11 -20 -6z"/>
<path d="M646 602 c-3 -3 -6 -10 -6 -16 0 -6 5 -4 10 4 5 8 10 10 10 4 0 -7 9
-14 19 -17 13 -3 18 -1 15 8 -6 14 -39 26 -48 17z"/>
<path d="M2397 590 c-3 -11 -1 -20 4 -20 5 0 9 9 9 20 0 11 -2 20 -4 20 -2 0
-6 -9 -9 -20z"/>
<path d="M2577 604 c-3 -4 0 -19 9 -35 12 -25 17 -27 39 -19 16 6 25 6 25 0 0
-6 -5 -10 -12 -10 -9 0 -9 -3 0 -12 8 -8 15 -8 26 1 9 7 16 8 20 2 9 -14 -26
-22 -70 -15 -21 3 -35 2 -31 -3 8 -8 12 -9 40 -12 9 -1 9 -3 -2 -10 -8 -5 -9
-11 -3 -15 5 -3 12 0 15 8 3 7 26 19 51 27 38 11 45 17 40 32 -5 15 -2 18 13
13 13 -4 20 -2 20 8 0 21 -24 28 -47 14 -14 -9 -16 -16 -9 -30 6 -12 6 -18 -1
-18 -5 0 -10 5 -10 11 0 6 -6 9 -14 6 -9 -4 -16 3 -20 19 -4 13 -11 24 -17 24
-6 0 -9 -7 -5 -15 3 -9 0 -15 -8 -15 -17 0 -48 35 -39 43 3 4 4 7 1 7 -2 0 -7
-3 -11 -6z"/>
<path d="M730 589 c0 -14 34 -19 42 -7 6 10 8 8 8 -4 0 -10 7 -18 15 -18 18 0
20 29 3 31 -44 5 -68 4 -68 -2z"/>
<path d="M2215 575 c1 -17 -3 -25 -13 -25 -22 0 -10 -9 19 -14 13 -2 30 2 38
8 7 6 21 11 30 11 8 0 17 9 19 20 2 17 1 18 -10 5 -7 -8 -20 -16 -28 -18 -8
-2 -16 -8 -18 -12 -6 -17 -29 14 -24 32 2 10 0 18 -6 18 -6 0 -9 -11 -7 -25z"/>
<path d="M2420 580 c0 -11 2 -20 4 -20 2 0 11 -3 20 -6 9 -3 16 -1 16 5 0 6
-7 11 -16 11 -8 0 -12 5 -8 11 10 16 36 -14 29 -34 -4 -9 -13 -14 -23 -10 -15
4 -15 3 -2 -6 19 -14 47 -14 55 -1 4 6 1 9 -7 8 -8 -2 -12 4 -10 15 4 24 -15
47 -39 47 -12 0 -19 -7 -19 -20z"/>
<path d="M2540 585 c-11 -14 -7 -19 12 -16 4 0 5 -6 2 -14 -5 -11 -2 -13 10
-9 13 5 13 10 4 27 -6 12 -12 23 -13 25 -1 1 -8 -4 -15 -13z"/>
<path d="M262 569 c-7 -12 -11 -24 -8 -27 3 -3 6 0 6 7 0 7 5 9 10 6 6 -3 10
3 10 14 0 26 -2 26 -18 0z"/>
<path d="M1843 583 c9 -2 23 -2 30 0 6 3 -1 5 -18 5 -16 0 -22 -2 -12 -5z"/>
<path d="M1911 574 c0 -11 3 -14 6 -6 3 7 2 16 -1 19 -3 4 -6 -2 -5 -13z"/>
<path d="M1163 560 c2 -22 7 -25 45 -28 l42 -3 0 -70 c0 -55 -3 -71 -16 -76
-9 -3 -20 0 -25 8 -8 12 -10 12 -19 -1 -12 -19 1 -24 46 -16 l34 7 0 79 0 80
-37 0 c-42 0 -57 7 -66 30 -4 9 -6 4 -4 -10z"/>
<path d="M2070 570 c-10 -6 -11 -10 -2 -10 6 0 12 -4 12 -10 0 -5 -7 -10 -15
-10 -8 0 -15 -7 -15 -16 0 -14 3 -14 15 -4 13 11 15 3 17 -61 2 -72 2 -73 5
-15 l4 59 82 -6 c45 -4 106 -7 135 -7 l52 0 0 -55 c0 -42 3 -55 15 -55 8 0 15
-4 15 -10 0 -5 5 -10 11 -10 5 0 7 5 4 10 -4 6 35 10 111 10 104 0 115 -2 104
-15 -12 -14 2 -15 131 -10 79 3 153 8 163 12 17 5 18 1 14 -40 -3 -25 -2 -50
2 -57 10 -16 67 -19 67 -3 0 6 -4 10 -9 7 -4 -3 -8 0 -8 6 0 6 -8 10 -17 8
-10 -2 -19 4 -21 15 -3 15 17 23 49 19 4 -1 5 8 2 18 -3 11 -9 20 -14 20 -5 0
-7 -6 -5 -12 1 -7 1 -10 -1 -5 -3 4 -8 5 -12 2 -5 -2 -7 6 -6 20 2 13 -3 29
-11 36 -13 10 -13 8 -4 -16 10 -25 9 -27 -5 -15 -10 8 -15 23 -12 37 2 12 0
20 -4 17 -5 -3 -9 -11 -9 -18 0 -8 -6 -19 -14 -25 -11 -10 -17 -8 -25 6 -10
17 -10 17 -11 -2 -1 -12 -4 -15 -7 -7 -4 10 -8 10 -19 1 -11 -9 -14 -7 -15 12
0 22 -1 23 -9 4 -6 -14 -9 -15 -10 -5 0 11 -4 10 -16 -5 -16 -20 -16 -20 -14
0 4 41 -2 149 -7 135 -3 -8 -11 -18 -17 -22 -8 -5 -8 -8 0 -8 6 0 11 -24 12
-57 2 -42 0 -54 -8 -43 -8 13 -11 13 -19 1 -5 -7 -15 -11 -22 -9 -8 3 -22 1
-31 -3 -11 -6 -21 -4 -30 4 -7 7 -23 12 -35 11 -13 -1 -23 3 -23 7 0 5 -3 8
-7 8 -19 -3 -33 2 -33 12 0 6 9 8 20 4 11 -3 20 -2 20 3 0 16 -38 21 -44 5 -3
-8 -11 -11 -17 -7 -8 4 -7 9 2 15 11 7 10 9 -3 9 -25 0 -23 -27 2 -35 24 -8
27 -25 4 -25 -8 0 -12 5 -9 10 8 13 -1 13 -24 -2 -15 -9 -25 -9 -43 1 -89 48
-87 45 -72 59 8 7 12 17 9 22 -3 4 2 10 10 14 8 3 17 1 20 -3 3 -5 20 -18 39
-29 32 -19 34 -19 39 -2 3 13 -1 18 -20 18 -13 0 -36 11 -51 25 -25 24 -29 25
-38 10 -12 -20 -70 -10 -57 10 5 9 3 9 -8 2 -17 -12 -145 -12 -156 0 -5 4 -1
4 7 -1 8 -4 4 5 -10 22 -17 21 -26 26 -28 17 -2 -8 1 -20 8 -27 8 -11 6 -14
-15 -12 -19 1 -23 5 -19 19 4 12 0 17 -16 17 -12 0 -18 5 -15 10 8 12 4 12
-15 0z m340 -160 c12 -8 11 -10 -7 -10 -13 0 -23 5 -23 10 0 13 11 13 30 0z"/>
<path d="M2860 565 c0 -8 -5 -15 -12 -15 -6 0 -9 -3 -6 -6 7 -7 48 18 48 28 0
5 -7 8 -15 8 -8 0 -15 -7 -15 -15z"/>
<path d="M1940 555 c13 -16 30 -11 30 8 0 7 -4 6 -10 -3 -6 -10 -10 -11 -10
-2 0 6 -5 12 -11 12 -8 0 -8 -5 1 -15z"/>
<path d="M2315 561 c-3 -5 -1 -12 4 -15 5 -3 11 1 15 9 6 16 -9 21 -19 6z"/>
<path d="M2780 545 c0 -9 6 -12 15 -9 8 4 15 7 15 9 0 2 -7 5 -15 9 -9 3 -15
0 -15 -9z"/>
<path d="M2362 545 c4 -5 3 -14 -3 -21 -8 -10 -6 -13 9 -11 22 1 23 28 1 35
-8 3 -11 1 -7 -3z"/>
<path d="M113 533 c-19 -7 -16 -19 6 -19 11 0 17 5 14 13 -3 7 -6 13 -7 12 0
0 -7 -3 -13 -6z"/>
<path d="M154 521 c10 -11 13 -20 7 -22 -6 -2 -3 -9 8 -16 15 -9 19 -9 17 0
-3 19 -30 57 -40 57 -5 0 -1 -9 8 -19z"/>
<path d="M1042 515 c-11 -13 -9 -15 12 -13 19 2 22 5 14 15 -12 15 -10 16 -26
-2z"/>
<path d="M2555 521 c-3 -5 -2 -12 3 -15 5 -3 9 1 9 9 0 17 -3 19 -12 6z"/>
<path d="M2500 512 c0 -7 10 -23 21 -35 19 -19 20 -20 11 -2 -22 39 -32 51
-32 37z"/>
<path d="M2034 450 c1 -36 4 -63 7 -60 8 6 49 -29 49 -41 0 -4 -10 -10 -22
-12 -13 -2 -7 -3 12 -1 19 2 56 4 81 4 54 0 60 8 65 88 3 57 -6 67 -24 26 -7
-14 -8 -23 -3 -20 11 7 20 -49 11 -65 -4 -6 -25 -13 -48 -16 -33 -4 -46 -1
-76 22 -20 15 -37 23 -38 19 -1 -5 -5 20 -8 56 l-7 65 1 -65z"/>
<path d="M2795 500 c3 -5 11 -10 16 -10 6 0 7 5 4 10 -3 6 -11 10 -16 10 -6 0
-7 -4 -4 -10z"/>
<path d="M28 481 c4 -10 1 -13 -11 -8 -9 3 -17 2 -17 -3 0 -6 9 -10 20 -10 11
0 20 5 20 10 0 6 10 0 21 -11 20 -20 22 -20 31 -5 12 22 0 36 -13 16 -7 -12
-10 -11 -15 7 -4 13 -13 21 -24 20 -11 -1 -16 -6 -12 -16z"/>
<path d="M100 485 c13 -15 7 -79 -10 -105 -7 -10 -8 -5 -4 18 4 21 3 32 -5 32
-7 0 -9 -4 -6 -10 3 -5 3 -10 -2 -11 -4 0 -18 -2 -31 -3 -13 -2 -27 4 -32 13
-5 9 -10 11 -10 5 0 -15 25 -36 33 -27 4 3 7 2 7 -4 0 -6 -6 -16 -14 -22 -11
-9 -15 -9 -19 1 -4 9 -6 9 -6 1 -2 -22 21 -25 35 -4 15 21 41 31 29 11 -3 -6
0 -13 9 -16 8 -3 13 -11 10 -19 -7 -17 24 -27 44 -14 15 9 15 10 -1 5 -26 -8
-41 2 -27 19 6 7 10 17 9 21 -5 29 3 52 21 57 24 6 26 26 4 53 -8 10 -13 13
-9 7 3 -7 1 -13 -4 -13 -6 0 -11 5 -11 10 0 6 -5 10 -11 10 -8 0 -8 -4 1 -15z
m36 -42 c-10 -10 -19 5 -10 18 6 11 8 11 12 0 2 -7 1 -15 -2 -18z"/>
<path d="M2540 491 c0 -5 14 -19 30 -31 17 -12 30 -28 30 -36 0 -8 5 -12 10
-9 6 3 10 15 10 26 0 11 -4 18 -9 15 -5 -3 -21 6 -35 19 -29 27 -36 30 -36 16z"/>
<path d="M2909 498 c-8 -30 -5 -55 7 -55 8 0 12 3 9 5 -3 3 0 11 6 19 9 10 7
13 -7 14 -18 0 -18 1 1 9 17 7 17 9 3 9 -10 1 -18 0 -19 -1z"/>
<path d="M297 474 c2 -7 -4 -18 -15 -25 -16 -10 -18 -18 -11 -36 5 -13 5 -23
1 -23 -4 0 1 -7 11 -14 11 -9 14 -17 8 -21 -6 -3 -22 5 -36 19 -14 15 -28 26
-30 26 -2 0 -2 -15 -1 -32 2 -18 4 -41 5 -51 0 -10 6 -15 11 -12 6 4 8 10 5
15 -7 11 5 41 15 35 12 -7 -1 -56 -16 -62 -8 -3 -14 -12 -14 -21 0 -11 6 -8
20 9 11 13 24 29 29 35 5 7 7 15 4 18 -4 3 1 6 10 6 20 0 21 18 3 43 -15 20
-10 61 10 78 18 15 18 26 0 26 -8 0 -12 -6 -9 -13z m-47 -108 c0 -3 -4 -8 -10
-11 -5 -3 -10 -1 -10 4 0 6 5 11 10 11 6 0 10 -2 10 -4z"/>
<path d="M1057 483 c-3 -5 1 -14 9 -21 12 -11 14 -9 14 8 0 20 -14 27 -23 13z"/>
<path d="M2841 474 c0 -11 3 -14 6 -6 3 7 2 16 -1 19 -3 4 -6 -2 -5 -13z"/>
<path d="M2963 483 c20 -5 21 -16 7 -44 -8 -14 -7 -19 3 -19 8 0 14 14 15 35
2 31 0 35 -20 34 -17 -1 -18 -2 -5 -6z"/>
<path d="M2790 476 c0 -2 7 -6 15 -10 8 -3 15 -1 15 4 0 6 -7 10 -15 10 -8 0
-15 -2 -15 -4z"/>
<path d="M252 458 c-19 -19 -14 -29 8 -16 20 13 27 28 12 28 -4 0 -13 -5 -20
-12z"/>
<path d="M517 457 c12 -19 14 -95 3 -102 -6 -3 -22 3 -36 14 -15 12 -32 21
-38 21 -6 -1 -1 -6 11 -13 12 -7 22 -16 22 -20 0 -5 9 -17 21 -27 l21 -18 -21
-7 c-11 -3 -18 -11 -15 -16 5 -8 -16 -14 -37 -10 -5 0 -8 -4 -8 -10 0 -11 16
-9 53 6 10 4 17 3 17 -4 0 -6 -6 -11 -14 -11 -8 0 -18 -4 -21 -10 -4 -7 2 -7
19 0 20 7 27 6 35 -8 8 -13 10 -8 11 25 0 51 -8 75 -24 67 -6 -3 -3 1 8 10 13
11 17 24 14 50 -2 20 -1 36 3 36 17 0 4 36 -13 37 -12 1 -16 -2 -11 -10z"/>
<path d="M2400 460 c0 -5 4 -10 10 -10 5 0 21 -12 35 -26 26 -25 45 -28 53 -6
2 6 -8 14 -22 18 -14 3 -30 12 -37 20 -13 16 -39 19 -39 4z"/>
<path d="M2950 454 c0 -8 5 -12 10 -9 6 4 8 11 5 16 -9 14 -15 11 -15 -7z"/>
<path d="M970 449 c0 -5 -4 -7 -10 -4 -12 7 -12 -2 0 -30 9 -20 9 -20 9 1 1
11 6 25 13 32 9 9 9 12 0 12 -7 0 -12 -5 -12 -11z"/>
<path d="M1450 429 c0 -28 2 -30 16 -18 12 9 17 10 23 1 6 -10 80 -11 156 -2
30 4 50 -8 47 -29 -3 -19 1 -21 47 -21 28 0 51 5 51 10 0 6 -7 10 -15 10 -9 0
-12 6 -8 16 5 14 1 16 -25 12 -30 -4 -32 -2 -33 26 -1 30 -1 30 -9 6 -8 -24
-8 -24 -9 -3 -1 17 -5 21 -18 16 -10 -4 -21 -11 -25 -17 -5 -7 -8 -5 -8 4 0
12 -14 15 -65 15 -58 0 -65 -2 -66 -20 -1 -17 -2 -16 -9 5 -7 21 -8 22 -9 5
-2 -19 -2 -19 -15 -2 -19 25 -26 21 -26 -14z m180 7 c0 -3 -4 -8 -10 -11 -5
-3 -10 -1 -10 4 0 6 5 11 10 11 6 0 10 -2 10 -4z"/>
<path d="M1771 444 c0 -11 3 -14 6 -6 3 7 2 16 -1 19 -3 4 -6 -2 -5 -13z"/>
<path d="M17 433 c6 -17 23 -17 23 0 0 8 4 7 11 -3 8 -12 10 -12 7 -1 -2 8
-14 15 -25 16 -14 1 -19 -3 -16 -12z"/>
<path d="M214 435 c3 -21 16 -31 16 -12 0 9 -4 18 -9 21 -5 4 -8 -1 -7 -9z"/>
<path d="M446 442 c-3 -5 1 -9 9 -9 8 0 15 4 15 9 0 4 -4 8 -9 8 -6 0 -12 -4
-15 -8z"/>
<path d="M490 441 c0 -6 5 -13 10 -16 6 -3 10 1 10 9 0 9 -4 16 -10 16 -5 0
-10 -4 -10 -9z"/>
<path d="M2686 434 c-4 -10 -12 -14 -22 -10 -14 6 -15 4 -4 -9 10 -12 15 -13
20 -4 4 6 13 15 20 19 8 5 8 10 2 14 -5 3 -13 -1 -16 -10z"/>
<path d="M2842 425 c0 -16 2 -22 5 -12 2 9 2 23 0 30 -3 6 -5 -1 -5 -18z"/>
<path d="M155 429 c-4 -6 -5 -12 -2 -15 2 -3 7 2 10 11 7 17 1 20 -8 4z"/>
<path d="M2720 436 c0 -2 7 -7 16 -10 8 -3 12 -2 9 4 -6 10 -25 14 -25 6z"/>
<path d="M800 420 c0 -5 5 -10 11 -10 5 0 7 5 4 10 -3 6 -8 10 -11 10 -2 0 -4
-4 -4 -10z"/>
<path d="M2890 421 c0 -7 -5 -9 -12 -5 -7 5 -8 3 -3 -5 5 -9 10 -10 18 -2 6 6
8 14 4 18 -4 3 -7 1 -7 -6z"/>
<path d="M240 411 c0 -5 5 -13 10 -16 6 -3 10 -2 10 4 0 5 -4 13 -10 16 -5 3
-10 2 -10 -4z"/>
<path d="M450 408 c0 -4 6 -8 14 -8 8 0 17 4 20 8 2 4 -4 8 -15 8 -10 0 -19
-4 -19 -8z"/>
<path d="M2151 401 c-10 -18 -6 -31 10 -31 5 0 13 9 18 19 8 14 7 20 -4 25 -8
3 -19 -3 -24 -13z"/>
<path d="M980 381 c0 -17 2 -31 4 -31 8 0 13 51 5 56 -5 3 -9 -9 -9 -25z"/>
<path d="M1981 394 c0 -11 3 -14 6 -6 3 7 2 16 -1 19 -3 4 -6 -2 -5 -13z"/>
<path d="M2975 399 c-9 -14 -2 -20 14 -10 8 6 9 11 3 15 -6 3 -14 1 -17 -5z"/>
<path d="M158 389 c10 -14 10 -18 -3 -23 -16 -6 -12 -26 5 -26 17 0 20 34 3
49 -15 15 -16 15 -5 0z"/>
<path d="M504 385 c4 -24 16 -30 16 -7 0 12 -4 22 -9 22 -5 0 -8 -7 -7 -15z"/>
<path d="M1291 373 c0 -10 3 -13 5 -7 3 7 14 10 24 7 11 -3 20 0 20 6 0 6 -11
11 -25 11 -17 0 -25 -5 -24 -17z"/>
<path d="M1420 375 c0 -9 6 -12 15 -9 8 4 15 10 15 15 0 5 -7 9 -15 9 -8 0
-15 -7 -15 -15z"/>
<path d="M1471 374 c0 -11 3 -14 6 -6 3 7 2 16 -1 19 -3 4 -6 -2 -5 -13z"/>
<path d="M1496 374 c-4 -10 -1 -14 6 -12 15 5 23 28 10 28 -5 0 -13 -7 -16
-16z"/>
<path d="M1540 375 c0 -8 7 -15 15 -15 8 0 15 7 15 15 0 8 -7 15 -15 15 -8 0
-15 -7 -15 -15z"/>
<path d="M1150 370 c0 -5 5 -10 10 -10 6 0 10 5 10 10 0 6 -4 10 -10 10 -5 0
-10 -4 -10 -10z"/>
<path d="M1595 370 c-3 -5 1 -10 9 -10 8 0 18 5 21 10 3 6 -1 10 -9 10 -8 0
-18 -4 -21 -10z"/>
<path d="M1645 370 c-3 -5 3 -10 14 -10 12 0 21 5 21 10 0 6 -6 10 -14 10 -8
0 -18 -4 -21 -10z"/>
<path d="M1920 370 c-12 -8 -11 -10 8 -10 12 0 22 5 22 10 0 13 -11 13 -30 0z"/>
<path d="M430 357 c0 -8 8 -18 17 -21 11 -5 14 -9 6 -14 -8 -5 -7 -10 2 -19
25 -23 24 11 -1 40 -15 18 -24 23 -24 14z"/>
<path d="M2234 354 c-10 -8 -13 -13 -7 -9 7 3 32 10 55 14 l43 9 -36 1 c-19 1
-44 -6 -55 -15z"/>
<path d="M2338 363 c7 -3 16 -2 19 1 4 3 -2 6 -13 5 -11 0 -14 -3 -6 -6z"/>
<path d="M2420 366 c0 -2 7 -7 16 -10 8 -3 12 -2 9 4 -6 10 -25 14 -25 6z"/>
<path d="M2465 360 c-3 -5 1 -10 9 -10 9 0 16 5 16 10 0 6 -4 10 -9 10 -6 0
-13 -4 -16 -10z"/>
<path d="M2500 361 c0 -5 16 -9 35 -9 19 0 33 3 31 7 -7 10 -66 12 -66 2z"/>
<path d="M2580 360 c0 -5 5 -10 10 -10 6 0 10 5 10 10 0 6 -4 10 -10 10 -5 0
-10 -4 -10 -10z"/>
<path d="M44 349 c-13 -22 -13 -56 0 -56 8 0 11 8 8 20 -3 14 -1 18 6 13 14
-8 15 3 3 23 -7 11 -10 11 -17 0z"/>
<path d="M195 352 c-14 -10 -15 -41 -1 -36 7 3 12 13 13 24 2 22 2 23 -12 12z"/>
<path d="M1260 343 c0 -13 5 -23 10 -23 13 0 13 11 0 30 -8 12 -10 11 -10 -7z"/>
<path d="M1320 331 c0 -6 4 -12 8 -15 5 -3 9 1 9 9 0 8 -4 15 -9 15 -4 0 -8
-4 -8 -9z"/>
<path d="M2460 315 c0 -14 5 -25 11 -25 6 0 9 9 6 20 -6 24 5 26 23 5 10 -12
10 -18 -1 -32 -11 -13 -11 -17 -1 -20 6 -3 12 -13 12 -23 0 -10 4 -21 8 -24 4
-2 6 10 4 28 -3 28 -1 33 16 31 11 -1 28 -8 38 -16 11 -9 15 -9 10 -1 -4 6 -2
12 3 12 6 0 11 8 11 19 0 16 -5 17 -40 11 -22 -4 -37 -4 -35 1 6 9 -34 39 -52
39 -7 0 -13 -11 -13 -25z"/>
<path d="M2560 330 c0 -5 5 -10 10 -10 6 0 10 5 10 10 0 6 -4 10 -10 10 -5 0
-10 -4 -10 -10z"/>
<path d="M5 320 c-3 -5 -1 -10 4 -10 6 0 11 5 11 10 0 6 -2 10 -4 10 -3 0 -8
-4 -11 -10z"/>
<path d="M1520 314 c0 -8 5 -12 10 -9 6 4 8 11 5 16 -9 14 -15 11 -15 -7z"/>
<path d="M2243 285 c0 -27 2 -38 4 -22 2 15 2 37 0 50 -2 12 -4 0 -4 -28z"/>
<path d="M76 312 c-3 -6 -1 -14 5 -17 15 -10 25 3 12 16 -7 7 -13 7 -17 1z"/>
<path d="M406 304 c-3 -8 -11 -12 -17 -8 -8 4 -9 3 -5 -4 12 -19 36 -14 36 8
0 24 -6 26 -14 4z"/>
<path d="M1192 301 c-23 -9 -41 -19 -38 -21 2 -3 -7 -6 -20 -6 -28 -2 -41 -11
-31 -21 9 -9 89 16 83 26 -3 4 26 7 63 7 l69 -1 -34 -32 c-18 -18 -40 -33 -49
-33 -8 0 -15 -5 -15 -11 0 -6 -7 -8 -16 -5 -8 3 -12 2 -9 -4 3 -6 -3 -10 -14
-10 -12 0 -21 -4 -21 -10 0 -18 45 -11 60 10 8 10 27 22 42 25 17 4 25 11 22
17 -4 6 -2 8 4 4 6 -3 21 4 34 17 13 13 31 26 39 29 25 9 5 17 -51 19 -30 2
-59 6 -65 10 -5 4 -29 -1 -53 -10z"/>
<path d="M1558 299 c-9 -5 -48 -8 -86 -5 l-70 4 -52 -49 c-28 -28 -64 -52 -80
-56 -34 -6 -30 -23 4 -23 25 0 50 22 39 34 -4 4 1 4 11 0 13 -5 17 -4 13 3 -4
6 4 13 17 17 13 3 31 17 40 31 9 14 23 25 31 25 17 0 16 -38 -3 -45 -7 -3 -10
-9 -7 -15 3 -5 0 -7 -8 -4 -8 3 -18 1 -22 -5 -12 -20 34 -11 54 10 12 13 24
18 33 13 10 -6 10 -5 -1 9 -11 14 -10 18 14 29 21 9 28 9 34 -1 7 -10 14 -10
39 3 41 21 52 20 24 -4 -14 -11 -18 -21 -12 -25 6 -4 19 3 29 14 10 12 26 21
35 21 9 0 16 7 16 15 0 18 -5 18 -30 5 -13 -7 -21 -7 -25 0 -8 12 -15 12 -37
-1z"/>
<path d="M1670 292 c-8 -9 -14 -23 -12 -30 2 -10 -3 -12 -16 -8 -12 4 -26 0
-35 -9 -9 -8 -20 -15 -26 -15 -6 0 -16 -9 -23 -20 -7 -11 -18 -20 -25 -20 -7
0 -13 -4 -13 -10 0 -5 9 -10 20 -10 11 0 20 7 20 15 0 8 5 15 11 15 5 0 7 5 4
10 -3 6 1 10 9 10 8 0 21 6 28 13 16 14 50 16 60 2 7 -10 8 -8 12 28 0 6 11
13 22 15 17 2 22 -2 22 -23 0 -14 -4 -28 -8 -30 -5 -3 -7 6 -5 20 1 14 -2 25
-6 25 -9 0 -13 -21 -10 -52 3 -20 -15 -24 -22 -5 -2 6 -4 0 -3 -15 0 -16 3
-28 4 -28 11 0 66 67 64 78 -2 6 2 12 8 12 5 0 10 -5 10 -11 0 -6 9 -8 23 -4
13 5 6 -5 -20 -24 -24 -17 -43 -36 -43 -41 0 -16 10 -12 42 20 16 17 38 30 49
30 10 0 19 5 19 10 0 6 -4 10 -10 10 -6 0 -5 10 2 25 6 14 8 28 5 31 -9 10
-37 -16 -37 -33 0 -8 -4 -11 -10 -8 -5 3 -10 15 -10 26 0 22 -3 23 -31 7 -17
-10 -23 -10 -26 0 -6 17 -25 15 -43 -6z"/>
<path d="M2870 240 c0 -56 3 -70 15 -70 13 0 14 4 5 20 -8 15 -8 20 1 20 6 0
9 7 5 15 -3 9 0 15 9 15 8 0 15 5 15 10 0 6 -6 10 -12 10 -10 0 -10 2 0 9 11
6 10 11 -3 25 -28 28 -35 18 -35 -54z"/>
<path d="M334 291 c4 -5 0 -12 -6 -14 -8 -3 -6 -6 5 -6 9 -1 17 6 17 14 0 8
-5 15 -11 15 -5 0 -8 -4 -5 -9z"/>
<path d="M860 283 c0 -11 -4 -11 -20 -3 -16 9 -18 8 -14 -5 7 -17 30 -20 39
-5 3 5 12 7 19 4 8 -3 17 -1 20 4 3 5 -5 12 -19 14 -17 4 -25 1 -25 -9z"/>
<path d="M1858 286 c-19 -14 -26 -72 -8 -61 6 4 8 16 4 28 -3 12 -3 19 1 15 9
-9 35 9 35 23 0 13 -12 11 -32 -5z"/>
<path d="M1920 290 c0 -5 -6 -10 -13 -10 -14 0 -31 -27 -42 -68 -4 -12 -11
-20 -16 -17 -5 4 -9 1 -9 -4 0 -6 7 -11 15 -11 8 0 15 8 15 17 0 13 3 14 12 5
8 -8 14 -5 25 15 7 14 13 30 12 37 0 6 -4 1 -9 -11 -5 -13 -14 -23 -20 -23
-14 0 -13 7 7 30 24 28 47 27 38 -2 -16 -52 -18 -71 -7 -64 6 4 9 13 6 21 -3
7 3 21 14 31 17 14 18 21 10 40 -11 24 -38 33 -38 14z"/>
<path d="M121 274 c0 -11 3 -14 6 -6 3 7 2 16 -1 19 -3 4 -6 -2 -5 -13z"/>
<path d="M158 276 c-23 -17 -23 -26 0 -26 10 0 28 -7 41 -16 22 -16 23 -15 19
2 -2 11 -12 19 -22 19 -11 0 -21 6 -24 14 -3 8 0 11 7 7 6 -4 11 -2 11 3 0 14
-11 13 -32 -3z"/>
<path d="M694 281 c3 -5 -1 -14 -9 -21 -17 -14 -20 -30 -4 -30 5 0 7 5 4 11
-4 6 2 13 14 16 25 6 27 18 5 27 -8 3 -13 2 -10 -3z"/>
<path d="M930 280 c0 -6 8 -13 18 -16 9 -3 29 -12 43 -20 14 -7 29 -11 33 -7
3 4 -15 17 -41 30 -56 27 -53 26 -53 13z"/>
<path d="M20 269 c0 -5 5 -7 10 -4 6 3 10 8 10 11 0 2 -4 4 -10 4 -5 0 -10 -5
-10 -11z"/>
<path d="M567 261 c3 -12 9 -21 14 -21 14 0 11 16 -5 29 -12 10 -13 8 -9 -8z"/>
<path d="M1222 269 c-28 -11 -53 -34 -45 -43 4 -3 -3 -7 -15 -7 -22 -2 -38 -4
-47 -9 -3 -1 -9 -3 -14 -4 -5 0 -13 -5 -18 -10 -5 -5 -3 -6 5 -2 6 4 12 2 12
-4 0 -6 -8 -9 -17 -6 -10 3 -25 1 -33 -4 -11 -7 -6 -10 20 -10 19 0 46 9 60
20 14 11 29 20 33 20 16 0 56 37 49 45 -4 4 3 4 15 1 12 -4 24 -2 27 3 10 15
-6 20 -32 10z"/>
<path d="M2460 254 c0 -19 4 -25 14 -21 8 3 17 1 20 -6 2 -7 5 -4 5 6 1 9 -6
17 -15 17 -10 0 -14 6 -10 15 3 8 1 15 -4 15 -6 0 -10 -12 -10 -26z"/>
<path d="M373 255 c-7 -7 -18 -15 -25 -18 -7 -2 -11 -7 -8 -10 3 -2 20 3 38
13 19 11 27 20 20 23 -7 2 -18 -1 -25 -8z"/>
<path d="M642 256 c7 -8 15 -12 17 -11 5 6 -10 25 -20 25 -5 0 -4 -6 3 -14z"/>
<path d="M899 268 c-9 -31 -3 -48 15 -48 16 0 18 2 7 9 -11 7 -10 10 5 13 18
4 17 5 -3 16 -13 7 -23 11 -24 10z"/>
<path d="M732 238 c-52 -23 -51 -35 1 -13 20 8 46 15 57 15 11 0 20 5 20 10 0
15 -30 11 -78 -12z"/>
<path d="M1494 242 c5 -13 -1 -22 -19 -30 -16 -8 -23 -17 -19 -27 7 -17 38
-17 38 0 0 6 6 16 13 23 7 8 10 19 6 25 -4 7 0 8 12 3 15 -5 16 -4 5 9 -18 22
-43 19 -36 -3z"/>
<path d="M88 243 c7 -3 16 -2 19 1 4 3 -2 6 -13 5 -11 0 -14 -3 -6 -6z"/>
<path d="M305 239 c-4 -6 -5 -12 -2 -15 2 -3 7 2 10 11 7 17 1 20 -8 4z"/>
<path d="M866 241 c-3 -5 -16 -7 -28 -3 -14 3 -19 2 -14 -7 4 -6 12 -9 17 -6
5 4 9 -1 9 -9 0 -19 -14 -28 -52 -30 -17 -1 -32 3 -35 11 -7 17 -23 17 -23 -1
0 -19 22 -26 88 -26 49 0 54 2 38 13 -17 12 -17 14 -2 20 9 4 16 2 16 -3 0 -6
12 -10 26 -10 15 0 23 4 19 10 -4 6 -12 10 -18 9 -7 -1 -20 1 -30 6 -14 6 -15
10 -6 21 6 8 9 14 6 14 -3 0 -8 -4 -11 -9z"/>
<path d="M1080 240 c0 -6 7 -10 15 -10 8 0 15 2 15 4 0 2 -7 6 -15 10 -8 3
-15 1 -15 -4z"/>
<path d="M2600 240 c0 -5 5 -10 11 -10 5 0 7 5 4 10 -3 6 -8 10 -11 10 -2 0
-4 -4 -4 -10z"/>
<path d="M2938 236 c-32 -11 -37 -26 -9 -26 11 0 23 -5 26 -10 4 -6 11 -7 17
-4 6 4 14 1 18 -6 5 -7 8 -2 8 14 0 21 -3 24 -14 15 -7 -6 -19 -7 -25 -3 -9 5
-7 9 6 14 10 4 14 9 9 12 -5 2 -21 0 -36 -6z"/>
<path d="M430 229 c0 -5 5 -7 10 -4 6 3 10 8 10 11 0 2 -4 4 -10 4 -5 0 -10
-5 -10 -11z"/>
<path d="M955 230 c3 -5 16 -10 28 -10 18 0 19 2 7 10 -20 13 -43 13 -35 0z"/>
<path d="M775 220 c-3 -5 1 -10 9 -10 9 0 16 5 16 10 0 6 -4 10 -9 10 -6 0
-13 -4 -16 -10z"/>
<path d="M1020 213 c-19 -9 -55 -22 -80 -29 l-45 -12 40 1 c22 0 48 7 58 15 9
8 20 12 24 8 4 -4 1 -11 -7 -16 -13 -8 -12 -10 3 -10 9 0 17 6 17 14 0 8 9 16
20 18 20 3 29 20 13 25 -4 1 -24 -5 -43 -14z"/>
<path d="M1631 221 c-8 -5 -11 -16 -6 -30 7 -24 35 -29 35 -6 0 8 -5 15 -11
15 -8 0 -8 5 1 15 14 16 3 20 -19 6z"/>
<path d="M2240 209 c0 -11 4 -18 10 -14 5 3 7 12 3 20 -7 21 -13 19 -13 -6z"/>
<path d="M110 209 c0 -4 6 -9 13 -12 8 -3 14 0 14 7 0 7 -6 13 -14 13 -7 0
-13 -4 -13 -8z"/>
<path d="M363 213 c-7 -2 -13 -11 -13 -18 0 -7 -6 -16 -12 -18 -9 -4 -8 -6 2
-6 8 -1 20 10 27 24 6 14 10 25 10 24 -1 0 -8 -3 -14 -6z"/>
<path d="M490 209 c0 -5 14 -6 30 -2 23 4 30 2 30 -10 0 -12 -7 -13 -37 -6
-26 5 -40 4 -45 -4 -5 -8 5 -13 33 -15 52 -4 69 2 69 26 0 15 -8 19 -40 19
-22 0 -40 -4 -40 -8z"/>
<path d="M590 210 c-12 -8 -10 -10 8 -10 13 0 20 4 17 10 -7 12 -6 12 -25 0z"/>
<path d="M636 211 c-3 -4 6 -6 19 -3 14 2 25 6 25 8 0 8 -39 4 -44 -5z"/>
<path d="M940 210 c0 -6 7 -10 15 -10 8 0 15 2 15 4 0 2 -7 6 -15 10 -8 3 -15
1 -15 -4z"/>
<path d="M1789 201 c-13 -11 -21 -23 -16 -27 4 -4 17 3 28 15 27 29 19 37 -12
12z"/>
<path d="M2423 212 c-47 -5 -41 -22 7 -22 22 0 43 0 47 -1 4 0 9 5 12 12 2 7
-1 9 -9 4 -7 -4 -15 -4 -19 1 -3 5 -21 8 -38 6z"/>
<path d="M150 201 c0 -5 9 -7 20 -4 11 3 20 7 20 9 0 2 -9 4 -20 4 -11 0 -20
-4 -20 -9z"/>
<path d="M428 196 c-34 -12 -36 -21 -4 -24 14 -1 27 5 30 15 8 21 6 21 -26 9z"/>
<path d="M683 187 c0 -7 12 -14 26 -15 24 -2 24 -2 5 13 -24 18 -31 19 -31 2z"/>
<path d="M1360 192 c0 -6 -9 -8 -20 -5 -11 3 -20 1 -20 -5 0 -5 23 -10 51 -10
50 0 55 9 12 23 -13 3 -23 2 -23 -3z"/>
<path d="M2350 189 c0 -4 -10 -10 -22 -12 -21 -4 -21 -4 -2 -6 11 0 28 5 38
12 16 12 16 14 2 14 -9 0 -16 -4 -16 -8z"/>
<path d="M2500 191 c0 -4 11 -6 25 -3 14 2 25 6 25 8 0 2 -11 4 -25 4 -14 0
-25 -4 -25 -9z"/>
<path d="M68 183 c12 -2 30 -2 40 0 9 3 -1 5 -23 4 -22 0 -30 -2 -17 -4z"/>
<path d="M240 180 c-19 -6 -12 -8 29 -9 30 -1 52 1 50 3 -11 9 -57 13 -79 6z"/>
<path d="M600 180 c0 -11 14 -11 50 0 22 7 21 8 -12 9 -21 1 -38 -3 -38 -9z"/>
<path d="M1575 180 c3 -5 10 -10 16 -10 5 0 9 5 9 10 0 6 -7 10 -16 10 -8 0
-12 -4 -9 -10z"/>
<path d="M140 170 c0 -4 -27 -5 -59 -4 -38 3 -63 0 -67 -8 -5 -8 16 -9 81 -5
93 6 112 11 70 19 -14 3 -25 2 -25 -2z"/>
<path d="M2937 169 c7 -7 15 -10 18 -7 3 3 -2 9 -12 12 -14 6 -15 5 -6 -5z"/>
<path d="M365 150 c-3 -4 -16 -5 -31 -2 -14 2 -29 0 -33 -6 -3 -5 -26 -15 -51
-21 l-45 -11 45 6 c25 3 54 5 65 5 12 0 15 3 8 7 -6 4 14 8 45 8 31 1 68 7 82
13 22 9 18 10 -28 9 -29 -1 -55 -5 -57 -8z"/>
<path d="M728 153 c7 -3 16 -2 19 1 4 3 -2 6 -13 5 -11 0 -14 -3 -6 -6z"/>
<path d="M577 143 c-1 0 -27 -4 -57 -8 -60 -8 -70 -11 -70 -26 0 -6 6 -7 13
-2 20 12 37 12 37 0 0 -9 2 -9 8 -1 8 13 53 24 105 26 20 1 37 5 37 10 0 6
-66 8 -73 1z"/>
<path d="M673 143 c9 -2 23 -2 30 0 6 3 -1 5 -18 5 -16 0 -22 -2 -12 -5z"/>
<path d="M805 140 c-10 -16 20 -22 56 -11 33 11 33 11 -9 6 -28 -4 -41 -2 -37
5 3 5 4 10 1 10 -3 0 -8 -5 -11 -10z"/>
<path d="M160 131 c-36 -6 -40 -8 -20 -12 14 -3 -13 -4 -59 -3 -84 3 -102 -3
-39 -13 51 -8 176 -4 143 5 -17 4 -14 7 15 18 38 14 30 15 -40 5z"/>
<path d="M734 129 c-7 -11 27 -11 45 0 9 6 5 9 -13 9 -15 0 -29 -4 -32 -9z"/>
<path d="M1108 133 c7 -3 16 -2 19 1 4 3 -2 6 -13 5 -11 0 -14 -3 -6 -6z"/>
<path d="M1140 130 c0 -5 5 -10 11 -10 5 0 7 5 4 10 -3 6 -8 10 -11 10 -2 0
-4 -4 -4 -10z"/>
<path d="M1195 120 c3 -5 8 -10 11 -10 2 0 4 5 4 10 0 6 -5 10 -11 10 -5 0 -7
-4 -4 -10z"/>
<path d="M1230 120 c20 -13 33 -13 25 0 -3 6 -14 10 -23 10 -15 0 -15 -2 -2
-10z"/>
<path d="M1838 123 c7 -3 16 -2 19 1 4 3 -2 6 -13 5 -11 0 -14 -3 -6 -6z"/>
<path d="M1880 119 c0 -5 5 -7 10 -4 6 3 10 8 10 11 0 2 -4 4 -10 4 -5 0 -10
-5 -10 -11z"/>
<path d="M2305 120 c-2 -3 12 -7 31 -8 19 -2 34 -1 34 2 0 7 -61 13 -65 6z"/>
<path d="M425 110 c-3 -5 -1 -10 4 -10 6 0 11 5 11 10 0 6 -2 10 -4 10 -3 0
-8 -4 -11 -10z"/>
<path d="M618 113 c6 -2 18 -2 25 0 6 3 1 5 -13 5 -14 0 -19 -2 -12 -5z"/>
<path d="M698 104 c-3 -3 -39 -8 -80 -11 -40 -3 -77 -9 -82 -14 -6 -5 8 -6 33
-3 31 4 41 3 37 -5 -4 -6 -4 -11 1 -11 19 1 107 29 98 31 -5 1 13 5 40 9 l50
7 -46 1 c-25 1 -48 -1 -51 -4z"/>
<path d="M275 90 c-13 -6 -15 -9 -5 -9 8 0 22 4 30 9 18 12 2 12 -25 0z"/>
<path d="M1170 95 c0 -7 30 -13 34 -7 3 4 -4 9 -15 9 -10 1 -19 0 -19 -2z"/>
<path d="M1408 93 c7 -3 16 -2 19 1 4 3 -2 6 -13 5 -11 0 -14 -3 -6 -6z"/>
<path d="M2040 90 c-9 -6 -10 -10 -3 -10 6 0 15 5 18 10 8 12 4 12 -15 0z"/>
<path d="M1618 83 c6 -2 18 -2 25 0 6 3 1 5 -13 5 -14 0 -19 -2 -12 -5z"/>
<path d="M2635 80 c-3 -6 1 -7 9 -4 18 7 21 14 7 14 -6 0 -13 -4 -16 -10z"/>
<path d="M2968 83 c7 -3 16 -2 19 1 4 3 -2 6 -13 5 -11 0 -14 -3 -6 -6z"/>
<path d="M65 59 c-81 -20 -59 -24 29 -5 33 7 56 15 50 17 -5 3 -40 -2 -79 -12z"/>
<path d="M178 73 c12 -2 32 -2 45 0 12 2 2 4 -23 4 -25 0 -35 -2 -22 -4z"/>
<path d="M436 72 c-2 -4 13 -6 35 -4 21 2 39 6 39 8 0 7 -69 4 -74 -4z"/>
<path d="M1960 76 c0 -2 7 -6 15 -10 8 -3 15 -1 15 4 0 6 -7 10 -15 10 -8 0
-15 -2 -15 -4z"/>
<path d="M2398 73 c7 -3 16 -2 19 1 4 3 -2 6 -13 5 -11 0 -14 -3 -6 -6z"/>
<path d="M750 55 c0 -8 5 -15 11 -15 5 0 7 5 3 11 -5 8 1 10 19 7 15 -3 24 -1
21 3 -9 15 -54 10 -54 -6z"/>
<path d="M917 58 c6 -11 61 -10 67 0 3 4 -13 8 -34 8 -21 -1 -36 -4 -33 -8z"/>
<path d="M1016 57 c3 -10 9 -15 12 -12 3 3 0 11 -7 18 -10 9 -11 8 -5 -6z"/>
<path d="M675 50 c-14 -7 -9 -8 20 -5 31 4 36 3 20 -5 -19 -9 -19 -10 -1 -7
11 1 21 8 24 15 4 14 -33 15 -63 2z"/>
<path d="M876 49 c3 -5 -13 -9 -35 -9 -23 0 -41 -4 -41 -9 0 -13 84 -3 88 10
2 5 9 6 15 2 7 -3 8 -2 4 2 -10 12 -38 15 -31 4z"/>
<path d="M1308 53 c7 -3 16 -2 19 1 4 3 -2 6 -13 5 -11 0 -14 -3 -6 -6z"/>
<path d="M1388 53 c7 -3 16 -2 19 1 4 3 -2 6 -13 5 -11 0 -14 -3 -6 -6z"/>
<path d="M1702 55 c9 -9 68 -15 68 -7 0 5 -17 9 -37 10 -21 2 -35 0 -31 -3z"/>
<path d="M486 41 c-3 -4 6 -6 19 -3 14 2 25 6 25 8 0 8 -39 4 -44 -5z"/>
<path d="M1788 43 c6 -2 18 -2 25 0 6 3 1 5 -13 5 -14 0 -19 -2 -12 -5z"/>
<path d="M2570 42 c0 -5 7 -9 15 -9 8 0 12 4 9 9 -7 10 -24 10 -24 0z"/>
<path d="M115 30 c-27 -7 -27 -8 -5 -8 14 0 36 4 50 8 20 6 21 8 5 8 -11 0
-33 -4 -50 -8z"/>
<path d="M2818 23 c6 -2 18 -2 25 0 6 3 1 5 -13 5 -14 0 -19 -2 -12 -5z"/>
<path d="M15 10 c-20 -9 -20 -9 0 -9 11 0 27 4 35 9 13 9 13 10 0 9 -8 0 -24
-4 -35 -9z"/>
<path d="M978 13 c7 -3 16 -2 19 1 4 3 -2 6 -13 5 -11 0 -14 -3 -6 -6z"/>
<path d="M1630 16 c0 -2 9 -6 20 -9 11 -3 18 -1 14 4 -5 9 -34 13 -34 5z"/>
<path d="M1760 10 c8 -5 20 -10 25 -10 6 0 3 5 -5 10 -8 5 -19 10 -25 10 -5 0
-3 -5 5 -10z"/>
<path d="M2418 13 c7 -3 16 -2 19 1 4 3 -2 6 -13 5 -11 0 -14 -3 -6 -6z"/>
</g>
</svg>
