<?xml version="1.0" standalone="no"?>
<!DOCTYPE svg PUBLIC "-//W3C//DTD SVG 20010904//EN"
 "http://www.w3.org/TR/2001/REC-SVG-20010904/DTD/svg10.dtd">
<svg version="1.0" xmlns="http://www.w3.org/2000/svg"
 width="300.000000pt" height="225.000000pt" viewBox="0 0 300.000000 225.000000"
 preserveAspectRatio="xMidYMid meet">
<metadata>
Created by potrace 1.10, written by Peter Selinger 2001-2011
</metadata>
<g transform="translate(0.000000,225.000000) scale(0.050000,-0.050000)"
fill="#000000" stroke="none">
<path d="M2323 4082 c-17 -11 -20 -22 -7 -30 11 -6 16 -30 10 -52 -6 -22 -1
-40 12 -40 12 0 22 20 23 45 0 37 6 33 30 -23 16 -37 35 -63 41 -57 20 20 -43
125 -71 119 -16 -3 -21 6 -14 25 14 36 12 36 -24 13z"/>
<path d="M2457 3926 c-1 -64 -6 -96 -11 -71 -23 117 -66 45 -55 -90 14 -158
48 -660 62 -907 l10 -173 -105 -2 c-119 -3 -163 -23 -50 -23 55 0 70 -7 58
-25 -18 -29 -20 -38 -24 -110 -3 -53 -4 -53 -33 -16 -16 21 -29 27 -29 14 0
-14 -9 -20 -20 -13 -24 15 -26 -89 -3 -126 15 -23 113 -84 135 -84 5 0 8 82 8
181 0 162 4 181 35 175 27 -5 37 -32 45 -116 12 -131 37 -82 36 68 -1 63 9
106 27 120 30 23 34 141 9 269 -23 119 -21 151 11 131 15 -9 18 -5 8 10 -19
31 -29 162 -12 162 7 0 26 -11 42 -25 15 -14 8 -2 -16 26 -25 29 -40 58 -32
65 7 7 4 25 -8 39 -22 28 -21 92 2 131 9 14 2 38 -16 56 -28 28 -46 250 -32
391 1 19 -7 39 -18 46 -14 9 -22 -28 -24 -103z"/>
<path d="M2320 3898 c0 -23 -18 -57 -41 -75 -22 -18 -43 -58 -47 -88 -3 -30
-13 -62 -22 -70 -9 -8 -9 -1 0 15 10 18 9 23 -2 13 -24 -22 -24 -60 1 -77 12
-8 6 -19 -14 -27 -27 -10 -30 -21 -14 -51 12 -22 15 -49 7 -61 -7 -12 -1 -29
14 -39 23 -14 23 -17 1 -18 -17 0 -25 -24 -23 -75 2 -41 2 -82 -1 -90 -12 -42
-10 -109 5 -139 9 -20 7 -39 -5 -47 -14 -8 -8 -24 15 -42 20 -17 25 -24 11
-17 -17 8 -25 -4 -25 -39 0 -35 11 -51 35 -51 30 -1 31 -3 5 -20 -16 -11 -21
-20 -10 -20 11 0 9 -8 -5 -16 -18 -12 -14 -25 15 -50 39 -33 40 -31 40 86 0
113 73 185 103 102 4 -10 19 -5 33 10 21 24 16 28 -38 28 l-63 0 14 235 c7
129 18 280 22 335 5 55 13 152 19 215 6 69 2 115 -10 115 -11 0 -20 -19 -20
-42z"/>
<path d="M785 2797 c-2 -25 -13 -50 -24 -53 -12 -4 -21 -57 -21 -117 0 -68 -8
-105 -20 -97 -11 7 -20 3 -20 -9 0 -11 11 -21 25 -21 17 -1 18 -5 3 -15 -16
-11 -15 -31 1 -70 35 -85 51 -45 53 133 6 476 74 161 81 -375 3 -220 28 -272
46 -96 12 113 9 152 -10 164 -19 11 -20 23 -5 42 27 35 53 237 30 237 -9 0
-13 26 -9 58 5 31 -1 63 -13 71 -12 7 -22 29 -22 47 0 62 -90 158 -95 101z"/>
<path d="M2914 2547 c8 -129 26 -136 26 -10 0 56 -7 103 -16 103 -8 0 -13 -42
-10 -93z"/>
<path d="M3780 2492 c0 -69 8 -110 19 -102 21 12 15 182 -6 204 -7 7 -13 -39
-13 -102z"/>
<path d="M4492 2276 c-26 -36 -38 -40 -78 -21 -27 12 -83 17 -126 11 -43 -6
-143 -12 -222 -13 -78 -2 -150 -10 -158 -18 -8 -8 -31 -15 -51 -15 -28 0 -37
-15 -37 -63 0 -35 6 -57 14 -50 8 8 25 -6 39 -31 14 -25 26 -35 26 -21 1 35
61 31 61 -4 0 -18 -12 -25 -30 -18 -17 6 -30 0 -31 -16 0 -18 -7 -15 -21 8
-36 63 -49 37 -55 -112 -5 -150 6 -174 86 -181 26 -3 83 -106 67 -122 -7 -7
-45 -4 -84 7 l-72 20 0 -70 c0 -80 27 -114 105 -134 58 -15 76 -53 25 -53 -38
0 -28 -85 12 -95 22 -6 21 -3 -2 13 -26 19 -25 21 4 22 19 0 53 -20 76 -45 32
-33 39 -36 29 -10 -10 27 -3 35 31 35 32 0 41 9 32 32 -7 17 -12 35 -12 40 0
26 -58 2 -64 -26 -4 -25 -12 -20 -31 21 -14 31 -16 50 -5 43 28 -17 25 2 -12
73 -17 34 -22 55 -10 48 12 -7 22 -3 22 9 0 37 37 2 38 -35 3 -89 11 -105 50
-105 23 0 82 -23 130 -51 74 -42 99 -47 146 -31 40 14 53 14 44 0 -7 -12 3
-19 25 -17 66 9 247 -26 235 -44 -6 -11 13 -14 45 -8 31 6 46 6 32 -1 -14 -6
-20 -21 -13 -32 17 -27 -33 -58 -74 -45 -32 10 -44 -32 -25 -91 8 -23 17 -18
39 20 27 47 28 44 23 -60 -5 -90 -12 -110 -40 -107 -19 1 -29 -7 -22 -18 9
-14 -18 -17 -84 -8 -84 11 -92 10 -61 -13 56 -41 -156 -89 -251 -57 -66 23
-67 22 -22 -12 61 -48 -175 -126 -258 -86 l-47 24 48 -39 c33 -27 40 -43 24
-53 -18 -11 -14 -22 12 -42 48 -37 27 -36 -64 2 -41 17 -88 26 -105 20 -16 -6
-43 -1 -58 11 -22 19 -25 17 -16 -7 6 -17 -2 -35 -20 -42 -36 -14 -91 4 -91
29 0 10 -19 18 -42 18 -30 0 -39 9 -30 32 7 17 12 41 12 52 0 12 21 15 50 8
38 -10 50 -5 50 19 0 22 12 28 39 19 26 -8 54 3 85 34 25 25 52 44 60 41 8 -2
10 7 5 20 -11 33 24 88 44 68 9 -8 4 -23 -11 -32 -21 -12 -21 -19 -2 -31 15
-9 33 -3 43 16 10 18 31 27 47 21 17 -6 26 -18 21 -26 -5 -8 19 -14 53 -14 56
0 58 2 25 26 -20 15 -53 27 -73 27 -20 0 -54 18 -76 40 -21 21 -53 34 -70 27
-18 -7 -30 0 -30 19 0 16 14 35 30 41 17 7 30 4 30 -5 0 -35 129 -12 136 24 4
19 16 34 27 34 10 0 14 -9 7 -20 -7 -11 2 -20 20 -20 18 0 27 9 20 20 -7 11 2
20 20 20 18 0 27 -9 21 -19 -7 -11 19 -16 63 -11 102 10 104 12 46 29 l-50 15
55 23 c119 48 72 47 -255 -8 -88 -14 -167 -20 -176 -11 -26 26 7 80 43 69 18
-5 11 4 -17 20 -45 27 -55 27 -98 0 -36 -24 -50 -26 -62 -7 -19 30 -60 9 -60
-31 0 -15 29 -36 65 -45 70 -19 77 -55 25 -136 -58 -91 -350 -179 -344 -105 1
21 13 37 26 37 28 0 126 78 100 79 -11 1 -36 -14 -56 -33 -35 -32 -37 -32 -25
0 7 19 21 34 30 34 31 0 66 88 64 160 -1 39 3 54 9 34 13 -49 77 -34 73 17 -2
21 -9 62 -15 89 -7 28 -7 39 -1 26 8 -17 21 -14 46 10 52 51 12 76 -139 88
-128 11 -131 10 -123 -34 10 -52 -46 -150 -86 -150 -27 0 -62 -114 -41 -135 7
-6 12 4 12 24 0 26 11 33 40 25 22 -6 45 -2 51 8 6 10 21 18 33 18 12 0 7 -16
-11 -37 -41 -45 -42 -65 -3 -50 23 8 30 -3 28 -46 0 -31 -6 -46 -11 -32 -6 14
-24 25 -40 25 -16 0 -24 -9 -17 -20 22 -35 -7 -21 -52 25 -25 26 -40 32 -34
15 6 -16 3 -48 -5 -70 -16 -40 -23 0 -24 142 -1 23 -12 41 -26 41 -14 0 -21
-11 -16 -25 7 -17 -3 -22 -30 -15 -24 7 -39 26 -37 49 2 25 13 35 31 28 22 -8
24 -5 6 16 -12 15 -17 33 -10 40 7 7 -1 18 -18 25 -17 6 -27 27 -22 45 17 65
-41 116 -102 88 -90 -41 -131 -31 -133 31 -2 83 4 245 13 335 4 44 14 164 22
267 l13 188 -48 -16 c-26 -8 -88 -13 -138 -10 -225 15 -250 11 -256 -35 -4
-24 3 -44 15 -44 12 0 21 -45 21 -109 0 -107 2 -110 140 -255 165 -173 203
-341 88 -393 -43 -20 -48 -29 -28 -53 21 -26 14 -30 -46 -30 -40 0 -78 -10
-85 -21 -7 -12 -26 -17 -41 -11 -20 8 -28 -6 -28 -50 0 -33 -10 -79 -22 -102
-16 -30 -16 -45 0 -55 16 -9 10 -26 -18 -51 -59 -53 -49 -85 30 -94 39 -4 70
-1 70 7 0 9 16 10 35 3 33 -12 33 -10 -1 28 -31 36 -32 43 -5 53 46 17 38 38
-34 88 -75 52 -30 64 103 26 53 -16 83 -12 148 20 45 21 92 39 106 39 13 0 29
14 35 30 8 21 -1 30 -29 30 -22 0 -35 8 -29 18 6 10 0 23 -14 28 -14 5 -18 16
-7 26 10 11 21 7 26 -7 16 -45 85 -71 117 -44 23 19 29 17 29 -9 0 -18 -14
-39 -31 -45 -27 -10 -26 -17 5 -53 33 -37 33 -40 2 -28 -19 7 -80 -1 -136 -18
l-101 -30 36 -54 c21 -30 37 -67 36 -84 -2 -38 100 -62 163 -39 38 15 44 28
34 69 -7 28 -4 50 8 50 28 0 43 -125 18 -156 -11 -14 -32 -21 -47 -16 -18 7
-27 -5 -27 -37 0 -27 -9 -54 -20 -61 -17 -11 -23 9 -19 65 2 18 -84 42 -107
30 -8 -4 7 -26 34 -47 27 -22 56 -59 64 -84 7 -24 30 -55 50 -70 20 -14 31
-38 25 -55 -6 -16 -3 -29 7 -29 28 0 148 -112 174 -162 32 -64 61 -57 68 17 4
36 16 65 28 65 11 0 17 -26 12 -60 -5 -33 -2 -60 6 -60 8 0 18 -24 22 -53 3
-29 24 -63 46 -75 148 -83 250 -155 250 -179 0 -14 35 -37 77 -50 95 -28 103
-28 103 -2 0 12 -11 15 -25 7 -14 -8 -7 3 15 25 22 21 80 50 129 64 117 35
178 77 172 119 -3 19 -1 23 3 9 10 -29 86 -34 86 -6 0 10 36 3 80 -15 77 -33
115 -77 88 -102 -8 -7 -17 -1 -22 13 -19 52 -88 29 -74 -25 9 -37 4 -50 -19
-50 -17 0 -37 -10 -44 -22 -8 -13 1 -19 24 -15 20 3 47 0 58 -8 24 -15 294 92
729 290 160 72 439 198 620 280 315 142 330 151 336 210 6 54 -2 64 -62 84
-70 23 -90 71 -38 91 16 6 34 6 40 0 6 -5 0 -10 -13 -10 -12 0 -23 -15 -23
-32 0 -26 6 -28 28 -9 23 18 33 16 48 -12 15 -26 19 -14 17 53 l-3 88 -220 56
c-121 31 -234 53 -251 49 -16 -4 -42 6 -56 21 -15 16 -41 25 -58 22 -56 -11
-49 -51 14 -79 47 -20 61 -40 61 -82 0 -30 9 -55 19 -55 39 0 119 46 109 63
-21 34 16 16 108 -53 186 -138 186 -142 -17 -210 -136 -46 -149 -55 -153 -107
-6 -81 -26 -92 -28 -16 -4 80 -5 88 -24 117 -8 13 -6 29 6 36 11 7 20 7 20 0
0 -7 15 2 33 20 22 22 56 31 100 26 37 -4 67 0 67 10 0 11 14 8 30 -6 36 -30
60 -15 44 27 -23 60 -134 122 -134 74 0 -47 0 -47 -70 -21 -63 24 -150 6 -150
-30 0 -16 15 -22 40 -16 22 6 35 19 29 28 -6 10 3 18 20 18 60 0 32 -71 -44
-110 -41 -22 -82 -49 -90 -60 -13 -19 -23 29 -17 83 1 12 -11 28 -28 34 -16 7
-30 2 -30 -10 0 -12 -14 -16 -31 -9 -20 7 -26 3 -17 -11 10 -16 -2 -19 -38
-10 -42 11 -51 7 -41 -17 6 -17 -3 -35 -22 -43 -19 -7 -42 -33 -51 -57 -12
-31 -41 -49 -94 -59 -42 -8 -85 -22 -96 -30 -11 -9 -42 -23 -70 -31 -27 -8
-98 -36 -156 -62 -127 -58 -168 -61 -150 -13 7 19 5 29 -3 21 -9 -8 -34 -5
-56 7 -33 17 -35 25 -13 39 23 14 22 17 -5 18 -17 0 -44 -14 -58 -31 -14 -18
-42 -28 -61 -23 -20 5 -40 -4 -47 -20 -7 -19 -25 -24 -54 -15 -35 11 -41 7
-30 -22 12 -29 9 -31 -17 -9 -25 20 -30 19 -30 -8 0 -17 11 -32 25 -32 17 -1
15 -7 -5 -20 -26 -17 -25 -19 5 -20 19 0 35 -8 35 -18 0 -10 -38 -14 -85 -9
-55 7 -76 4 -59 -8 35 -25 -54 -85 -126 -85 -28 0 -56 -12 -62 -27 -6 -17 -29
-23 -61 -17 -29 5 -58 -1 -67 -15 -41 -67 -100 -1 -100 110 0 99 20 137 49 91
12 -19 87 -7 122 20 11 8 42 20 70 26 86 17 188 61 206 88 13 21 22 21 46 1
20 -16 34 -18 44 -4 15 24 134 66 229 81 35 5 69 17 74 27 6 9 24 15 40 14 17
-2 73 9 125 23 l95 27 0 219 c0 164 6 217 24 211 25 -8 27 -299 4 -380 -6 -19
-1 -35 11 -35 11 0 21 12 21 27 0 18 16 24 45 19 25 -5 72 2 105 16 33 13 69
22 79 20 11 -3 30 10 44 29 13 18 36 29 51 24 14 -5 46 -2 72 8 25 9 69 21 98
26 29 5 59 20 67 33 8 13 25 17 37 9 12 -7 22 -4 22 8 0 11 -12 21 -27 21 -16
0 -49 31 -75 70 -27 38 -73 78 -103 89 -30 10 -55 32 -55 48 0 19 -29 34 -80
43 -53 9 -80 24 -80 44 0 32 21 31 186 -6 46 -11 58 -6 67 29 17 64 39 36 36
-46 -1 -39 5 -71 14 -71 10 0 18 23 20 50 3 75 6 85 22 102 26 25 16 53 -14
41 -19 -7 -25 -1 -18 17 7 19 -3 25 -36 18 -31 -6 -36 -3 -17 7 34 17 50 105
20 105 -11 0 -20 -10 -20 -21 0 -12 -13 -8 -30 8 -52 52 -16 102 44 62 27 -18
55 -27 61 -21 6 7 1 12 -12 12 -12 0 -23 18 -23 40 0 25 13 40 36 40 41 0 43
-56 5 -150 -21 -52 -19 -63 17 -92 22 -18 34 -41 26 -50 -8 -9 2 -4 22 11 58
44 274 28 274 -21 0 -11 -11 -14 -25 -5 -17 10 -16 4 2 -19 33 -41 66 -45 51
-6 -14 36 80 60 131 32 76 -40 121 -25 121 40 0 36 -10 58 -24 55 -32 -7 -33
43 -2 105 38 75 32 96 -24 85 -27 -5 -45 -17 -40 -25 18 -29 -14 -137 -43
-148 -16 -7 -24 -3 -17 8 7 11 4 20 -7 20 -11 0 -25 -11 -31 -25 -6 -14 -7 -5
0 20 8 36 2 45 -31 45 -45 0 -55 29 -17 52 13 8 27 4 31 -8 5 -13 18 -24 29
-24 13 0 11 12 -4 30 -21 25 -19 30 10 30 30 0 31 4 7 34 -23 29 -23 32 3 18
17 -8 6 4 -24 27 -30 24 -49 55 -44 69 6 15 -4 32 -21 39 -17 6 -31 3 -31 -8
0 -14 -13 -13 -39 0 -52 28 -62 26 -48 -9 13 -33 -24 -42 -40 -9 -5 11 -8 9
-5 -5 3 -16 35 -26 79 -25 71 1 100 -32 53 -61 -30 -19 -4 -50 31 -37 16 6 29
6 29 -1 0 -23 -67 -90 -82 -81 -8 5 -10 -9 -4 -31 6 -22 1 -40 -10 -40 -12 0
-24 29 -28 65 -5 54 -16 67 -66 78 -33 7 -49 13 -36 15 13 1 22 19 21 40 -3
30 -12 35 -46 22 -34 -13 -53 -3 -99 52 -44 52 -63 62 -83 45 -15 -12 -27 -15
-27 -6 0 9 -13 -1 -29 -22 -26 -35 -25 -42 11 -70 26 -20 35 -43 27 -65 -15
-37 -85 15 -116 86 -7 17 -9 5 -3 -25 6 -32 2 -55 -10 -55 -15 0 -15 -12 0
-40 18 -34 15 -40 -19 -40 -23 0 -41 9 -41 20 0 11 -20 20 -44 20 -33 0 -38 6
-22 22 13 13 18 35 12 50 -6 16 0 28 13 28 16 0 17 11 1 41 -12 22 -30 35 -41
29 -30 -19 -99 28 -87 59 10 25 21 24 79 -3 68 -33 125 -134 88 -157 -11 -6
-19 -21 -19 -33 0 -13 11 -12 30 4 17 14 28 49 26 78 -2 29 2 63 10 76 18 28
-4 89 -27 76 -30 -19 -39 25 -10 49 30 25 99 -2 143 -57 14 -18 32 -22 50 -10
15 9 36 18 46 18 10 0 22 14 27 30 7 26 6 26 -12 0 -17 -24 -24 -21 -41 20
-11 28 -20 40 -21 27 -1 -16 -19 -19 -56 -9 -30 8 -54 25 -53 38 1 13 3 37 5
53 2 19 25 27 71 25 37 -2 64 -10 60 -17 -4 -7 6 -18 23 -25 19 -7 25 -22 16
-37 -8 -14 10 -8 41 12 41 27 62 31 78 15 27 -27 54 -28 54 -2 0 11 -13 20
-30 20 -16 0 -30 14 -30 30 0 17 5 30 11 30 27 0 69 -60 69 -99 0 -41 0 -41
40 -1 22 22 40 53 40 70 0 24 9 25 51 6 28 -13 47 -33 42 -46 -12 -30 61 -76
77 -49 7 11 21 14 32 8 10 -6 14 -19 9 -28 -6 -8 10 -14 35 -13 24 1 50 -11
58 -28 8 -19 14 -10 15 27 1 49 -5 56 -41 47 -23 -6 -37 -6 -30 0 6 6 -18 37
-52 67 l-64 55 52 -3 c29 -2 49 -6 46 -10 -4 -4 10 -26 31 -49 43 -46 79 -32
39 16 -17 20 -18 30 -2 30 12 0 22 27 22 60 0 64 -19 70 -195 61 -35 -2 -75 3
-89 12 -35 21 -174 27 -186 7 -12 -20 -409 -6 -471 16 -28 11 -69 9 -104 -4
-44 -17 -61 -15 -73 5 -13 20 -21 21 -32 4 -8 -13 -25 -19 -39 -14 -13 5 -36
2 -51 -7 -29 -18 -137 14 -176 54 -37 36 -57 33 -92 -18z m-312 -135 c0 -11
-12 -15 -27 -9 -41 15 -59 -75 -22 -111 24 -24 29 -24 29 -2 0 20 11 17 41
-10 61 -55 88 -51 93 14 3 31 -4 57 -15 57 -10 0 -18 -7 -17 -15 7 -41 -4 -73
-17 -53 -8 12 -33 32 -55 44 -22 13 -29 23 -15 23 14 1 25 15 25 31 0 17 9 30
20 30 11 0 20 -9 20 -20 0 -11 10 -20 21 -20 12 0 16 8 10 18 -6 9 7 22 29 28
22 6 44 4 49 -4 5 -8 54 -12 110 -9 63 4 101 -2 101 -15 0 -12 15 -17 33 -10
34 13 87 -19 87 -53 0 -10 -15 -14 -33 -7 -17 7 -44 2 -60 -10 -21 -18 -27
-16 -27 6 0 21 -17 27 -60 20 -33 -5 -60 0 -60 11 0 10 -29 19 -65 19 -36 0
-49 -4 -30 -8 41 -10 46 -38 10 -53 -19 -7 -18 -16 5 -33 26 -21 25 -22 -4
-13 -23 7 -38 -3 -47 -31 -9 -29 -18 -34 -29 -17 -11 19 -19 19 -29 2 -11 -17
-23 -16 -47 3 -27 22 -30 21 -19 -7 7 -20 1 -38 -16 -45 -16 -6 -28 -4 -26 4
6 44 -6 85 -22 75 -11 -7 -14 -27 -7 -45 10 -26 5 -30 -26 -17 -21 9 -49 16
-63 17 -14 0 -25 9 -25 19 0 10 16 13 35 7 28 -9 35 1 37 48 1 33 -5 60 -14
60 -10 0 -7 23 6 50 22 49 116 74 116 31z m-155 -33 c-3 -10 -14 -17 -25 -16
-11 1 -39 3 -61 5 -23 2 -36 11 -30 22 15 23 123 13 116 -11z m926 8 c9 8 9 3
1 -11 -9 -15 -2 -30 17 -37 17 -7 25 -22 18 -35 -8 -14 -2 -13 14 2 15 14 45
25 68 26 38 0 38 2 6 21 -19 11 -44 15 -55 8 -11 -7 -20 -4 -20 6 0 40 80 41
102 1 11 -21 36 -38 54 -36 61 6 67 -1 32 -36 -25 -25 -37 -28 -43 -10 -5 14
-17 25 -28 25 -11 0 -14 -9 -7 -20 11 -19 -16 -29 -57 -22 -10 2 -12 -18 -5
-45 10 -42 6 -48 -28 -39 -22 6 -35 18 -29 27 5 9 -1 23 -14 31 -14 8 -18 6
-10 -8 17 -26 2 -35 -82 -53 -53 -12 -65 -8 -65 20 0 29 5 30 34 6 29 -24 32
-23 20 10 -8 20 -14 45 -14 55 0 10 -13 18 -30 18 -16 0 -30 -15 -30 -33 0
-28 -9 -26 -50 13 -79 74 -67 119 30 110 47 -4 76 0 69 11 -7 12 8 12 38 0 27
-10 56 -12 64 -5z m-372 -135 c29 -53 27 -61 -17 -61 -39 0 -70 50 -51 82 18
29 46 21 68 -21z m131 -69 c22 7 103 -47 89 -59 -22 -18 -121 -33 -111 -16 6
10 -1 29 -16 42 -21 17 -30 17 -36 -2 -5 -14 -14 -17 -20 -6 -6 10 -3 42 8 69
19 50 19 50 42 8 13 -23 33 -39 44 -36z m-250 0 c0 -12 10 -8 22 8 19 27 20
27 12 0 -5 -16 -18 -28 -30 -26 -11 3 -25 -8 -31 -25 -7 -16 -2 -29 10 -29 13
0 50 -29 83 -63 44 -46 50 -60 23 -49 -22 9 -58 18 -81 21 -23 3 -52 11 -65
19 -13 8 -23 6 -23 -5 0 -10 -14 -24 -31 -31 -17 -6 -26 -3 -20 7 7 10 -4 28
-24 39 -36 21 -14 30 68 28 13 -1 19 11 13 26 -5 15 -18 23 -28 17 -28 -18
-21 7 14 47 34 41 88 50 88 16z m-360 -52 c17 -31 15 -40 -7 -40 -34 0 -78 49
-59 67 23 23 44 14 66 -27z m642 -120 c21 0 38 -9 38 -19 0 -24 -160 -13 -161
11 -3 73 23 98 54 53 18 -25 49 -45 69 -45z m195 -42 c-11 -7 -20 -18 -19 -25
9 -63 -27 -65 -83 -5 -37 41 -49 103 -15 82 11 -7 20 -3 20 8 0 11 26 5 59
-14 32 -18 49 -39 38 -46z m93 -57 c2 -22 -9 -44 -23 -50 -20 -7 -27 11 -27
64 0 78 44 66 50 -14z m-944 23 c68 39 156 43 106 6 -35 -27 -32 -30 45 -42
46 -7 83 -20 83 -29 0 -9 6 -31 13 -51 12 -30 5 -33 -52 -21 -53 10 -63 7 -54
-17 8 -21 -1 -30 -33 -30 -33 1 -37 5 -16 18 37 24 10 62 -46 62 -25 0 -52 7
-60 15 -9 8 -26 15 -39 15 -12 0 -25 27 -28 60 -5 50 -2 54 16 25 18 -30 28
-31 65 -11z m566 -114 c16 -21 28 -45 28 -54 0 -9 9 -16 20 -16 11 0 20 17 20
39 0 74 32 58 37 -18 l4 -77 -75 19 c-42 10 -130 30 -196 44 -97 21 -121 35
-126 69 -9 60 244 55 288 -6z m290 -75 c26 -2 54 -12 61 -23 9 -12 26 -10 45
7 20 16 32 18 32 5 0 -12 25 -20 55 -18 41 3 54 -4 50 -29 -3 -18 9 -38 26
-45 101 -39 -19 -39 -192 0 -235 53 -238 54 -189 108 24 26 42 33 50 19 8 -11
35 -22 62 -24z m-222 -92 c0 -21 -17 -25 -62 -15 -35 6 -75 12 -90 12 -16 0
-28 8 -28 17 0 10 40 17 90 15 62 -1 90 -11 90 -29z m235 -32 c27 -1 45 -13
45 -33 0 -27 -14 -28 -100 -11 -59 13 -100 32 -100 47 0 19 15 23 55 12 30 -8
75 -15 100 -15z m-1432 -65 c24 -29 23 -32 -7 -21 -20 8 -47 1 -63 -15 -41
-41 -59 -10 -20 33 41 46 55 46 90 3z m1447 -117 l60 -29 -70 12 c-38 7 -79
20 -89 30 -29 28 31 20 99 -13z m-1810 -48 c27 -21 42 -46 32 -55 -10 -9 -22
-4 -27 11 -6 17 -15 20 -22 7 -9 -13 -34 -11 -73 7 l-60 27 60 -12 c54 -11 57
-9 33 21 -37 44 -5 41 57 -6z m1930 -74 l60 -25 -56 -1 c-55 -1 -194 47 -194
67 0 16 120 -10 190 -41z m-1912 -59 c-13 -16 -20 -29 -15 -29 4 -1 38 -6 76
-11 82 -10 85 -13 69 -55 -7 -20 -28 -29 -55 -24 -24 4 -51 9 -60 10 -10 0 -6
16 10 34 24 30 23 31 -14 12 -37 -20 -41 -16 -42 45 -2 50 5 64 26 56 21 -8
23 -17 5 -38z m1888 14 c127 -28 191 -65 98 -58 -37 3 -72 -5 -82 -20 -13 -21
-34 -21 -112 -2 -83 21 -91 27 -54 41 65 23 53 42 -16 27 -51 -11 -58 -8 -47
20 13 35 13 35 213 -8z m-1215 -83 c13 -22 -88 -129 -105 -111 -12 12 58 132
77 132 8 0 20 -9 28 -21z m816 -76 c33 -13 31 -17 -16 -39 -84 -38 -220 -55
-202 -25 34 54 153 89 218 64z m-1425 -43 c19 0 40 11 47 25 6 14 8 5 3 -20
-5 -29 2 -45 19 -45 15 0 37 -17 48 -38 11 -21 45 -65 76 -96 30 -32 77 -87
105 -123 27 -35 67 -69 88 -75 29 -10 31 -16 11 -29 -15 -9 -34 -12 -43 -6 -9
5 -16 -9 -16 -32 0 -22 -13 -41 -29 -41 -16 0 -32 -24 -37 -55 -5 -38 -9 -28
-11 32 -3 86 -3 86 -66 72 -55 -12 -59 -10 -35 17 15 16 34 26 41 22 7 -5 28
-3 45 4 56 21 35 66 -38 79 -39 8 -75 22 -82 32 -6 10 -20 12 -31 5 -13 -8
-13 2 1 28 29 55 28 64 -10 64 -20 0 -28 11 -21 30 11 27 -45 43 -112 32 -8
-1 -15 8 -15 20 0 12 12 18 26 12 16 -6 27 7 29 33 2 23 -3 32 -11 20 -9 -14
-30 -16 -60 -5 -39 15 -42 22 -20 46 16 18 33 22 45 10 10 -10 34 -18 53 -18z
m2093 -5 c-5 -25 -13 -57 -17 -72 -5 -16 3 -32 17 -37 14 -5 25 5 25 23 0 27
5 28 27 7 23 -21 19 -31 -25 -58 -55 -34 -99 10 -74 75 6 14 -1 21 -16 15 -14
-5 -36 3 -49 19 -19 22 -18 31 6 40 17 6 31 3 31 -8 0 -10 9 -19 20 -19 11 0
20 14 20 30 0 17 10 30 22 30 13 0 19 -19 13 -45z m-948 -40 c31 -23 29 -28
-26 -49 -46 -17 -61 -17 -62 1 0 13 -9 7 -21 -12 -20 -35 -87 -46 -146 -23
-49 19 -38 48 17 48 27 0 55 10 62 21 7 12 25 17 40 11 15 -6 33 -2 40 9 16
26 55 24 96 -6z m873 -135 c-30 -56 -25 -62 33 -47 37 9 49 6 39 -10 -19 -30
-78 -29 -108 1 -13 13 -30 17 -38 9 -8 -9 -2 -24 15 -34 16 -10 20 -19 8 -19
-12 0 -30 9 -41 20 -20 20 -203 -35 -395 -118 -117 -51 -147 -53 -101 -7 32
32 32 35 -14 46 -46 11 -45 12 19 35 37 13 77 18 88 11 13 -8 15 -3 6 12 -21
33 72 6 94 -27 10 -15 14 -14 15 4 0 15 10 20 23 12 15 -9 18 -5 9 9 -8 13
-23 19 -33 12 -10 -6 -13 3 -7 20 7 17 30 31 51 31 26 0 34 9 25 25 -8 14 8 4
36 -21 l51 -46 71 39 c38 22 75 35 81 29 17 -17 73 47 57 65 -8 8 -3 9 11 1
18 -10 19 -25 5 -52z m-1981 -77 c0 -14 -10 -22 -24 -17 -14 5 -23 19 -20 31
3 13 -10 16 -30 9 -31 -11 -30 -7 4 32 41 46 65 27 70 -55z m641 65 c50 -31
44 -31 -60 -5 -16 4 -28 -4 -25 -18 3 -14 -13 -25 -35 -25 -53 0 -51 25 5 53
60 30 58 30 115 -5z m570 -169 c-2 -75 19 -84 81 -37 12 10 35 1 54 -21 26
-31 27 -40 5 -48 -15 -6 -32 0 -38 13 -6 16 -17 12 -32 -12 -16 -24 -36 -32
-64 -23 -24 8 -36 5 -29 -6 6 -10 -20 -33 -59 -52 -80 -38 -95 -41 -78 -13 7
11 -1 14 -19 8 -17 -7 -31 -2 -31 10 0 12 9 22 21 22 14 0 14 13 -1 40 -15 29
-15 40 0 40 13 0 16 11 8 23 -10 16 -3 19 22 10 31 -12 32 -10 8 20 -24 30
-24 32 0 18 22 -13 26 -9 16 16 -8 21 -3 33 14 33 20 0 23 -19 12 -81 -13 -69
-10 -80 18 -74 23 4 30 24 26 69 -3 34 4 68 15 76 12 7 17 20 12 28 -5 8 2 15
16 15 16 0 24 -27 23 -74z"/>
<path d="M652 2245 c-3 -3 -151 -6 -329 -6 l-324 -1 5 -69 c2 -38 9 -70 15
-72 6 -1 32 -4 57 -7 26 -3 57 -16 70 -30 19 -20 18 -22 -6 -10 -24 13 -25 11
-6 -10 20 -21 30 -22 55 -1 24 20 31 20 31 1 0 -25 -118 -139 -144 -140 -8 0
-10 -13 -3 -30 6 -16 21 -24 32 -17 12 8 15 4 7 -10 -8 -13 -32 -23 -54 -23
-22 0 -35 -9 -28 -20 21 -34 130 -24 130 11 0 32 17 53 85 107 44 34 192 63
206 40 6 -10 33 -3 59 14 60 39 99 21 70 -32 -11 -21 -20 -56 -20 -78 0 -31
-17 -43 -75 -53 -41 -7 -91 -17 -110 -22 -21 -6 -35 1 -35 17 0 15 -17 27 -38
27 -39 0 -37 -34 7 -91 40 -51 27 -110 -24 -108 -25 0 -45 -6 -45 -15 0 -10
-7 -16 -15 -15 -50 8 -83 -5 -73 -30 13 -33 -89 -117 -126 -103 -18 7 -26 -10
-26 -59 0 -56 6 -66 33 -56 24 9 29 5 17 -13 -12 -20 -1 -24 48 -17 48 7 69 0
84 -27 12 -22 41 -37 74 -36 50 0 52 2 17 28 -25 19 -32 41 -23 70 15 47 -60
59 -131 20 -67 -36 -42 13 48 93 120 108 159 139 199 154 40 15 45 66 9 82
-17 7 -15 10 5 9 74 -4 103 7 167 63 74 65 119 78 100 30 -6 -17 3 -35 21 -42
28 -11 28 -17 2 -54 -16 -23 -24 -61 -17 -88 7 -29 2 -46 -13 -46 -14 0 -19
13 -12 32 8 20 3 28 -13 22 -14 -5 -23 -18 -21 -30 5 -23 -107 28 -125 58 -6
10 -19 14 -29 8 -21 -13 8 -122 44 -165 22 -27 19 -29 -24 -14 -28 9 -76 14
-107 12 -52 -4 -54 -1 -25 28 18 18 32 36 32 41 0 20 -73 -32 -130 -93 l-60
-64 196 12 196 12 27 -64 c15 -36 34 -72 43 -80 58 -58 24 -107 -75 -107 l-99
0 12 74 c13 78 -15 121 -55 81 -15 -15 -15 -29 1 -48 35 -43 5 -114 -53 -128
-29 -7 -64 -21 -78 -32 -13 -11 -38 -14 -54 -8 -19 7 -40 -7 -56 -38 -22 -41
-31 -45 -56 -24 -16 14 -26 23 -23 22 4 -2 25 11 46 30 21 18 63 39 93 46 l55
12 -56 3 c-30 1 -78 -13 -105 -30 -62 -41 -75 57 -14 106 31 25 30 26 -11 6
-39 -19 -46 -37 -43 -106 6 -120 3 -134 -31 -134 -17 0 -30 -14 -30 -30 0 -17
11 -28 25 -25 28 6 22 -71 -7 -82 -10 -3 -18 -52 -18 -107 0 -72 7 -98 25 -91
14 5 93 -2 175 -17 220 -39 236 -37 244 25 3 30 18 58 33 63 21 7 26 -8 20
-61 l-8 -69 220 -33 c122 -18 271 -35 331 -38 l110 -5 10 66 c13 87 48 91 56
7 l7 -68 99 13 c168 23 173 31 56 103 -70 43 -121 94 -153 152 -26 48 -43 68
-39 45 7 -35 1 -41 -34 -35 -23 4 -31 2 -17 -4 38 -18 30 -50 -8 -35 -23 9
-29 5 -19 -11 8 -13 3 -23 -12 -23 -19 -1 -18 -6 4 -20 25 -16 24 -19 -6 -20
-20 0 -31 -8 -25 -18 9 -16 -4 -16 -66 -4 -5 1 4 16 18 33 21 26 21 30 -3 25
-19 -4 -26 9 -22 39 4 25 -1 45 -10 45 -38 0 -16 72 23 75 23 2 55 20 72 41
21 26 43 33 70 23 21 -8 46 -10 54 -5 8 4 15 0 15 -11 0 -11 -11 -23 -24 -28
-15 -5 -11 -12 10 -21 18 -7 33 -6 31 2 -6 45 7 47 29 4 16 -31 45 -52 79 -56
30 -4 55 -15 55 -25 0 -11 16 -19 35 -19 28 -1 29 -4 7 -18 -22 -14 -20 -20
10 -28 26 -6 21 -10 -18 -12 -38 -1 -52 6 -42 21 10 16 -1 19 -38 10 -41 -10
-54 -5 -64 28 -8 23 -18 38 -22 33 -66 -65 205 -243 340 -223 74 11 94 7 104
-19 7 -17 19 -27 28 -22 8 5 20 -9 26 -32 8 -28 20 -37 38 -27 17 10 19 8 6
-5 -28 -28 -343 -100 -636 -144 -134 -21 -253 -40 -264 -43 -45 -13 -170 27
-170 54 0 101 -154 167 -273 117 -102 -43 -121 -37 -67 20 50 53 19 72 -38 23
-33 -28 -302 -80 -320 -61 -6 5 0 27 13 48 19 31 18 44 -7 69 -45 45 -48 41
-48 -76 l0 -106 65 8 65 9 -50 -37 c-27 -20 -57 -35 -65 -32 -8 3 -15 -18 -15
-45 0 -28 9 -50 20 -50 11 0 20 10 20 21 0 12 9 16 20 9 11 -7 15 0 9 16 -16
40 25 64 163 98 l121 30 47 -52 c36 -41 49 -45 56 -22 12 34 40 61 95 92 42
23 172 -35 132 -60 -11 -7 -24 -1 -30 13 -8 19 -10 19 -11 -1 -1 -15 -12 -20
-25 -12 -14 8 -18 5 -10 -8 8 -12 33 -18 57 -13 24 4 51 -3 60 -16 24 -39 19
-60 -13 -48 -19 7 -25 1 -19 -16 9 -24 -113 -67 -232 -82 -16 -2 -43 -9 -60
-15 -16 -7 -112 -31 -212 -54 -180 -41 -182 -43 -180 -101 2 -49 10 -59 52
-59 40 1 44 5 20 20 -24 16 -22 19 14 20 24 0 49 9 56 20 25 41 116 23 104
-20 -6 -22 -2 -40 8 -40 10 0 18 29 18 65 1 49 5 58 20 35 11 -16 20 -21 20
-10 0 19 173 72 240 75 17 0 39 7 50 15 11 8 36 12 55 9 19 -3 35 1 35 9 0 8
20 15 45 15 25 1 70 8 100 16 46 13 53 10 43 -17 -7 -17 -19 -28 -27 -23 -7 5
-36 -3 -63 -17 -27 -14 -60 -21 -74 -17 -13 5 -24 -2 -24 -15 0 -12 -7 -18
-16 -13 -9 6 -17 -9 -18 -33 -1 -24 2 -33 8 -19 6 18 20 19 46 5 26 -14 42
-13 52 3 9 15 5 18 -12 7 -17 -10 -21 -8 -12 6 7 12 28 17 46 10 25 -10 30 -5
20 21 -7 18 -5 33 5 33 10 0 24 -17 30 -38 7 -21 26 -36 43 -34 41 6 70 55 49
81 -19 23 13 58 60 66 21 4 20 -2 -6 -22 -46 -36 -44 -53 6 -53 25 0 36 9 28
22 -10 16 -3 16 27 0 31 -17 42 -15 51 8 7 17 2 30 -9 30 -11 0 -15 9 -7 21 9
15 20 14 38 -1 20 -15 29 -13 38 9 6 17 31 31 54 31 37 0 39 -3 12 -30 -17
-17 -39 -30 -49 -30 -11 0 -29 -12 -42 -27 -33 -40 59 -33 94 7 15 17 21 19
14 5 -7 -14 -4 -25 7 -25 11 0 24 11 30 25 7 19 15 18 31 -5 17 -24 21 -24 22
-3 0 23 6 23 30 3 17 -14 30 -17 30 -8 0 9 11 5 25 -9 20 -20 19 -29 -5 -44
-26 -16 -25 -18 4 -19 46 0 39 108 -8 138 -28 18 -33 15 -24 -13 11 -33 10
-33 -17 0 -16 19 -33 32 -37 30 -5 -3 -3 2 3 10 60 79 192 38 174 -54 -5 -28
-2 -45 6 -40 9 5 22 -9 30 -33 17 -56 84 -122 99 -97 7 10 3 19 -9 19 -11 0
-21 18 -21 41 0 22 -17 76 -38 120 -38 78 -38 79 0 79 21 0 38 -9 38 -20 0
-39 41 -19 59 28 26 69 54 79 97 36 39 -39 104 -51 104 -18 0 10 12 9 26 -3
20 -16 33 -16 50 1 16 16 24 17 24 2 0 -23 -58 -55 -86 -49 -10 2 -11 -5 -4
-17 7 -11 21 -16 30 -10 9 6 23 2 29 -9 7 -10 26 -14 43 -7 23 8 25 16 7 27
-13 8 -17 25 -9 39 12 19 19 18 32 -3 10 -15 18 -18 18 -7 0 32 -134 130 -178
130 -22 0 -45 9 -52 20 -7 12 2 14 22 6 23 -8 30 -5 21 10 -18 28 54 68 94 53
16 -7 35 -2 42 10 8 12 22 17 32 10 10 -6 4 -34 -14 -61 -32 -48 -31 -53 9
-93 41 -41 43 -41 55 -4 38 118 48 129 116 129 38 0 78 -13 91 -28 40 -47 102
-54 102 -10 0 21 -8 38 -17 38 -9 0 -38 19 -64 41 -26 23 -64 37 -83 32 -43
-11 -43 -12 -6 60 16 31 30 47 30 36 0 -12 13 -39 29 -60 28 -38 29 -37 18 6
-14 54 71 66 113 15 21 -25 29 -26 48 -4 23 28 303 82 331 64 26 -16 43 49 23
87 -10 19 -38 36 -61 37 -23 2 -38 -3 -32 -12 5 -8 -2 -16 -15 -17 -13 -1 -42
-6 -64 -11 -100 -23 -219 -33 -180 -15 22 10 60 19 85 20 25 0 45 10 45 20 0
11 -11 16 -25 11 -58 -19 -155 -25 -155 -9 0 37 -85 7 -102 -35 -9 -25 -26
-46 -38 -46 -27 0 -25 13 12 70 36 56 21 104 -21 65 -15 -14 -22 -33 -16 -43
6 -10 1 -12 -12 -4 -57 35 78 138 155 118 36 -9 44 -6 33 13 -11 18 -44 22
-109 13 -83 -11 -93 -8 -93 26 0 22 6 35 13 31 8 -5 19 4 25 20 7 19 1 25 -18
18 -24 -9 -28 68 -28 531 0 475 4 542 31 542 21 0 29 16 24 53 -6 58 -56 91
-56 39 0 -34 -32 -44 -43 -14 -6 15 -390 33 -531 25 -74 -5 -233 -160 -161
-158 65 3 96 -7 85 -25 -7 -12 -21 -16 -30 -10 -9 6 -24 0 -32 -13 -10 -17 -1
-19 34 -8 26 9 67 17 90 18 24 2 39 12 35 24 -4 11 10 20 32 20 22 0 44 -11
49 -24 7 -16 -2 -21 -22 -13 -22 9 -28 5 -18 -11 14 -22 -1 -26 -103 -31 -19
-1 -39 -7 -45 -14 -13 -15 -288 -98 -357 -108 -29 -3 -68 -12 -85 -19 -37 -15
-63 29 -39 68 9 13 50 28 93 32 43 4 91 23 108 43 17 20 78 68 135 106 169
113 149 130 -155 130 l-260 0 1 -70 c0 -38 8 -108 17 -155 9 -47 10 -85 2 -85
-8 0 -19 -40 -25 -90 -6 -49 -22 -104 -36 -122 -30 -35 -27 -234 3 -245 10 -3
13 -15 7 -25 -6 -10 -2 -18 10 -18 11 0 21 13 21 28 0 16 123 98 275 183 151
85 368 208 482 272 114 64 215 117 226 117 10 0 40 14 67 32 27 17 60 28 74
23 14 -5 -20 -32 -76 -61 -127 -64 -130 -81 -127 -555 l2 -334 82 -54 c53 -34
86 -45 95 -31 7 12 13 -6 13 -40 0 -34 -5 -53 -11 -43 -7 9 -34 24 -62 32 -29
8 -40 7 -26 -3 43 -31 7 -106 -51 -108 -29 0 -42 -6 -28 -11 14 -6 21 -18 15
-27 -12 -20 -130 87 -130 119 0 12 31 41 70 64 86 51 73 78 -36 76 -129 -2
-149 2 -148 27 3 128 -13 636 -20 609 -5 -19 -16 -35 -24 -35 -8 0 -12 -25 -9
-55 27 -241 17 -519 -17 -510 -33 9 -36 38 -36 311 0 165 -5 295 -12 289 -6
-7 -10 -142 -9 -301 l2 -289 -63 -12 c-36 -8 -108 1 -171 19 -186 54 -441 49
-486 -10 l-36 -49 -14 44 c-9 27 -30 43 -57 43 -32 -1 -37 -5 -17 -18 19 -12
21 -21 5 -31 -26 -16 -25 -27 -25 199 0 226 21 538 43 630 47 197 -3 350 -88
265z m1448 -250 c-1 -40 -39 -93 -40 -55 -1 27 -3 27 -19 0 -15 -24 -24 -25
-44 -5 -20 20 -17 31 14 54 48 37 89 39 89 6z m-755 -148 c-14 -6 -22 -16 -17
-24 4 -7 -29 -15 -73 -18 -93 -5 -88 12 9 35 76 18 118 22 81 7z m-238 -110
c-4 -108 -6 -117 -27 -117 -11 0 -20 28 -20 61 l0 61 -49 -56 c-28 -32 -50
-44 -50 -29 -1 15 22 45 49 67 28 21 50 57 50 80 0 30 6 36 25 20 14 -11 24
-51 22 -87z m-127 -639 c0 -11 -10 -14 -23 -6 -15 9 -18 5 -9 -9 8 -13 23 -18
34 -12 35 22 171 -12 171 -42 0 -16 -7 -29 -16 -29 -9 0 -17 9 -17 19 0 11
-13 15 -30 8 -16 -6 -24 -20 -18 -31 8 -12 -36 -17 -120 -13 -73 4 -134 2
-137 -3 -3 -6 -99 -32 -215 -57 -116 -25 -271 -67 -345 -93 -127 -43 -194 -51
-85 -10 28 11 49 26 47 35 -9 40 32 85 76 85 33 0 44 8 35 23 -10 16 -3 20 20
10 22 -8 55 2 86 27 28 22 75 40 105 40 29 0 73 18 96 40 40 37 82 24 56 -19
-6 -10 -2 -24 9 -31 27 -17 103 8 90 30 -6 10 -1 23 10 30 12 7 19 1 15 -13
-10 -51 102 -33 114 18 11 44 51 46 51 3z m366 -92 c35 -19 73 -32 84 -29 11
3 9 -5 -4 -18 -18 -19 -39 -14 -95 20 -106 66 -96 86 15 27z m237 -67 c-4 -55
2 -79 20 -79 20 -1 19 -5 -3 -19 -22 -14 -34 -9 -44 20 -12 31 -23 35 -63 20
-40 -15 -51 -12 -59 19 -5 22 3 42 19 49 16 6 25 18 19 28 -6 9 3 16 19 16 16
0 29 -7 29 -16 0 -9 -9 -17 -20 -17 -11 0 -20 -10 -20 -22 0 -17 7 -17 27 -1
15 13 33 16 42 8 8 -8 13 -6 10 5 -8 42 2 96 15 82 8 -7 12 -49 9 -93z m626 3
c11 -19 -20 -49 -71 -67 -25 -9 -30 -1 -23 37 10 48 71 68 94 30z m-1276 -95
c0 -40 -107 -116 -118 -83 -4 13 -34 26 -66 27 -122 7 -141 12 -109 24 17 6
37 21 45 33 10 16 14 15 15 -1 0 -17 20 -17 80 1 114 33 153 33 153 -1z m1116
8 c8 8 11 2 8 -15 -5 -19 8 -30 33 -30 27 -1 38 -12 34 -37 -5 -30 0 -32 35
-14 35 19 41 17 41 -19 0 -55 -57 -46 -107 16 -43 53 -66 46 -35 -12 27 -50 8
-68 -44 -41 -33 18 -38 16 -28 -11 18 -45 -20 -40 -45 7 -31 56 -26 62 29 41
45 -17 49 -14 45 31 -4 52 -26 65 -41 24 -5 -14 -15 -19 -23 -12 -27 25 29
102 57 78 14 -11 32 -14 41 -6z m-260 -19 c7 7 22 0 32 -17 16 -25 18 -25 19
1 1 25 3 26 18 2 21 -33 6 -87 -20 -71 -10 6 -18 0 -19 -15 0 -17 -9 -14 -27
9 -25 34 -28 33 -41 -10 -9 -28 -18 -36 -24 -19 -8 19 -18 20 -37 4 -19 -16
-30 -15 -41 2 -10 15 -7 19 8 10 13 -8 23 -5 23 7 0 11 14 21 30 21 17 0 30 9
30 21 0 11 -13 25 -30 32 -16 6 -30 19 -30 29 0 9 21 9 48 -1 26 -10 54 -13
61 -5z m176 -196 c8 0 15 -10 15 -21 0 -12 -9 -16 -20 -9 -11 7 -21 -4 -22
-24 -2 -33 -3 -33 -12 -1 -5 19 -17 35 -26 35 -9 0 -33 -16 -52 -35 -34 -33
-35 -33 -24 9 7 25 6 43 -1 40 -7 -2 -13 5 -14 16 0 11 13 17 28 13 18 -4 24
5 17 24 -20 51 34 51 66 0 16 -26 36 -47 45 -47z m135 -59 c0 -11 14 -15 30
-8 17 6 30 2 30 -9 0 -10 -18 -24 -40 -30 -22 -6 -40 -7 -40 -4 0 4 -5 21 -12
38 -7 18 -2 32 10 32 12 0 22 -9 22 -19z"/>
<path d="M2989 2234 c-6 -15 -5 -54 2 -86 7 -32 18 -191 23 -354 l11 -296 72
-30 c39 -16 89 -45 111 -64 21 -19 32 -22 23 -8 -10 18 -1 30 27 38 45 12 58
42 17 41 -91 -4 -136 10 -155 45 -17 32 -15 40 10 40 19 0 27 -9 18 -23 -10
-16 2 -20 38 -13 31 6 48 2 41 -9 -6 -10 4 -16 24 -12 96 19 -4 117 -119 117
-37 0 -48 8 -39 30 6 17 33 30 59 30 34 0 49 12 51 40 1 22 4 49 7 60 3 11 6
40 8 65 3 42 5 42 30 10 14 -19 42 -35 61 -35 19 0 39 -18 45 -40 20 -75 67
-47 54 32 -7 49 -4 68 10 59 12 -7 22 -27 22 -43 0 -17 7 -26 15 -21 9 5 14
-37 12 -94 -2 -57 -10 -101 -19 -99 -22 4 -45 72 -32 94 5 10 1 13 -9 6 -11
-7 -45 1 -76 17 -71 37 -111 37 -111 -1 0 -16 11 -30 24 -30 19 0 19 -5 0 -24
-37 -37 -29 -50 38 -63 38 -8 59 -23 54 -38 -13 -37 47 -85 104 -82 28 1 73
-6 100 -17 40 -15 45 -14 25 7 -48 48 -30 76 30 47 30 -15 87 -33 127 -40 l71
-13 1 300 c0 298 0 300 -47 312 -27 7 -47 27 -47 46 0 21 6 27 15 14 41 -60
85 -48 85 23 0 68 -3 71 -65 65 -36 -3 -75 1 -87 8 -12 8 -51 6 -85 -4 -62
-18 -515 -8 -547 12 -9 5 -21 -3 -27 -19z m336 -121 c86 -26 233 -29 272 -5
10 6 23 -5 28 -24 7 -29 -4 -37 -57 -38 -85 -3 -128 -42 -107 -99 14 -36 10
-41 -22 -32 -22 5 -39 19 -39 30 0 12 -11 10 -28 -4 -22 -17 -32 -17 -43 0
-10 17 -18 16 -31 -4 -20 -33 -48 -7 -67 63 -11 43 -9 46 13 20 42 -48 71 -43
61 11 -5 27 -17 44 -26 39 -8 -6 -19 -1 -23 11 -9 29 -81 38 -111 14 -17 -13
-25 -13 -25 1 0 47 81 54 205 17z m-114 -100 c-1 -48 -11 -66 -38 -68 -27 -2
-33 6 -22 31 8 19 13 54 12 78 -2 29 7 41 24 34 14 -5 25 -38 24 -75z m420
-266 c24 -10 31 -6 21 10 -8 12 -6 23 5 23 10 0 24 -13 30 -30 7 -16 26 -30
42 -30 18 0 31 -17 31 -40 0 -49 -39 -54 -42 -5 -1 23 -7 18 -18 -15 -9 -27
-17 -38 -18 -23 -1 19 -21 25 -61 19 -32 -5 -55 -3 -51 5 5 7 -13 23 -40 35
-114 52 -22 98 101 51z"/>
<path d="M2290 2140 c7 -11 39 -20 71 -20 33 0 59 9 59 20 0 11 -32 20 -71 20
-43 0 -66 -8 -59 -20z"/>
<path d="M7 2000 c-2 -82 36 -112 61 -49 6 17 21 26 32 19 11 -7 14 1 7 21
-10 25 -16 27 -29 6 -11 -18 -22 -10 -36 29 -28 72 -32 69 -35 -26z"/>
<path d="M5646 1960 c-6 -22 -18 -35 -28 -29 -10 6 -13 -1 -8 -15 6 -14 43
-28 83 -31 74 -6 125 -49 126 -108 1 -18 21 -38 46 -44 66 -18 75 -16 63 14
-5 15 4 38 21 52 39 32 41 63 3 49 -15 -6 -33 -29 -39 -52 -10 -39 -12 -40
-46 -6 -38 38 -60 121 -27 100 11 -7 20 -28 20 -46 1 -29 3 -30 20 -4 12 19
12 32 -1 37 -10 3 -19 17 -19 30 0 13 -18 34 -39 48 -32 20 -38 19 -29 -3 6
-15 1 -34 -11 -41 -11 -7 -21 -6 -21 4 0 10 -14 35 -31 56 -18 22 -26 28 -19
14 7 -15 -1 -25 -20 -25 -18 0 -27 9 -20 20 7 11 6 20 -1 20 -7 0 -17 -18 -23
-40z"/>
<path d="M5458 1931 c-16 -15 24 -191 43 -191 30 0 78 129 55 150 -14 13 -24
12 -30 -5 -14 -39 -43 -29 -50 17 -3 23 -11 36 -18 29z"/>
<path d="M1837 1835 c-4 -25 -2 -193 4 -375 l11 -330 4 375 c4 351 -1 438 -19
330z"/>
<path d="M2379 1840 c-12 -83 -11 -503 2 -510 21 -14 34 79 36 261 2 143 -26
326 -38 249z"/>
<path d="M1737 1795 c-4 -25 -2 -180 4 -345 l11 -300 4 345 c4 324 -1 406 -19
300z"/>
<path d="M183 1759 c-36 -22 -60 -48 -53 -59 7 -11 3 -20 -9 -20 -19 0 -29 26
-24 62 3 29 -87 5 -93 -24 -4 -24 15 -36 75 -46 45 -7 81 -21 81 -32 0 -46 53
7 74 75 29 92 29 92 -51 44z"/>
<path d="M1473 1675 c-20 -72 -14 -402 7 -435 13 -20 19 53 20 225 0 256 -5
294 -27 210z"/>
<path d="M3840 1408 c0 -18 -24 -29 -65 -30 -42 -2 -51 -6 -25 -12 22 -6 49
-18 59 -28 30 -28 71 -21 71 12 0 17 9 30 20 30 36 0 21 35 -20 46 -26 7 -40
0 -40 -18z"/>
<path d="M5380 1276 c0 -18 95 -48 295 -92 336 -74 325 -73 325 -38 0 18 -91
44 -275 81 -151 31 -291 60 -310 66 -21 6 -35 -1 -35 -17z"/>
<path d="M2694 948 c-6 -7 -7 -24 -1 -38 5 -15 -6 -30 -27 -35 -20 -5 3 -9 51
-10 66 0 80 5 60 22 -15 13 -37 34 -49 48 -12 13 -27 19 -34 13z"/>
<path d="M4990 791 c-68 -21 -81 -33 -84 -83 -3 -32 0 -47 6 -34 6 13 42 34
79 46 38 13 65 31 59 40 -5 9 8 12 30 6 28 -7 40 -1 40 22 0 37 -19 37 -130 3z"/>
<path d="M4710 700 c-27 -12 -30 -18 -10 -19 41 -2 -16 -40 -60 -40 -27 0 -27
2 0 21 25 18 24 20 -7 10 -20 -7 -44 -12 -53 -12 -9 0 -15 -11 -13 -25 6 -41
34 -75 59 -75 15 0 12 9 -6 22 -23 16 -16 18 30 9 43 -9 52 -7 30 7 -24 16
-20 23 20 38 34 13 55 12 64 -3 21 -34 36 -7 23 43 -13 48 -18 50 -77 24z"/>
<path d="M2749 639 c-7 -12 -7 -45 0 -74 12 -45 9 -48 -17 -27 -16 14 -25 38
-18 54 9 24 -5 27 -77 16 -48 -7 -109 -11 -136 -10 l-48 2 43 -46 c24 -26 44
-56 44 -67 0 -12 36 -62 80 -112 109 -124 101 -157 -15 -64 -150 120 -147 119
-133 82 7 -18 20 -33 30 -33 29 0 136 -102 149 -142 21 -68 201 -28 255 57 22
34 54 32 54 -4 0 -30 99 -9 152 32 12 9 28 11 35 3 7 -7 13 1 13 17 0 17 -22
42 -49 57 -27 14 -45 33 -40 41 5 9 -29 48 -76 89 -47 40 -86 81 -87 91 -2 11
-4 28 -5 39 -4 27 -137 26 -154 -1z m142 -194 c-10 -25 -6 -26 17 -7 21 18 32
18 43 1 16 -27 -30 -62 -58 -44 -12 7 -14 -4 -5 -26 8 -21 8 -31 0 -24 -8 8
-26 5 -41 -8 -15 -12 -28 -14 -29 -4 -11 123 2 169 29 102 5 -14 11 -4 11 21
1 28 11 41 23 33 12 -7 16 -27 10 -44z m-151 -76 c0 -16 9 -29 19 -29 11 0 15
-13 8 -30 -6 -16 -20 -24 -30 -18 -26 16 -55 94 -43 113 13 23 46 -3 46 -36z"/>
<path d="M4040 481 c-27 -8 -48 -25 -45 -38 3 -13 -4 -23 -15 -23 -11 0 -20 8
-20 17 0 10 -22 13 -50 8 -29 -6 -50 -23 -50 -42 -1 -21 -6 -25 -15 -11 -23
35 -105 -4 -105 -49 0 -21 14 -44 32 -51 48 -18 61 -14 28 10 -24 17 -21 20
15 12 29 -7 40 -3 32 11 -9 14 2 17 30 10 24 -6 38 -3 32 6 -14 24 82 47 113
28 14 -9 19 -7 11 6 -7 11 9 26 37 33 32 8 50 27 50 52 0 43 -4 44 -80 21z"/>
<path d="M5965 487 c-14 -6 -20 -19 -14 -28 6 -10 -4 -13 -23 -5 -25 9 -30 6
-18 -14 10 -17 8 -21 -6 -12 -21 13 -264 -97 -264 -119 0 -5 27 4 60 21 33 17
60 26 60 21 0 -6 -37 -29 -82 -52 -45 -23 -76 -32 -69 -20 19 30 29 35 -289
-129 l-290 -148 204 -1 c162 -1 203 5 195 25 -7 17 28 48 90 82 56 30 101 64
101 75 0 11 11 16 25 12 14 -5 56 12 95 38 86 59 89 58 93 -4 2 -40 -4 -49
-30 -39 -24 9 -27 6 -11 -9 23 -24 133 20 128 51 -2 9 8 21 21 25 14 5 19 -1
11 -14 -8 -14 -1 -23 17 -23 25 0 31 27 31 140 0 77 -2 139 -5 138 -3 0 -16
-6 -30 -11z"/>
<path d="M2192 450 c-21 -16 -47 -23 -58 -16 -13 8 -16 0 -8 -20 8 -21 -1 -36
-28 -45 -32 -10 -35 -18 -17 -41 13 -15 18 -28 10 -28 -8 0 4 -30 27 -67 l41
-67 -80 -24 c-68 -20 -85 -19 -111 7 -38 38 -50 39 -36 3 6 -15 -1 -35 -14
-44 -15 -8 -29 -5 -33 8 -5 13 -18 24 -29 24 -12 0 -9 -15 7 -33 24 -31 20
-33 -45 -22 -53 8 -71 4 -71 -16 0 -36 52 -55 82 -30 13 11 41 23 63 27 21 4
91 24 155 45 l118 38 46 -58 c26 -32 42 -66 37 -75 -6 -9 13 -14 41 -12 48 4
75 36 31 36 -11 0 -20 10 -20 21 0 12 9 16 20 9 11 -7 15 1 8 17 -6 16 -2 34
8 40 19 13 70 -81 56 -103 -4 -8 22 -14 60 -14 39 0 68 10 68 24 0 13 19 37
43 54 l42 29 -54 50 c-32 30 -51 67 -47 90 3 24 -18 66 -53 102 -66 68 -104
81 -67 22 13 -21 33 -37 44 -35 11 2 22 -23 25 -56 4 -44 0 -52 -14 -30 -13
20 -24 23 -34 9 -20 -29 -86 -58 -152 -67 -10 -1 -7 -16 7 -32 54 -65 6 -39
-71 39 -44 44 -60 63 -34 42 48 -41 84 -23 85 43 0 13 11 30 23 38 16 10 20 4
11 -20 -9 -21 -6 -29 8 -21 11 7 16 26 10 41 -6 15 -2 28 9 28 10 0 19 -11 19
-25 1 -18 6 -17 18 3 30 46 4 87 -31 51 -17 -16 -40 -29 -52 -29 -12 0 -38
-15 -59 -33 -20 -18 -41 -29 -47 -23 -17 17 35 116 62 116 13 0 35 14 49 30
34 40 -15 40 -68 0z m285 -248 c20 -12 21 -21 4 -31 -12 -8 -17 -32 -10 -54
11 -35 8 -35 -36 7 -62 60 -29 123 42 78z"/>
<path d="M3156 271 c-29 -15 -58 -22 -65 -16 -6 7 -11 0 -11 -15 0 -15 -6 -21
-13 -14 -7 8 -27 2 -44 -11 -24 -20 -28 -20 -16 0 10 17 5 21 -16 13 -21 -8
-31 -38 -31 -90 0 -92 -53 -111 -64 -23 -6 43 -10 37 -17 -30 l-10 -85 94 0
c52 0 100 9 107 20 7 11 28 19 46 19 28 -2 27 -5 -6 -19 -35 -15 -34 -17 13
-15 36 2 49 12 42 31 -9 22 2 22 51 -4 67 -35 324 -45 324 -14 0 29 -46 39
-85 19 -43 -23 -45 -10 -4 32 29 28 28 31 -7 31 -22 0 -45 14 -52 32 -10 26
-36 30 -157 21 -80 -6 -151 -12 -159 -12 -8 -1 -9 -15 -3 -33 10 -24 2 -30
-34 -25 -60 9 -72 49 -19 63 22 6 44 9 47 7 4 -2 19 7 35 19 15 13 56 22 91
20 52 -2 61 5 55 37 -11 61 -35 72 -92 42z"/>
<path d="M2773 166 c-32 -9 -33 -13 -6 -43 29 -32 33 -41 33 -82 0 -11 14 -15
30 -8 19 7 30 37 30 79 0 68 -9 74 -87 54z"/>
<path d="M5678 156 c-21 -15 -18 -17 12 -8 33 10 31 6 -9 -26 -28 -21 -59 -34
-70 -28 -14 8 -14 5 -1 -10 11 -11 47 -27 80 -34 46 -10 53 -8 30 8 -26 19
-26 21 1 22 78 0 109 53 45 75 -40 14 -70 14 -88 1z"/>
<path d="M517 81 l-47 -38 57 6 c73 8 144 71 80 71 -24 0 -64 -17 -90 -39z"/>
<path d="M1443 57 c5 -32 22 -49 56 -54 46 -6 47 -5 18 39 -43 65 -82 73 -74
15z"/>
<path d="M5510 80 c-22 -9 -29 -18 -15 -19 14 0 25 -11 25 -23 0 -12 -13 -17
-30 -11 -16 7 -30 2 -30 -9 0 -13 29 -17 75 -10 41 6 82 11 91 11 36 2 -11 41
-48 41 -22 0 -35 9 -28 20 14 23 14 23 -40 0z"/>
</g>
</svg>
