<?xml version="1.0" standalone="no"?>
<!DOCTYPE svg PUBLIC "-//W3C//DTD SVG 20010904//EN"
 "http://www.w3.org/TR/2001/REC-SVG-20010904/DTD/svg10.dtd">
<svg version="1.0" xmlns="http://www.w3.org/2000/svg"
 width="300.000000pt" height="188.000000pt" viewBox="0 0 300.000000 188.000000"
 preserveAspectRatio="xMidYMid meet">
<metadata>
Created by potrace 1.10, written by Peter Selinger 2001-2011
</metadata>
<g transform="translate(0.000000,188.000000) scale(0.100000,-0.100000)"
fill="#000000" stroke="none">
<path d="M1388 1873 c7 -3 16 -2 19 1 4 3 -2 6 -13 5 -11 0 -14 -3 -6 -6z"/>
<path d="M1747 1865 c-9 -23 6 -25 32 -4 l23 19 -25 0 c-14 0 -27 -7 -30 -15z"/>
<path d="M1825 1851 c-3 -17 -14 -31 -26 -34 -10 -3 -19 -13 -19 -24 0 -15 2
-15 10 -3 5 8 12 11 16 7 4 -4 15 11 25 33 10 22 20 40 23 40 9 0 3 -45 -8
-58 -7 -9 -6 -16 3 -22 8 -4 11 -16 6 -29 -3 -12 -10 -19 -15 -16 -9 6 -79
-26 -80 -36 0 -3 14 -4 30 -1 17 2 30 8 30 13 0 5 11 9 25 9 14 0 25 5 25 11
0 6 6 9 14 6 7 -3 20 3 29 14 14 16 15 19 2 19 -8 0 -15 -4 -15 -10 0 -5 -5
-10 -11 -10 -7 0 -8 7 -4 18 18 43 18 55 2 49 -8 -3 -18 0 -21 8 -5 14 8 28
34 38 8 3 -4 6 -27 6 -38 1 -42 -1 -48 -28z"/>
<path d="M1920 1870 c0 -5 7 -7 15 -4 8 4 15 8 15 10 0 2 -7 4 -15 4 -8 0 -15
-4 -15 -10z"/>
<path d="M1988 1873 c22 -9 13 -42 -17 -58 -27 -14 -30 -13 -33 3 -3 14 -5 13
-10 -4 -5 -19 -2 -22 28 -22 21 0 38 6 43 16 11 19 26 9 26 -15 0 -9 6 -18 14
-21 9 -3 12 0 8 10 -3 9 1 25 10 37 14 21 14 21 -19 16 -29 -4 -31 -4 -15 9
27 21 20 36 -15 35 -18 0 -27 -3 -20 -6z"/>
<path d="M2055 1871 c-3 -5 -1 -12 5 -16 5 -3 10 1 10 9 0 18 -6 21 -15 7z"/>
<path d="M2739 1864 c-12 -16 -12 -17 4 -11 19 7 24 -9 5 -16 -10 -4 -10 -6
-1 -6 17 -1 25 17 15 35 -8 14 -10 13 -23 -2z"/>
<path d="M2793 1843 c-18 -19 -33 -40 -33 -46 0 -7 15 5 34 25 19 20 36 35 39
32 2 -2 10 2 17 11 27 32 -25 13 -57 -22z"/>
<path d="M2936 1861 c38 -23 48 -37 34 -46 -6 -4 -8 -10 -5 -15 3 -4 -3 -14
-13 -21 -15 -13 -16 -12 -3 4 8 10 9 17 3 17 -13 0 -103 -102 -97 -109 3 -2
18 5 33 18 15 12 34 24 42 27 30 12 72 72 65 94 -3 11 -12 20 -20 20 -7 0 -15
7 -19 15 -3 8 -16 15 -28 15 -21 0 -20 -2 8 -19z"/>
<path d="M2100 1855 c-14 -8 -20 -14 -14 -15 5 0 19 7 30 15 24 18 16 19 -16
0z"/>
<path d="M2196 1853 c7 -2 10 -12 7 -22 -5 -20 15 -39 26 -24 3 5 15 13 26 18
18 7 18 9 2 12 -9 3 -15 8 -13 12 3 4 -9 8 -27 8 -18 0 -27 -2 -21 -4z"/>
<path d="M2130 1839 c0 -5 5 -7 10 -4 6 3 10 8 10 11 0 2 -4 4 -10 4 -5 0 -10
-5 -10 -11z"/>
<path d="M2510 1820 c-9 -6 -10 -10 -3 -10 6 0 15 5 18 10 8 12 4 12 -15 0z"/>
<path d="M2846 1805 c-3 -8 -12 -15 -20 -15 -8 0 -29 -14 -45 -32 -25 -26 -29
-39 -25 -65 5 -30 3 -33 -19 -33 -14 0 -27 -6 -30 -14 -10 -25 39 -11 69 20
17 17 22 25 12 21 -10 -3 -20 -2 -23 3 -4 6 -1 10 4 10 6 0 11 8 11 18 0 23
26 59 36 50 4 -4 1 -14 -6 -23 -21 -26 -4 -28 24 -3 15 13 29 35 32 51 5 28
-10 38 -20 12z"/>
<path d="M2895 1800 c-3 -5 -1 -10 4 -10 6 0 11 5 11 10 0 6 -2 10 -4 10 -3 0
-8 -4 -11 -10z"/>
<path d="M2166 1785 c-3 -8 -1 -15 3 -15 5 0 11 7 15 15 3 8 1 15 -3 15 -5 0
-11 -7 -15 -15z"/>
<path d="M2326 1773 c-6 -14 -5 -15 5 -6 7 7 10 15 7 18 -3 3 -9 -2 -12 -12z"/>
<path d="M2552 1765 c-9 -20 -9 -23 3 -18 8 3 15 14 15 24 0 25 -5 24 -18 -6z"/>
<path d="M2749 1753 c-13 -16 -12 -17 4 -4 16 13 21 21 13 21 -2 0 -10 -8 -17
-17z"/>
<path d="M2170 1752 c0 -5 7 -17 16 -28 14 -17 15 -17 10 -1 -3 10 -6 23 -6
28 0 5 -4 9 -10 9 -5 0 -10 -4 -10 -8z"/>
<path d="M1483 1735 c-3 -9 -3 -32 0 -51 3 -19 2 -32 -3 -29 -5 3 -8 -7 -7
-22 2 -16 -4 -34 -13 -41 -13 -11 -12 -12 7 -7 19 5 22 3 16 -11 -4 -12 -3
-15 5 -10 7 4 12 14 12 22 0 18 22 14 28 -6 3 -7 0 -10 -5 -7 -5 3 -8 -9 -6
-26 1 -18 4 -123 6 -234 l2 -203 -32 0 c-31 0 -83 -36 -83 -56 0 -5 5 -2 10 6
8 12 10 10 10 -8 0 -13 4 -20 10 -17 6 3 10 17 10 29 0 37 69 49 102 19 10 -9
18 -11 18 -6 0 6 -7 16 -15 23 -17 15 -20 40 -4 40 6 0 8 -7 5 -16 -4 -9 -1
-14 6 -12 19 7 16 46 -4 51 -19 5 -22 38 -5 64 4 6 3 15 -3 18 -21 13 9 32 47
31 27 -1 39 -6 41 -18 2 -10 -2 -18 -8 -18 -6 0 -8 5 -5 10 10 16 -11 12 -25
-5 -7 -8 -19 -15 -26 -15 -17 0 -18 -16 -3 -26 6 -3 15 -1 19 6 6 10 9 8 13
-6 4 -15 5 -13 6 6 1 18 4 21 10 11 7 -11 11 -9 20 8 7 11 16 21 22 21 6 0 7
-5 3 -12 -4 -6 5 -3 19 8 15 10 24 25 22 32 -2 6 3 12 12 12 13 0 14 3 6 11
-7 7 -19 8 -30 3 -10 -4 -38 -8 -63 -9 -25 0 -55 -4 -66 -8 -16 -5 -23 -3 -28
9 -4 12 -2 15 9 10 9 -3 15 0 15 8 0 19 34 26 70 16 28 -8 30 -7 24 16 -4 15
-2 24 6 24 6 0 8 -5 5 -10 -11 -19 38 -29 57 -13 12 10 28 14 47 10 17 -4 33
-2 36 3 3 6 -4 10 -16 10 -16 0 -20 5 -16 20 4 15 -1 22 -19 26 -23 6 -35 34
-14 34 6 0 10 7 10 15 0 8 5 15 12 15 9 0 9 3 0 12 -10 10 -16 7 -28 -10 -9
-13 -20 -19 -27 -15 -7 4 -6 -1 2 -10 12 -15 12 -17 -3 -11 -9 3 -16 1 -16 -5
0 -6 5 -11 11 -11 8 0 8 -4 0 -14 -10 -12 -6 -14 24 -12 21 1 35 -3 35 -10 0
-17 -31 -22 -99 -17 -34 3 -67 1 -74 -4 -16 -13 -57 -23 -57 -14 0 4 7 16 16
27 13 15 15 16 10 2 -3 -12 -1 -15 9 -12 8 3 11 12 8 20 -3 8 0 14 6 14 6 0
11 -6 11 -12 0 -20 20 14 20 35 0 15 -2 15 -20 -3 -25 -25 -63 -27 -58 -2 3
12 12 16 31 14 15 -1 27 2 27 7 0 6 -7 7 -17 4 -11 -4 -14 -3 -9 6 5 7 14 10
21 7 16 -6 39 19 31 33 -4 5 -20 9 -36 9 -25 -1 -30 -5 -30 -25 0 -12 -5 -23
-11 -23 -10 0 -7 50 6 69 3 6 1 11 -4 11 -6 0 -11 7 -11 14 0 11 11 15 40 13
22 -1 40 -5 40 -9 0 -13 48 -9 53 5 5 13 -15 19 -65 20 -20 0 -28 5 -28 18 0
10 -4 21 -10 24 -19 12 -11 43 13 48 20 4 19 4 -4 6 -20 1 -29 8 -33 26 -7 26
-20 32 -31 15 -3 -5 -2 -10 4 -10 5 0 12 -13 16 -30 8 -35 7 -40 -2 -39 -4 0
-10 -8 -14 -18 -7 -16 -12 29 -13 105 0 26 -4 28 -13 7z m70 -130 c-5 -13 -23
-22 -23 -11 0 15 14 35 21 31 4 -3 6 -12 2 -20z m42 -115 c3 -5 -1 -10 -10
-10 -9 0 -13 5 -10 10 3 6 8 10 10 10 2 0 7 -4 10 -10z"/>
<path d="M2220 1736 c0 -2 8 -10 18 -17 15 -13 16 -12 3 4 -13 16 -21 21 -21
13z"/>
<path d="M1709 1719 c-10 -6 -7 -9 14 -9 29 0 35 5 14 13 -8 3 -20 1 -28 -4z"/>
<path d="M170 1713 c0 -7 4 -14 10 -18 5 -3 7 -13 4 -23 -5 -14 -4 -14 6 2 10
14 9 21 -4 34 -9 10 -16 12 -16 5z"/>
<path d="M145 1700 c-3 -5 -2 -18 4 -27 7 -14 9 -12 8 10 -2 30 -3 31 -12 17z"/>
<path d="M1805 1690 c-28 -7 -29 -8 -5 -10 14 -1 33 -3 43 -5 10 -2 16 2 14 8
-4 14 -16 16 -52 7z"/>
<path d="M2161 1684 c0 -11 3 -14 6 -6 3 7 2 16 -1 19 -3 4 -6 -2 -5 -13z"/>
<path d="M2505 1680 c-4 -6 6 -10 22 -10 22 0 25 2 13 10 -19 12 -27 12 -35 0z"/>
<path d="M2815 1680 c-3 -5 1 -10 10 -10 9 0 13 5 10 10 -3 6 -8 10 -10 10 -2
0 -7 -4 -10 -10z"/>
<path d="M2896 1650 c-20 -22 -36 -45 -36 -51 0 -5 -4 -8 -8 -5 -4 2 -13 -4
-20 -15 -7 -11 -8 -19 -2 -19 13 0 50 37 50 50 0 5 7 7 15 4 10 -4 15 0 15 14
0 12 9 27 21 35 11 8 16 18 11 21 -5 3 -26 -12 -46 -34z"/>
<path d="M2195 1649 c-4 -6 -5 -13 -2 -16 7 -7 27 6 27 18 0 12 -17 12 -25 -2z"/>
<path d="M2643 1653 c-7 -2 -13 -10 -13 -15 0 -6 3 -8 6 -5 4 3 14 2 23 -3 13
-6 17 -4 17 11 0 19 -9 22 -33 12z"/>
<path d="M2948 1651 c12 -7 12 -12 0 -30 -7 -12 -20 -24 -29 -26 -19 -6 -67
-55 -53 -55 5 0 18 7 29 15 17 14 20 13 32 -7 l12 -23 1 22 c0 27 19 40 31 22
6 -9 3 -18 -8 -26 -9 -7 -13 -16 -10 -20 10 -10 27 9 32 36 3 17 -1 25 -15 28
-24 6 -24 12 -5 37 17 22 11 36 -13 36 -13 0 -14 -2 -4 -9z"/>
<path d="M1335 1640 c-3 -5 -21 -10 -39 -10 -19 0 -39 -7 -47 -17 -12 -15 -12
-16 1 -8 20 13 32 13 47 3 6 -5 14 -4 18 2 4 6 16 15 28 19 13 5 16 10 9 15
-6 3 -13 2 -17 -4z"/>
<path d="M1848 1644 c-12 -12 -9 -54 3 -54 8 0 8 -4 -1 -15 -10 -12 -7 -13 22
-5 18 6 34 10 35 10 2 0 3 4 3 10 0 5 -8 6 -17 3 -13 -5 -15 -2 -10 11 5 13 3
17 -7 13 -10 -4 -16 1 -18 15 -2 11 -6 16 -10 12z"/>
<path d="M1810 1616 c0 -14 4 -27 8 -30 5 -3 9 8 9 24 0 17 -4 30 -9 30 -4 0
-8 -11 -8 -24z"/>
<path d="M2360 1631 c0 -5 5 -13 10 -16 6 -3 10 -2 10 4 0 5 -4 13 -10 16 -5
3 -10 2 -10 -4z"/>
<path d="M2600 1624 c0 -8 5 -12 10 -9 6 4 8 11 5 16 -9 14 -15 11 -15 -7z"/>
<path d="M1424 1616 c-5 -13 -14 -15 -41 -10 -25 5 -33 3 -31 -7 2 -7 -2 -13
-9 -14 -6 0 -15 -4 -20 -9 -4 -5 -3 -6 4 -2 6 3 14 2 18 -4 4 -6 15 -4 31 6
13 9 24 12 24 6 0 -6 9 -14 20 -17 11 -4 18 -11 15 -16 -4 -5 -2 -9 4 -9 18 0
22 18 7 33 -11 11 -12 17 -3 26 8 8 8 14 -1 23 -9 9 -13 7 -18 -6z"/>
<path d="M2110 1619 c0 -5 5 -7 10 -4 6 3 10 8 10 11 0 2 -4 4 -10 4 -5 0 -10
-5 -10 -11z"/>
<path d="M2809 1613 c-13 -15 -12 -15 6 -6 11 6 27 13 35 16 10 4 8 6 -6 6
-12 1 -28 -6 -35 -16z"/>
<path d="M2700 1613 c-8 -3 -26 -17 -39 -30 -21 -19 -23 -23 -8 -23 9 0 26 9
37 20 11 11 27 20 35 20 8 0 15 5 15 10 0 11 -16 12 -40 3z"/>
<path d="M2060 1589 c0 -11 4 -18 10 -14 5 3 7 12 3 20 -7 21 -13 19 -13 -6z"/>
<path d="M1921 1576 c-5 -13 -17 -26 -26 -30 -10 -3 -15 -12 -11 -21 3 -8 1
-15 -5 -15 -6 0 -25 -11 -41 -25 -20 -17 -38 -24 -55 -20 -14 2 -23 1 -19 -2
3 -3 0 -13 -7 -21 -10 -13 -9 -15 8 -8 23 8 25 9 43 7 7 0 11 -4 9 -8 -3 -5
23 -8 58 -8 46 0 61 3 58 13 -6 14 23 17 31 3 10 -15 -18 -30 -54 -29 -19 1
-36 -4 -38 -11 -3 -9 -7 -9 -17 -1 -10 8 -19 8 -33 -1 -20 -12 -20 -13 4 -32
26 -20 59 -20 59 1 0 20 25 31 66 27 33 -3 36 -1 32 18 -4 19 -1 18 22 -8 l27
-30 -6 32 c-4 27 -2 32 19 37 14 4 25 11 25 16 0 6 9 10 20 10 13 0 20 -7 20
-18 0 -19 18 -42 32 -42 4 0 8 5 8 11 0 5 -4 7 -10 4 -6 -3 -10 4 -10 17 0 17
6 24 21 25 12 1 29 9 38 17 19 17 46 22 36 7 -9 -15 32 -4 59 16 14 10 26 23
26 29 0 7 7 14 15 18 8 3 15 11 15 17 0 9 -3 9 -14 0 -7 -6 -21 -9 -30 -5 -11
4 -16 1 -16 -10 0 -22 -34 -37 -78 -34 -30 2 -36 0 -34 -13 1 -10 -6 -19 -18
-22 -20 -5 -20 -3 4 28 28 36 24 48 -9 34 -11 -4 -14 -8 -6 -8 8 -1 11 -4 8
-8 -7 -6 -30 -10 -69 -12 -11 -1 -15 -6 -12 -16 7 -18 -14 -47 -28 -39 -5 3
-4 12 3 20 6 8 9 17 6 20 -3 3 -11 -4 -17 -16 -6 -11 -19 -20 -28 -19 -9 1
-25 -1 -35 -6 -10 -4 -23 -3 -29 3 -11 11 -48 4 -48 -9 0 -5 -16 -9 -36 -9
-32 0 -35 2 -24 15 7 9 20 14 29 13 9 -2 26 8 39 22 20 23 23 24 33 8 5 -10
16 -18 23 -18 23 0 25 26 4 39 -15 9 -18 19 -13 42 8 35 -11 40 -24 5z m193
-72 c3 -8 2 -12 -4 -9 -6 3 -10 10 -10 16 0 14 7 11 14 -7z m-114 -54 c0 -5
-7 -10 -16 -10 -8 0 -12 5 -9 10 3 6 10 10 16 10 5 0 9 -4 9 -10z m-140 -80
c0 -5 -4 -10 -10 -10 -5 0 -10 5 -10 10 0 6 5 10 10 10 6 0 10 -4 10 -10z"/>
<path d="M2620 1590 c0 -5 4 -10 9 -10 6 0 13 5 16 10 3 6 -1 10 -9 10 -9 0
-16 -4 -16 -10z"/>
<path d="M1250 1583 c0 -9 34 -68 46 -80 7 -7 19 -13 26 -13 8 0 24 -9 35 -19
12 -11 23 -17 27 -14 3 3 13 0 23 -8 11 -9 14 -10 9 -1 -4 6 -3 12 3 12 5 0
12 -6 14 -12 4 -10 6 -10 6 0 1 6 6 12 12 12 6 0 9 -7 5 -15 -3 -10 1 -15 12
-16 9 0 12 -3 5 -5 -7 -3 -9 -12 -6 -20 3 -8 1 -14 -5 -14 -5 0 -9 -8 -8 -17
2 -24 -50 -24 -85 0 -14 10 -32 19 -40 20 -8 2 -31 15 -50 30 -41 31 -61 34
-79 12 -18 -22 -77 -48 -89 -40 -6 3 -11 -1 -11 -10 0 -12 -4 -14 -18 -6 -14
7 -19 22 -20 57 0 53 -14 73 -35 55 -8 -6 -22 -9 -31 -5 -21 8 -103 -33 -117
-58 -6 -11 -17 -17 -25 -14 -9 3 -12 1 -9 -4 9 -14 -9 -12 -24 3 -10 10 -11 8
-5 -7 6 -15 4 -17 -14 -12 -20 7 -21 4 -17 -26 l6 -33 -18 33 c-9 17 -21 32
-27 32 -15 0 -41 -17 -41 -27 -1 -4 -7 -19 -14 -32 -12 -21 -12 -23 4 -18 9 4
19 7 21 7 2 0 4 8 4 19 0 10 7 25 16 32 15 12 16 10 9 -20 -6 -28 -5 -33 8
-28 8 3 19 1 25 -5 7 -7 12 -3 17 11 3 12 11 21 17 21 6 0 19 7 29 16 13 12
22 13 37 5 24 -13 32 -6 26 26 -3 15 -1 22 6 18 5 -3 10 -1 10 6 0 7 10 9 30
6 23 -5 28 -3 23 9 -3 8 -12 13 -20 10 -8 -3 -12 -2 -9 3 7 11 55 11 62 0 11
-18 32 -9 27 11 -3 11 -1 20 4 20 5 0 9 -20 9 -44 -1 -44 -1 -44 -21 -28 -11
9 -17 13 -13 8 4 -5 1 -15 -7 -22 -16 -16 -9 -47 9 -41 6 3 20 -3 30 -12 14
-11 17 -12 11 -2 -6 11 -4 13 8 8 10 -4 30 -1 45 5 68 28 92 39 97 48 9 15 44
12 61 -4 17 -17 19 -30 2 -20 -6 4 -8 3 -5 -2 3 -6 22 -11 43 -12 46 -3 54 -8
54 -32 0 -22 -28 -40 -69 -43 -18 -1 -27 -7 -24 -14 3 -7 -1 -13 -8 -13 -7 0
-10 -2 -7 -5 3 -3 18 1 34 10 16 8 34 15 39 15 6 0 27 11 48 26 33 22 39 23
52 10 11 -10 23 -13 37 -7 18 7 22 17 26 75 3 48 1 66 -7 62 -6 -4 -11 0 -11
8 0 19 -9 20 -44 6 -20 -7 -26 -6 -26 5 0 7 -13 23 -30 35 -16 12 -30 17 -30
12 0 -16 -25 -9 -48 15 l-23 23 23 9 c21 8 20 8 -10 13 -18 2 -32 3 -32 1z"/>
<path d="M2115 1580 c3 -5 8 -10 11 -10 2 0 4 5 4 10 0 6 -5 10 -11 10 -5 0
-7 -4 -4 -10z"/>
<path d="M1683 1563 c-7 -3 -13 -12 -13 -21 0 -15 2 -15 17 1 18 18 16 27 -4
20z"/>
<path d="M1718 1563 c7 -3 16 -2 19 1 4 3 -2 6 -13 5 -11 0 -14 -3 -6 -6z"/>
<path d="M2207 1564 c-4 -4 -7 -14 -7 -23 0 -9 3 -12 8 -6 4 6 13 10 20 10 6
0 12 5 13 10 0 12 -24 18 -34 9z"/>
<path d="M2353 1558 c-6 -7 -14 -23 -17 -35 -7 -21 -5 -22 23 -12 17 6 31 17
31 25 0 8 7 14 16 14 12 0 15 -6 10 -22 -3 -13 -6 -29 -6 -35 0 -7 -7 -13 -17
-13 -9 0 -14 -3 -10 -6 3 -4 -1 -13 -9 -21 -8 -8 -11 -19 -8 -25 4 -6 2 -8 -4
-5 -5 4 -9 15 -7 25 1 9 0 11 -2 5 -3 -7 -10 -13 -16 -13 -8 0 -7 -3 2 -9 11
-7 9 -13 -7 -29 -11 -11 -24 -17 -28 -14 -3 4 -2 -2 4 -14 10 -18 7 -22 -24
-34 -18 -8 -34 -20 -34 -28 0 -9 6 -12 16 -8 9 3 28 6 42 6 15 0 22 4 16 8
-12 8 -2 27 55 105 19 26 40 47 47 47 7 0 15 6 18 13 4 6 4 2 2 -11 -2 -12 0
-20 5 -16 5 3 9 0 9 -7 0 -7 16 2 35 21 22 21 35 28 35 19 0 -8 10 -1 24 16
14 17 33 30 46 30 13 0 25 5 27 12 3 7 -3 10 -15 6 -11 -2 -23 0 -26 6 -4 6
-14 11 -23 11 -12 0 -13 -3 -5 -13 9 -10 6 -18 -10 -31 -16 -14 -22 -15 -29
-5 -6 11 -11 10 -26 -2 -17 -15 -63 -24 -63 -12 0 3 9 18 21 34 l20 29 -36 -5
c-19 -2 -40 -7 -46 -11 -6 -4 -15 -1 -19 5 -5 9 -9 9 -17 -1z m129 -90 c-6 -6
-15 -8 -19 -4 -4 4 -1 11 7 16 19 12 27 3 12 -12z"/>
<path d="M1470 1539 c0 -6 7 -17 15 -25 13 -14 15 -13 15 10 0 16 -6 26 -15
26 -8 0 -15 -5 -15 -11z"/>
<path d="M1726 1535 c-3 -9 0 -15 9 -15 16 0 20 16 6 24 -5 3 -11 -1 -15 -9z"/>
<path d="M1632 1500 c3 -21 0 -30 -11 -33 -10 -2 -2 -10 21 -20 29 -12 36 -20
31 -34 -3 -10 -3 -15 1 -11 13 12 14 58 1 58 -11 0 -25 20 -25 35 0 2 14 0 31
-5 22 -7 29 -6 26 3 -2 7 -9 12 -15 12 -6 0 -17 6 -23 13 -24 23 -42 14 -37
-18z"/>
<path d="M2635 1483 c-16 -3 -42 -16 -58 -29 -16 -13 -32 -22 -36 -20 -3 3
-18 -4 -31 -15 -19 -14 -21 -19 -9 -19 9 0 20 7 23 16 3 8 11 12 16 9 8 -5 7
-14 -2 -28 -15 -24 -13 -57 3 -57 6 0 8 -4 4 -9 -3 -5 3 -12 14 -16 11 -3 25
-13 33 -22 11 -15 11 -16 -5 -10 -28 10 -58 -7 -122 -71 -33 -32 -70 -62 -83
-66 -12 -4 -27 -16 -32 -27 -6 -10 -15 -19 -21 -19 -6 0 -8 4 -5 8 3 5 -1 9
-9 9 -8 0 -15 -6 -15 -14 0 -7 -5 -13 -10 -13 -6 0 -8 10 -4 24 6 27 -21 60
-43 52 -8 -3 -24 -6 -36 -6 -21 -1 -21 -1 -3 -15 13 -10 24 -11 37 -5 10 6 20
7 22 3 9 -16 5 -78 -5 -90 -23 -28 1 -22 32 7 33 31 55 31 47 1 -3 -11 2 -17
14 -17 13 0 15 4 8 12 -7 9 -5 23 7 46 9 18 19 27 21 21 7 -20 43 4 43 27 0
19 15 25 48 21 6 -1 12 3 12 9 0 6 -4 8 -10 5 -5 -3 -10 -2 -10 4 0 5 9 12 20
16 11 3 28 16 37 29 22 27 69 42 76 23 4 -9 6 -8 6 2 1 13 29 40 43 41 3 0 4
-10 1 -22 l-5 -23 20 23 c11 12 25 22 31 22 11 0 15 13 12 38 -1 6 10 17 24
22 14 5 25 12 25 14 0 3 -7 3 -17 -1 -13 -5 -15 -2 -11 15 4 12 2 24 -3 27 -4
3 -6 12 -2 20 3 8 1 15 -5 15 -13 0 -21 -31 -18 -70 2 -31 2 -31 -40 -26 -33
3 -48 0 -65 -15 -23 -20 -44 -26 -34 -9 3 6 1 10 -4 10 -18 0 -12 39 8 59 10
10 22 29 26 40 5 16 12 20 26 16 11 -4 26 -1 34 5 18 15 36 4 29 -18 -5 -14
-3 -14 10 2 14 17 14 20 -2 32 -9 7 -19 13 -22 12 -3 0 -18 -3 -35 -5z m0
-174 c-6 -16 -9 -18 -16 -8 -4 8 -3 19 3 26 15 18 21 9 13 -18z m64 22 c8 -5
9 -11 3 -15 -5 -3 -15 1 -22 9 -14 16 -3 20 19 6z"/>
<path d="M2270 1470 c0 -5 5 -10 11 -10 5 0 7 5 4 10 -3 6 -8 10 -11 10 -2 0
-4 -4 -4 -10z"/>
<path d="M2247 1463 c-4 -3 -2 -12 4 -20 9 -10 7 -13 -9 -13 -12 0 -24 -4 -27
-10 -9 -14 28 -12 48 3 13 10 14 15 3 29 -7 10 -16 15 -19 11z"/>
<path d="M2175 1450 c-13 -6 -15 -9 -5 -9 8 0 22 4 30 9 18 12 2 12 -25 0z"/>
<path d="M2495 1450 c-3 -5 -1 -10 4 -10 6 0 11 5 11 10 0 6 -2 10 -4 10 -3 0
-8 -4 -11 -10z"/>
<path d="M2606 1403 c-6 -14 -5 -15 5 -6 7 7 10 15 7 18 -3 3 -9 -2 -12 -12z"/>
<path d="M1197 1365 c-4 -8 -2 -17 3 -20 6 -4 10 3 10 14 0 25 -6 27 -13 6z"/>
<path d="M976 1344 c-10 -26 -7 -41 8 -41 10 0 12 5 7 16 -5 9 -6 22 -4 29 7
18 -4 15 -11 -4z"/>
<path d="M1824 1326 c-3 -8 -12 -12 -20 -9 -8 3 -14 1 -14 -5 0 -9 101 -24
109 -16 8 8 -8 16 -32 18 -14 0 -23 4 -21 8 2 4 0 9 -6 13 -6 3 -13 0 -16 -9z"/>
<path d="M1940 1309 c-39 -19 -47 -44 -13 -44 12 0 26 -4 30 -9 4 -5 -9 -6
-29 -3 -21 3 -38 2 -38 -3 0 -5 -9 -11 -19 -15 -12 -3 -19 -14 -18 -25 2 -27
11 -25 31 5 13 20 24 25 54 23 21 0 47 4 58 11 16 11 16 12 1 7 -11 -3 -20 0
-23 9 -4 8 -14 15 -23 15 -12 0 -10 5 9 20 33 25 23 30 -20 9z"/>
<path d="M2805 1322 c-11 -12 -4 -24 11 -18 10 4 14 1 12 -6 -3 -7 -11 -13
-19 -13 -14 0 -24 -8 -48 -38 -21 -27 1 -20 39 13 19 16 38 30 41 30 4 0 9 6
12 14 5 14 -36 29 -48 18z"/>
<path d="M696 1312 c-7 -12 36 -42 59 -42 42 0 93 -61 75 -90 -5 -9 -5 -19 2
-27 7 -9 6 -14 -6 -19 -9 -3 -13 -10 -10 -16 3 -5 12 -4 20 3 8 6 18 9 21 5 4
-4 1 -11 -7 -17 -13 -8 -13 -11 2 -23 14 -10 15 -15 5 -26 -9 -10 -9 -13 1
-17 6 -3 12 -9 12 -14 0 -9 -44 -2 -65 10 -6 3 0 -4 13 -16 15 -13 23 -27 19
-37 -4 -9 2 -21 16 -31 14 -10 17 -15 7 -15 -10 0 -11 -3 -4 -8 14 -9 0 -52
-16 -52 -6 0 -8 5 -4 11 4 7 0 9 -13 5 -27 -8 -53 2 -47 19 4 9 -2 13 -18 12
-13 -1 -36 2 -51 6 -19 5 -27 4 -22 -3 3 -5 -10 -20 -30 -31 -28 -17 -33 -24
-24 -35 6 -8 23 -14 38 -15 14 0 20 -3 13 -6 -6 -2 -10 -9 -6 -14 3 -5 -7 -9
-23 -9 -23 0 -25 2 -13 11 11 8 8 9 -15 4 -16 -3 -38 -8 -47 -11 -25 -7 -22 8
4 30 20 18 21 20 4 26 -16 5 -16 7 -2 19 13 11 16 11 16 0 1 -9 4 -8 11 4 6 9
14 15 18 12 5 -2 11 6 13 20 4 17 1 25 -8 25 -8 0 -14 5 -14 11 0 6 7 9 15 5
8 -3 15 -1 15 3 0 15 29 6 46 -15 15 -18 15 -18 9 4 -7 25 14 39 43 26 9 -4
23 -6 31 -5 7 1 10 -2 6 -8 -3 -6 -12 -11 -20 -11 -7 0 -15 -6 -18 -14 -6 -16
40 -29 49 -15 3 5 0 9 -6 9 -6 0 -8 5 -5 10 4 6 11 8 16 5 14 -9 11 9 -5 30
-11 15 -26 19 -68 19 -53 0 -118 -19 -118 -34 0 -5 -3 -16 -6 -24 -5 -13 -2
-15 12 -9 16 6 17 5 4 -9 -8 -9 -19 -14 -24 -11 -8 5 -55 -44 -56 -59 0 -4 9
-5 20 -3 11 2 18 0 15 -6 -10 -16 -31 -10 -55 15 -12 14 -20 32 -17 40 3 8 1
17 -6 20 -9 3 -9 5 0 5 12 1 -1 68 -18 85 -12 14 -40 -14 -38 -38 0 -12 0 -23
-1 -26 -6 -16 -4 -70 3 -70 16 0 6 -19 -14 -25 -20 -7 -20 -7 -2 -21 17 -14
17 -15 -5 -9 -15 4 -30 1 -40 -8 -10 -9 -39 -18 -65 -21 -39 -5 -49 -3 -54 11
-4 10 -15 25 -25 34 -10 9 -18 24 -18 33 0 18 -5 19 -68 16 -23 -1 -42 2 -42
7 0 5 14 8 30 7 25 -2 29 0 19 12 -6 8 -14 12 -18 9 -4 -2 -19 7 -34 20 -14
14 -28 21 -31 16 -3 -5 1 -12 10 -15 12 -5 15 -14 11 -35 -6 -28 -4 -30 33
-36 22 -4 50 -15 64 -26 13 -10 29 -19 35 -19 6 0 11 -7 11 -15 0 -8 5 -15 10
-15 6 0 10 -7 10 -16 0 -12 7 -14 30 -9 23 5 30 3 30 -9 0 -9 5 -16 10 -16 6
0 10 8 8 18 -2 12 3 16 17 14 11 -2 25 -8 30 -14 7 -8 6 -9 -2 -4 -8 4 -13 1
-13 -8 0 -9 7 -16 15 -16 11 0 14 9 13 33 -3 26 1 32 17 33 37 2 45 4 44 12
-6 39 3 192 12 192 6 0 9 -24 8 -66 -2 -60 0 -68 22 -85 13 -10 19 -19 12 -19
-6 0 -19 7 -27 16 -15 14 -16 2 -16 -134 0 -126 3 -152 16 -163 15 -13 16 -4
11 106 -5 98 -3 124 9 140 14 19 16 19 46 2 22 -13 34 -15 43 -7 9 8 15 8 20
0 3 -5 2 -10 -4 -10 -6 0 -8 -7 -5 -15 9 -21 21 -19 27 6 5 17 11 20 31 17 14
-3 23 -1 20 3 -3 5 2 9 11 9 11 0 15 7 13 23 -2 16 1 21 14 19 12 -2 16 2 12
12 -4 11 0 13 18 9 13 -3 28 -11 33 -17 11 -12 94 -19 96 -8 0 4 2 20 3 35 1
16 6 31 11 35 6 4 11 15 13 25 3 17 -11 22 -52 17 -11 -1 -16 3 -11 9 3 6 11
9 16 6 5 -4 9 3 9 15 0 12 4 18 10 15 5 -3 8 0 5 7 -9 27 -11 117 -2 111 5 -3
8 0 5 8 -3 8 -11 14 -19 14 -7 0 -15 8 -17 18 -2 9 1 17 7 17 21 0 10 27 -25
63 -20 19 -33 40 -29 46 3 6 1 11 -4 11 -6 0 -11 -4 -11 -9 0 -11 -59 -4 -76
9 -7 7 -14 7 -18 2z m10 -427 c-8 -8 -18 -15 -22 -15 -3 0 -1 7 6 15 7 8 17
15 22 15 5 0 3 -7 -6 -15z m-496 -5 c0 -5 -4 -10 -10 -10 -5 0 -10 5 -10 10 0
6 5 10 10 10 6 0 10 -4 10 -10z"/>
<path d="M2054 1308 c-3 -4 11 -10 31 -14 39 -7 48 -17 50 -51 0 -18 -6 -24
-32 -29 -18 -3 -33 -11 -33 -16 0 -6 7 -7 16 -4 9 3 21 6 28 6 7 0 23 9 36 20
13 12 30 18 37 16 7 -3 13 -1 13 4 0 6 -5 10 -10 10 -6 0 -19 15 -30 33 -17
28 -25 32 -61 32 -22 0 -43 -3 -45 -7z"/>
<path d="M1216 1285 c-4 -16 -11 -22 -21 -19 -11 4 -20 -5 -31 -31 -21 -51
-13 -66 11 -21 11 20 30 39 42 42 23 6 37 29 27 45 -10 16 -22 10 -28 -16z"/>
<path d="M2198 1298 c-16 -5 -28 -14 -28 -18 0 -11 58 8 66 21 6 11 -3 10 -38
-3z"/>
<path d="M2736 1297 c3 -10 9 -15 12 -12 3 3 0 11 -7 18 -10 9 -11 8 -5 -6z"/>
<path d="M2860 1285 c-13 -14 -19 -25 -13 -25 12 0 48 38 41 45 -2 3 -15 -6
-28 -20z"/>
<path d="M2297 1289 c-10 -6 -27 -7 -38 -4 -15 5 -20 3 -17 -6 3 -8 14 -15 26
-17 35 -5 25 -22 -12 -22 -38 0 -57 -16 -32 -26 9 -3 16 -10 16 -15 0 -6 -9
-5 -20 1 -16 9 -20 8 -20 -5 0 -18 -16 -20 -24 -2 -3 8 -8 7 -16 -5 -6 -10
-16 -18 -22 -18 -7 0 -6 5 1 14 10 12 8 13 -8 9 -12 -3 -21 -9 -21 -14 0 -5
-6 -9 -14 -9 -8 0 -17 -6 -19 -12 -4 -10 -6 -9 -6 1 -1 11 -4 11 -16 1 -24
-20 -17 -30 12 -19 14 5 32 8 39 5 7 -3 15 0 18 7 2 7 5 4 5 -5 1 -22 19 -24
27 -3 6 15 37 29 64 30 8 0 19 10 26 22 6 13 13 20 16 17 3 -3 15 8 27 23 11
15 25 33 31 40 13 16 -1 24 -23 12z"/>
<path d="M1451 1281 c-7 -5 -12 -13 -10 -18 2 -6 13 -2 23 8 20 19 12 26 -13
10z"/>
<path d="M1760 1282 c0 -14 54 -32 64 -22 5 5 8 11 5 13 -9 8 -69 16 -69 9z"/>
<path d="M2070 1280 c0 -4 11 -10 25 -12 13 -3 22 -2 20 2 -7 11 -45 20 -45
10z"/>
<path d="M2675 1256 c-15 -13 -24 -29 -21 -35 10 -15 26 -14 26 3 0 8 7 16 15
20 18 7 19 -5 3 -24 -11 -12 -10 -12 5 -1 9 8 21 11 25 7 4 -4 -2 -14 -13 -21
-11 -8 -27 -20 -35 -28 -19 -18 -80 -21 -76 -4 1 7 1 9 -1 5 -2 -4 -12 -4 -21
-1 -15 6 -15 4 -4 -9 11 -14 10 -16 -6 -11 -14 3 -21 -2 -25 -17 -3 -12 -10
-19 -16 -16 -5 4 -12 2 -16 -4 -3 -5 2 -10 12 -10 13 0 8 -6 -14 -20 -18 -11
-33 -22 -33 -25 0 -4 5 -3 10 0 6 3 10 1 10 -5 0 -6 -11 -16 -25 -22 -13 -6
-27 -20 -31 -32 -3 -12 -16 -28 -27 -37 -20 -17 -20 -17 9 -13 27 4 27 3 4 -4
-14 -5 -40 -8 -57 -6 -18 1 -31 -1 -28 -6 2 -4 -7 -7 -21 -7 l-26 0 26 23 c27
26 42 30 48 14 2 -5 18 2 35 16 30 23 32 27 17 42 -15 15 -15 17 5 33 25 20
27 29 7 29 -8 0 -25 -14 -37 -31 -18 -26 -19 -33 -8 -40 12 -7 11 -11 -3 -26
-17 -16 -18 -16 -18 4 0 27 -16 38 -24 17 -3 -8 -10 -12 -16 -9 -5 3 -10 -3
-10 -15 0 -12 -4 -19 -9 -16 -5 3 -12 -1 -15 -10 -4 -10 -14 -14 -26 -11 -23
6 -48 -18 -28 -26 23 -10 -24 -38 -59 -35 -43 3 -52 -8 -14 -17 39 -8 31 -26
-8 -19 -20 4 -30 1 -34 -10 -4 -11 -1 -16 11 -17 12 0 10 -3 -7 -10 -17 -7
-27 -6 -31 2 -6 8 -13 8 -27 0 -27 -14 -81 -10 -88 7 -8 21 -95 -1 -95 -24 0
-13 2 -13 16 0 17 18 28 21 20 7 -4 -5 0 -11 6 -14 7 -2 -2 -7 -19 -11 -39 -9
-49 -22 -33 -41 10 -12 7 -17 -16 -25 -16 -6 -42 -9 -59 -6 l-30 6 2 -125 c3
-115 2 -125 -15 -125 -15 0 -17 6 -14 35 3 25 1 35 -8 33 -7 -2 -15 3 -17 10
-3 6 2 12 11 12 8 0 14 8 14 18 -1 9 1 64 5 122 3 58 3 97 0 88 -2 -10 -10
-18 -17 -18 -7 0 -22 -9 -34 -21 -20 -18 -24 -19 -38 -5 -14 14 -12 19 16 46
17 16 41 30 55 30 13 0 26 3 28 8 3 4 -24 5 -60 4 -65 -4 -65 -4 -50 18 22 32
93 90 101 83 4 -4 9 2 12 13 3 11 19 29 36 39 28 16 32 16 42 2 9 -12 16 -13
31 -4 14 7 20 7 23 -1 2 -8 11 -7 28 4 28 19 21 38 -11 30 -16 -4 -25 -1 -29
10 -5 12 -2 15 11 10 14 -6 16 -5 6 5 -10 10 -17 8 -35 -11 -21 -22 -22 -22
-29 -3 -8 21 -33 36 -43 26 -10 -10 -7 -33 5 -33 5 0 7 5 4 10 -3 6 1 10 9 10
28 0 17 -17 -24 -35 -22 -10 -40 -23 -40 -29 0 -6 -12 -20 -27 -30 -14 -11
-23 -15 -20 -9 4 6 0 16 -8 23 -13 11 -18 10 -29 -6 -8 -10 -11 -23 -8 -29 4
-5 8 -2 10 8 3 17 22 25 22 9 0 -8 -30 -54 -40 -62 -15 -11 -18 -51 -5 -56 13
-5 15 -28 2 -40 -12 -12 -8 -30 11 -50 22 -25 57 -32 49 -10 -4 9 -3 16 2 16
12 0 21 -37 21 -83 0 -38 -1 -38 -30 -32 -21 5 -39 2 -56 -10 -48 -31 -54 -18
-54 118 0 119 -1 124 -25 145 -25 22 -37 81 -14 66 8 -5 8 -1 0 14 -14 26 -14
35 -1 27 12 -7 9 23 -4 44 -7 10 -5 12 4 6 9 -6 10 -2 5 16 -17 57 -25 38 -25
-58 0 -96 1 -103 25 -121 14 -11 25 -26 25 -32 0 -9 -6 -8 -18 3 -10 10 -25
17 -33 17 -11 0 -11 -2 -2 -8 9 -6 12 -33 11 -88 -1 -43 1 -84 5 -91 4 -6 3
-14 -1 -17 -15 -9 2 -106 18 -106 5 0 17 -3 27 -6 15 -6 14 -3 -5 15 -12 12
-19 27 -16 33 4 7 2 8 -4 4 -7 -4 -12 -3 -12 3 0 18 21 23 38 8 36 -31 59 -38
73 -20 12 14 11 15 -11 9 -24 -7 -24 -6 -6 8 24 19 45 20 68 2 17 -12 17 -15
2 -45 -9 -18 -27 -36 -40 -41 -13 -5 -24 -14 -24 -20 0 -7 6 -8 19 -1 10 6 21
7 25 3 4 -3 11 0 16 8 7 11 10 9 10 -12 0 -29 23 -48 50 -41 14 4 17 0 13 -21
-3 -15 -1 -26 5 -26 7 0 10 15 8 35 -1 19 0 39 4 44 7 12 50 3 50 -11 0 -5 19
-8 43 -7 23 1 52 -3 65 -10 14 -7 22 -8 22 -1 0 5 17 10 37 10 26 0 34 3 26
11 -7 7 -22 8 -47 1 -28 -8 -39 -7 -50 4 -8 8 -30 14 -49 14 -49 0 -97 11 -97
22 0 5 9 6 20 3 11 -3 20 -2 20 3 0 14 32 24 40 12 9 -15 89 -15 103 0 9 10 9
12 -3 8 -8 -3 -34 1 -58 8 -37 12 -48 11 -72 -1 -29 -15 -65 -11 -54 6 3 6 1
16 -5 23 -14 17 11 46 39 46 23 0 36 30 12 30 -13 1 -10 7 12 25 17 13 32 23
35 23 34 -3 73 5 87 19 9 10 31 16 50 16 19 -1 31 3 28 8 -3 5 2 12 10 15 9 3
16 10 16 15 0 6 -7 6 -17 1 -10 -5 -27 -6 -38 -1 -29 11 -35 11 -35 -5 0 -8
-21 -21 -46 -30 -41 -14 -45 -14 -40 0 3 9 6 19 6 23 0 9 85 29 143 34 20 2
37 -1 37 -6 0 -4 5 -5 12 -1 7 5 25 7 40 6 19 -2 31 4 38 19 6 11 29 38 51 59
36 35 43 38 72 29 42 -12 60 -11 52 1 -3 6 1 13 10 17 10 3 20 1 24 -5 9 -15
74 -9 79 8 3 8 17 26 31 39 14 14 21 26 15 28 -18 6 -4 53 16 53 11 0 26 15
37 37 13 26 25 37 43 39 59 5 107 17 142 35 21 11 48 18 62 15 14 -3 26 -1 26
4 0 5 15 12 33 16 l32 7 -28 9 c-22 8 -26 13 -16 24 15 18 7 18 -39 -3 -37
-16 -90 -27 -78 -16 3 3 -2 12 -12 20 -9 8 -12 12 -6 9 7 -3 18 2 25 12 13 15
12 16 -3 3 -15 -11 -19 -11 -24 3 -8 21 -16 20 -49 -8z m95 -60 c0 -2 -9 -6
-20 -9 -11 -3 -20 -1 -20 4 0 5 9 9 20 9 11 0 20 -2 20 -4z m-277 -196 c6 -22
-17 -48 -28 -30 -8 12 3 50 15 50 4 0 10 -9 13 -20z m-913 -275 c0 -68 -4 -94
-13 -98 -8 -3 -14 1 -14 9 0 8 4 14 8 14 5 0 4 12 -1 26 -8 19 -7 23 3 18 9
-6 9 -4 1 7 -15 20 -17 72 -2 63 7 -5 8 -3 3 7 -5 7 -9 26 -10 41 -1 22 1 25
12 17 9 -8 13 -39 13 -104z m385 87 c-3 -3 -11 0 -18 7 -9 10 -8 11 6 5 10 -3
15 -9 12 -12z m-222 -82 c-3 -11 -7 -20 -9 -20 -2 0 -4 9 -4 20 0 11 4 20 9
20 5 0 7 -9 4 -20z m77 -50 c0 -5 -4 -10 -10 -10 -5 0 -10 5 -10 10 0 6 5 10
10 10 6 0 10 -4 10 -10z"/>
<path d="M178 1256 c-21 -15 -23 -32 -6 -42 7 -5 8 -3 4 5 -5 7 0 21 10 32 20
22 17 24 -8 5z"/>
<path d="M210 1251 c0 -9 30 -24 36 -18 2 1 -6 8 -16 15 -11 7 -20 8 -20 3z"/>
<path d="M1464 1249 c-3 -6 -15 -8 -26 -6 -13 4 -18 1 -15 -8 3 -7 1 -17 -4
-22 -5 -5 3 -13 21 -20 17 -6 31 -8 31 -5 4 19 7 72 4 72 -2 0 -7 -5 -11 -11z"/>
<path d="M1818 1230 c-7 -16 -17 -30 -21 -30 -5 0 -5 6 -1 13 4 6 4 9 0 5 -4
-3 -6 -8 -4 -11 2 -3 -5 -14 -15 -25 -14 -16 -27 -19 -51 -15 -19 3 -43 0 -55
-6 -17 -9 -21 -9 -19 1 2 8 -9 13 -33 13 -34 0 -36 -2 -28 -21 4 -12 5 -25 1
-29 -3 -3 1 -3 11 1 11 4 17 1 17 -7 1 -9 6 -7 15 5 8 11 18 17 21 13 4 -4 1
-13 -6 -22 -20 -24 -6 -18 25 11 16 15 31 22 37 16 11 -11 70 -3 62 9 -3 5 1
9 8 9 17 -1 56 -30 39 -30 -21 0 -84 -47 -69 -52 8 -3 3 -14 -17 -33 -17 -16
-24 -25 -18 -21 7 4 21 2 32 -4 25 -13 36 2 21 29 -8 16 -5 23 18 39 39 28 68
35 93 22 15 -9 24 -9 32 -1 8 8 6 11 -6 11 -9 0 -17 4 -17 9 0 4 11 6 24 4 13
-3 27 0 30 6 5 7 -4 14 -23 17 -17 4 -31 11 -31 16 0 5 -5 6 -10 3 -6 -4 -8
-10 -6 -14 3 -4 -8 -5 -25 -3 -16 2 -29 5 -29 7 0 1 7 22 15 45 18 50 18 50 6
50 -5 0 -15 -13 -23 -30z m-186 -82 c-7 -7 -12 -8 -12 -2 0 14 12 26 19 19 2
-3 -1 -11 -7 -17z"/>
<path d="M2020 1250 c0 -5 4 -10 9 -10 6 0 13 5 16 10 3 6 -1 10 -9 10 -9 0
-16 -4 -16 -10z"/>
<path d="M2078 1243 c7 -3 16 -2 19 1 4 3 -2 6 -13 5 -11 0 -14 -3 -6 -6z"/>
<path d="M190 1232 c0 -4 10 -13 23 -21 22 -14 22 -14 3 8 -20 22 -26 25 -26
13z"/>
<path d="M2560 1229 c0 -5 5 -7 10 -4 6 3 10 8 10 11 0 2 -4 4 -10 4 -5 0 -10
-5 -10 -11z"/>
<path d="M2961 1227 c-6 -8 -8 -17 -5 -20 4 -3 -5 -8 -20 -12 -84 -17 -81 -16
-65 -25 19 -11 55 -5 75 11 8 7 17 9 21 5 3 -3 1 -6 -5 -6 -6 0 -9 -7 -6 -15
8 -20 44 -19 44 1 0 8 -4 12 -10 9 -9 -6 -14 8 -11 28 0 4 -4 7 -10 7 -8 0 -8
5 1 15 7 8 10 15 7 15 -2 0 -10 -6 -16 -13z"/>
<path d="M2607 1216 c-4 -10 -1 -13 9 -9 15 6 19 23 5 23 -5 0 -11 -7 -14 -14z"/>
<path d="M274 1209 c-12 -4 -25 -12 -29 -18 -8 -13 7 -15 21 -2 5 5 20 11 34
13 17 2 20 5 10 9 -8 4 -25 3 -36 -2z"/>
<path d="M1750 1199 c0 -5 5 -7 10 -4 6 3 10 8 10 11 0 2 -4 4 -10 4 -5 0 -10
-5 -10 -11z"/>
<path d="M2020 1199 c0 -5 5 -7 10 -4 6 3 10 8 10 11 0 2 -4 4 -10 4 -5 0 -10
-5 -10 -11z"/>
<path d="M289 1176 c-19 -7 -46 -20 -60 -29 l-23 -17 22 0 c12 0 22 3 22 8 0
4 15 7 33 6 48 -1 53 -3 37 -14 -10 -7 -11 -10 -2 -10 7 0 15 7 19 16 5 13 7
13 14 2 6 -9 9 -9 9 -1 0 7 -6 16 -14 20 -7 4 -15 13 -17 20 -3 8 -13 8 -40
-1z"/>
<path d="M1110 1186 c0 -2 8 -10 18 -17 15 -13 16 -12 3 4 -13 16 -21 21 -21
13z"/>
<path d="M768 1169 c-20 -11 -24 -34 -7 -44 6 -4 9 0 7 10 -2 10 3 20 11 23
10 3 12 -2 7 -21 -5 -21 -2 -28 16 -37 19 -9 21 -9 8 2 -8 7 -14 24 -12 37 5
30 -8 42 -30 30z"/>
<path d="M1310 1162 c0 -5 7 -9 15 -9 8 0 15 4 15 9 0 4 -7 8 -15 8 -8 0 -15
-4 -15 -8z"/>
<path d="M1381 1161 c-11 -7 -9 -10 10 -14 l24 -4 -22 -8 c-13 -4 -23 -12 -23
-17 0 -6 -12 -3 -26 7 -15 9 -23 12 -19 5 4 -6 -1 -17 -11 -24 -17 -13 -16
-14 5 -21 16 -5 26 -3 32 6 4 7 11 10 16 6 13 -13 -12 -42 -43 -49 -20 -5 -15
-6 16 -3 25 2 47 4 49 4 2 1 1 12 -1 26 -4 17 -1 25 8 25 7 0 11 6 8 13 -3 8
9 20 28 30 23 12 26 16 11 13 -13 -2 -26 0 -29 5 -7 11 -15 11 -33 0z"/>
<path d="M1286 1144 c-8 -21 -8 -34 2 -34 4 0 8 11 8 25 2 29 -1 32 -10 9z"/>
<path d="M4 1139 c-4 -8 -3 -9 4 -5 7 4 12 1 12 -8 0 -10 6 -13 15 -10 8 4 15
1 15 -5 0 -6 -9 -11 -20 -11 -11 0 -20 -5 -20 -11 0 -5 4 -8 10 -4 5 3 19 0
31 -7 17 -10 23 -10 26 0 7 19 36 14 68 -14 l30 -25 -27 6 c-27 5 -38 -7 -18
-20 6 -3 10 -16 10 -29 0 -12 7 -31 16 -42 14 -18 15 -16 10 28 -4 37 -2 49
10 56 13 7 11 14 -16 40 -18 18 -42 32 -55 32 -13 0 -39 9 -59 20 -25 16 -36
18 -42 9z"/>
<path d="M1946 1121 c-10 -11 -15 -25 -11 -30 3 -6 -1 -11 -9 -11 -22 0 -20
-27 3 -40 26 -14 31 -13 31 6 0 8 4 13 9 9 5 -3 12 -2 15 3 2 4 -4 8 -14 9
-11 1 -22 -2 -25 -8 -4 -5 -11 -9 -18 -9 -6 0 6 17 26 38 21 21 34 41 31 45
-11 11 -20 8 -38 -12z"/>
<path d="M2453 1125 c-17 -19 -16 -26 1 -19 8 3 17 1 21 -5 11 -18 25 -12 25
10 0 11 -4 17 -10 14 -5 -3 -10 -1 -10 4 0 15 -13 13 -27 -4z"/>
<path d="M235 1111 c-25 -21 -30 -41 -10 -41 8 0 15 4 15 9 0 5 11 8 25 7 14
0 25 -7 25 -13 0 -7 3 -12 8 -12 19 3 25 -2 12 -11 -13 -8 -12 -10 3 -10 9 0
17 -4 17 -10 0 -6 -9 -6 -25 0 -39 15 -29 2 16 -19 37 -18 40 -18 34 -3 -14
34 -23 71 -19 75 7 7 -22 27 -53 36 -22 6 -34 4 -48 -8z"/>
<path d="M2770 1119 c0 -5 5 -7 10 -4 6 3 10 8 10 11 0 2 -4 4 -10 4 -5 0 -10
-5 -10 -11z"/>
<path d="M335 1110 c-3 -5 1 -10 10 -10 9 0 13 5 10 10 -3 6 -8 10 -10 10 -2
0 -7 -4 -10 -10z"/>
<path d="M736 1106 c3 -9 10 -16 16 -16 5 0 7 -4 4 -9 -3 -5 3 -11 14 -14 31
-8 24 5 -23 42 -15 12 -17 12 -11 -3z"/>
<path d="M1150 1101 c0 -10 9 -21 20 -24 11 -3 20 -3 20 -1 0 2 -9 13 -20 24
-19 19 -20 19 -20 1z"/>
<path d="M1989 1093 c-13 -16 -12 -17 4 -4 16 13 21 21 13 21 -2 0 -10 -8 -17
-17z"/>
<path d="M2726 1101 c-4 -5 3 -7 14 -4 23 6 26 13 6 13 -8 0 -17 -4 -20 -9z"/>
<path d="M1820 1080 c0 -14 14 -19 26 -9 8 7 14 7 19 -1 9 -15 25 -12 25 5 0
10 -10 14 -35 13 -19 -1 -35 -4 -35 -8z"/>
<path d="M1500 1069 c0 -14 -25 -39 -39 -39 -6 0 -11 -4 -11 -10 0 -6 9 -6 24
0 14 5 26 6 29 2 2 -4 2 -1 0 6 -1 7 2 22 7 33 7 13 7 19 0 19 -5 0 -10 -5
-10 -11z"/>
<path d="M2591 1069 c0 -9 -10 -24 -21 -34 -11 -10 -17 -22 -14 -26 3 -5 0 -9
-5 -9 -6 0 -11 -6 -11 -13 0 -7 -11 -21 -25 -31 -14 -10 -25 -23 -25 -27 0
-13 47 -11 55 1 4 6 10 8 14 6 4 -3 13 0 21 5 11 8 8 9 -12 6 -36 -5 -35 5 2
60 17 25 29 53 27 62 -4 14 -5 14 -6 0z"/>
<path d="M2631 1064 c0 -11 3 -14 6 -6 3 7 2 16 -1 19 -3 4 -6 -2 -5 -13z"/>
<path d="M208 1047 c12 -13 22 -31 22 -40 0 -9 5 -19 10 -22 6 -3 10 3 10 15
0 12 4 18 10 15 6 -4 9 -1 8 6 -3 13 -25 28 -63 43 -18 7 -18 5 3 -17z"/>
<path d="M810 1060 c8 -5 20 -10 25 -10 6 0 3 5 -5 10 -8 5 -19 10 -25 10 -5
0 -3 -5 5 -10z"/>
<path d="M1575 1060 c-4 -6 1 -17 11 -25 25 -18 30 -11 11 15 -10 14 -17 18
-22 10z"/>
<path d="M2948 1063 c7 -3 16 -2 19 1 4 3 -2 6 -13 5 -11 0 -14 -3 -6 -6z"/>
<path d="M2948 1043 c7 -3 16 -2 19 1 4 3 -2 6 -13 5 -11 0 -14 -3 -6 -6z"/>
<path d="M41 1030 c0 -21 26 -53 33 -42 3 6 -3 21 -14 33 -13 17 -19 19 -19 9z"/>
<path d="M96 1025 c-3 -8 -1 -15 4 -15 6 0 10 7 10 15 0 8 -2 15 -4 15 -2 0
-6 -7 -10 -15z"/>
<path d="M1355 1020 c-3 -5 1 -10 9 -10 8 0 18 5 21 10 3 6 -1 10 -9 10 -8 0
-18 -4 -21 -10z"/>
<path d="M1965 1020 c-3 -5 -1 -10 4 -10 6 0 11 5 11 10 0 6 -2 10 -4 10 -3 0
-8 -4 -11 -10z"/>
<path d="M1570 953 c0 -36 2 -64 4 -62 8 8 12 129 4 129 -4 0 -8 -30 -8 -67z"/>
<path d="M2930 1005 c-14 -8 -32 -12 -42 -9 -9 3 -19 0 -23 -6 -9 -15 61 -4
87 15 28 19 12 19 -22 0z"/>
<path d="M1330 1000 c8 -5 22 -9 30 -9 10 0 8 3 -5 9 -27 12 -43 12 -25 0z"/>
<path d="M252 980 c-14 -23 0 -27 18 -5 7 8 18 15 24 15 6 0 5 -4 -3 -9 -11
-7 -11 -9 0 -13 18 -6 49 2 49 12 0 8 -35 20 -60 20 -8 0 -21 -9 -28 -20z"/>
<path d="M1287 986 c-4 -10 -1 -13 9 -9 15 6 19 23 5 23 -5 0 -11 -7 -14 -14z"/>
<path d="M1408 993 c-10 -2 -18 -9 -18 -14 0 -5 -6 -9 -14 -9 -7 0 -19 -7 -26
-15 -7 -8 -17 -12 -23 -8 -5 3 -7 1 -3 -5 3 -6 -1 -17 -10 -26 -8 -9 -13 -20
-10 -25 4 -5 0 -12 -6 -14 -10 -4 -10 -6 0 -6 13 -1 62 46 62 59 0 7 45 30 60
30 6 0 9 -17 9 -37 -1 -42 -16 -108 -18 -81 -1 20 -41 60 -55 55 -5 -2 -10
-11 -12 -21 -2 -13 2 -17 17 -13 10 3 20 2 20 -1 1 -4 3 -17 4 -28 3 -28 14
-46 25 -39 4 3 11 -2 14 -10 3 -9 -1 -18 -9 -21 -27 -11 -11 -44 21 -44 2 0 4
36 4 81 l0 81 40 -4 c24 -2 40 1 40 7 0 7 -14 9 -35 7 l-35 -4 0 56 c0 57 -2
60 -42 49z"/>
<path d="M1486 985 c-3 -8 -3 -15 0 -15 3 0 12 7 20 15 13 13 13 15 1 15 -8 0
-17 -7 -21 -15z"/>
<path d="M2235 990 c-3 -5 -2 -10 4 -10 5 0 13 5 16 10 3 6 2 10 -4 10 -5 0
-13 -4 -16 -10z"/>
<path d="M2610 989 c-16 -4 -19 -7 -7 -8 9 -1 17 -6 17 -12 0 -8 6 -7 17 2 9
8 17 12 19 9 1 -3 5 -2 9 1 10 10 -28 16 -55 8z"/>
<path d="M2712 959 c5 -24 40 -32 57 -13 15 15 14 16 -7 9 -14 -4 -29 -2 -38
6 -12 10 -15 10 -12 -2z"/>
<path d="M2811 963 c-1 -17 16 -25 25 -12 4 7 3 9 -4 5 -5 -3 -13 0 -15 6 -4
9 -6 10 -6 1z"/>
<path d="M250 940 c18 -12 40 -13 40 -2 0 4 -12 9 -27 10 -22 1 -24 0 -13 -8z"/>
<path d="M1501 934 c0 -11 3 -14 6 -6 3 7 2 16 -1 19 -3 4 -6 -2 -5 -13z"/>
<path d="M1840 939 c0 -5 5 -7 10 -4 6 3 10 8 10 11 0 2 -4 4 -10 4 -5 0 -10
-5 -10 -11z"/>
<path d="M1107 925 c-4 -8 -3 -16 1 -19 4 -3 9 4 9 15 2 23 -3 25 -10 4z"/>
<path d="M2610 920 c0 -11 2 -20 4 -20 2 0 6 9 9 20 3 11 1 20 -4 20 -5 0 -9
-9 -9 -20z"/>
<path d="M2634 918 c-7 -11 18 -10 36 2 11 7 10 9 -8 7 -13 -1 -26 -5 -28 -9z"/>
<path d="M1840 909 c0 -5 5 -7 10 -4 6 3 10 8 10 11 0 2 -4 4 -10 4 -5 0 -10
-5 -10 -11z"/>
<path d="M10 889 c-7 -11 -9 -23 -7 -26 3 -2 11 5 17 17 9 16 18 20 36 16 14
-4 24 -2 24 4 0 20 -59 11 -70 -11z"/>
<path d="M1271 884 c0 -11 3 -14 6 -6 3 7 2 16 -1 19 -3 4 -6 -2 -5 -13z"/>
<path d="M2557 894 c-3 -5 -2 -16 4 -24 5 -8 9 -10 10 -5 0 6 3 3 7 -6 6 -13
13 -14 52 -3 l45 13 -40 -2 c-34 -1 -40 1 -37 18 3 16 1 17 -11 7 -12 -10 -16
-10 -19 0 -3 7 -7 8 -11 2z"/>
<path d="M2918 893 c6 -2 10 -8 8 -12 -3 -4 14 -7 37 -8 30 0 33 1 12 4 -16 2
-34 9 -39 14 -6 5 -15 9 -20 8 -6 0 -5 -3 2 -6z"/>
<path d="M2083 883 c-12 -2 -27 -10 -33 -18 -9 -11 -6 -13 16 -10 14 1 29 7
33 12 3 6 13 13 21 16 13 5 13 5 0 5 -8 0 -25 -3 -37 -5z"/>
<path d="M1240 870 c0 -6 7 -13 15 -16 10 -4 12 -11 7 -18 -11 -14 -14 -62 -3
-50 5 5 13 24 19 42 9 26 8 32 -4 32 -7 0 -14 5 -14 10 0 6 -4 10 -10 10 -5 0
-10 -5 -10 -10z"/>
<path d="M2717 864 c6 -16 19 -18 27 -5 3 5 -3 11 -13 14 -14 3 -18 1 -14 -9z"/>
<path d="M2760 869 c0 -5 5 -7 10 -4 6 3 10 8 10 11 0 2 -4 4 -10 4 -5 0 -10
-5 -10 -11z"/>
<path d="M26 855 c-11 -8 -17 -18 -13 -21 3 -3 16 3 28 15 26 24 14 28 -15 6z"/>
<path d="M2816 850 c-18 -6 -18 -7 4 -13 14 -3 28 -3 33 2 12 12 -14 20 -37
11z"/>
<path d="M1450 846 c0 -2 11 -6 25 -8 14 -3 25 -1 25 3 0 5 -11 9 -25 9 -14 0
-25 -2 -25 -4z"/>
<path d="M2544 825 c-3 -14 -10 -22 -15 -19 -5 3 -9 3 -9 0 0 -2 -3 -12 -7
-22 -6 -16 -5 -16 14 1 20 19 40 65 29 65 -3 0 -8 -11 -12 -25z"/>
<path d="M2683 837 c4 -14 26 -16 30 -3 1 5 -6 10 -16 12 -10 1 -16 -3 -14 -9z"/>
<path d="M28 812 c-19 -22 -30 -52 -19 -52 5 0 12 12 15 26 5 17 12 24 21 20
8 -3 15 -1 15 4 0 18 -18 19 -32 2z"/>
<path d="M896 815 c4 -8 8 -15 10 -15 2 0 4 7 4 15 0 8 -4 15 -10 15 -5 0 -7
-7 -4 -15z"/>
<path d="M1316 823 c-3 -4 -6 -18 -6 -32 1 -23 2 -24 11 -8 8 14 14 15 24 7 9
-8 14 -7 18 4 6 14 -36 40 -47 29z"/>
<path d="M2656 822 c-3 -5 1 -9 9 -9 8 0 12 4 9 9 -3 4 -7 8 -9 8 -2 0 -6 -4
-9 -8z"/>
<path d="M2750 821 c0 -5 9 -7 20 -4 11 3 20 7 20 9 0 2 -9 4 -20 4 -11 0 -20
-4 -20 -9z"/>
<path d="M220 811 c0 -6 4 -13 10 -16 6 -3 7 1 4 9 -7 18 -14 21 -14 7z"/>
<path d="M1771 770 c0 -34 2 -40 9 -25 5 11 9 14 9 8 1 -7 8 -13 17 -13 12 0
11 5 -7 20 -18 14 -20 19 -8 20 8 0 20 -5 26 -11 8 -8 18 -6 37 7 39 29 31 39
-29 39 l-55 0 1 -45z"/>
<path d="M932 799 c3 -8 9 -14 14 -15 22 -1 64 -28 64 -41 0 -7 4 -13 9 -13 5
0 18 -3 28 -6 17 -5 17 -5 1 9 -10 8 -15 16 -12 19 4 4 -45 32 -100 57 -5 2
-6 -3 -4 -10z"/>
<path d="M2850 801 c0 -6 5 -13 10 -16 6 -3 10 1 10 9 0 9 -4 16 -10 16 -5 0
-10 -4 -10 -9z"/>
<path d="M197 793 c-7 -11 10 -40 18 -31 4 4 3 14 -3 24 -5 9 -12 12 -15 7z"/>
<path d="M2646 785 c-11 -8 -15 -15 -9 -15 6 0 16 7 23 15 16 19 11 19 -14 0z"/>
<path d="M72 782 c-8 -6 1 -9 23 -9 22 0 31 3 23 9 -7 4 -17 8 -23 8 -5 0 -16
-4 -23 -8z"/>
<path d="M1280 779 c0 -5 5 -7 10 -4 6 3 10 8 10 11 0 2 -4 4 -10 4 -5 0 -10
-5 -10 -11z"/>
<path d="M2763 762 c-13 -12 -23 -26 -23 -31 0 -13 29 -8 34 6 3 8 9 12 13 10
5 -3 29 -2 55 2 39 6 48 5 51 -8 4 -13 5 -13 6 2 0 9 6 17 13 17 9 0 9 3 1 11
-9 9 -24 9 -59 0 -39 -10 -50 -10 -59 1 -8 10 -14 9 -32 -10z"/>
<path d="M230 770 c0 -6 7 -10 15 -10 8 0 15 2 15 4 0 2 -7 6 -15 10 -8 3 -15
1 -15 -4z"/>
<path d="M517 769 c7 -7 15 -10 18 -7 3 3 -2 9 -12 12 -14 6 -15 5 -6 -5z"/>
<path d="M1460 776 c0 -2 11 -6 25 -8 14 -3 25 -1 25 3 0 5 -11 9 -25 9 -14 0
-25 -2 -25 -4z"/>
<path d="M2936 753 c-12 -25 -12 -32 6 -70 13 -28 24 -40 34 -36 18 7 18 23 0
23 -16 0 -25 27 -22 75 1 19 0 35 -1 35 -1 0 -9 -12 -17 -27z"/>
<path d="M130 760 c-23 -7 -23 -8 -3 -9 12 -1 25 4 28 9 3 6 5 10 3 9 -2 -1
-14 -5 -28 -9z"/>
<path d="M275 754 l-30 -14 30 6 c31 6 41 11 34 18 -2 2 -17 -2 -34 -10z"/>
<path d="M1334 753 c1 -7 5 -16 9 -19 12 -12 8 -82 -5 -88 -10 -5 -10 -7 0
-12 7 -3 12 -24 12 -50 0 -28 -4 -44 -12 -44 -9 0 -10 -3 -2 -8 6 -4 11 -16
11 -27 0 -11 -5 -23 -11 -27 -8 -5 -7 -8 2 -8 7 0 12 -15 12 -41 0 -24 -4 -38
-10 -34 -5 3 -10 2 -10 -4 0 -5 6 -11 13 -14 9 -3 9 -7 -2 -20 -8 -11 -9 -17
-3 -17 7 0 11 -27 10 -76 -2 -70 0 -76 22 -87 13 -7 25 -18 26 -25 1 -7 0 -8
-3 -2 -2 5 -13 10 -24 10 -10 0 -19 5 -19 10 0 6 -7 10 -15 10 -14 0 -20 22
-16 60 1 12 0 12 -7 2 -7 -11 -11 -10 -20 1 -9 11 -8 18 8 32 32 29 24 35 -42
35 -35 0 -101 7 -147 15 -62 11 -87 12 -92 4 -5 -8 -8 -8 -11 1 -3 9 -33 10
-121 5 -76 -5 -114 -11 -110 -18 4 -7 0 -8 -13 -3 -31 13 -112 17 -119 6 -6
-10 7 -14 33 -11 6 1 12 0 12 -2 0 -8 -80 -57 -92 -57 -7 0 5 11 27 25 22 13
36 25 31 25 -5 0 -24 -9 -42 -21 -19 -11 -34 -16 -34 -10 0 6 -10 11 -22 11
-12 0 -18 3 -14 8 4 4 12 7 17 7 5 0 9 5 8 10 0 6 -7 9 -15 7 -13 -3 -13 1 -4
18 8 16 8 20 -2 18 -7 -2 -12 5 -12 15 1 9 -2 17 -7 17 -4 0 -7 37 -7 82 1 77
-1 82 -23 90 -27 10 -82 1 -73 -13 3 -5 13 -5 25 1 18 10 19 7 20 -47 1 -32 0
-64 -1 -72 -1 -9 5 -12 19 -8 14 3 21 0 21 -9 0 -10 -13 -14 -44 -14 -25 0
-48 -5 -51 -10 -4 -6 -11 -8 -16 -4 -6 3 -5 -3 3 -15 10 -17 10 -23 0 -33 -11
-11 -12 -10 -7 2 4 11 -2 15 -20 16 -21 2 -23 -1 -15 -17 22 -40 60 -33 60 11
0 27 15 40 46 40 11 0 13 -11 9 -50 -3 -27 -1 -50 4 -50 12 0 9 -33 -4 -42
-16 -12 8 -9 25 3 10 7 11 12 4 15 -7 3 -10 14 -7 24 3 11 9 17 14 14 5 -3 9
0 9 5 0 6 -7 11 -15 11 -9 0 -15 9 -15 21 0 14 5 19 17 17 13 -2 19 -16 23
-48 4 -38 8 -45 27 -45 13 0 23 -5 24 -10 1 -11 -32 -25 -44 -18 -7 4 -2 -45
6 -53 8 -8 37 8 31 17 -3 5 0 9 6 9 6 0 10 6 8 13 -2 7 1 12 7 12 5 0 8 -12 6
-27 -1 -16 2 -28 8 -28 6 0 11 15 11 33 0 28 7 38 44 64 44 31 44 31 205 36
89 2 165 7 168 11 13 13 31 5 29 -12 -3 -15 -18 -17 -177 -15 -127 2 -165 0
-141 -8 29 -9 32 -14 32 -47 0 -20 3 -46 6 -58 5 -18 2 -20 -25 -16 -17 2 -29
8 -26 12 6 10 -21 21 -29 13 -3 -4 -1 -12 5 -19 6 -8 6 -14 0 -18 -15 -10 -40
4 -35 19 3 7 1 16 -5 20 -6 3 -11 11 -11 17 0 6 6 6 15 -2 9 -7 17 -11 19 -9
2 2 -7 12 -20 22 -13 10 -24 13 -24 7 0 -6 -4 -8 -10 -5 -5 3 -10 2 -10 -4 0
-5 4 -12 9 -16 11 -6 10 -45 -1 -45 -4 0 -8 -5 -8 -11 0 -6 14 -9 32 -7 17 2
33 -2 35 -9 3 -8 -8 -11 -37 -8 -23 2 -38 0 -35 -6 4 -5 1 -9 -4 -9 -6 0 -11
6 -11 14 0 8 -8 15 -17 15 -163 5 -197 4 -201 -8 -3 -8 0 -11 5 -8 5 3 20 -1
32 -10 22 -15 145 -22 158 -9 4 3 -16 6 -43 6 -27 0 -56 5 -64 10 -11 8 2 9
44 6 32 -3 63 -9 70 -14 18 -15 66 -21 66 -8 0 7 3 7 8 -1 4 -6 21 -11 38 -11
17 1 37 -3 44 -7 8 -5 11 -4 7 2 -5 7 23 10 84 9 50 -1 93 3 96 8 4 5 2 6 -3
3 -6 -3 -16 -2 -24 3 -9 5 -19 5 -27 -2 -10 -8 -13 -6 -13 5 0 10 -6 14 -14
11 -8 -3 -17 0 -21 6 -5 8 -11 8 -21 -1 -10 -8 -22 -8 -45 0 -17 6 -35 8 -40
5 -5 -3 -9 1 -9 8 0 11 18 13 90 10 49 -2 101 -2 115 2 23 6 25 11 25 56 0 28
-4 50 -10 50 -5 0 -10 -22 -10 -50 0 -54 -8 -60 -55 -38 -19 9 -28 9 -37 0
-27 -27 -38 -13 -38 51 l0 63 35 -4 c19 -2 35 -8 35 -13 0 -5 9 -9 19 -9 16 0
21 -8 24 -42 l4 -43 1 48 c2 44 4 48 25 45 19 -3 22 -9 24 -57 4 -76 13 -77
13 -3 0 55 2 62 19 62 15 0 21 -8 24 -38 l4 -37 1 37 c2 31 6 39 27 44 16 4
25 13 25 26 0 17 2 18 15 8 12 -10 19 -10 27 -2 7 7 21 12 33 11 20 0 20 0 0
-9 -17 -7 -17 -9 -2 -9 9 -1 17 -5 17 -10 0 -6 -16 -7 -35 -4 -23 4 -35 2 -35
-6 0 -12 18 -15 63 -12 20 2 27 -2 28 -16 0 -16 1 -16 9 2 5 11 9 18 10 15 7
-24 9 -47 4 -60 -5 -12 -8 -11 -14 5 -8 19 -9 19 -9 -2 -1 -24 13 -31 25 -12
4 8 9 7 15 -2 6 -10 9 -10 9 -2 0 7 6 10 14 7 11 -4 13 -12 5 -31 -7 -20 -6
-24 8 -21 28 5 26 26 -6 57 -33 32 -41 61 -16 61 18 0 20 -17 3 -22 -7 -3 -6
-7 5 -11 10 -4 17 -2 17 5 0 7 5 7 14 -2 8 -6 12 -19 9 -27 -4 -11 -2 -14 5
-9 7 4 12 2 12 -3 0 -6 -4 -11 -8 -11 -5 0 -8 -10 -7 -23 3 -31 -6 -52 -15
-37 -4 6 -17 12 -29 13 -16 1 -21 6 -18 19 3 10 1 18 -4 18 -5 0 -9 -4 -9 -10
0 -14 -37 -12 -43 3 -4 8 -8 9 -14 1 -14 -19 -37 -21 -68 -8 -16 7 -24 13 -17
14 17 0 15 20 -2 20 -9 0 -13 -7 -11 -20 3 -13 -2 -20 -12 -20 -9 0 -13 6 -9
15 3 9 0 15 -9 15 -8 0 -12 -6 -9 -14 9 -23 -37 -47 -74 -40 -22 5 -32 3 -32
-6 0 -9 21 -11 83 -7 45 3 83 6 84 6 1 1 0 9 -3 19 -5 14 -2 13 13 -4 21 -24
106 -36 86 -12 -10 11 -8 14 7 15 11 1 19 -3 17 -10 -1 -6 9 -12 23 -13 14 0
43 -6 65 -12 51 -14 105 -11 105 6 0 9 -13 11 -50 6 -43 -6 -50 -4 -44 9 3 8
12 18 19 21 17 6 85 -15 85 -26 0 -5 8 -8 18 -7 9 1 25 -1 35 -6 17 -7 145 -1
154 8 3 3 2 14 -1 25 -5 14 -13 18 -30 15 -22 -5 -24 -1 -24 31 0 20 4 36 9
36 5 0 9 -5 9 -11 0 -5 5 -7 10 -4 6 3 10 -3 10 -14 0 -12 5 -21 10 -21 6 0
10 -7 10 -15 0 -8 5 -15 11 -15 5 0 7 5 4 10 -3 6 -2 10 4 10 5 0 9 -9 8 -19
0 -11 -5 -17 -9 -15 -4 3 -8 0 -8 -5 0 -6 8 -11 18 -12 9 -1 35 -2 57 -3 179
-9 183 -10 55 -16 l-125 -6 150 -1 c83 0 143 2 135 5 -8 2 -22 10 -30 17 -8 7
-36 12 -63 11 -29 -1 -52 3 -59 11 -6 7 -23 13 -38 13 -15 0 -33 7 -40 15 -7
8 -27 17 -46 21 -19 3 -34 11 -34 16 0 6 9 8 20 5 17 -4 20 0 20 32 0 36 -1
37 -30 33 -36 -5 -39 -19 -5 -24 19 -2 22 -6 15 -18 -6 -9 -13 -11 -17 -5 -5
6 -14 10 -20 11 -38 3 -40 5 -35 29 2 15 0 25 -7 25 -9 0 -11 -19 -8 -65 l4
-64 -66 -4 -66 -3 68 -2 c52 -2 67 -5 67 -17 0 -11 -11 -15 -43 -15 -24 0 -47
3 -51 7 -4 4 -15 8 -24 8 -14 0 -16 9 -14 55 2 30 9 61 15 69 9 12 9 13 0 7
-10 -5 -13 8 -14 56 -1 35 -2 70 -3 78 -1 8 2 20 7 27 4 6 3 14 -3 18 -12 8
-14 -3 -14 -139 -1 -78 -5 -111 -13 -113 -10 -4 -12 59 -11 289 l3 293 -26 0
c-16 1 -26 -4 -25 -12z m36 -3 c-8 -5 -19 -10 -25 -10 -5 0 -3 5 5 10 8 5 20
10 25 10 6 0 3 -5 -5 -10z m-863 -216 c-3 -3 -12 -4 -19 -1 -8 3 -5 6 6 6 11
1 17 -2 13 -5z m3 -30 c0 -8 -4 -12 -10 -9 -5 3 -10 10 -10 16 0 5 5 9 10 9 6
0 10 -7 10 -16z m7 -140 c-3 -3 -12 -4 -19 -1 -8 3 -5 6 6 6 11 1 17 -2 13 -5z
m460 -40 c-3 -3 -12 -4 -19 -1 -8 3 -5 6 6 6 11 1 17 -2 13 -5z m303 -39 c0
-11 -12 -15 -50 -15 -29 0 -50 5 -50 11 0 6 17 9 45 6 25 -3 45 -1 45 4 0 5 2
9 5 9 3 0 5 -7 5 -15z m426 -156 c3 -5 -6 -8 -20 -7 -15 1 -26 8 -26 14 0 13
37 7 46 -7z m-546 7 c0 -2 -7 -6 -15 -10 -8 -3 -15 -1 -15 4 0 6 7 10 15 10 8
0 15 -2 15 -4z m445 -6 c-3 -5 -13 -10 -21 -10 -8 0 -14 5 -14 10 0 6 9 10 21
10 11 0 17 -4 14 -10z"/>
<path d="M1472 748 c-15 -15 -15 -28 -1 -28 5 0 7 5 3 12 -5 7 -2 9 9 5 11 -4
14 -2 10 9 -6 17 -6 17 -21 2z"/>
<path d="M87 730 c9 -35 84 -68 113 -50 13 8 12 10 -3 10 -10 0 -15 4 -12 10
4 6 -2 7 -16 2 -25 -10 -69 6 -69 25 0 6 -4 14 -9 17 -5 4 -7 -3 -4 -14z"/>
<path d="M170 742 c8 -3 18 -9 21 -15 4 -6 14 -4 27 4 18 13 17 14 -22 15 -22
1 -34 -1 -26 -4z"/>
<path d="M306 725 c-3 -8 -1 -15 4 -15 13 0 22 18 11 24 -5 3 -11 -1 -15 -9z"/>
<path d="M1295 725 c-11 -7 -114 -75 -228 -150 -115 -75 -210 -135 -212 -133
-2 2 -8 48 -13 103 l-11 100 5 -99 c2 -54 7 -102 10 -107 3 -5 -2 -9 -10 -9
-8 0 -16 9 -18 20 -3 21 -3 21 -16 -1 -8 -11 -9 -18 -4 -15 6 3 12 -1 16 -9 3
-10 -14 -26 -55 -51 -32 -20 -57 -39 -55 -41 3 -3 582 368 615 394 14 10 -7 9
-24 -2z"/>
<path d="M2114 728 c-3 -4 2 -8 10 -8 8 0 17 4 20 8 3 5 -2 9 -10 9 -8 0 -17
-4 -20 -9z"/>
<path d="M2160 716 c0 -14 -6 -27 -12 -29 -10 -4 -10 -6 0 -6 8 -1 16 8 19 19
3 11 14 20 24 20 28 0 23 15 -6 18 -20 1 -25 -3 -25 -22z"/>
<path d="M2515 730 c-7 -12 2 -12 30 0 19 8 19 9 -2 9 -12 1 -25 -3 -28 -9z"/>
<path d="M2719 732 c-9 -68 -8 -74 9 -59 9 8 22 16 29 18 7 3 3 12 -12 26 -14
12 -25 18 -26 15z"/>
<path d="M60 720 c-9 -6 -10 -10 -3 -10 6 0 15 5 18 10 8 12 4 12 -15 0z"/>
<path d="M229 719 c-16 -10 -15 -10 24 -15 15 -1 27 1 27 5 0 13 -36 20 -51
10z"/>
<path d="M2470 715 c-10 -12 -10 -15 4 -15 9 0 16 7 16 15 0 8 -2 15 -4 15 -2
0 -9 -7 -16 -15z"/>
<path d="M1010 713 c0 -17 16 -30 50 -39 19 -5 35 -15 35 -22 0 -7 3 -12 8
-12 4 0 7 2 7 5 0 3 0 9 0 14 0 5 -9 13 -20 16 -11 4 -18 11 -14 16 3 6 12 5
22 -3 11 -8 10 -4 -3 11 -16 19 -21 20 -23 7 -4 -20 -26 -21 -46 0 -9 8 -16
12 -16 7z"/>
<path d="M1495 709 c-11 -16 -1 -19 13 -3 7 8 8 14 3 14 -5 0 -13 -5 -16 -11z"/>
<path d="M2558 706 c-20 -15 -24 -36 -7 -36 5 0 8 4 5 9 -4 5 2 7 12 4 13 -3
18 2 18 16 0 24 -5 25 -28 7z"/>
<path d="M1195 631 c-66 -44 -196 -129 -290 -190 -93 -61 -163 -111 -155 -111
8 0 59 29 113 63 238 152 448 290 453 299 15 25 -11 11 -121 -61z"/>
<path d="M1410 682 c0 -18 4 -41 9 -50 5 -10 4 -27 -2 -42 -13 -33 -17 -80 -6
-80 5 0 9 14 9 30 0 26 3 29 18 23 19 -10 69 -9 79 1 3 3 -12 6 -35 6 l-42 0
0 48 c-1 26 -7 58 -15 72 l-14 25 -1 -33z"/>
<path d="M1440 699 c0 -5 5 -7 10 -4 6 3 10 8 10 11 0 2 -4 4 -10 4 -5 0 -10
-5 -10 -11z"/>
<path d="M2195 690 c3 -5 8 -10 11 -10 2 0 4 5 4 10 0 6 -5 10 -11 10 -5 0 -7
-4 -4 -10z"/>
<path d="M2657 694 c-4 -4 -7 -14 -7 -23 0 -11 3 -12 11 -4 6 6 10 16 7 23 -2
6 -7 8 -11 4z"/>
<path d="M47 679 c10 -10 10 -16 1 -27 -10 -12 -9 -14 6 -11 28 6 29 22 4 38
-17 10 -20 10 -11 0z"/>
<path d="M335 680 c3 -5 8 -10 11 -10 2 0 4 5 4 10 0 6 -5 10 -11 10 -5 0 -7
-4 -4 -10z"/>
<path d="M2458 683 c-10 -2 -18 -10 -18 -17 0 -7 -19 -19 -42 -25 -24 -7 -47
-17 -53 -21 -5 -4 -35 -11 -65 -14 -30 -4 -57 -10 -60 -15 -3 -5 -14 -11 -25
-14 -18 -4 -17 -5 3 -6 13 0 32 4 43 10 11 5 38 11 60 11 22 0 58 9 80 20 22
10 43 17 47 14 4 -2 13 2 20 10 7 8 10 14 6 14 -4 0 3 9 16 20 23 20 21 22
-12 13z"/>
<path d="M268 673 c7 -3 16 -2 19 1 4 3 -2 6 -13 5 -11 0 -14 -3 -6 -6z"/>
<path d="M605 671 c7 -13 85 -15 85 -3 0 5 -21 9 -46 11 -30 1 -44 -2 -39 -8z"/>
<path d="M936 667 c3 -10 9 -15 12 -12 3 3 0 11 -7 18 -10 9 -11 8 -5 -6z"/>
<path d="M1130 676 c0 -2 7 -9 15 -16 9 -7 15 -8 15 -2 0 5 -7 12 -15 16 -8 3
-15 4 -15 2z"/>
<path d="M1467 664 c3 -7 11 -10 19 -7 20 8 17 22 -5 20 -10 0 -17 -7 -14 -13z"/>
<path d="M705 660 c-3 -5 -2 -10 4 -10 5 0 13 5 16 10 3 6 2 10 -4 10 -5 0
-13 -4 -16 -10z"/>
<path d="M2070 661 c0 -13 32 -23 39 -12 3 5 15 11 26 14 11 2 1 5 -22 6 -24
0 -43 -3 -43 -8z"/>
<path d="M2490 666 c0 -2 9 -6 20 -9 11 -3 20 -1 20 4 0 5 -9 9 -20 9 -11 0
-20 -2 -20 -4z"/>
<path d="M182 639 c2 -17 11 -22 38 -24 l35 -3 -28 14 c-15 8 -27 19 -27 24 0
6 -5 10 -11 10 -6 0 -9 -10 -7 -21z"/>
<path d="M1000 649 c0 -5 5 -7 10 -4 6 3 10 8 10 11 0 2 -4 4 -10 4 -5 0 -10
-5 -10 -11z"/>
<path d="M364 641 c4 -5 0 -12 -6 -14 -7 -3 -2 -6 11 -6 20 -1 21 1 11 14 -14
16 -25 21 -16 6z"/>
<path d="M404 635 c11 -8 27 -15 35 -15 9 0 3 7 -13 15 -36 19 -47 19 -22 0z"/>
<path d="M678 633 c6 -3 10 -8 7 -13 -3 -4 8 -10 25 -12 17 -3 26 0 23 5 -6 9
19 6 72 -10 17 -5 17 -4 4 9 -8 9 -42 17 -79 20 -36 3 -59 4 -52 1z"/>
<path d="M885 631 c3 -6 12 -11 20 -11 7 0 15 -7 19 -15 6 -16 56 -21 56 -6 0
15 -18 23 -25 11 -10 -16 -26 -11 -23 8 2 12 -5 18 -26 20 -18 2 -26 0 -21 -7z"/>
<path d="M1458 633 c6 -2 18 -2 25 0 6 3 1 5 -13 5 -14 0 -19 -2 -12 -5z"/>
<path d="M1924 629 c-3 -6 -12 -8 -20 -5 -8 3 -14 1 -14 -4 0 -13 208 -21 216
-8 3 4 11 5 18 2 8 -3 17 -1 21 5 4 8 -19 9 -75 6 -45 -3 -87 -2 -93 2 -20 12
-46 13 -53 2z"/>
<path d="M2703 633 c-25 -9 -13 -22 18 -18 25 3 28 1 18 -11 -7 -9 -8 -14 -1
-14 21 0 25 23 7 37 -20 14 -23 14 -42 6z"/>
<path d="M2775 630 c-3 -5 -2 -10 4 -10 5 0 13 5 16 10 3 6 2 10 -4 10 -5 0
-13 -4 -16 -10z"/>
<path d="M115 620 c3 -5 -5 -12 -17 -15 -20 -7 -19 -8 11 -21 37 -16 58 -10
41 11 -7 8 -9 18 -7 22 3 5 -3 10 -14 10 -11 1 -17 -2 -14 -7z"/>
<path d="M1030 626 c0 -2 7 -9 15 -16 9 -7 15 -8 15 -2 0 5 -7 12 -15 16 -8 3
-15 4 -15 2z"/>
<path d="M1242 618 c-7 -7 -12 -17 -12 -22 0 -6 5 -3 11 7 15 25 27 21 21 -8
-2 -14 -8 -22 -13 -19 -5 3 -9 1 -9 -5 0 -6 9 -15 20 -21 16 -9 19 -8 13 6 -3
9 0 19 7 24 9 6 9 12 1 29 -13 24 -22 26 -39 9z"/>
<path d="M1297 616 c-4 -10 -1 -13 9 -9 15 6 19 23 5 23 -5 0 -11 -7 -14 -14z"/>
<path d="M1332 595 c0 -16 2 -22 5 -12 2 9 2 23 0 30 -3 6 -5 -1 -5 -18z"/>
<path d="M441 594 c0 -11 3 -14 6 -6 3 7 2 16 -1 19 -3 4 -6 -2 -5 -13z"/>
<path d="M1000 600 c-9 -6 -10 -10 -3 -10 6 0 15 5 18 10 8 12 4 12 -15 0z"/>
<path d="M286 589 c3 -5 12 -9 21 -9 19 0 9 13 -12 16 -8 1 -13 -2 -9 -7z"/>
<path d="M345 586 c-17 -12 -16 -13 10 -20 23 -6 26 -9 14 -18 -11 -8 -10 -9
4 -4 10 3 21 6 24 6 3 0 0 7 -7 15 -7 8 -17 12 -23 8 -6 -4 -8 0 -4 10 8 21 6
21 -18 3z"/>
<path d="M1306 583 c-6 -14 -5 -15 5 -6 7 7 10 15 7 18 -3 3 -9 -2 -12 -12z"/>
<path d="M1210 580 c-1 -8 -3 -23 -5 -32 -2 -10 1 -18 5 -18 14 0 17 13 9 40
-4 14 -8 18 -9 10z"/>
<path d="M1675 578 c-11 -6 -28 -19 -37 -29 -15 -15 -15 -18 -2 -23 8 -3 12
-2 9 4 -6 10 29 33 37 24 3 -3 8 4 11 16 3 11 4 20 4 20 -1 0 -11 -6 -22 -12z"/>
<path d="M2705 579 c-9 -14 -2 -20 14 -10 8 6 9 11 3 15 -6 3 -14 1 -17 -5z"/>
<path d="M1985 570 c-16 -6 -13 -8 15 -12 42 -7 44 -6 22 8 -9 6 -26 8 -37 4z"/>
<path d="M2123 573 c9 -2 23 -2 30 0 6 3 -1 5 -18 5 -16 0 -22 -2 -12 -5z"/>
<path d="M144 557 c-3 -9 -12 -13 -21 -10 -12 5 -14 3 -8 -6 4 -8 2 -17 -6
-22 -7 -4 -11 -10 -8 -13 3 -3 16 4 29 16 36 34 48 31 52 -14 3 -30 0 -42 -12
-46 -31 -11 -42 -24 -28 -33 8 -6 1 -9 -19 -9 -18 0 -33 5 -33 10 0 6 6 10 14
10 8 0 17 4 20 8 7 12 -25 8 -50 -6 -21 -11 -34 -7 -34 11 0 5 7 7 15 3 8 -3
15 -1 15 4 0 6 10 11 23 11 17 1 18 2 4 6 -9 2 -15 9 -12 14 3 5 -2 6 -11 2
-12 -4 -15 -3 -10 5 5 8 1 10 -10 5 -12 -4 -15 -3 -10 5 4 7 14 12 22 12 19 0
18 16 -1 24 -9 3 -15 0 -15 -8 0 -7 -9 -21 -20 -31 -14 -13 -20 -14 -20 -5 0
7 -2 11 -5 8 -4 -3 -3 -18 1 -33 l7 -28 11 27 c10 26 12 26 31 11 17 -14 17
-16 2 -11 -12 4 -20 -1 -26 -17 -7 -19 -3 -24 23 -36 17 -8 37 -13 44 -12 17
3 15 -16 -3 -23 -19 -7 -47 3 -39 15 3 5 0 9 -5 9 -23 0 -10 -26 20 -39 19 -8
28 -18 25 -27 -3 -8 -1 -14 4 -14 5 0 7 -6 4 -13 -7 -20 24 -43 38 -29 9 9 7
12 -10 12 -22 0 -28 10 -15 24 5 4 8 13 8 19 0 17 34 21 61 7 14 -8 20 -18 17
-28 -5 -12 -1 -14 20 -10 23 4 25 3 17 -13 -6 -10 -10 -38 -10 -63 l0 -46 44
0 c25 0 48 5 51 10 11 18 55 12 55 -7 0 -15 2 -16 10 -3 9 13 10 13 10 0 0
-13 2 -13 9 0 13 19 7 26 -28 33 -27 6 -30 10 -29 42 1 25 4 32 10 23 7 -10 9
-10 5 2 -2 8 -11 16 -20 18 -14 3 -16 -3 -12 -35 3 -27 2 -34 -5 -23 -5 8 -10
13 -11 10 0 -3 -2 -15 -3 -27 -3 -23 -16 -45 -16 -26 0 6 -11 8 -25 5 -15 -2
-25 0 -25 7 0 7 4 10 9 6 5 -3 13 0 17 6 4 7 3 9 -2 6 -6 -3 -16 -2 -24 4 -8
5 -10 9 -4 9 13 0 15 61 1 78 -6 8 -6 12 2 12 7 0 9 5 6 11 -4 6 -13 8 -21 5
-7 -3 -26 1 -41 9 -24 13 -25 15 -8 16 17 1 17 2 -3 7 -13 4 -23 10 -23 15 1
4 1 15 1 24 0 15 2 14 15 -3 15 -20 20 -12 16 29 -1 9 2 17 6 17 5 0 7 18 5
40 -4 39 3 47 33 40 38 -9 105 -9 105 -1 0 5 -8 10 -17 10 -10 0 -53 3 -95 7
-66 6 -78 4 -84 -9z m0 -178 c-3 -5 -14 -9 -25 -9 -16 0 -18 3 -7 19 9 15 16
17 25 9 7 -5 10 -14 7 -19z"/>
<path d="M1160 554 c0 -8 5 -12 10 -9 6 4 8 11 5 16 -9 14 -15 11 -15 -7z"/>
<path d="M2070 560 c0 -5 7 -7 15 -4 8 4 15 8 15 10 0 2 -7 4 -15 4 -8 0 -15
-4 -15 -10z"/>
<path d="M2497 559 c-9 -6 -22 -7 -27 -4 -6 3 -10 1 -10 -4 0 -6 6 -11 13 -11
7 0 4 -7 -7 -15 -11 -8 -16 -15 -10 -15 13 1 69 48 64 54 -3 2 -13 0 -23 -5z"/>
<path d="M2935 559 c-11 -17 1 -21 15 -4 8 9 8 15 2 15 -6 0 -14 -5 -17 -11z"/>
<path d="M4 541 c0 -10 6 -18 13 -18 17 0 17 12 0 25 -10 8 -13 6 -13 -7z"/>
<path d="M2296 545 c4 -8 8 -15 10 -15 2 0 4 7 4 15 0 8 -4 15 -10 15 -5 0 -7
-7 -4 -15z"/>
<path d="M2320 548 c0 -5 18 -8 40 -8 22 0 40 5 40 10 0 6 -18 9 -40 8 -22 -2
-40 -6 -40 -10z"/>
<path d="M2545 551 c-3 -5 0 -13 6 -17 7 -4 9 -3 5 4 -3 6 3 12 16 15 23 4 23
4 1 6 -12 0 -24 -3 -28 -8z"/>
<path d="M2146 534 c-5 -14 -4 -15 9 -4 17 14 19 20 6 20 -5 0 -12 -7 -15 -16z"/>
<path d="M2430 539 c0 -5 -5 -7 -12 -3 -7 4 -8 3 -4 -5 6 -9 11 -9 22 0 17 14
18 19 4 19 -5 0 -10 -5 -10 -11z"/>
<path d="M2960 542 c0 -7 -7 -12 -15 -12 -8 0 -15 -4 -15 -8 0 -5 7 -9 15 -9
15 0 30 26 20 35 -3 3 -5 0 -5 -6z"/>
<path d="M1547 520 c-3 -13 1 -28 12 -39 15 -15 19 -15 30 -3 11 12 10 18 -11
39 l-25 25 -6 -22z"/>
<path d="M2095 524 c-16 -7 -48 -14 -70 -15 l-40 -2 35 -6 c45 -9 81 -4 99 14
21 21 11 24 -24 9z"/>
<path d="M238 518 c5 -5 16 -8 23 -6 8 3 3 7 -10 11 -17 4 -21 3 -13 -5z"/>
<path d="M395 508 c3 -12 9 -24 14 -28 6 -3 11 -20 13 -38 1 -18 6 -32 11 -32
5 0 7 11 5 25 -3 15 -1 22 5 18 6 -4 7 -1 2 7 -4 7 -2 16 6 21 10 6 8 9 -8 9
-21 0 -28 10 -24 33 0 4 -5 7 -13 7 -10 0 -13 -8 -11 -22z"/>
<path d="M1108 508 c2 -11 8 -16 11 -11 3 4 10 11 14 14 4 4 -1 9 -11 11 -15
4 -18 1 -14 -14z"/>
<path d="M1156 514 c-20 -20 -21 -45 -1 -38 8 4 15 10 15 16 0 5 -5 6 -12 2
-7 -4 -8 -3 -4 4 4 7 14 12 22 12 8 0 14 5 14 10 0 15 -16 12 -34 -6z"/>
<path d="M1252 522 c-6 -2 -12 -11 -12 -20 1 -15 2 -15 11 1 10 16 12 16 40
-3 16 -12 29 -18 29 -13 0 12 -54 40 -68 35z"/>
<path d="M1440 519 c0 -6 5 -7 10 -4 6 3 10 1 10 -4 0 -6 -7 -11 -16 -11 -14
0 -14 -2 0 -15 8 -8 25 -15 38 -14 23 1 23 1 -2 8 -20 6 -22 8 -8 13 9 4 26 4
37 1 12 -3 21 -1 21 6 0 5 -7 8 -15 5 -8 -4 -15 -1 -15 4 0 6 8 12 18 14 9 3
-4 5 -30 6 -27 1 -48 -3 -48 -9z"/>
<path d="M2340 523 c-14 -3 -29 -9 -35 -14 -6 -6 0 -8 15 -5 14 2 35 5 48 5
12 1 22 6 22 11 0 10 -6 11 -50 3z"/>
<path d="M284 504 c-18 -14 -18 -15 4 -4 12 6 27 8 32 5 6 -3 10 -1 10 4 0 16
-23 13 -46 -5z"/>
<path d="M347 509 c7 -7 15 -10 18 -7 3 3 -2 9 -12 12 -14 6 -15 5 -6 -5z"/>
<path d="M660 500 c0 -5 5 -10 11 -10 5 0 7 5 4 10 -3 6 -8 10 -11 10 -2 0 -4
-4 -4 -10z"/>
<path d="M750 506 c0 -2 9 -6 20 -9 11 -3 18 -1 14 4 -5 9 -34 13 -34 5z"/>
<path d="M2397 504 c-8 -8 36 -44 53 -44 10 0 10 3 0 15 -7 8 -16 12 -21 10
-4 -3 -12 2 -16 10 -5 9 -12 13 -16 9z"/>
<path d="M1409 498 c-6 -20 -6 -39 0 -42 4 -3 7 6 7 20 0 20 -4 32 -7 22z"/>
<path d="M1037 484 c-3 -3 -3 -12 0 -20 3 -8 -2 -17 -11 -20 -24 -9 -19 -21
10 -28 21 -6 24 -10 14 -21 -13 -15 -4 -39 11 -30 14 9 11 63 -3 61 -7 0 -14
4 -15 9 -2 6 2 11 7 11 6 1 15 2 20 3 18 2 11 19 -7 17 -10 0 -17 5 -15 12 2
13 -1 15 -11 6z"/>
<path d="M2170 481 c0 -7 -7 -11 -15 -8 -17 7 -32 -12 -18 -22 5 -3 15 -21 21
-40 10 -29 10 -32 -4 -27 -9 3 -19 6 -22 6 -4 0 0 5 8 11 13 9 13 10 0 6 -8
-2 -14 -12 -14 -21 1 -9 -4 -16 -12 -16 -8 0 -14 -5 -14 -11 0 -5 4 -8 9 -4 5
3 12 1 15 -4 11 -18 -27 -21 -41 -4 -13 16 -13 16 -3 -4 6 -13 17 -23 25 -23
7 0 15 -5 17 -10 2 -7 11 -5 23 5 15 11 16 14 3 9 -14 -5 -17 0 -15 23 2 20 8
28 22 28 13 0 19 6 17 17 -3 20 14 33 24 17 4 -8 3 -9 -4 -5 -7 4 -12 3 -12
-2 0 -10 29 -26 42 -24 4 1 5 -5 2 -13 -4 -8 -2 -15 3 -15 19 0 7 -45 -13 -48
-16 -3 -17 -1 -4 8 13 10 12 11 -2 6 -10 -3 -18 -1 -18 5 0 5 -6 4 -14 -3 -8
-7 -12 -16 -10 -19 2 -4 -9 -9 -24 -12 -20 -4 -28 -12 -28 -26 0 -12 4 -21 8
-21 4 0 8 6 8 14 0 14 29 30 38 21 3 -3 2 -5 -3 -5 -4 0 -1 -8 6 -17 13 -15
12 -16 -9 -11 -13 4 -20 2 -16 -4 4 -5 18 -6 33 -2 14 4 34 6 44 6 9 0 17 5
17 13 0 7 6 16 13 18 9 4 9 6 0 6 -6 1 -14 -3 -18 -9 -3 -5 -13 -6 -22 -3 -11
4 -14 3 -9 -5 4 -7 3 -12 -2 -12 -11 0 -22 24 -22 48 1 15 2 15 14 -1 19 -25
23 -25 40 -2 15 20 15 20 30 0 18 -25 31 -14 16 15 -9 17 -9 21 2 18 14 -3 88
62 88 77 0 4 -7 2 -15 -5 -10 -9 -15 -9 -15 -1 0 6 5 11 10 11 6 0 10 4 10 10
0 5 -13 7 -30 5 -21 -2 -30 1 -30 11 0 16 12 18 26 4 7 -7 19 -4 36 9 31 25
42 17 22 -14 -14 -22 -14 -24 6 -35 12 -6 26 -10 33 -7 7 2 2 9 -11 16 -26 14
-29 31 -4 31 14 0 14 -2 3 -9 -11 -7 -9 -10 10 -13 13 -2 33 5 43 14 10 10 23
15 29 11 5 -3 0 -11 -12 -17 -16 -9 -19 -14 -9 -24 6 -6 8 -15 4 -19 -4 -4
-11 -2 -15 5 -6 10 -11 10 -21 -3 -7 -8 -9 -15 -4 -15 5 0 2 -5 -6 -11 -13 -9
-13 -10 0 -6 8 2 14 10 13 16 -2 6 2 11 7 11 6 0 10 -4 10 -10 0 -6 10 -5 25
2 23 10 23 12 7 24 -9 7 -13 16 -9 20 4 5 12 2 16 -5 6 -8 14 -10 22 -5 10 6
9 1 -2 -16 -15 -23 -15 -25 5 -42 16 -13 17 -17 6 -18 -27 0 -21 -37 6 -43 16
-3 23 0 21 7 -2 6 -13 10 -23 8 -18 -2 -18 -2 -1 11 9 8 17 20 17 27 0 8 8 10
21 7 15 -4 19 -2 15 10 -3 8 -6 17 -6 19 0 10 -29 3 -32 -7 -2 -7 -9 -10 -15
-8 -7 3 -4 13 9 29 l20 25 27 -31 c14 -17 37 -37 51 -44 21 -10 20 -8 -7 17
-18 16 -33 35 -33 41 0 7 -7 12 -15 12 -8 0 -15 5 -15 11 0 5 -4 8 -9 5 -5 -3
-12 1 -15 10 -3 9 -12 14 -20 11 -8 -3 -22 2 -32 12 -18 17 -20 16 -35 -3 -16
-19 -16 -19 -47 2 -16 12 -41 22 -54 22 -18 0 -20 -2 -8 -10 8 -5 11 -12 8
-15 -4 -4 -13 -3 -20 1 -19 12 -50 16 -44 5 3 -5 -9 -9 -28 -9 -26 0 -35 5
-39 20 -6 20 -6 20 -28 -1 -26 -24 -48 -29 -29 -6 7 9 10 18 6 22 -3 3 -6 1
-6 -6z m84 -50 c7 -6 17 -7 22 -3 5 4 0 -3 -10 -15 -11 -13 -14 -23 -8 -23 6
0 12 5 14 10 2 6 13 12 25 14 15 3 24 -1 28 -15 7 -21 -2 -42 -15 -34 -5 3
-12 0 -16 -6 -5 -8 -3 -9 6 -4 8 5 11 3 8 -6 -3 -8 -12 -13 -21 -11 -8 1 -18
-2 -22 -8 -13 -20 -24 -9 -22 23 2 25 -2 32 -15 31 -13 -1 -18 5 -18 22 0 18
-6 24 -21 24 -11 0 -17 4 -14 10 8 13 60 6 79 -9z m286 -1 c0 -5 -7 -10 -16
-10 -8 0 -12 5 -9 10 3 6 10 10 16 10 5 0 9 -4 9 -10z"/>
<path d="M2225 420 c-3 -5 1 -10 10 -10 9 0 13 5 10 10 -3 6 -8 10 -10 10 -2
0 -7 -4 -10 -10z"/>
<path d="M2286 385 c-3 -9 -10 -13 -16 -10 -5 3 -10 1 -10 -4 0 -6 4 -11 9
-11 12 0 35 29 29 36 -3 3 -8 -2 -12 -11z"/>
<path d="M1251 463 c10 -12 10 -16 -2 -24 -11 -7 -11 -9 4 -9 9 0 17 7 17 15
0 8 8 15 17 15 25 0 7 12 -22 16 -22 2 -24 0 -14 -13z"/>
<path d="M2060 471 c0 -6 -15 -11 -32 -13 -18 -2 -32 -6 -30 -10 1 -5 4 -7 6
-5 2 1 13 -6 24 -16 19 -17 20 -17 26 8 4 14 17 30 29 35 l22 9 -22 0 c-13 1
-23 -3 -23 -8z"/>
<path d="M680 460 c0 -5 5 -10 11 -10 5 0 7 5 4 10 -3 6 -8 10 -11 10 -2 0 -4
-4 -4 -10z"/>
<path d="M1303 456 c-10 -11 -9 -15 2 -20 10 -4 15 1 15 14 0 23 -1 24 -17 6z"/>
<path d="M1540 464 c0 -3 5 -14 10 -25 7 -13 7 -19 0 -19 -5 0 -10 -4 -10 -10
0 -5 6 -10 14 -10 8 0 17 -7 20 -16 3 -8 11 -12 17 -8 7 4 9 0 5 -13 -7 -23
27 -73 37 -55 4 6 2 16 -5 24 -7 7 -14 20 -16 28 -2 8 -10 20 -19 27 -8 6 -12
16 -8 22 3 6 -2 22 -12 36 -17 23 -33 32 -33 19z"/>
<path d="M2107 463 c-5 -7 -6 -17 -2 -22 3 -5 0 -13 -6 -17 -8 -4 -9 -3 -5 4
4 7 1 12 -8 12 -9 0 -13 -6 -10 -14 3 -9 -5 -18 -23 -25 -19 -8 -21 -10 -6 -7
20 3 21 1 12 -15 -5 -10 -14 -19 -20 -19 -6 0 -7 5 -3 11 4 8 0 9 -15 4 -12
-4 -21 -2 -21 4 0 6 -4 11 -10 11 -5 0 -10 -7 -10 -15 0 -8 -6 -15 -13 -15
-23 0 -27 12 -9 27 16 14 16 14 0 9 -10 -3 -18 -2 -18 3 0 4 -6 8 -12 9 -49 3
-90 10 -95 16 -10 10 -20 7 -21 -6 -1 -7 -4 -26 -8 -43 -4 -17 -3 -26 2 -22 5
5 9 14 9 20 0 5 7 12 15 15 8 3 12 1 8 -3 -4 -4 0 -14 10 -22 9 -8 12 -12 5
-8 -7 3 -24 -2 -37 -11 -21 -13 -23 -18 -12 -29 28 -28 127 -40 110 -14 -3 5
0 9 7 9 7 0 9 3 5 7 -10 10 -37 13 -31 3 3 -4 -4 -10 -15 -13 -11 -3 -18 -1
-14 4 3 5 -5 9 -18 9 -20 1 -21 2 -5 11 9 5 21 8 26 4 5 -3 12 -1 16 5 4 6 11
8 16 5 5 -3 6 1 3 9 -3 9 -10 13 -16 10 -5 -3 -16 2 -23 12 -18 24 -19 40 -2
25 8 -6 17 -8 20 -4 4 3 7 1 7 -6 0 -8 7 -11 15 -7 8 3 14 2 13 -2 -4 -20 16
-42 32 -37 17 5 17 3 7 -24 -6 -16 -14 -28 -18 -25 -4 2 -9 -3 -13 -11 -6 -16
9 -21 19 -5 3 5 13 6 23 3 14 -6 15 -4 5 8 -10 12 -9 20 3 37 15 22 54 31 54
12 0 -5 7 -7 15 -4 8 4 15 12 15 20 0 8 6 14 14 14 7 0 20 8 27 17 8 10 9 14
2 10 -6 -4 -14 -3 -17 2 -3 5 9 11 27 15 18 4 27 10 21 14 -7 4 -13 16 -16 27
-2 14 -6 16 -11 8z"/>
<path d="M1090 449 c0 -5 5 -7 10 -4 6 3 10 2 10 -3 0 -5 9 -12 19 -15 14 -3
18 -1 14 9 -3 8 1 14 11 14 9 0 13 -6 10 -14 -4 -11 0 -13 15 -9 12 3 21 13
21 22 0 14 -2 14 -10 1 -6 -10 -10 -11 -10 -2 0 8 -16 12 -45 12 -25 0 -45 -5
-45 -11z"/>
<path d="M1210 445 c0 -8 5 -15 10 -15 6 0 10 7 10 15 0 8 -4 15 -10 15 -5 0
-10 -7 -10 -15z"/>
<path d="M1707 449 c9 -9 10 -16 2 -26 -9 -10 -8 -13 5 -13 22 0 21 36 -1 45
-14 5 -15 4 -6 -6z"/>
<path d="M591 441 c-7 -5 -23 -7 -35 -4 -20 4 -20 4 -2 -8 25 -15 202 -26 192
-11 -3 6 0 13 6 16 7 3 -8 3 -34 0 -27 -3 -48 -1 -48 3 0 5 -12 10 -27 11 -22
1 -24 0 -13 -8 13 -8 13 -10 -2 -10 -9 0 -18 4 -20 10 -2 5 -9 6 -17 1z"/>
<path d="M1470 440 c13 -8 13 -10 -1 -10 -9 0 -22 -6 -28 -14 -9 -11 -6 -15
14 -20 30 -8 48 0 38 17 -4 7 1 6 10 -2 22 -17 27 -12 16 17 -6 15 -16 22 -36
22 -22 0 -25 -2 -13 -10z m0 -30 c0 -5 -2 -10 -4 -10 -3 0 -8 5 -11 10 -3 6
-1 10 4 10 6 0 11 -4 11 -10z"/>
<path d="M2963 443 c3 -4 -1 -14 -8 -20 -11 -10 -17 -10 -29 3 -9 8 -16 11
-16 5 0 -20 55 -37 66 -19 4 7 10 5 16 -3 6 -10 8 -7 6 11 -2 15 -10 26 -22
28 -10 2 -16 0 -13 -5z"/>
<path d="M1331 424 c0 -11 3 -14 6 -6 3 7 2 16 -1 19 -3 4 -6 -2 -5 -13z"/>
<path d="M951 413 c11 -13 11 -17 2 -20 -7 -3 -13 -11 -13 -19 0 -11 4 -10 19
3 15 12 17 21 10 35 -5 10 -15 18 -21 18 -6 0 -5 -6 3 -17z"/>
<path d="M2643 408 c-10 -22 -9 -27 3 -32 26 -10 38 -7 26 7 -5 6 -11 21 -13
31 -4 17 -5 17 -16 -6z"/>
<path d="M1202 404 c-7 -8 -10 -24 -6 -39 9 -35 24 -42 24 -10 0 15 -4 24 -10
20 -17 -10 -11 7 7 20 9 7 12 14 7 17 -5 3 -15 0 -22 -8z"/>
<path d="M1987 409 c7 -7 15 -10 18 -7 3 3 -2 9 -12 12 -14 6 -15 5 -6 -5z"/>
<path d="M2615 410 c-3 -5 -1 -10 4 -10 6 0 11 5 11 10 0 6 -2 10 -4 10 -3 0
-8 -4 -11 -10z"/>
<path d="M2685 400 c-4 -9 5 -24 22 -39 15 -13 23 -20 16 -17 -6 4 -14 2 -17
-3 -12 -19 23 -19 40 0 13 15 19 16 25 7 6 -9 11 -10 19 -2 17 17 -49 47 -70
31 -12 -9 -13 -9 -2 3 6 8 12 19 12 25 0 17 -39 13 -45 -5z"/>
<path d="M1010 391 c0 -11 4 -22 9 -25 4 -3 6 6 3 19 -5 30 -12 33 -12 6z"/>
<path d="M1145 399 c-11 -16 -1 -19 13 -3 7 8 8 14 3 14 -5 0 -13 -5 -16 -11z"/>
<path d="M1248 403 c7 -3 16 -2 19 1 4 3 -2 6 -13 5 -11 0 -14 -3 -6 -6z"/>
<path d="M3 381 c0 -11 5 -17 9 -15 11 7 10 34 -1 34 -6 0 -9 -9 -8 -19z"/>
<path d="M1100 390 c19 -13 30 -13 30 0 0 6 -10 10 -22 10 -19 0 -20 -2 -8
-10z"/>
<path d="M1709 386 c14 -18 9 -46 -9 -46 -9 0 -17 -7 -17 -15 0 -10 8 -15 21
-13 17 2 22 11 24 44 2 31 -1 41 -12 41 -10 0 -12 -4 -7 -11z"/>
<path d="M2877 380 c6 -21 -16 -38 -27 -20 -5 9 -9 9 -14 1 -4 -6 -12 -9 -17
-6 -5 3 -6 -2 -2 -11 4 -12 3 -15 -5 -10 -7 4 -12 2 -12 -5 0 -6 -8 -9 -20 -6
-11 3 -23 1 -26 -4 -3 -5 0 -9 5 -9 6 0 11 -5 11 -10 0 -7 -7 -7 -21 1 -13 7
-19 7 -15 1 3 -6 22 -16 41 -22 19 -6 35 -15 35 -19 0 -9 8 -11 84 -16 32 -2
62 -9 66 -15 4 -7 13 -9 20 -5 8 5 8 11 2 17 -11 11 -40 16 -109 19 -24 1 -43
6 -43 11 0 5 -4 6 -10 3 -5 -3 -10 1 -10 10 0 9 -4 14 -9 10 -5 -3 -12 -1 -15
4 -3 5 1 12 10 15 22 9 24 8 24 -9 0 -10 9 -15 28 -14 23 2 24 2 5 6 -13 2
-23 9 -23 15 0 5 7 8 14 5 10 -4 13 -1 10 8 -4 9 0 12 14 8 11 -2 19 -12 17
-21 -1 -10 0 -11 2 -4 3 6 11 12 18 12 20 0 47 30 41 46 -6 16 10 19 19 4 8
-13 -36 -88 -55 -94 -8 -3 -4 -4 10 -3 14 1 31 -2 38 -7 9 -5 20 -3 28 6 13
13 13 16 -2 29 -10 8 -15 9 -11 2 7 -12 -10 -29 -20 -20 -8 9 8 48 18 42 5 -3
6 0 3 8 -3 8 2 17 12 21 15 6 14 9 -10 21 -33 17 -60 20 -51 5 3 -5 1 -10 -4
-10 -6 0 -11 4 -11 9 0 5 -8 11 -19 14 -14 3 -17 0 -14 -13z m48 -36 c-7 -8
-21 -11 -29 -8 -25 10 -19 19 14 20 25 1 27 0 15 -12z"/>
<path d="M693 383 c9 -2 25 -2 35 0 9 3 1 5 -18 5 -19 0 -27 -2 -17 -5z"/>
<path d="M1281 374 c0 -11 3 -14 6 -6 3 7 2 16 -1 19 -3 4 -6 -2 -5 -13z"/>
<path d="M2385 380 c-4 -6 -1 -10 5 -10 7 0 5 -9 -4 -22 -9 -12 -16 -26 -16
-30 0 -11 23 -6 32 7 5 6 8 6 8 -2 0 -14 -44 -50 -72 -59 -18 -5 -19 -8 -6
-15 12 -7 14 -22 10 -80 -4 -55 -2 -70 7 -65 7 5 11 19 9 34 -2 14 2 27 8 29
12 4 11 -48 -2 -69 -4 -7 2 -5 13 5 11 9 25 17 32 17 8 0 11 6 7 16 -5 13 0
15 35 10 22 -3 45 -9 51 -12 7 -5 8 -2 4 5 -8 12 34 9 89 -6 20 -6 20 -6 0
-15 -13 -5 -5 -6 25 -2 25 3 53 5 63 5 9 0 17 7 17 15 0 8 -7 14 -15 14 -8 0
-15 4 -15 10 0 5 7 7 15 4 8 -4 15 -1 15 5 0 6 -10 10 -23 9 -19 -2 -23 -7
-19 -28 3 -18 1 -21 -6 -11 -6 8 -19 12 -30 9 -16 -5 -19 -2 -14 11 9 25 35
41 62 38 23 -2 25 1 23 36 -3 40 11 48 33 20 18 -24 17 -34 -1 -27 -8 4 -15 1
-15 -4 0 -20 18 -22 35 -5 14 14 18 14 27 2 7 -11 11 -11 15 -2 3 9 10 10 24
3 15 -8 19 -7 19 4 0 10 -6 13 -15 10 -9 -4 -15 0 -15 7 0 11 -2 11 -8 2 -10
-16 -52 -5 -46 12 8 20 -37 42 -71 34 -16 -4 -24 -7 -17 -8 19 -2 14 -25 -9
-44 -20 -18 -21 -18 -36 0 -8 10 -12 12 -8 6 7 -14 -9 -16 -40 -4 -19 8 -19 8
0 20 19 11 18 12 -5 7 -14 -3 -29 -6 -35 -6 -5 0 1 -7 13 -16 20 -14 33 -42
13 -30 -5 3 -14 -1 -21 -9 -11 -14 -7 -19 13 -16 4 0 7 -6 7 -15 0 -12 -6 -15
-24 -10 -14 3 -36 2 -50 -4 -16 -6 -27 -6 -31 0 -11 18 -43 10 -48 -12 -4 -12
-9 -20 -12 -16 -3 3 -1 17 6 31 10 22 15 24 37 16 13 -5 27 -7 30 -4 3 3 0 5
-6 5 -22 0 -12 20 13 30 14 5 25 14 25 20 0 5 5 10 11 10 6 0 9 -7 5 -15 -6
-17 2 -19 23 -6 21 13 -17 30 -54 24 -24 -4 -27 -2 -15 7 13 9 12 10 -5 7 -11
-2 -19 -10 -17 -17 3 -11 -1 -10 -16 3 -26 24 -40 21 -35 -6 4 -19 10 -23 30
-19 18 3 24 1 21 -8 -2 -8 -10 -16 -18 -18 -7 -3 -10 0 -6 7 5 7 1 9 -8 5 -9
-3 -16 -11 -16 -18 -1 -6 -7 0 -15 14 -10 19 -10 27 -2 33 9 6 9 10 0 14 -7 2
-13 8 -13 13 0 14 31 20 51 10 10 -6 19 -7 19 -2 0 4 14 9 31 10 22 2 28 -1
23 -10 -5 -10 -4 -10 6 -1 9 8 9 16 1 30 -6 10 -11 14 -11 8 0 -5 -6 0 -13 11
-10 19 -14 20 -25 8 -10 -12 -10 -14 2 -14 10 0 13 -6 9 -17 -4 -10 -8 -12
-10 -6 -3 7 -11 9 -19 6 -12 -4 -14 0 -8 21 4 17 2 26 -5 26 -8 0 -9 5 -2 19
8 14 7 20 -4 25 -8 3 -17 1 -20 -4z m300 -149 c3 -6 -3 -9 -14 -8 -11 0 -17 5
-15 9 7 11 22 10 29 -1z m-59 -32 c3 -5 -2 -9 -10 -9 -9 0 -16 -6 -16 -12 -1
-13 -30 20 -30 33 0 9 49 -1 56 -12z m-46 -30 c0 -5 -4 -9 -10 -9 -5 0 -10 7
-10 16 0 8 5 12 10 9 6 -3 10 -10 10 -16z"/>
<path d="M980 371 c0 -6 4 -13 10 -16 6 -3 7 1 4 9 -7 18 -14 21 -14 7z"/>
<path d="M2180 370 c0 -5 5 -10 10 -10 6 0 10 5 10 10 0 6 -4 10 -10 10 -5 0
-10 -4 -10 -10z"/>
<path d="M37 354 c3 -9 0 -13 -8 -11 -8 2 -11 2 -7 0 5 -3 5 -16 2 -30 -5 -17
-3 -24 3 -20 6 4 21 -2 33 -13 13 -11 28 -20 34 -20 6 0 -2 10 -18 23 l-30 21
25 7 c24 7 24 7 -3 8 -33 1 -37 18 -6 23 21 3 21 3 -4 15 -23 10 -26 10 -21
-3z"/>
<path d="M1156 355 c-3 -8 -1 -15 4 -15 6 0 10 7 10 15 0 8 -2 15 -4 15 -2 0
-6 -7 -10 -15z"/>
<path d="M1450 358 c0 -13 7 -18 28 -17 21 1 22 2 7 6 -11 3 -23 10 -27 17 -5
7 -8 5 -8 -6z"/>
<path d="M1478 363 c6 -2 18 -2 25 0 6 3 1 5 -13 5 -14 0 -19 -2 -12 -5z"/>
<path d="M1545 340 c0 -17 4 -29 9 -27 13 4 14 57 1 57 -6 0 -11 -14 -10 -30z"/>
<path d="M2150 350 c0 -6 7 -10 15 -10 8 0 15 2 15 4 0 2 -7 6 -15 10 -8 3
-15 1 -15 -4z"/>
<path d="M2341 351 c-10 -6 -9 -10 3 -14 8 -3 18 -2 21 3 8 13 -9 20 -24 11z"/>
<path d="M2679 355 c-1 -3 -2 -11 -3 -17 0 -7 -13 -14 -28 -16 -14 -2 -32 -10
-38 -18 -7 -8 -17 -14 -23 -14 -6 0 0 11 13 25 19 21 21 25 7 25 -9 0 -17 -6
-17 -12 0 -9 -3 -8 -10 2 -6 10 -9 5 -8 -18 1 -24 6 -32 17 -31 31 3 41 -1 41
-17 0 -8 4 -13 9 -10 5 3 7 15 4 26 -3 11 -9 17 -14 14 -5 -3 -9 0 -9 6 0 7
13 10 33 8 29 -3 32 0 33 25 1 23 -4 37 -7 22z"/>
<path d="M140 330 c0 -11 2 -20 4 -20 2 0 6 9 9 20 3 11 1 20 -4 20 -5 0 -9
-9 -9 -20z"/>
<path d="M290 341 c0 -6 5 -13 10 -16 6 -3 10 1 10 9 0 9 -4 16 -10 16 -5 0
-10 -4 -10 -9z"/>
<path d="M1248 338 c-9 -5 -4 -8 15 -8 15 0 27 4 27 8 0 11 -25 11 -42 0z"/>
<path d="M1510 330 c0 -11 2 -20 4 -20 2 0 6 9 9 20 3 11 1 20 -4 20 -5 0 -9
-9 -9 -20z"/>
<path d="M2475 340 c3 -5 10 -10 16 -10 5 0 9 5 9 10 0 6 -7 10 -16 10 -8 0
-12 -4 -9 -10z"/>
<path d="M2002 327 c-16 -19 8 -30 40 -17 23 9 23 9 1 9 -12 1 -23 6 -25 12
-2 7 -8 6 -16 -4z"/>
<path d="M168 318 c-1 -7 -2 -43 -3 -80 -2 -58 1 -68 16 -73 11 -4 23 -4 28 0
12 7 4 98 -11 138 -11 28 -27 36 -30 15z m32 -102 c0 -8 -5 -18 -12 -22 -7 -4
-8 -3 -4 4 4 7 2 12 -4 12 -6 0 -8 5 -5 10 9 15 25 12 25 -4z"/>
<path d="M443 315 c0 -8 4 -12 9 -9 5 3 6 10 3 15 -9 13 -12 11 -12 -6z"/>
<path d="M1437 310 c-3 -11 -1 -20 4 -20 5 0 9 6 9 14 0 8 6 17 13 19 7 4 6 6
-4 6 -9 1 -19 -8 -22 -19z"/>
<path d="M1748 323 c6 -2 18 -2 25 0 6 3 1 5 -13 5 -14 0 -19 -2 -12 -5z"/>
<path d="M275 310 c-3 -5 -1 -10 4 -10 6 0 11 5 11 10 0 6 -2 10 -4 10 -3 0
-8 -4 -11 -10z"/>
<path d="M590 310 c0 -4 7 -7 15 -6 23 3 26 12 5 13 -11 1 -20 -2 -20 -7z"/>
<path d="M1483 313 c4 -6 2 -13 -5 -15 -8 -3 -8 -9 -1 -22 7 -13 13 -15 17 -7
4 6 1 11 -6 12 -7 0 -5 4 5 8 18 7 18 8 1 21 -10 8 -15 10 -11 3z"/>
<path d="M2340 311 c0 -6 4 -12 8 -15 5 -3 9 1 9 9 0 8 -4 15 -9 15 -4 0 -8
-4 -8 -9z"/>
<path d="M1550 300 l-25 -8 28 -1 c15 -1 27 4 27 9 0 6 -1 10 -2 9 -2 -1 -14
-5 -28 -9z"/>
<path d="M1735 302 c-1 -2 -32 -4 -68 -5 -105 -5 -90 -17 20 -16 55 0 113 -2
129 -5 l29 -6 -28 11 c-15 6 -25 14 -22 19 4 7 -52 9 -60 2z"/>
<path d="M2085 293 c2 -10 4 -22 5 -28 1 -5 5 -1 9 10 9 21 5 35 -9 35 -4 0
-7 -8 -5 -17z"/>
<path d="M397 294 c-3 -3 -3 -13 0 -22 4 -10 2 -13 -5 -8 -23 14 -34 -6 -13
-21 28 -19 42 -9 39 28 -2 28 -8 35 -21 23z"/>
<path d="M260 279 c0 -5 4 -9 9 -9 5 0 13 -9 16 -20 3 -11 11 -20 16 -20 6 0
6 8 -1 20 -9 16 -8 20 6 20 25 0 9 12 -21 15 -14 2 -25 -1 -25 -6z"/>
<path d="M1995 280 c3 -5 2 -10 -4 -10 -6 0 -8 -6 -5 -14 3 -8 1 -17 -4 -20
-6 -3 -12 1 -16 9 -3 8 -10 15 -16 15 -6 0 -1 -10 10 -22 17 -18 23 -20 29 -9
9 14 22 -67 13 -83 -8 -14 -20 15 -17 41 1 13 0 21 -3 18 -3 -3 -15 3 -26 12
-21 18 -21 18 -3 -4 13 -15 17 -30 13 -50 -6 -25 -3 -29 15 -30 13 -1 28 6 35
15 13 16 13 16 14 0 0 -10 5 -18 10 -18 15 0 12 16 -6 34 -8 9 -11 16 -5 16 5
0 16 7 25 15 13 13 18 12 45 -11 17 -14 31 -21 31 -16 0 6 -6 13 -12 15 -10 4
-9 8 2 16 11 8 17 6 22 -7 4 -10 7 -11 7 -4 1 7 6 10 11 7 6 -4 8 -15 5 -26
-4 -10 -2 -19 3 -19 5 0 12 -13 14 -30 5 -36 -9 -40 -18 -6 -4 18 -15 26 -39
30 -19 4 -36 12 -38 19 -3 9 -7 9 -17 0 -10 -9 -6 -15 18 -27 16 -8 33 -12 37
-8 5 4 5 1 1 -5 -5 -9 -30 -12 -77 -10 -58 2 -68 0 -64 -13 3 -9 -1 -7 -10 4
-8 11 -18 17 -21 13 -3 -3 -17 -1 -31 4 -19 7 -24 6 -21 -3 3 -7 17 -14 31
-16 15 -2 27 -8 27 -13 0 -5 55 -9 126 -9 99 0 125 3 121 13 -4 10 10 12 59 9
l64 -4 0 65 c0 66 -7 80 -41 82 -11 1 -15 -4 -11 -18 3 -10 8 -14 11 -8 4 6
12 7 21 1 13 -8 13 -10 1 -10 -12 0 -12 -3 -3 -12 7 -7 12 -29 12 -49 0 -31
-3 -37 -19 -36 -11 0 -18 4 -16 8 3 3 -4 14 -15 24 -15 14 -20 15 -20 4 0 -9
-8 -5 -19 10 -12 16 -21 20 -25 12 -4 -6 -3 -11 2 -11 5 0 12 -9 15 -20 3 -13
0 -20 -9 -20 -8 0 -11 6 -7 15 3 10 0 15 -8 13 -11 -3 -15 10 -10 41 0 5 15 8
31 7 18 0 29 -5 26 -12 -3 -7 3 -10 15 -7 20 5 27 23 9 23 -5 0 -10 7 -10 15
0 19 -9 19 -32 -2 -17 -15 -18 -15 -18 0 0 10 -4 17 -10 17 -5 0 -10 -7 -10
-15 0 -17 -16 -20 -24 -6 -4 5 -17 8 -31 6 -14 -1 -25 2 -25 8 0 5 -7 3 -16
-4 -15 -12 -16 -11 -10 11 6 23 6 24 -7 7 -17 -20 -49 -13 -40 10 3 8 8 10 12
5 4 -6 11 -5 18 3 9 10 8 14 -7 18 -20 5 -47 -38 -30 -48 14 -9 12 -22 -4 -28
-10 -4 -12 4 -10 29 1 19 -1 32 -6 29 -4 -3 -6 4 -3 15 3 12 0 20 -6 20 -7 0
-9 -4 -6 -10z m265 -160 c0 -5 -2 -10 -4 -10 -3 0 -8 5 -11 10 -3 6 -1 10 4
10 6 0 11 -4 11 -10z m-100 -18 c0 -4 -15 -9 -32 -10 -25 -2 -29 0 -18 8 18
12 50 13 50 2z"/>
<path d="M2320 280 c0 -5 5 -10 11 -10 5 0 7 5 4 10 -3 6 -8 10 -11 10 -2 0
-4 -4 -4 -10z"/>
<path d="M10 272 c0 -12 19 -26 26 -19 2 2 -2 10 -11 17 -9 8 -15 8 -15 2z"/>
<path d="M126 273 c-15 -4 -16 -7 -5 -14 12 -7 12 -10 0 -21 -11 -11 -13 -11
-6 1 5 9 4 12 -3 7 -6 -4 -20 -2 -31 3 -15 8 -20 7 -25 -5 -9 -24 -7 -29 5
-17 19 19 38 4 33 -25 -3 -15 -7 -29 -10 -31 -4 -4 -8 35 -5 52 1 5 -3 5 -9 2
-6 -4 -9 -13 -6 -21 3 -7 1 -16 -4 -19 -6 -4 -10 3 -10 13 0 11 -7 25 -15 32
-14 11 -14 10 -5 -14 11 -29 6 -46 -12 -46 -7 0 -6 6 2 15 8 9 8 15 2 15 -6 0
-12 8 -14 18 -3 9 -5 -9 -6 -40 -1 -31 2 -59 6 -62 5 -3 38 -6 75 -7 40 -1 67
-7 67 -13 0 -6 4 -5 9 3 5 7 19 14 32 15 14 1 25 8 27 19 5 23 -36 23 -55 0
-7 -10 -13 -13 -12 -8 1 6 1 22 0 38 -1 32 -26 37 -34 7 -6 -22 8 -28 17 -7 3
6 4 1 3 -12 -1 -16 -9 -25 -24 -27 -19 -3 -23 1 -23 21 0 14 5 25 11 25 5 0 7
5 4 11 -8 11 25 40 37 33 5 -3 8 11 8 30 0 20 -1 35 -2 35 -2 -1 -12 -4 -22
-6z m-46 -128 c0 -8 -5 -17 -10 -20 -6 -4 -10 5 -10 20 0 15 4 24 10 20 6 -3
10 -12 10 -20z m-40 11 c0 -2 3 -11 6 -20 3 -9 1 -16 -6 -16 -6 0 -8 5 -4 12
5 8 2 9 -9 5 -11 -4 -17 -1 -17 8 0 8 7 15 15 15 8 0 15 -2 15 -4z"/>
<path d="M1510 270 c0 -5 5 -10 10 -10 6 0 10 5 10 10 0 6 -4 10 -10 10 -5 0
-10 -4 -10 -10z"/>
<path d="M1680 248 c0 -10 5 -18 11 -18 8 0 10 -12 6 -35 -6 -34 -5 -35 29
-35 20 0 42 -7 50 -15 9 -8 21 -15 27 -15 7 0 2 8 -11 18 -19 15 -23 26 -20
58 2 28 8 40 21 42 15 3 18 -3 16 -42 -2 -25 -1 -47 2 -50 2 -2 23 -6 47 -10
24 -3 47 -8 52 -11 11 -7 16 2 25 43 5 25 3 32 -9 32 -9 0 -16 -5 -16 -11 0
-5 5 -7 10 -4 6 3 10 1 10 -4 0 -6 -10 -11 -21 -11 -18 0 -19 -2 -9 -15 9 -10
9 -15 1 -15 -6 0 -11 5 -11 11 0 7 -10 9 -25 5 -20 -5 -25 -3 -25 13 0 11 -5
21 -12 23 -16 6 -1 28 19 28 9 0 13 -6 10 -14 -3 -8 1 -20 9 -26 11 -10 14
-10 14 -1 0 7 5 9 10 6 6 -3 10 -1 10 5 0 7 -8 9 -21 5 -18 -6 -19 -4 -10 13
6 11 22 23 36 26 34 9 22 26 -16 26 -20 0 -28 -4 -23 -12 5 -8 -4 -9 -32 -4
-21 4 -65 8 -97 9 -48 2 -57 -1 -57 -15z m72 -38 c3 -32 0 -40 -13 -40 -11 0
-16 11 -17 40 -1 28 2 40 12 40 9 0 15 -14 18 -40z"/>
<path d="M2765 260 c3 -5 8 -10 11 -10 2 0 4 5 4 10 0 6 -5 10 -11 10 -5 0 -7
-4 -4 -10z"/>
<path d="M682 251 c-10 -6 -10 -10 3 -21 8 -7 15 -10 15 -7 0 3 3 12 6 21 7
17 -3 20 -24 7z"/>
<path d="M762 240 c0 -14 2 -19 5 -12 2 6 2 18 0 25 -3 6 -5 1 -5 -13z"/>
<path d="M1053 253 c-7 -2 -12 -19 -12 -36 1 -24 3 -26 6 -9 2 12 9 22 14 22
6 0 8 4 5 9 -4 5 0 12 6 14 7 3 9 5 3 5 -5 0 -16 -2 -22 -5z"/>
<path d="M836 237 c3 -10 9 -15 12 -12 3 3 0 11 -7 18 -10 9 -11 8 -5 -6z"/>
<path d="M990 198 c0 -38 3 -49 10 -38 13 20 13 90 0 90 -5 0 -10 -24 -10 -52z"/>
<path d="M1100 215 c0 -19 5 -35 10 -35 6 0 10 16 10 35 0 19 -4 35 -10 35 -5
0 -10 -16 -10 -35z"/>
<path d="M1158 215 c2 -19 8 -35 13 -35 5 0 9 16 9 35 0 22 -5 35 -13 35 -9 0
-12 -11 -9 -35z"/>
<path d="M434 222 c0 -10 6 -19 13 -19 8 0 9 6 2 19 -12 23 -15 23 -15 0z"/>
<path d="M730 229 c0 -5 5 -7 10 -4 6 3 10 8 10 11 0 2 -4 4 -10 4 -5 0 -10
-5 -10 -11z"/>
<path d="M1465 230 c-3 -5 1 -10 10 -10 9 0 13 5 10 10 -3 6 -8 10 -10 10 -2
0 -7 -4 -10 -10z"/>
<path d="M1510 230 c-13 -8 -12 -10 3 -10 9 0 17 5 17 10 0 12 -1 12 -20 0z"/>
<path d="M496 214 c-4 -9 -4 -19 -1 -22 3 -3 5 0 5 7 0 7 4 9 10 6 6 -3 7 1 4
9 -8 20 -10 20 -18 0z"/>
<path d="M822 210 c0 -14 2 -19 5 -12 2 6 2 18 0 25 -3 6 -5 1 -5 -13z"/>
<path d="M875 220 c3 -5 8 -10 11 -10 2 0 4 5 4 10 0 6 -5 10 -11 10 -5 0 -7
-4 -4 -10z"/>
<path d="M1435 220 c3 -5 8 -10 11 -10 2 0 4 5 4 10 0 6 -5 10 -11 10 -5 0 -7
-4 -4 -10z"/>
<path d="M2915 225 c-5 -2 -29 -9 -52 -15 -24 -6 -43 -16 -43 -22 0 -7 5 -6
15 2 8 7 35 13 60 14 29 1 45 6 45 14 0 12 -6 14 -25 7z"/>
<path d="M1132 200 c0 -14 2 -19 5 -12 2 6 2 18 0 25 -3 6 -5 1 -5 -13z"/>
<path d="M2980 213 c-22 -9 -69 -47 -47 -40 9 4 17 2 17 -3 0 -6 -12 -10 -26
-10 -22 0 -25 4 -21 21 5 18 2 20 -21 14 -15 -3 -37 -16 -49 -27 -13 -12 -23
-18 -23 -14 0 5 -7 3 -15 -4 -12 -10 -15 -10 -15 4 0 9 4 16 8 16 5 0 9 7 9
15 0 25 -14 17 -22 -12 -5 -21 -8 -24 -15 -12 -6 8 -6 15 0 17 15 6 12 19 -5
19 -8 0 -13 -3 -10 -5 3 -3 0 -12 -7 -19 -9 -11 -9 -17 3 -25 12 -8 12 -9 -1
-5 -8 2 -15 13 -14 25 0 12 -3 19 -8 16 -4 -3 -8 -22 -8 -42 0 -28 3 -33 12
-24 15 15 58 16 58 2 0 -5 -9 -10 -19 -10 -11 0 -22 -4 -25 -9 -3 -5 5 -8 19
-7 14 0 25 4 25 9 0 4 8 7 18 7 15 0 15 2 2 11 -11 8 -5 9 25 5 22 -3 60 -7
85 -9 25 -2 51 -7 58 -11 10 -6 11 -1 6 18 -4 16 -2 26 4 26 6 0 13 -10 15
-22 3 -16 5 -13 6 10 0 20 -3 31 -9 27 -5 -3 -10 -1 -10 5 0 6 -4 9 -9 5 -5
-3 -12 -1 -15 4 -3 5 1 11 9 15 8 3 15 1 15 -4 0 -6 4 -10 8 -10 4 0 8 9 8 20
0 11 0 20 -1 19 0 0 -7 -3 -15 -6z m-71 -63 c6 0 11 -5 11 -11 0 -6 -6 -9 -14
-6 -7 3 -18 1 -23 -4 -6 -6 -18 -2 -32 10 -15 13 -18 20 -9 23 7 3 19 -2 26
-11 11 -14 12 -13 7 9 -6 23 -5 23 8 8 8 -10 19 -18 26 -18z m51 -4 c0 -2 -7
-7 -16 -10 -8 -3 -12 -2 -9 4 6 10 25 14 25 6z"/>
<path d="M471 184 c0 -11 3 -14 6 -6 3 7 2 16 -1 19 -3 4 -6 -2 -5 -13z"/>
<path d="M885 190 c-3 -5 -1 -10 4 -10 6 0 11 5 11 10 0 6 -2 10 -4 10 -3 0
-8 -4 -11 -10z"/>
<path d="M2478 193 c6 -2 18 -2 25 0 6 3 1 5 -13 5 -14 0 -19 -2 -12 -5z"/>
<path d="M342 179 c4 -10 -1 -15 -13 -15 -11 0 -19 5 -19 11 0 5 -5 3 -10 -5
-7 -11 -4 -16 13 -21 35 -9 87 1 87 17 0 12 -4 12 -20 4 -15 -8 -20 -8 -18 1
2 6 -3 14 -11 17 -9 3 -12 0 -9 -9z"/>
<path d="M420 180 c-8 -5 -11 -12 -7 -17 5 -4 12 -1 17 7 7 11 10 12 10 2 0
-7 5 -10 10 -7 14 9 12 25 -2 25 -7 0 -20 -4 -28 -10z"/>
<path d="M2285 169 c-5 -14 -1 -27 9 -37 9 -9 16 -11 16 -5 0 6 -6 14 -12 16
-10 4 -10 6 0 6 14 1 16 27 3 36 -5 3 -13 -4 -16 -16z"/>
<path d="M233 168 c2 -7 10 -12 16 -10 6 1 11 -2 11 -8 0 -5 -7 -10 -15 -10
-8 0 -15 -7 -15 -15 0 -8 5 -15 11 -15 5 0 7 5 4 10 -4 6 6 10 22 9 24 0 25
-1 8 -8 -19 -8 -19 -8 -1 -12 30 -6 106 2 106 11 0 4 -15 8 -34 8 -49 0 -77
11 -74 29 2 10 -6 17 -20 19 -16 3 -22 0 -19 -8z"/>
<path d="M565 150 c3 -5 11 -10 16 -10 6 0 7 5 4 10 -3 6 -11 10 -16 10 -6 0
-7 -4 -4 -10z"/>
<path d="M2445 112 c-22 -2 -45 -10 -52 -19 -9 -12 -22 -14 -53 -9 -26 4 -40
3 -40 -5 0 -7 17 -9 53 -5 28 4 69 8 90 9 25 1 37 7 37 16 0 12 2 12 13 -1 12
-15 48 -24 132 -34 22 -3 61 -8 88 -13 49 -9 68 3 20 13 -52 10 -128 20 -145
19 -9 0 -17 2 -16 6 0 3 0 13 -1 21 -1 12 -4 12 -12 -2 -12 -21 -36 -23 -58
-5 -9 6 -34 11 -56 9z"/>
<path d="M2518 113 c6 -2 18 -2 25 0 6 3 1 5 -13 5 -14 0 -19 -2 -12 -5z"/>
<path d="M2665 100 c-16 -7 -17 -9 -3 -9 9 -1 20 4 23 9 7 11 7 11 -20 0z"/>
<path d="M2825 100 c3 -5 12 -7 20 -3 21 7 19 13 -6 13 -11 0 -18 -4 -14 -10z"/>
<path d="M962 89 c2 -7 12 -13 21 -15 23 -3 21 3 -4 17 -17 8 -20 8 -17 -2z"/>
<path d="M1183 93 c-24 -8 -13 -24 15 -22 37 3 72 -10 72 -28 0 -8 -4 -11 -10
-8 -5 3 -10 2 -10 -4 0 -17 -30 0 -30 18 -1 14 -3 13 -15 -3 -9 -12 -15 -15
-15 -7 0 10 -6 9 -24 -3 -16 -10 -27 -12 -31 -5 -4 5 -15 7 -26 4 -11 -4 -19
-2 -19 5 0 8 -6 8 -20 0 -14 -7 -20 -7 -20 0 0 5 -5 10 -11 10 -5 0 -7 -6 -4
-13 4 -6 0 -4 -8 6 -14 16 -15 16 -21 1 -9 -23 12 -35 47 -28 15 3 33 1 40 -5
8 -6 18 -6 27 -1 8 5 22 4 33 -1 13 -7 23 -7 33 2 12 9 20 9 41 -2 20 -11 27
-11 30 -2 4 10 10 10 25 2 15 -8 27 -8 47 1 17 8 21 14 12 18 -7 2 -16 0 -20
-5 -9 -15 -35 -1 -39 20 -3 20 27 24 45 6 6 -6 17 -8 24 -3 19 12 -49 32 -126
38 -11 0 -22 4 -25 7 -3 3 -11 4 -17 2z"/>
<path d="M45 80 c-3 -4 -14 -6 -25 -3 -14 4 -20 0 -20 -11 0 -9 3 -16 8 -17 4
0 21 -2 39 -5 24 -3 33 1 36 14 4 13 5 14 6 1 1 -12 13 -15 59 -14 31 1 65 -3
74 -7 10 -5 18 -3 21 5 4 9 6 9 6 0 1 -9 17 -13 46 -13 36 0 45 3 45 18 1 16
2 16 15 -1 9 -13 20 -17 34 -12 12 4 21 2 21 -4 0 -18 24 -12 37 9 11 16 10
18 -2 14 -9 -4 -15 0 -15 7 0 11 -3 11 -11 -1 -8 -11 -12 -12 -16 -2 -2 6 -9
10 -14 6 -5 -3 -9 2 -9 10 0 9 -5 16 -11 16 -5 0 -7 -5 -4 -10 3 -5 -3 -10
-15 -10 -12 0 -30 -5 -41 -10 -15 -9 -21 -7 -25 5 -5 12 -9 13 -20 4 -11 -9
-14 -8 -14 2 0 11 -2 11 -9 0 -8 -12 -12 -12 -24 -2 -10 7 -18 8 -21 2 -7 -10
-60 -6 -113 8 -18 5 -35 6 -38 1z"/>
<path d="M1067 76 c-5 -12 0 -16 18 -16 25 0 33 14 15 25 -5 3 -10 0 -10 -7 0
-11 -2 -10 -9 0 -7 11 -9 11 -14 -2z"/>
<path d="M1120 80 c0 -5 9 -10 20 -10 11 0 20 5 20 10 0 6 -9 10 -20 10 -11 0
-20 -4 -20 -10z"/>
<path d="M1468 83 c6 -2 18 -2 25 0 6 3 1 5 -13 5 -14 0 -19 -2 -12 -5z"/>
<path d="M2235 80 c-4 -6 7 -10 27 -9 27 0 30 2 13 9 -27 12 -33 12 -40 0z"/>
<path d="M2893 83 c9 -2 23 -2 30 0 6 3 -1 5 -18 5 -16 0 -22 -2 -12 -5z"/>
<path d="M510 74 c0 -3 10 -9 23 -14 21 -8 21 -9 1 -9 -11 -1 -21 -8 -21 -16
0 -17 28 -20 44 -4 8 8 13 8 17 0 11 -16 43 -13 50 5 9 25 8 27 -19 22 -16 -4
-22 -1 -18 6 4 6 0 5 -9 -2 -9 -7 -19 -9 -22 -4 -6 10 -46 23 -46 16z"/>
<path d="M1394 70 c-13 -5 -5 -8 24 -8 23 0 42 1 42 2 0 8 -48 12 -66 6z"/>
<path d="M1502 67 c-12 -7 -19 -17 -15 -21 4 -5 -2 -6 -15 -3 -17 4 -22 2 -19
-8 4 -8 -1 -11 -13 -8 -10 3 -27 0 -39 -6 -18 -10 -21 -9 -21 6 0 15 -2 16
-10 3 -5 -8 -10 -18 -10 -23 0 -10 64 -4 72 8 5 6 8 5 8 -2 0 -7 9 -13 20 -13
12 0 20 7 20 16 0 11 5 14 16 10 9 -3 19 -6 22 -6 4 0 0 -5 -8 -11 -12 -9 -12
-10 -1 -7 22 6 25 28 4 29 -16 0 -16 1 2 8 20 8 20 8 0 13 -17 3 -15 5 8 10
15 3 30 1 34 -5 3 -5 1 -7 -5 -3 -13 8 -20 -12 -14 -37 4 -14 7 -16 13 -6 5 8
23 12 48 10 39 -2 41 -1 41 24 0 22 -3 25 -14 16 -10 -9 -15 -8 -19 2 -7 18
-75 20 -105 4z m91 -18 c-8 -8 -13 -7 -18 2 -5 8 -4 10 3 5 7 -4 12 -2 12 5 0
7 3 9 7 6 4 -4 2 -12 -4 -18z"/>
<path d="M2793 73 c-25 -5 -27 -11 -13 -33 9 -13 10 -13 10 0 0 9 3 11 8 5 7
-10 25 -12 139 -17 55 -2 77 7 53 22 -8 5 -17 6 -20 2 -3 -4 -27 -8 -54 -9
-42 -1 -46 0 -30 11 16 12 15 14 -9 14 -15 0 -30 -4 -33 -9 -3 -5 -13 -9 -22
-8 -11 0 -12 3 -4 6 13 5 17 24 5 22 -5 -1 -18 -4 -30 -6z"/>
<path d="M471 47 c-11 -14 -6 -27 10 -27 5 0 13 9 19 20 8 16 8 20 -3 20 -8 0
-20 -6 -26 -13z"/>
<path d="M638 48 c-8 -22 2 -36 22 -31 11 3 20 12 20 20 0 10 -6 13 -16 9 -8
-3 -12 -2 -9 4 3 6 2 10 -3 10 -6 0 -12 -6 -14 -12z"/>
<path d="M695 37 c0 -31 45 -33 46 -2 0 19 1 19 9 -2 5 -13 16 -23 24 -23 17
0 29 27 16 35 -6 4 -10 0 -10 -7 0 -10 -2 -10 -9 1 -5 7 -24 15 -42 17 -30 3
-34 1 -34 -19z"/>
<path d="M821 47 c-8 -11 -5 -17 15 -27 22 -12 27 -12 34 0 6 8 10 10 10 4 0
-7 22 -11 55 -11 49 0 55 2 55 21 -1 19 -2 19 -13 5 -12 -16 -16 -15 -52 2
-21 10 -41 17 -43 14 -3 -3 1 -5 9 -6 8 -1 3 -4 -11 -9 -17 -5 -29 -3 -36 7
-10 11 -13 11 -23 0z"/>
<path d="M930 56 c0 -2 7 -7 16 -10 8 -3 12 -2 9 4 -6 10 -25 14 -25 6z"/>
<path d="M1838 53 c6 -2 18 -2 25 0 6 3 1 5 -13 5 -14 0 -19 -2 -12 -5z"/>
<path d="M1888 53 c6 -2 18 -2 25 0 6 3 1 5 -13 5 -14 0 -19 -2 -12 -5z"/>
<path d="M1953 53 c9 -2 23 -2 30 0 6 3 -1 5 -18 5 -16 0 -22 -2 -12 -5z"/>
<path d="M2033 53 c15 -2 39 -2 55 0 15 2 2 4 -28 4 -30 0 -43 -2 -27 -4z"/>
<path d="M2178 53 c7 -3 16 -2 19 1 4 3 -2 6 -13 5 -11 0 -14 -3 -6 -6z"/>
<path d="M2219 51 c12 -8 51 -4 51 5 0 2 -15 4 -32 4 -23 0 -29 -3 -19 -9z"/>
<path d="M2404 52 c3 -5 40 -10 83 -11 42 -1 75 0 73 2 -10 10 -162 18 -156 9z"/>
<path d="M1395 40 c-3 -5 -1 -10 4 -10 6 0 11 5 11 10 0 6 -2 10 -4 10 -3 0
-8 -4 -11 -10z"/>
<path d="M1823 33 c9 -2 23 -2 30 0 6 3 -1 5 -18 5 -16 0 -22 -2 -12 -5z"/>
<path d="M1938 33 c7 -3 16 -2 19 1 4 3 -2 6 -13 5 -11 0 -14 -3 -6 -6z"/>
<path d="M2540 30 c-43 -7 -42 -7 20 -8 36 0 74 3 85 8 25 11 -37 11 -105 0z"/>
<path d="M10 26 c0 -2 18 -6 40 -8 22 -2 40 0 40 4 0 5 -18 8 -40 8 -22 0 -40
-2 -40 -4z"/>
<path d="M1658 23 c7 -3 16 -2 19 1 4 3 -2 6 -13 5 -11 0 -14 -3 -6 -6z"/>
<path d="M2128 23 c12 -2 32 -2 45 0 12 2 2 4 -23 4 -25 0 -35 -2 -22 -4z"/>
<path d="M2273 23 c43 -2 110 -2 150 0 40 1 5 3 -78 3 -82 0 -115 -2 -72 -3z"/>
<path d="M218 13 c7 -3 16 -2 19 1 4 3 -2 6 -13 5 -11 0 -14 -3 -6 -6z"/>
<path d="M318 13 c12 -2 30 -2 40 0 9 3 -1 5 -23 4 -22 0 -30 -2 -17 -4z"/>
<path d="M2705 10 c39 -4 99 -7 135 -7 63 0 63 0 -20 8 -47 4 -107 7 -135 6
-44 0 -41 -1 20 -7z"/>
<path d="M488 3 c7 -3 16 -2 19 1 4 3 -2 6 -13 5 -11 0 -14 -3 -6 -6z"/>
<path d="M1698 3 c23 -2 59 -2 80 0 20 2 1 4 -43 4 -44 0 -61 -2 -37 -4z"/>
<path d="M1828 3 c6 -2 18 -2 25 0 6 3 1 5 -13 5 -14 0 -19 -2 -12 -5z"/>
<path d="M1893 3 c9 -2 23 -2 30 0 6 3 -1 5 -18 5 -16 0 -22 -2 -12 -5z"/>
<path d="M1968 3 c18 -2 45 -2 60 0 15 2 0 4 -33 4 -33 0 -45 -2 -27 -4z"/>
<path d="M2143 3 c48 -2 125 -2 170 0 45 1 6 3 -88 3 -93 0 -130 -2 -82 -3z"/>
<path d="M2408 3 c6 -2 18 -2 25 0 6 3 1 5 -13 5 -14 0 -19 -2 -12 -5z"/>
</g>
</svg>
