<?xml version="1.0" standalone="no"?>
<!DOCTYPE svg PUBLIC "-//W3C//DTD SVG 20010904//EN"
 "http://www.w3.org/TR/2001/REC-SVG-20010904/DTD/svg10.dtd">
<svg version="1.0" xmlns="http://www.w3.org/2000/svg"
 width="300.000000pt" height="150.000000pt" viewBox="0 0 300.000000 150.000000"
 preserveAspectRatio="xMidYMid meet">
<metadata>
Created by potrace 1.10, written by Peter Selinger 2001-2011
</metadata>
<g transform="translate(0.000000,150.000000) scale(0.100000,-0.100000)"
fill="#000000" stroke="none">
<path d="M853 1488 c1 -6 -17 -15 -40 -20 -24 -5 -43 -14 -43 -20 0 -6 8 -7
18 -3 31 12 52 14 52 4 0 -5 8 -9 18 -9 13 0 14 2 3 9 -9 6 -10 11 -2 15 14 9
15 36 1 36 -5 0 -9 -5 -7 -12z"/>
<path d="M1988 1486 c-22 -16 -23 -26 -2 -26 8 0 13 4 10 9 -3 5 1 11 9 15 8
3 17 1 20 -4 4 -6 1 -10 -4 -10 -6 0 -11 -5 -11 -11 0 -6 6 -9 14 -6 8 3 16
-2 19 -15 4 -13 10 -17 18 -12 7 4 25 8 39 9 75 3 87 6 87 19 0 11 -7 11 -42
0 -33 -9 -46 -10 -55 -1 -10 9 -14 9 -17 0 -6 -17 -26 -17 -21 -1 5 14 -22 48
-37 48 -5 0 -18 -7 -27 -14z"/>
<path d="M2487 1493 c-4 -3 -7 -17 -7 -30 0 -19 -5 -23 -32 -23 -28 -1 -30 -2
-15 -11 21 -12 88 13 68 26 -7 4 -9 15 -6 26 7 20 3 24 -8 12z"/>
<path d="M2586 1491 c-4 -5 3 -7 14 -4 23 6 26 13 6 13 -8 0 -17 -4 -20 -9z"/>
<path d="M2719 1488 c-1 -7 -1 -16 0 -20 0 -5 -8 -8 -20 -8 -11 0 -28 -7 -37
-16 -14 -15 -14 -17 1 -25 14 -8 13 -12 -7 -34 -13 -14 -27 -25 -33 -25 -5 0
-9 -9 -10 -20 -1 -12 4 -20 14 -20 8 0 17 -9 20 -20 3 -11 12 -20 20 -20 13 0
13 2 2 17 -10 11 -10 14 -1 9 6 -4 12 -2 12 3 0 6 -4 11 -9 11 -4 0 -6 11 -3
25 5 27 17 33 25 13 3 -7 4 -3 4 9 -1 12 -5 19 -11 16 -5 -3 -6 -1 -2 5 4 7
14 12 22 12 8 0 14 7 14 16 0 14 -3 15 -17 3 -10 -7 -7 -1 6 14 24 26 38 36
27 18 -3 -5 0 -11 7 -14 11 -4 11 2 3 29 -11 34 -25 45 -27 22z"/>
<path d="M2750 1490 c0 -5 6 -9 13 -7 6 1 11 -6 11 -15 -1 -10 2 -16 6 -13 5
3 10 -1 13 -7 3 -10 7 -10 19 0 13 10 18 10 24 1 4 -7 3 -9 -3 -6 -6 4 -21 -5
-34 -19 -24 -25 -24 -26 -4 -37 27 -16 57 -17 74 -4 10 9 19 5 36 -15 16 -18
26 -23 33 -16 16 16 34 0 22 -22 -8 -15 -6 -18 14 -16 20 1 22 4 15 28 -4 14
-4 30 -1 34 4 4 2 4 -4 1 -6 -3 -17 9 -24 28 -14 35 -14 35 -35 15 -14 -13
-30 -18 -53 -15 -23 3 -35 0 -39 -10 -3 -8 -9 -15 -15 -15 -5 0 -6 5 -3 10 3
6 0 10 -7 11 -7 0 -3 4 10 9 12 5 35 8 51 6 23 -2 31 2 40 21 15 34 14 36 -10
12 -22 -22 -40 -21 -47 2 -3 11 -2 11 7 -1 6 -8 11 -13 12 -10 7 44 8 53 2 45
-13 -17 -83 -16 -83 1 0 8 -9 14 -20 14 -11 0 -20 -4 -20 -10z m197 -107 c-9
-9 -19 -14 -23 -11 -10 10 6 28 24 28 15 0 15 -1 -1 -17z"/>
<path d="M1875 1470 c-3 -5 -1 -10 4 -10 6 0 11 5 11 10 0 6 -2 10 -4 10 -3 0
-8 -4 -11 -10z"/>
<path d="M745 1440 c-3 -11 -3 -25 2 -32 8 -14 8 -14 19 -78 4 -25 3 -42 -1
-38 -9 9 -72 -38 -87 -65 -6 -11 6 -4 27 16 36 35 85 50 85 27 0 -5 5 -10 10
-10 14 0 8 23 -9 36 -8 6 -12 20 -8 33 3 11 1 21 -5 21 -6 0 -8 13 -6 30 3 21
0 30 -10 30 -10 0 -12 7 -8 25 8 30 0 34 -9 5z"/>
<path d="M1940 1439 c0 -5 5 -7 10 -4 6 3 10 8 10 11 0 2 -4 4 -10 4 -5 0 -10
-5 -10 -11z"/>
<path d="M1981 1434 c0 -11 3 -14 6 -6 3 7 2 16 -1 19 -3 4 -6 -2 -5 -13z"/>
<path d="M2196 1424 c-2 -6 -2 -14 1 -17 8 -9 33 4 33 17 0 16 -28 16 -34 0z"/>
<path d="M2424 1395 c-4 -8 -13 -15 -21 -15 -8 0 -11 -4 -8 -10 8 -13 93 -6
108 9 9 9 7 10 -8 5 -18 -7 -18 -6 -6 9 9 12 10 17 2 17 -6 0 -14 -6 -17 -14
-3 -8 -14 -16 -25 -19 -16 -4 -19 -2 -14 14 7 22 -3 26 -11 4z"/>
<path d="M820 1391 c0 -6 4 -13 10 -16 6 -3 7 1 4 9 -7 18 -14 21 -14 7z"/>
<path d="M2034 1385 c-10 -26 1 -35 13 -10 6 14 7 25 2 25 -5 0 -12 -7 -15
-15z"/>
<path d="M2066 1384 c-9 -24 -7 -31 5 -14 8 13 10 12 7 -4 -2 -10 -12 -24 -22
-30 -11 -6 -29 -19 -40 -30 -21 -19 -21 -19 7 -12 35 8 67 36 67 58 0 17 10
22 37 19 8 -1 10 5 7 14 -7 18 -21 20 -27 3 -3 -10 -7 -10 -19 0 -13 10 -17
10 -22 -4z"/>
<path d="M2257 1383 c-12 -12 -7 -30 8 -30 10 0 12 4 5 12 -5 7 -7 15 -3 18 3
4 4 7 1 7 -2 0 -8 -3 -11 -7z"/>
<path d="M2725 1380 c3 -5 11 -10 16 -10 6 0 7 5 4 10 -3 6 -11 10 -16 10 -6
0 -7 -4 -4 -10z"/>
<path d="M2190 1370 c0 -5 7 -10 15 -10 8 0 15 5 15 10 0 6 -7 10 -15 10 -8 0
-15 -4 -15 -10z"/>
<path d="M1945 1360 c-3 -5 -12 -7 -20 -3 -8 3 -15 1 -15 -4 0 -5 -20 -14 -45
-21 -25 -7 -45 -16 -45 -22 0 -5 5 -10 10 -10 6 0 10 5 10 11 0 5 5 7 11 3 6
-3 15 -1 19 7 7 10 14 11 36 0 24 -11 26 -10 14 3 -7 9 -10 17 -6 17 3 1 11 3
16 4 6 1 22 3 38 4 21 1 24 3 12 11 -19 12 -27 12 -35 0z"/>
<path d="M2785 1350 c-3 -6 1 -7 9 -4 18 7 21 14 7 14 -6 0 -13 -4 -16 -10z"/>
<path d="M2215 1340 c3 -5 8 -10 11 -10 2 0 4 5 4 10 0 6 -5 10 -11 10 -5 0
-7 -4 -4 -10z"/>
<path d="M2335 1343 c-35 -9 -35 -18 1 -19 23 -1 34 3 34 12 0 15 -2 15 -35 7z"/>
<path d="M2557 1324 c-10 -13 -13 -24 -8 -24 10 0 36 39 29 45 -2 2 -11 -8
-21 -21z"/>
<path d="M2140 1329 c0 -5 5 -7 10 -4 6 3 10 8 10 11 0 2 -4 4 -10 4 -5 0 -10
-5 -10 -11z"/>
<path d="M1709 1293 c-13 -16 -12 -17 4 -4 9 7 17 15 17 17 0 8 -8 3 -21 -13z"/>
<path d="M1776 1295 c-18 -13 -18 -14 3 -12 11 1 21 7 21 14 0 16 0 16 -24 -2z"/>
<path d="M2205 1300 c-11 -5 -37 -9 -59 -9 -29 -1 -37 -4 -33 -15 4 -9 -1 -16
-11 -18 -11 -3 -7 -6 11 -10 19 -4 27 -2 24 6 -5 11 75 42 96 37 5 -1 6 3 2 9
-3 5 -7 10 -8 9 -1 0 -11 -4 -22 -9z"/>
<path d="M1408 1293 c0 -5 -2 -20 -3 -35 -3 -41 12 -34 17 7 2 19 0 35 -4 35
-4 0 -9 -3 -10 -7z"/>
<path d="M2953 1271 c-1 -24 0 -24 12 -8 7 10 16 14 19 9 3 -5 -3 -18 -14 -30
-11 -11 -22 -32 -26 -47 l-6 -26 28 29 c36 36 42 102 9 100 -14 -1 -21 -10
-22 -27z"/>
<path d="M2624 1274 c-4 -11 -9 -23 -12 -27 -2 -5 13 -6 34 -3 38 7 59 16 34
16 -7 0 -22 7 -32 16 -16 16 -18 15 -24 -2z"/>
<path d="M2505 1270 c-3 -5 -2 -10 4 -10 5 0 13 5 16 10 3 6 2 10 -4 10 -5 0
-13 -4 -16 -10z"/>
<path d="M2761 1264 c0 -11 3 -14 6 -6 3 7 2 16 -1 19 -3 4 -6 -2 -5 -13z"/>
<path d="M2280 1260 c0 -6 7 -10 15 -10 8 0 15 2 15 4 0 2 -7 6 -15 10 -8 3
-15 1 -15 -4z"/>
<path d="M725 1240 c-10 -11 -14 -20 -9 -20 5 0 17 9 27 20 9 11 13 20 8 20
-4 0 -16 -9 -26 -20z"/>
<path d="M1929 1243 c-12 -16 -12 -17 2 -6 12 10 18 10 27 1 9 -9 12 -8 12 5
0 22 -24 22 -41 0z"/>
<path d="M2189 1223 c-13 -16 -12 -17 4 -4 16 13 21 21 13 21 -2 0 -10 -8 -17
-17z"/>
<path d="M2576 1225 c-3 -8 -1 -15 4 -15 6 0 10 -7 10 -16 0 -8 4 -13 9 -9 5
3 12 1 16 -4 3 -6 12 -8 20 -5 11 5 8 13 -16 35 -36 34 -35 33 -43 14z"/>
<path d="M2640 1231 c-14 -4 -20 -9 -15 -12 27 -16 45 -16 56 -3 10 12 9 13
-6 8 -13 -5 -16 -4 -11 4 4 7 6 12 4 11 -2 -1 -14 -4 -28 -8z"/>
<path d="M2046 1217 c3 -10 9 -15 12 -12 3 3 0 11 -7 18 -10 9 -11 8 -5 -6z"/>
<path d="M2440 1201 c0 -6 5 -13 10 -16 6 -3 10 1 10 9 0 9 -4 16 -10 16 -5 0
-10 -4 -10 -9z"/>
<path d="M2525 1200 c-3 -5 -1 -10 4 -10 6 0 11 -9 11 -20 0 -10 9 -24 20 -30
18 -10 18 -12 3 -30 -9 -10 -20 -17 -25 -14 -13 8 -9 -6 6 -22 8 -8 21 -14 28
-14 8 1 6 6 -6 15 -11 8 -18 15 -15 16 2 0 11 2 20 4 16 3 19 -20 5 -43 -6 -9
-12 -9 -29 3 -26 18 -43 20 -29 3 6 -7 11 -17 11 -23 1 -5 13 -10 29 -10 15 0
37 -6 48 -12 12 -7 24 -9 28 -6 3 3 6 2 6 -4 0 -6 12 -10 28 -10 15 0 22 2 15
4 -13 5 -6 33 9 33 5 0 6 -4 3 -10 -3 -5 1 -10 11 -10 13 0 14 3 4 15 -7 9
-21 13 -34 9 -25 -6 -76 11 -76 26 0 14 16 13 32 -3 7 -7 19 -12 26 -11 33 4
35 6 14 14 -20 9 -47 56 -40 70 5 9 -27 38 -35 33 -4 -3 -2 -12 5 -21 10 -15
10 -15 -2 -4 -8 7 -15 20 -15 30 0 10 -9 18 -23 20 -12 2 -20 8 -17 13 4 5 2
9 -4 9 -5 0 -13 -4 -16 -10z m105 -102 c0 -13 -23 -5 -28 10 -2 7 2 10 12 6 9
-3 16 -11 16 -16z"/>
<path d="M2980 1194 c0 -8 5 -12 10 -9 6 4 8 11 5 16 -9 14 -15 11 -15 -7z"/>
<path d="M670 1192 c0 -5 10 -17 23 -28 22 -19 22 -19 4 2 -9 11 -14 24 -10
27 3 4 1 7 -5 7 -7 0 -12 -4 -12 -8z"/>
<path d="M2662 1175 c-17 -9 -20 -14 -10 -18 9 -4 10 -6 1 -6 -7 -1 -13 -6
-13 -11 0 -6 8 -5 20 2 10 7 17 14 15 17 -3 2 0 10 6 18 13 15 12 15 -19 -2z"/>
<path d="M2465 1160 c-13 -6 -15 -9 -5 -9 8 0 22 4 30 9 18 12 2 12 -25 0z"/>
<path d="M1400 1011 c0 -77 3 -142 8 -144 4 -3 8 60 8 139 1 79 -2 144 -7 144
-5 0 -9 -63 -9 -139z"/>
<path d="M2408 1128 c-18 -18 -11 -26 8 -9 5 5 18 11 29 13 20 4 20 4 0 9 -12
3 -27 -2 -37 -13z"/>
<path d="M404 1124 c-18 -14 -18 -15 4 -4 12 6 22 13 22 15 0 8 -5 6 -26 -11z"/>
<path d="M450 1131 c0 -4 12 -7 27 -5 15 1 39 -6 55 -18 16 -11 32 -17 35 -14
3 3 13 0 22 -7 14 -11 14 -10 2 6 -7 9 -21 17 -31 17 -10 0 -23 7 -30 15 -13
16 -80 21 -80 6z"/>
<path d="M2485 1130 c-16 -6 -14 -8 13 -7 17 0 32 4 32 9 0 10 -18 9 -45 -2z"/>
<path d="M15 1111 c22 -26 75 -56 75 -43 0 5 -10 14 -23 20 -12 7 -33 19 -47
29 l-25 17 20 -23z"/>
<path d="M687 1108 c-4 -13 0 -29 10 -40 14 -16 14 -18 -1 -24 -18 -7 -22 -44
-5 -44 5 0 7 -5 3 -11 -3 -6 -21 -9 -39 -7 -21 2 -31 0 -28 -7 2 -7 17 -9 35
-7 23 4 29 2 23 -8 -5 -9 -4 -11 4 -6 6 4 8 13 5 19 -4 7 -3 8 1 4 13 -11 15
-41 4 -47 -5 -4 -3 -14 6 -26 13 -16 14 -16 9 -1 -8 23 5 22 33 -5 20 -19 23
-19 23 -4 0 9 -4 15 -9 11 -5 -3 -12 -1 -15 4 -4 5 2 12 11 15 11 3 8 4 -7 3
-20 -2 -26 3 -28 26 -2 15 -8 27 -14 27 -6 0 -8 3 -5 7 4 3 2 12 -4 19 -14 17
-3 34 22 34 26 0 24 14 -6 30 -19 10 -23 19 -19 37 4 12 4 23 1 23 -2 0 -7
-10 -10 -22z"/>
<path d="M2655 1120 c-3 -5 -1 -10 4 -10 6 0 11 5 11 10 0 6 -2 10 -4 10 -3 0
-8 -4 -11 -10z"/>
<path d="M720 1116 c0 -3 9 -10 20 -16 11 -6 20 -8 20 -6 0 3 -9 10 -20 16
-11 6 -20 8 -20 6z"/>
<path d="M2093 1105 c0 -8 4 -12 9 -9 5 3 6 10 3 15 -9 13 -12 11 -12 -6z"/>
<path d="M2322 1101 c-24 -10 -43 -20 -43 -24 1 -4 1 -13 1 -19 0 -10 3 -9 9
1 5 7 13 11 18 8 5 -3 16 2 25 12 9 10 22 21 29 23 8 3 12 8 9 11 -3 2 -24 -3
-48 -12z"/>
<path d="M2483 1090 c-13 -5 -23 -11 -23 -13 0 -8 50 5 56 14 6 11 -4 11 -33
-1z"/>
<path d="M2879 1083 c-13 -17 -13 -17 6 -3 11 8 22 16 24 17 2 2 0 3 -6 3 -6
0 -17 -8 -24 -17z"/>
<path d="M395 1070 c4 -6 11 -8 16 -5 14 9 11 15 -7 15 -8 0 -12 -5 -9 -10z"/>
<path d="M560 1070 c0 -5 5 -10 11 -10 5 0 7 5 4 10 -3 6 -8 10 -11 10 -2 0
-4 -4 -4 -10z"/>
<path d="M2238 1073 c7 -3 16 -2 19 1 4 3 -2 6 -13 5 -11 0 -14 -3 -6 -6z"/>
<path d="M2415 1070 c-3 -6 1 -7 9 -4 18 7 21 14 7 14 -6 0 -13 -4 -16 -10z"/>
<path d="M0 1066 c0 -2 7 -7 16 -10 8 -3 12 -2 9 4 -6 10 -25 14 -25 6z"/>
<path d="M526 1044 c-6 -15 -1 -16 28 -5 19 7 19 8 -1 13 -14 4 -24 0 -27 -8z"/>
<path d="M760 1050 c0 -5 5 -10 10 -10 6 0 10 5 10 10 0 6 -4 10 -10 10 -5 0
-10 -4 -10 -10z"/>
<path d="M2420 1040 c-30 -11 -67 -20 -82 -20 -15 0 -30 -5 -33 -11 -4 -5 -12
-8 -18 -6 -7 2 -21 -1 -32 -6 -19 -11 -24 -12 -53 -15 -7 -1 -11 -6 -8 -10 6
-10 66 -3 66 7 0 3 17 8 38 9 20 2 46 5 57 6 11 1 32 9 46 19 14 9 41 19 60
21 19 2 39 4 44 5 10 1 -15 21 -25 20 -3 0 -30 -9 -60 -19z"/>
<path d="M43 1035 c0 -8 4 -15 7 -15 4 0 13 7 20 15 10 12 9 15 -7 15 -11 0
-20 -7 -20 -15z"/>
<path d="M438 1033 c17 -9 32 -20 32 -25 0 -9 -14 -11 -23 -2 -3 3 -29 7 -57
9 -32 1 -47 -1 -38 -6 7 -5 28 -9 46 -9 18 0 41 -4 50 -8 9 -5 28 -6 42 -2
l25 6 -32 19 c-18 11 -33 23 -33 27 0 4 -10 8 -22 7 -20 0 -19 -2 10 -16z"/>
<path d="M10 1020 c-13 -8 -12 -10 3 -10 9 0 17 5 17 10 0 12 -1 12 -20 0z"/>
<path d="M570 1010 c0 -11 2 -20 4 -20 2 0 13 -3 23 -6 16 -5 17 -5 1 6 -9 6
-15 17 -12 25 4 8 1 15 -5 15 -6 0 -11 -9 -11 -20z"/>
<path d="M2019 1026 c0 -1 -2 -11 -5 -23 -4 -25 3 -28 26 -13 12 8 12 10 1 10
-10 0 -11 3 -2 13 8 10 7 14 -4 14 -8 0 -15 -1 -16 -1z"/>
<path d="M2220 1020 c0 -5 7 -10 15 -10 8 0 15 5 15 10 0 6 -7 10 -15 10 -8 0
-15 -4 -15 -10z"/>
<path d="M760 1006 c0 -9 5 -16 10 -16 6 0 10 4 10 9 0 6 -4 13 -10 16 -5 3
-10 -1 -10 -9z"/>
<path d="M2065 1002 c-3 -8 -5 -14 -5 -15 0 -1 12 -3 27 -4 19 -1 22 1 12 8
-9 7 -1 8 23 3 39 -6 88 1 88 14 0 4 -31 7 -70 7 -49 0 -71 -4 -75 -13z"/>
<path d="M2484 1004 c5 -11 9 -25 10 -33 3 -19 39 -38 44 -23 2 7 13 9 29 6
26 -7 43 7 42 36 0 10 -4 8 -12 -7 -11 -20 -14 -20 -42 -7 -29 13 -29 14 -4 9
18 -3 29 0 33 11 3 8 2 12 -3 9 -5 -3 -12 -1 -16 5 -3 5 -11 10 -16 10 -6 0
-7 -4 -4 -10 8 -13 -21 -13 -47 1 -18 10 -20 9 -14 -7z"/>
<path d="M290 1000 c8 -5 24 -9 35 -9 20 0 20 0 0 9 -11 5 -27 9 -35 9 -13 1
-13 0 0 -9z"/>
<path d="M1799 997 c7 -7 24 -7 53 0 l43 10 -53 0 c-36 0 -50 -3 -43 -10z"/>
<path d="M2686 977 c-22 -18 -26 -26 -16 -32 9 -6 11 -4 5 5 -6 10 -1 12 19 8
14 -3 26 -1 26 3 0 5 -5 9 -11 9 -8 0 -8 5 1 15 18 21 9 18 -24 -8z"/>
<path d="M1758 983 c6 -2 18 -2 25 0 6 3 1 5 -13 5 -14 0 -19 -2 -12 -5z"/>
<path d="M1952 975 c-16 -19 -3 -19 22 0 14 11 16 15 5 15 -8 -1 -20 -7 -27
-15z"/>
<path d="M280 976 c0 -2 7 -7 16 -10 8 -3 12 -2 9 4 -6 10 -25 14 -25 6z"/>
<path d="M800 970 c0 -5 7 -10 16 -10 8 0 12 5 9 10 -3 6 -10 10 -16 10 -5 0
-9 -4 -9 -10z"/>
<path d="M2143 973 c-21 -3 -33 -10 -33 -19 0 -13 -16 -15 -92 -14 -83 2 -134
-3 -144 -13 -9 -9 229 4 247 13 10 6 24 8 29 5 5 -3 14 4 20 15 6 11 9 19 8
18 -2 0 -18 -3 -35 -5z"/>
<path d="M2395 973 c-11 -2 -29 -8 -40 -12 -11 -5 -47 -15 -79 -22 -46 -10
-61 -10 -64 -1 -7 22 -22 16 -74 -31 -11 -10 -17 -22 -13 -25 3 -4 10 0 15 8
5 7 14 15 22 16 43 6 86 14 108 20 14 3 36 7 50 7 14 1 28 6 31 11 4 5 26 11
50 13 24 3 45 6 47 7 5 6 -33 12 -53 9z"/>
<path d="M2 950 c0 -14 2 -19 5 -12 2 6 2 18 0 25 -3 6 -5 1 -5 -13z"/>
<path d="M1442 950 c0 -14 2 -19 5 -12 2 6 2 18 0 25 -3 6 -5 1 -5 -13z"/>
<path d="M2000 960 c-9 -6 -10 -10 -3 -10 6 0 15 5 18 10 8 12 4 12 -15 0z"/>
<path d="M2045 960 c4 -6 11 -8 16 -5 14 9 11 15 -7 15 -8 0 -12 -5 -9 -10z"/>
<path d="M2470 944 c0 -14 4 -23 8 -20 4 2 14 1 22 -5 13 -7 12 -9 -3 -9 -14
0 -15 -3 -6 -18 11 -17 79 -46 79 -33 -1 17 -20 33 -34 28 -8 -3 -18 -2 -21 3
-3 4 8 11 24 15 33 7 48 30 24 39 -11 5 -14 2 -9 -10 5 -12 2 -15 -10 -10 -8
3 -20 6 -25 6 -5 0 -18 9 -29 20 -20 20 -20 20 -20 -6z"/>
<path d="M426 946 c4 -10 13 -15 21 -12 7 3 16 0 19 -8 3 -7 11 -13 19 -13 8
0 12 4 9 8 -2 4 5 13 17 20 16 8 28 8 48 -1 21 -9 24 -9 13 1 -15 16 -84 20
-75 6 4 -6 -2 -8 -13 -4 -65 20 -65 20 -58 3z"/>
<path d="M750 950 c-8 -5 -10 -10 -5 -10 6 0 17 5 25 10 8 5 11 10 5 10 -5 0
-17 -5 -25 -10z"/>
<path d="M1860 950 c0 -5 7 -7 15 -4 8 4 15 8 15 10 0 2 -7 4 -15 4 -8 0 -15
-4 -15 -10z"/>
<path d="M1790 940 c0 -5 5 -10 11 -10 5 0 7 5 4 10 -3 6 -8 10 -11 10 -2 0
-4 -4 -4 -10z"/>
<path d="M615 920 c13 -15 21 -17 31 -9 7 6 19 7 26 3 10 -5 10 -4 1 6 -10 11
-15 11 -28 0 -8 -7 -15 -8 -15 -2 0 5 -8 13 -17 16 -15 6 -15 4 2 -14z"/>
<path d="M306 915 c4 -8 10 -15 15 -15 4 0 6 7 3 15 -4 8 -10 15 -15 15 -4 0
-6 -7 -3 -15z"/>
<path d="M1733 923 c9 -2 23 -2 30 0 6 3 -1 5 -18 5 -16 0 -22 -2 -12 -5z"/>
<path d="M1830 920 c-12 -8 -10 -10 8 -10 13 0 20 4 17 10 -7 12 -6 12 -25 0z"/>
<path d="M378 913 c7 -3 16 -2 19 1 4 3 -2 6 -13 5 -11 0 -14 -3 -6 -6z"/>
<path d="M1753 907 c-33 -10 -43 -30 -21 -43 7 -4 8 -3 4 4 -4 7 -6 12 -4 12
2 0 20 6 41 14 46 15 27 27 -20 13z"/>
<path d="M436 897 c3 -10 9 -15 12 -12 3 3 0 11 -7 18 -10 9 -11 8 -5 -6z"/>
<path d="M780 900 c0 -5 5 -10 11 -10 5 0 7 5 4 10 -3 6 -8 10 -11 10 -2 0 -4
-4 -4 -10z"/>
<path d="M840 900 c8 -5 20 -10 25 -10 6 0 3 5 -5 10 -8 5 -19 10 -25 10 -5 0
-3 -5 5 -10z"/>
<path d="M911 906 c2 -2 15 -9 29 -15 24 -11 24 -11 6 3 -16 13 -49 24 -35 12z"/>
<path d="M1443 870 c0 -25 2 -35 4 -22 2 12 2 32 0 45 -2 12 -4 2 -4 -23z"/>
<path d="M2300 900 c0 -4 -15 -8 -32 -8 -18 0 -46 -5 -61 -11 -15 -6 -31 -10
-35 -10 -19 3 -23 -2 -12 -16 14 -17 49 -12 128 16 73 26 84 24 37 -8 -41 -28
-44 -30 -70 -32 -8 0 -15 -8 -15 -18 0 -9 -3 -14 -6 -10 -4 3 -13 -1 -21 -9
-8 -8 -20 -11 -26 -8 -9 5 -9 4 -1 -5 18 -19 5 -51 -20 -51 -16 0 -18 2 -7 9
11 7 9 10 -7 15 -12 4 -19 13 -16 21 3 7 1 16 -5 20 -7 4 -8 0 -4 -11 4 -11 2
-15 -4 -11 -6 4 -18 -4 -26 -17 -13 -20 -14 -27 -3 -42 8 -10 11 -24 8 -32 -3
-8 1 -18 9 -23 11 -7 11 -11 1 -21 -10 -10 -15 -10 -22 2 -7 12 -12 12 -22 2
-15 -15 -52 -16 -43 -1 4 6 13 8 21 5 8 -3 14 -1 14 4 0 6 7 10 15 10 31 0 10
54 -22 57 -24 3 -32 -12 -10 -20 6 -2 0 -8 -15 -12 -16 -4 -28 -14 -28 -22 0
-8 5 -11 13 -8 6 4 1 -3 -13 -15 -14 -12 -20 -19 -15 -17 6 3 17 2 24 -3 11
-6 9 -11 -9 -20 -12 -6 -24 -9 -28 -6 -3 3 0 6 7 6 8 0 6 8 -5 25 -16 24 -11
51 7 40 5 -4 9 -2 9 4 0 5 -4 12 -9 15 -13 8 -34 -21 -28 -38 4 -10 0 -12 -15
-8 -14 3 -19 1 -14 -6 3 -6 2 -14 -4 -17 -6 -4 -1 -15 14 -26 14 -11 25 -23
23 -27 -1 -4 3 -7 8 -7 6 0 9 3 7 8 -1 4 7 2 18 -5 11 -7 20 -16 20 -21 0 -4
5 -5 10 -2 6 3 10 1 10 -5 0 -6 5 -8 10 -5 13 8 13 25 0 25 -6 0 -17 5 -24 12
-10 10 -8 17 11 38 l24 25 21 -25 20 -25 -16 28 c-18 29 -7 37 18 12 17 -17
30 -20 21 -5 -3 6 -1 10 5 10 6 0 8 5 5 10 -3 6 -1 10 5 10 7 0 7 7 -1 23 -11
20 -11 21 4 9 9 -8 15 -23 14 -34 -1 -14 5 -22 18 -24 17 -2 18 -1 5 9 -16 12
-16 47 0 47 5 0 8 -6 6 -12 -1 -7 -1 -10 1 -5 3 4 9 7 14 7 6 0 8 -3 5 -8 -2
-4 2 -16 10 -27 8 -10 14 -14 14 -8 0 7 -4 15 -10 18 -6 4 -2 15 10 27 11 12
23 18 27 13 5 -4 2 -10 -4 -12 -7 -3 -13 -11 -13 -19 0 -9 5 -12 11 -9 6 4 17
-1 24 -11 13 -17 13 -15 5 14 -5 18 -8 39 -6 45 1 7 1 9 -1 5 -2 -4 -11 -4
-19 -1 -8 3 -21 0 -29 -7 -8 -6 -20 -10 -27 -7 -9 4 -7 6 3 6 20 1 32 28 22
44 -12 19 -12 37 -1 37 6 0 8 -7 4 -15 -4 -12 0 -14 22 -9 26 6 26 6 7 -9 -20
-16 -19 -16 8 -17 15 0 27 3 27 8 0 15 -16 30 -35 35 -19 4 -18 5 2 6 12 0 25
6 28 11 12 19 26 11 16 -9 -9 -16 -8 -18 12 -14 14 3 18 2 10 -4 -15 -10 -11
-69 5 -85 9 -9 12 -9 12 0 0 7 -4 12 -8 12 -5 0 -9 6 -9 14 0 8 3 15 6 14 19
-2 28 4 28 17 0 9 -6 14 -14 11 -8 -3 -12 -2 -9 2 3 5 24 9 48 10 23 1 51 5
63 8 20 6 20 6 0 -10 -14 -12 -15 -14 -4 -10 10 3 20 1 24 -5 6 -10 -8 -16
-29 -12 -5 1 -4 -5 3 -13 7 -8 10 -20 6 -26 -3 -5 1 -10 10 -10 11 0 15 5 12
15 -8 20 8 28 23 10 10 -12 10 -15 0 -15 -9 0 -9 -4 1 -16 12 -15 11 -16 -11
-9 -24 7 -24 6 -8 -11 17 -17 18 -17 31 0 8 11 19 16 25 12 6 -3 14 -1 18 5 4
7 3 9 -4 5 -6 -3 -13 -2 -17 4 -3 5 3 10 15 10 12 0 18 4 15 10 -4 6 -14 10
-23 9 -33 -3 -41 1 -41 21 -1 11 -1 29 -2 40 0 10 -9 22 -20 25 -11 4 -17 11
-14 16 4 5 -1 9 -9 9 -9 0 -13 -6 -10 -14 3 -8 -4 -16 -18 -20 -36 -9 -39 -7
-28 14 7 12 16 18 23 13 7 -4 7 0 -2 10 -7 9 -18 14 -24 10 -6 -4 -8 0 -4 11
6 14 3 16 -16 10 -12 -3 -29 -12 -37 -19 -19 -16 -47 -31 -38 -20 4 4 2 15 -4
24 -10 13 -10 14 2 4 11 -10 18 -7 39 16 23 25 62 41 113 46 22 2 34 13 24 22
-3 4 -25 2 -47 -4 -23 -6 -55 -7 -75 -3 -19 4 -34 4 -34 0z m-40 -24 c0 -2 -7
-6 -15 -10 -8 -3 -15 -1 -15 4 0 6 7 10 15 10 8 0 15 -2 15 -4z m103 -77 c4
-16 2 -19 -10 -15 -13 5 -14 4 -3 -9 7 -9 9 -19 5 -23 -4 -4 -10 -1 -12 6 -3
6 -11 12 -19 12 -16 0 -16 2 -8 24 3 8 12 12 21 9 11 -4 14 -2 9 5 -4 7 -3 12
2 12 5 0 12 -9 15 -21z m-113 -19 c-8 -5 -17 -7 -19 -4 -3 3 1 9 9 14 8 5 17
7 19 4 3 -3 -1 -9 -9 -14z m-132 -27 c-2 -10 3 -17 10 -15 6 1 11 -1 11 -5 -3
-21 3 -33 17 -33 8 0 13 4 10 8 -2 4 4 8 14 9 23 2 16 -23 -11 -37 -24 -14
-29 -13 -29 6 0 9 -5 12 -12 8 -7 -4 -10 -3 -5 1 4 5 0 16 -8 25 -9 10 -13 25
-9 34 8 21 16 21 12 -1z"/>
<path d="M7 894 c-4 -4 -7 -14 -7 -23 0 -11 3 -12 11 -4 6 6 10 16 7 23 -2 6
-7 8 -11 4z"/>
<path d="M997 878 c2 -5 20 -8 40 -8 20 0 33 3 30 6 -9 10 -76 11 -70 2z"/>
<path d="M1371 874 c0 -11 3 -14 6 -6 3 7 2 16 -1 19 -3 4 -6 -2 -5 -13z"/>
<path d="M1670 886 c0 -2 8 -10 18 -17 15 -13 16 -12 3 4 -13 16 -21 21 -21
13z"/>
<path d="M267 860 c-3 -12 -10 -19 -16 -15 -6 3 -11 1 -11 -6 0 -8 -5 -7 -17
3 -19 16 -53 20 -53 6 0 -7 23 -12 43 -9 14 2 7 -15 -13 -32 -11 -9 -27 -17
-35 -17 -8 0 -15 -9 -15 -21 0 -11 -4 -18 -8 -15 -4 2 -14 1 -22 -4 -12 -8
-12 -10 2 -15 17 -7 14 -35 -4 -35 -5 0 -6 5 -3 11 4 6 -1 16 -10 23 -16 12
-16 13 -1 19 9 4 16 13 16 21 0 10 -6 13 -15 10 -8 -4 -12 -10 -9 -15 3 -5 -6
-9 -20 -9 -14 0 -26 5 -26 10 0 6 -10 3 -23 -7 -22 -16 -35 -49 -15 -37 4 3 8
0 8 -5 0 -6 -4 -11 -10 -11 -5 0 -10 -5 -10 -10 0 -6 11 -8 25 -4 18 4 25 2
25 -9 0 -8 6 -19 13 -25 10 -8 13 -5 15 14 1 17 -2 23 -10 18 -7 -5 -9 0 -6
14 6 23 -6 39 -17 22 -4 -6 -11 -8 -16 -4 -5 3 -7 10 -4 15 8 12 55 7 56 -6 1
-5 2 -17 3 -25 0 -8 15 -18 31 -21 17 -4 27 -8 23 -9 -13 -4 -27 -7 -38 -9 -5
0 -10 -8 -10 -16 0 -12 4 -13 18 -6 13 7 22 7 29 0 6 -6 9 3 8 28 -1 40 17 88
29 76 16 -16 38 -10 53 15 9 15 18 28 19 30 6 9 44 -25 39 -35 -2 -7 1 -12 8
-10 19 3 27 21 14 29 -8 5 -6 8 7 8 13 0 17 -5 13 -20 -3 -11 0 -18 7 -17 6 1
10 -4 8 -10 -4 -22 18 -14 45 15 20 20 24 22 18 7 -5 -11 -8 -31 -8 -44 1 -17
-2 -20 -10 -12 -20 20 -31 12 -12 -9 14 -15 21 -17 31 -9 8 6 12 15 9 19 -3 4
3 18 13 31 19 26 21 37 9 57 -5 6 -5 17 -2 22 3 6 1 10 -4 10 -6 0 -11 -5 -11
-11 0 -6 -7 -9 -15 -5 -8 3 -15 1 -15 -3 0 -5 6 -12 13 -14 9 -4 9 -6 0 -6
-19 -1 -25 17 -13 40 11 19 10 20 -9 9 -12 -6 -21 -20 -21 -30 0 -11 -5 -20
-11 -20 -5 0 -7 5 -4 10 3 6 1 10 -6 10 -10 0 -10 3 -1 12 19 19 14 30 -7 18
-13 -7 -22 -7 -26 0 -3 5 1 10 10 10 13 0 14 2 3 14 -9 10 -15 11 -20 2 -6 -8
-10 -7 -17 2 -6 10 -10 8 -14 -8z m42 -34 c8 -10 9 -16 1 -21 -5 -3 -10 -1
-10 6 0 9 -3 9 -14 0 -10 -9 -15 -8 -19 3 -11 27 22 36 42 12z m-84 -26 c-3
-5 -12 -10 -18 -10 -7 0 -6 4 3 10 19 12 23 12 15 0z m202 -22 c-3 -8 -6 -5
-6 6 -1 11 2 17 5 13 3 -3 4 -12 1 -19z m-54 -9 c-4 -15 -9 -17 -17 -9 -8 8
-7 13 4 20 8 5 16 10 17 10 0 0 -1 -9 -4 -21z m-158 -7 c-9 -9 -35 -11 -35 -3
0 14 12 20 26 14 8 -3 12 -8 9 -11z"/>
<path d="M853 865 c19 -11 33 -13 44 -6 14 8 13 9 -7 8 -14 0 -34 3 -45 7 -11
4 -8 0 8 -9z"/>
<path d="M2460 875 c0 -5 76 -55 83 -55 2 0 4 7 4 15 0 8 -13 17 -29 20 -15 4
-30 11 -33 16 -6 9 -25 13 -25 4z"/>
<path d="M706 862 c-3 -5 9 -17 26 -27 l31 -18 -19 26 c-20 28 -29 32 -38 19z"/>
<path d="M1085 860 c3 -5 8 -10 11 -10 2 0 4 5 4 10 0 6 -5 10 -11 10 -5 0 -7
-4 -4 -10z"/>
<path d="M1124 859 c-3 -5 6 -9 20 -9 31 0 34 6 6 13 -11 3 -23 1 -26 -4z"/>
<path d="M58 847 c6 -7 26 -13 44 -14 33 -2 30 0 -26 18 -22 7 -26 6 -18 -4z"/>
<path d="M972 855 c3 -3 16 -8 28 -10 13 -3 28 -9 34 -15 13 -13 73 -13 81 -1
3 6 -9 8 -29 4 -25 -4 -40 -1 -51 11 -9 9 -28 16 -42 16 -15 0 -24 -2 -21 -5z"/>
<path d="M1630 851 c0 -6 -3 -10 -7 -10 -5 1 -20 1 -35 0 -47 -2 -31 -21 17
-21 33 0 45 4 45 14 0 8 -4 18 -10 21 -5 3 -10 1 -10 -4z"/>
<path d="M2380 856 c0 -9 30 -14 35 -6 4 6 -3 10 -14 10 -12 0 -21 -2 -21 -4z"/>
<path d="M2450 842 c0 -12 9 -22 23 -26 17 -5 19 -8 8 -15 -11 -7 -8 -11 10
-16 13 -5 29 -15 36 -24 9 -13 14 -14 24 -3 7 6 24 12 39 13 22 0 23 1 5 8
-11 5 -25 6 -31 4 -6 -2 -14 3 -17 11 -4 9 -13 16 -21 16 -8 0 -28 12 -45 26
-29 24 -31 24 -31 6z"/>
<path d="M1180 839 c0 -12 34 -21 108 -26 40 -3 72 -2 72 3 0 5 -22 9 -50 9
-27 -1 -50 2 -50 6 0 4 -18 9 -40 11 -22 2 -40 1 -40 -3z"/>
<path d="M1410 836 c0 -8 -7 -21 -15 -29 -13 -13 -13 -16 1 -21 8 -3 24 -1 35
4 17 10 19 7 19 -29 0 -29 -5 -41 -17 -45 -15 -4 -14 -5 1 -3 26 3 41 58 25
88 -8 16 -13 18 -19 9 -11 -19 -29 -3 -23 20 3 11 3 20 -1 20 -3 0 -6 -6 -6
-14z"/>
<path d="M150 818 c0 -22 9 -22 34 -3 17 13 18 15 3 15 -9 0 -17 -6 -17 -12 0
-9 -4 -8 -10 2 -8 13 -10 12 -10 -2z"/>
<path d="M480 820 c0 -14 15 -19 29 -11 9 6 7 10 -8 14 -12 3 -21 1 -21 -3z"/>
<path d="M635 811 c5 -16 4 -21 -4 -17 -6 4 -11 2 -11 -3 0 -14 27 -14 36 0 3
6 -1 18 -11 27 -16 16 -17 16 -10 -7z"/>
<path d="M1493 819 c-13 -6 -10 -8 14 -8 17 -1 34 3 38 8 6 11 -24 11 -52 0z"/>
<path d="M1667 815 c3 -11 -2 -15 -18 -15 -19 0 -21 -2 -9 -10 8 -5 19 -5 25
-1 5 5 20 7 33 6 13 -1 25 2 28 7 7 11 74 11 74 0 0 -16 -13 -21 -30 -12 -12
7 -21 6 -28 -3 -8 -9 -2 -12 26 -12 41 0 54 21 26 42 -21 15 -70 17 -79 3 -3
-6 -15 -6 -30 0 -19 7 -23 6 -18 -5z"/>
<path d="M55 810 c27 -12 43 -12 25 0 -8 5 -22 9 -30 9 -10 0 -8 -3 5 -9z"/>
<path d="M7 803 c-4 -3 -7 -11 -7 -17 0 -6 5 -5 12 2 6 6 9 14 7 17 -3 3 -9 2
-12 -2z"/>
<path d="M1132 800 c11 -6 15 -17 11 -28 -6 -15 -5 -15 10 -4 9 8 20 11 25 8
6 -3 15 1 22 9 11 13 8 15 -18 15 -17 0 -39 3 -49 6 -16 5 -17 5 -1 -6z"/>
<path d="M466 784 c-3 -8 -2 -13 2 -10 4 3 13 -4 20 -15 7 -10 8 -19 3 -19 -5
0 -11 5 -13 11 -6 17 -48 -12 -48 -32 0 -9 9 -19 20 -22 17 -4 20 -2 14 15 -4
15 -2 19 7 15 8 -2 13 -9 12 -14 -1 -5 6 -9 15 -8 9 0 18 5 19 9 1 5 7 12 13
16 7 4 9 13 5 20 -6 9 -9 9 -16 -1 -5 -8 -9 -9 -9 -3 0 18 13 24 27 13 10 -9
13 -8 13 4 0 20 -12 27 -49 32 -19 3 -31 -1 -35 -11z"/>
<path d="M1245 781 c19 -8 18 -9 -5 -14 -17 -4 -13 -5 15 -5 68 0 75 -2 75
-17 0 -12 -13 -15 -57 -15 l-58 0 3 -104 4 -103 -34 -5 c-37 -6 -48 4 -48 45
0 15 -4 27 -10 27 -5 0 -9 -3 -8 -7 0 -5 -2 -16 -7 -26 -4 -11 -3 -23 4 -30 6
-6 11 -21 11 -34 0 -14 6 -23 16 -23 10 0 14 6 10 15 -4 12 3 15 30 15 41 0
45 8 48 87 6 122 3 113 39 113 42 1 63 18 71 58 7 31 -7 47 -17 20 -3 -10 -7
-10 -19 0 -13 10 -17 10 -21 0 -4 -10 -7 -11 -18 0 -7 6 -20 12 -28 11 -11 0
-10 -3 4 -8z"/>
<path d="M1484 766 c3 -14 1 -28 -5 -31 -7 -5 -4 -12 8 -20 24 -17 113 -8 113
11 0 8 5 14 12 14 6 0 9 2 7 4 -2 2 -30 0 -61 -3 l-58 -7 0 28 c0 15 -5 28
-11 28 -7 0 -9 -10 -5 -24z"/>
<path d="M1566 781 c-3 -5 1 -11 9 -14 9 -4 12 -1 8 9 -6 16 -10 17 -17 5z"/>
<path d="M247 763 c3 -7 9 -10 14 -7 14 8 11 21 -5 21 -8 0 -12 -6 -9 -14z"/>
<path d="M570 759 c0 -11 -4 -17 -10 -14 -5 3 -10 1 -10 -4 0 -6 6 -11 13 -11
6 0 19 -5 27 -10 13 -9 13 -11 0 -20 -22 -14 -33 -12 -26 5 8 22 -6 18 -35 -9
-21 -19 -29 -22 -39 -13 -10 9 -14 9 -17 -1 -3 -6 -10 -9 -15 -6 -7 5 -8 2 -4
-5 5 -7 14 -10 22 -7 8 3 14 2 14 -2 0 -4 12 -7 28 -6 15 1 33 3 40 3 7 1 10
6 7 11 -3 6 4 10 15 10 13 0 24 8 27 20 6 24 16 25 34 3 12 -15 12 -16 -6 -9
-16 6 -17 5 -8 -5 8 -8 9 -18 2 -31 -5 -10 -8 -19 -7 -19 12 -5 48 -5 48 0 0
4 9 7 20 8 11 1 20 0 20 -2 0 -10 -58 -34 -65 -27 -4 4 -4 -3 -1 -15 6 -18 4
-22 -8 -17 -9 3 -16 1 -16 -6 0 -6 -4 -8 -10 -5 -5 3 -10 1 -10 -4 0 -14 17
-14 25 -1 3 5 12 7 20 3 9 -3 15 1 15 9 0 8 12 21 28 28 15 8 29 15 31 17 6 3
-23 63 -31 63 -5 0 -8 6 -8 14 0 12 -17 24 -40 31 -34 9 -50 19 -50 31 0 8 -4
14 -10 14 -5 0 -10 -9 -10 -21z m-15 -69 c3 -5 -1 -10 -10 -10 -9 0 -13 5 -10
10 3 6 8 10 10 10 2 0 7 -4 10 -10z m125 -20 c12 -8 11 -10 -7 -10 -13 0 -23
5 -23 10 0 13 11 13 30 0z"/>
<path d="M690 771 c-34 -9 -13 -20 29 -14 23 4 29 8 20 14 -16 10 -14 10 -49
0z"/>
<path d="M1653 772 c-36 -6 -26 -21 12 -19 35 2 46 11 23 19 -7 2 -23 2 -35 0z"/>
<path d="M2501 757 c0 -11 -6 -15 -12 -11 -8 5 -8 1 0 -13 6 -11 8 -23 4 -26
-3 -4 4 -5 15 -2 12 2 24 0 27 -6 7 -11 36 -12 34 -1 -3 18 2 32 12 32 5 0 8
-4 5 -9 -3 -5 1 -11 9 -14 12 -5 12 -2 3 18 -6 13 -14 22 -19 20 -4 -3 -10 1
-12 7 -3 8 -6 6 -6 -4 -1 -28 -49 -24 -54 5 -3 16 -5 17 -6 4z"/>
<path d="M2625 760 l-30 -8 27 -1 c15 0 30 4 33 9 3 6 5 9 3 9 -2 -1 -16 -5
-33 -9z"/>
<path d="M1740 756 c0 -2 7 -6 15 -10 8 -3 15 -1 15 4 0 6 -7 10 -15 10 -8 0
-15 -2 -15 -4z"/>
<path d="M2690 751 c0 -8 -7 -11 -17 -6 -15 5 -16 4 -5 -6 9 -10 15 -10 24 -1
6 6 9 15 5 19 -4 3 -7 1 -7 -6z"/>
<path d="M2717 749 c7 -7 15 -10 18 -7 3 3 -2 9 -12 12 -14 6 -15 5 -6 -5z"/>
<path d="M1141 738 c0 -10 -9 -18 -18 -18 -17 -1 -17 -1 0 -11 23 -14 30 -7
24 23 -3 14 -5 16 -6 6z"/>
<path d="M2055 740 c-3 -5 -1 -10 4 -10 6 0 11 5 11 10 0 6 -2 10 -4 10 -3 0
-8 -4 -11 -10z"/>
<path d="M1168 733 c7 -3 16 -2 19 1 4 3 -2 6 -13 5 -11 0 -14 -3 -6 -6z"/>
<path d="M2623 727 c0 -7 9 -13 19 -13 10 0 18 1 18 3 0 1 -8 7 -18 12 -13 7
-19 6 -19 -2z"/>
<path d="M1702 723 c-6 -3 -10 -9 -6 -14 6 -11 -25 -7 -45 5 -10 6 -12 5 -7
-2 4 -7 1 -12 -9 -12 -9 0 -13 -5 -9 -11 4 -7 22 -9 48 -5 68 9 159 8 193 -2
30 -10 31 -9 21 8 -6 10 -18 16 -25 13 -7 -3 -21 -2 -30 3 -15 6 -13 9 12 15
24 7 22 7 -10 3 -79 -11 -100 -12 -110 -5 -5 5 -16 6 -23 4z"/>
<path d="M2380 720 c8 -5 20 -10 25 -10 6 0 3 5 -5 10 -8 5 -19 10 -25 10 -5
0 -3 -5 5 -10z"/>
<path d="M2685 720 c-19 -8 -19 -9 3 -9 12 -1 22 4 22 9 0 6 -1 10 -2 9 -2 0
-12 -4 -23 -9z"/>
<path d="M1356 708 c-10 -32 -13 -99 -5 -104 5 -3 9 20 9 50 0 52 1 55 28 59
l27 4 -28 2 c-15 0 -29 -5 -31 -11z"/>
<path d="M720 706 c0 -2 8 -10 18 -17 15 -13 16 -12 3 4 -13 16 -21 21 -21 13z"/>
<path d="M1463 665 c0 -27 2 -38 4 -22 2 15 2 37 0 50 -2 12 -4 0 -4 -28z"/>
<path d="M2363 695 c0 -8 4 -12 9 -9 5 3 6 10 3 15 -9 13 -12 11 -12 -6z"/>
<path d="M808 693 c7 -3 16 -2 19 1 4 3 -2 6 -13 5 -11 0 -14 -3 -6 -6z"/>
<path d="M1165 690 c3 -5 11 -10 16 -10 6 0 7 5 4 10 -3 6 -11 10 -16 10 -6 0
-7 -4 -4 -10z"/>
<path d="M1591 630 c0 -41 2 -92 5 -112 7 -38 27 -51 38 -23 3 8 12 15 21 15
8 0 15 5 15 10 0 6 -13 10 -29 10 -29 0 -29 0 -36 78 -9 105 -13 112 -14 22z"/>
<path d="M1915 690 c-3 -5 -1 -10 4 -10 6 0 11 5 11 10 0 6 -2 10 -4 10 -3 0
-8 -4 -11 -10z"/>
<path d="M1111 674 c-12 -9 -28 -13 -36 -10 -8 3 -17 0 -21 -6 -9 -14 74 -4
88 10 17 17 -8 22 -31 6z"/>
<path d="M2281 674 c0 -11 3 -14 6 -6 3 7 2 16 -1 19 -3 4 -6 -2 -5 -13z"/>
<path d="M2330 681 c0 -6 5 -13 10 -16 6 -3 10 1 10 9 0 9 -4 16 -10 16 -5 0
-10 -4 -10 -9z"/>
<path d="M593 673 c-7 -3 -13 -8 -13 -13 0 -9 38 -1 45 10 5 7 -13 9 -32 3z"/>
<path d="M780 670 c0 -5 5 -10 10 -10 6 0 10 5 10 10 0 6 -4 10 -10 10 -5 0
-10 -4 -10 -10z"/>
<path d="M1740 669 c0 -5 5 -7 10 -4 6 3 10 8 10 11 0 2 -4 4 -10 4 -5 0 -10
-5 -10 -11z"/>
<path d="M2385 669 c-4 -6 -5 -12 -2 -15 2 -3 7 2 10 11 7 17 1 20 -8 4z"/>
<path d="M1850 660 c0 -5 5 -10 11 -10 5 0 7 5 4 10 -3 6 -8 10 -11 10 -2 0
-4 -4 -4 -10z"/>
<path d="M760 650 c0 -5 5 -10 11 -10 5 0 7 5 4 10 -3 6 -8 10 -11 10 -2 0 -4
-4 -4 -10z"/>
<path d="M855 651 c-3 -5 -2 -12 3 -15 5 -3 9 1 9 9 0 17 -3 19 -12 6z"/>
<path d="M1020 650 c-13 -8 -12 -10 3 -10 9 0 17 5 17 10 0 12 -1 12 -20 0z"/>
<path d="M1678 651 c13 -8 24 -71 13 -71 -3 0 -6 -12 -7 -27 0 -16 -2 -37 -5
-48 -6 -27 27 -33 34 -5 7 26 27 26 27 -1 0 -11 5 -17 10 -14 6 4 8 10 5 15
-3 4 4 10 15 13 18 5 20 0 20 -41 0 -25 3 -42 7 -38 4 3 6 28 5 54 -1 26 1 42
6 35 8 -13 192 -14 192 0 0 4 -10 7 -22 7 -12 0 -30 8 -40 17 -18 16 -18 16
-12 0 6 -16 -2 -17 -91 -15 -93 3 -98 4 -107 28 -5 14 -11 35 -13 47 -3 26
-23 53 -39 53 -6 0 -6 -4 2 -9z"/>
<path d="M1889 644 c-7 -9 -22 -14 -36 -11 -12 2 -20 1 -18 -3 3 -4 15 -10 28
-12 17 -3 26 2 34 19 13 27 11 29 -8 7z"/>
<path d="M1165 639 c-3 -4 2 -6 10 -5 21 3 28 13 10 13 -9 0 -18 -4 -20 -8z"/>
<path d="M1630 642 c0 -5 7 -9 15 -9 8 0 12 4 9 9 -3 4 -9 8 -15 8 -5 0 -9 -4
-9 -8z"/>
<path d="M2415 640 c-3 -6 1 -7 9 -4 18 7 21 14 7 14 -6 0 -13 -4 -16 -10z"/>
<path d="M2545 640 c-3 -6 1 -7 9 -4 18 7 21 14 7 14 -6 0 -13 -4 -16 -10z"/>
<path d="M604 622 c2 -9 8 -18 14 -20 17 -5 15 25 -2 31 -9 4 -13 0 -12 -11z"/>
<path d="M979 629 c-10 -6 -4 -9 19 -9 17 0 32 2 32 4 0 9 -39 13 -51 5z"/>
<path d="M1110 630 c-8 -5 -10 -10 -5 -10 6 0 17 5 25 10 8 5 11 10 5 10 -5 0
-17 -5 -25 -10z"/>
<path d="M2337 629 c7 -7 15 -10 18 -7 3 3 -2 9 -12 12 -14 6 -15 5 -6 -5z"/>
<path d="M905 610 c-3 -5 -1 -10 4 -10 6 0 11 5 11 10 0 6 -2 10 -4 10 -3 0
-8 -4 -11 -10z"/>
<path d="M2629 590 c-24 -27 -24 -29 -6 -34 10 -2 25 -2 32 0 18 7 37 52 25
59 -6 4 -10 -3 -10 -14 0 -12 -5 -21 -11 -21 -6 0 -9 9 -6 20 6 25 7 25 -24
-10z m21 -20 c0 -5 -5 -10 -11 -10 -5 0 -7 5 -4 10 3 6 8 10 11 10 2 0 4 -4 4
-10z"/>
<path d="M704 601 c3 -5 0 -8 -7 -7 -6 0 -13 -2 -14 -6 -2 -5 0 -8 3 -7 8 1
24 -22 24 -34 0 -5 -4 -5 -10 -2 -5 3 -10 1 -10 -4 0 -6 7 -11 15 -11 8 0 15
-4 15 -9 0 -5 7 -11 14 -14 11 -4 13 -1 9 10 -5 12 -2 15 10 10 10 -4 28 -2
42 3 17 7 25 6 25 -1 0 -6 7 -9 15 -6 8 4 17 2 21 -4 3 -6 38 -9 86 -6 57 3
89 -1 113 -11 38 -18 37 -32 -3 -33 -25 -1 -25 -1 7 -10 39 -12 43 -9 48 32 3
29 1 31 -22 25 -15 -4 -25 -2 -25 4 0 6 -5 8 -10 5 -11 -7 -35 13 -38 30 -2
14 -42 19 -42 6 0 -6 5 -11 10 -11 6 0 10 -4 10 -10 0 -12 -22 -9 -32 5 -4 6
-18 11 -30 12 -13 1 -36 4 -53 7 -16 3 -32 1 -35 -4 -7 -12 -120 -23 -120 -11
0 5 9 7 20 4 16 -4 20 0 20 20 0 17 -7 26 -22 31 -32 8 -40 7 -34 -3z m196
-67 c0 -2 -7 -4 -15 -4 -8 0 -15 4 -15 10 0 5 7 7 15 4 8 -4 15 -8 15 -10z"/>
<path d="M1138 603 c7 -3 16 -2 19 1 4 3 -2 6 -13 5 -11 0 -14 -3 -6 -6z"/>
<path d="M1805 600 c-20 -9 -20 -9 0 -9 11 0 27 4 35 9 13 9 13 10 0 9 -8 0
-24 -4 -35 -9z"/>
<path d="M1375 593 c-17 -3 -20 -10 -17 -48 3 -30 -1 -49 -11 -60 -14 -13 -16
-13 -20 3 -4 16 -5 16 -6 0 -1 -16 -12 -18 -78 -18 -79 -1 -148 -19 -125 -34
7 -4 12 -2 12 4 0 22 18 0 23 -30 4 -16 11 -30 17 -30 6 0 6 9 0 25 -7 18 -6
25 3 25 8 0 8 3 -2 9 -20 13 -2 18 69 20 58 1 100 6 108 11 1 2 5 3 10 5 4 1
16 6 26 10 12 5 21 5 23 -2 2 -5 15 -8 28 -5 26 5 32 24 27 83 -4 33 -6 36
-35 36 -18 0 -41 -2 -52 -4z m63 -59 c0 -32 -2 -35 -21 -30 -12 3 -25 6 -29 6
-5 0 -8 14 -8 30 0 26 3 30 29 30 27 0 29 -3 29 -36z"/>
<path d="M2038 593 c7 -3 16 -2 19 1 4 3 -2 6 -13 5 -11 0 -14 -3 -6 -6z"/>
<path d="M2573 572 c0 -12 5 -22 9 -22 11 0 10 12 -2 30 -7 12 -9 10 -7 -8z"/>
<path d="M1168 573 c7 -3 16 -2 19 1 4 3 -2 6 -13 5 -11 0 -14 -3 -6 -6z"/>
<path d="M2044 565 c11 -8 22 -12 25 -9 6 6 -19 24 -34 24 -5 -1 -1 -7 9 -15z"/>
<path d="M1058 563 c7 -3 16 -2 19 1 4 3 -2 6 -13 5 -11 0 -14 -3 -6 -6z"/>
<path d="M2085 560 c-3 -6 1 -7 9 -4 18 7 21 14 7 14 -6 0 -13 -4 -16 -10z"/>
<path d="M2595 540 c-3 -5 -2 -10 4 -10 5 0 13 5 16 10 3 6 2 10 -4 10 -5 0
-13 -4 -16 -10z"/>
<path d="M2050 525 c-14 -17 2 -38 40 -50 28 -9 40 -22 39 -45 0 -9 -6 -5 -14
10 -8 14 -14 20 -15 14 0 -5 7 -19 15 -30 8 -10 15 -29 15 -41 0 -13 4 -23 10
-23 5 0 6 8 3 17 -5 14 -1 13 25 -6 28 -20 46 -41 23 -27 -5 4 -12 0 -14 -6
-4 -9 -8 -9 -14 -3 -10 13 -33 18 -33 7 0 -4 5 -13 11 -19 9 -9 6 -12 -12 -11
-13 1 -30 6 -36 11 -9 6 -13 5 -13 -2 0 -7 -5 -9 -10 -6 -6 4 -7 12 -4 18 4 7
4 9 -1 5 -4 -4 -13 -4 -19 0 -6 5 -63 5 -126 1 -63 -3 -117 -5 -119 -3 -2 2 4
10 12 18 11 12 35 16 89 15 102 -1 108 0 108 12 0 7 -24 9 -72 5 -52 -4 -68
-2 -55 5 9 6 14 15 11 21 -4 7 -2 8 5 4 7 -5 37 -11 67 -15 l54 -8 -1 31 c0
25 -2 27 -8 12 -5 -14 -10 -16 -15 -8 -4 7 -12 10 -17 6 -5 -3 -6 -10 -3 -16
4 -7 2 -8 -5 -4 -6 4 -9 12 -6 17 4 5 -10 9 -30 9 -27 0 -44 -8 -64 -27 -18
-19 -39 -29 -62 -30 -19 0 -45 -4 -59 -8 -56 -16 -83 -18 -76 -6 4 6 1 11 -8
11 -9 0 -16 -4 -16 -8 0 -5 -32 -10 -71 -10 -38 -1 -74 -4 -80 -7 -5 -3 -6 1
-3 9 12 31 -53 -3 -66 -34 -7 -16 -22 -31 -33 -33 -15 -3 -12 -5 9 -6 26 -1
33 4 38 23 5 22 11 24 68 24 35 1 91 3 126 7 37 3 71 1 82 -5 14 -7 20 -7 20
0 0 16 37 11 44 -6 6 -15 21 -16 137 -9 91 5 129 4 125 -4 -4 -5 -14 -7 -24
-4 -10 4 -14 2 -9 -3 12 -13 149 -31 177 -23 24 7 24 7 3 8 -24 1 -30 15 -12
26 5 4 18 0 28 -9 10 -9 21 -13 24 -10 4 4 9 -1 13 -10 3 -9 11 -13 18 -9 6 3
2 -3 -9 -14 -23 -23 -37 -21 -28 5 6 15 3 14 -16 -3 -18 -15 -26 -17 -41 -8
-14 10 -19 9 -24 -2 -3 -8 -15 -15 -26 -15 -12 0 -18 5 -15 10 4 6 10 8 15 5
5 -3 11 -1 15 5 10 16 -17 12 -36 -6 -14 -12 -21 -13 -36 -4 -17 10 -16 10 3
5 13 -3 21 -1 21 7 0 9 -14 12 -46 9 -25 -3 -38 -6 -28 -9 34 -7 16 -22 -25
-21 -24 1 -33 4 -20 6 12 2 20 8 17 13 -3 5 -12 7 -20 3 -9 -3 -15 1 -15 11 0
17 -9 20 -35 10 -13 -5 -14 -8 -3 -15 10 -7 9 -9 -4 -9 -9 0 -20 5 -23 10 -4
6 -11 8 -16 4 -5 -3 -17 0 -25 7 -12 10 -15 10 -12 -2 2 -8 8 -17 13 -21 6 -5
5 -8 -2 -8 -7 0 -17 9 -23 20 -17 31 -40 25 -40 -10 l0 -30 71 0 71 0 -4 -30
c-4 -27 -2 -30 22 -30 15 0 48 -3 73 -6 43 -6 45 -5 40 15 -4 18 -13 21 -54
21 -37 0 -49 4 -49 15 0 13 25 15 163 16 89 1 174 0 190 -1 15 -1 27 3 27 9 0
6 -12 11 -26 11 -20 0 -25 4 -20 16 3 9 6 18 6 20 0 2 6 4 14 4 7 0 16 9 19
20 3 11 12 20 21 20 8 0 27 11 42 25 28 26 48 33 42 13 -2 -6 -12 -12 -22 -14
-22 -3 -32 -12 -23 -20 4 -4 17 0 30 9 21 14 24 14 36 -1 6 -10 9 -11 5 -4 -5
10 2 13 27 12 58 -3 71 -1 63 13 -6 10 -4 10 7 0 18 -18 34 -16 19 2 -7 8 -9
15 -4 15 5 0 3 4 -5 9 -10 6 -18 5 -25 -4 -15 -18 -86 -25 -86 -9 0 7 16 14
37 16 20 2 38 9 41 16 3 11 0 12 -16 3 -27 -14 -35 -14 -26 2 6 8 3 8 -9 -2
-9 -7 -24 -11 -32 -7 -9 3 -13 2 -10 -4 4 -6 -7 -10 -24 -10 -16 0 -31 6 -34
13 -3 9 -8 9 -18 -2 -9 -9 -9 -11 -1 -7 6 4 12 3 12 -3 0 -5 8 -12 18 -14 9
-3 2 -5 -16 -6 -18 0 -31 -5 -28 -10 8 -12 -35 -19 -60 -11 -16 6 -12 12 30
39 28 17 56 31 64 31 7 0 10 5 7 10 -5 8 -11 7 -21 -1 -8 -6 -14 -8 -14 -4 0
5 -9 0 -20 -10 -11 -10 -23 -15 -28 -11 -4 4 1 13 10 19 9 7 25 18 35 25 16
11 16 12 -3 3 -15 -7 -25 -6 -34 2 -10 9 -11 9 -6 0 5 -8 1 -13 -11 -13 -10 0
-26 -7 -36 -15 -20 -14 -17 -45 6 -74 15 -18 20 -61 7 -61 -5 0 -10 5 -10 10
0 6 -9 10 -20 10 -23 0 -41 31 -22 38 16 5 15 25 0 41 -7 6 -13 17 -13 23 0 6
-6 12 -13 14 -7 1 -8 0 -2 -3 5 -2 8 -9 4 -14 -3 -5 2 -16 10 -25 9 -9 13 -20
10 -26 -4 -5 -13 4 -21 21 -9 17 -20 28 -26 24 -7 -4 -8 0 -3 13 6 15 5 16 -5
7 -10 -10 -9 -17 6 -33 10 -11 13 -20 8 -20 -19 0 -35 28 -28 49 4 13 -1 27
-14 40 -12 12 -18 21 -13 21 4 1 -8 7 -26 15 -18 8 -31 19 -27 25 9 15 -1 12
-15 -5z m226 -126 c-9 -13 -16 -21 -16 -17 0 3 -3 14 -7 24 -4 12 -3 15 5 10
8 -4 12 0 12 10 0 13 3 15 11 7 8 -8 7 -17 -5 -34z m-336 21 c0 -5 -2 -10 -4
-10 -3 0 -8 5 -11 10 -3 6 -1 10 4 10 6 0 11 -4 11 -10z m-145 -50 c3 -5 1
-10 -4 -10 -6 0 -11 5 -11 10 0 6 2 10 4 10 3 0 8 -4 11 -10z m102 -116 c-3
-3 -12 -4 -19 -1 -8 3 -5 6 6 6 11 1 17 -2 13 -5z"/>
<path d="M670 521 c0 -4 5 -12 11 -18 7 -7 1 -14 -21 -21 -17 -7 -29 -16 -25
-22 3 -5 1 -10 -4 -10 -6 0 -11 4 -11 9 0 11 -53 1 -62 -13 -6 -8 -11 -6 -18
4 -8 13 -10 13 -10 -1 0 -18 30 -35 39 -22 3 5 18 10 34 11 64 4 67 5 54 21
-12 15 -12 15 36 -4 8 -3 25 4 38 15 13 12 18 19 12 15 -7 -3 -13 -2 -13 4 0
5 -13 16 -30 25 -16 8 -30 11 -30 7z"/>
<path d="M2007 513 c-4 -3 -6 -18 -6 -32 1 -17 3 -20 6 -8 2 9 9 17 14 17 5 0
9 7 9 15 0 16 -12 20 -23 8z"/>
<path d="M820 466 c0 -14 4 -26 8 -26 11 0 12 39 1 45 -5 4 -9 -5 -9 -19z"/>
<path d="M1970 480 c0 -5 5 -10 11 -10 5 0 7 5 4 10 -3 6 -8 10 -11 10 -2 0
-4 -4 -4 -10z"/>
<path d="M1548 473 c7 -3 16 -2 19 1 4 3 -2 6 -13 5 -11 0 -14 -3 -6 -6z"/>
<path d="M1565 449 c-82 -3 -178 -7 -211 -8 l-62 -1 -4 -35 c-3 -23 0 -35 8
-35 7 0 10 8 7 19 -3 10 0 22 6 25 7 5 11 -5 12 -26 1 -18 3 -25 6 -15 8 31
22 18 16 -17 -6 -39 1 -45 44 -39 24 4 34 12 42 34 5 16 17 32 25 35 8 3 13
11 10 17 -8 23 52 38 140 36 52 -1 83 -6 80 -11 -4 -6 -20 -8 -36 -6 -16 3
-31 1 -34 -3 -2 -5 -11 -6 -19 -2 -11 4 -13 1 -9 -11 4 -10 18 -16 36 -16 21
0 27 4 22 13 -6 9 -5 9 8 0 8 -7 18 -10 21 -6 4 3 40 5 81 4 75 -2 122 11 110
30 -4 6 -12 5 -22 -3 -13 -11 -14 -11 -7 1 5 9 4 12 -3 7 -17 -10 -72 -16 -72
-7 0 4 4 11 9 17 12 11 -9 12 -204 3z m185 -21 c0 -6 -7 -8 -15 -4 -8 3 -15 0
-15 -6 0 -9 -3 -9 -12 0 -10 10 -10 15 1 21 16 11 41 3 41 -11z m-413 -20 c-3
-8 -6 -5 -6 6 -1 11 2 17 5 13 3 -3 4 -12 1 -19z m91 -3 c8 -8 -31 -76 -42
-72 -12 4 -25 55 -18 74 3 10 50 9 60 -2z"/>
<path d="M2070 425 c0 -18 -8 -29 -27 -37 l-28 -12 40 -4 c22 -2 46 -9 54 -15
11 -9 13 -7 10 8 -3 11 -13 21 -25 23 -16 2 -20 9 -16 32 2 17 2 30 -2 30 -3
0 -6 -11 -6 -25z"/>
<path d="M494 413 c-10 -16 -17 -31 -16 -35 1 -5 -4 -8 -10 -9 -7 0 -22 -2
-33 -4 -11 -2 -23 1 -27 8 -6 9 -8 9 -8 -1 0 -7 -3 -11 -7 -9 -5 3 -19 1 -32
-4 -16 -6 -21 -14 -17 -25 4 -9 1 -23 -5 -30 -9 -11 -7 -14 12 -13 13 0 19 3
13 5 -15 7 -5 54 12 54 8 0 14 -4 14 -10 0 -5 -4 -10 -10 -10 -5 0 -10 -4 -10
-9 0 -5 8 -7 19 -4 13 3 17 11 14 26 -4 22 -4 22 11 3 11 -14 16 -15 16 -6 0
9 5 7 14 -6 11 -14 11 -21 3 -26 -9 -6 -9 -8 -1 -8 6 0 17 7 24 15 12 14 7 19
-13 16 -13 -2 -2 22 12 27 7 2 15 -5 18 -17 3 -11 9 -19 13 -16 5 3 6 14 3 25
-3 12 1 22 11 26 11 4 13 11 7 22 -4 10 -6 23 -4 30 8 21 -4 13 -23 -15z m10
-27 c-3 -9 -10 -13 -15 -10 -5 3 -3 11 4 19 15 16 19 13 11 -9z"/>
<path d="M1030 430 c0 -5 7 -7 15 -4 8 4 15 1 15 -5 0 -15 -37 -14 -43 2 -4 9
-6 9 -6 0 -1 -9 -8 -10 -26 -3 -17 7 -25 6 -25 -1 0 -6 -9 -9 -20 -6 -11 3
-23 1 -26 -4 -3 -6 -11 -5 -20 2 -11 9 -14 9 -14 0 0 -8 -6 -7 -16 3 -8 9 -23
16 -32 15 -12 0 -11 -3 6 -9 29 -12 28 -20 -3 -14 -16 3 -25 0 -25 -8 0 -10
-3 -9 -9 1 -5 8 -14 10 -21 6 -8 -5 -11 -4 -6 3 3 6 2 13 -4 17 -5 3 -10 0
-10 -7 0 -8 -9 -14 -20 -15 -11 -1 -20 4 -20 13 0 8 -4 14 -10 14 -5 0 -10 -7
-10 -16 0 -8 -4 -13 -9 -10 -5 3 -14 -1 -21 -9 -17 -20 -71 -15 -65 6 3 9 -1
19 -9 22 -9 4 -17 -2 -21 -14 -4 -10 -11 -19 -16 -19 -6 0 -8 4 -5 8 3 5 0 9
-7 9 -7 0 -12 -10 -12 -22 0 -20 3 -21 25 -13 18 7 27 5 36 -6 13 -19 34 -21
34 -3 0 6 5 4 11 -6 9 -15 19 -16 62 -11 29 3 62 13 74 20 12 8 26 14 30 14 4
0 1 -5 -7 -10 -10 -6 -11 -10 -2 -10 24 0 12 -16 -15 -18 -14 -1 -29 -4 -31
-7 -3 -3 63 -5 147 -5 136 0 152 2 147 16 -3 9 -6 18 -6 21 0 3 -7 0 -16 -8
-13 -10 -17 -10 -25 2 -5 8 -9 9 -9 4 0 -6 -8 -11 -17 -12 -10 0 -33 -4 -52
-8 -27 -7 -32 -5 -26 5 6 10 4 11 -11 5 -35 -15 -59 -11 -62 10 -2 17 3 20 42
20 24 0 44 -4 43 -10 -1 -5 5 -8 13 -6 8 2 33 6 55 9 36 5 38 6 15 13 -24 7
-23 7 7 8 17 1 33 -4 35 -11 3 -7 11 -5 25 7 12 10 19 24 16 31 -6 16 -43 19
-43 4z m-310 -64 c0 -2 -15 -6 -34 -8 -19 -2 -32 0 -30 4 5 8 64 12 64 4z"/>
<path d="M1090 438 c-2 -5 -3 -11 -4 -15 -1 -5 -4 -12 -8 -18 -3 -5 -4 -37 -1
-70 2 -33 5 -75 6 -92 1 -18 7 -33 13 -33 16 0 14 81 -2 97 -14 14 -8 43 10
55 7 5 5 8 -4 8 -12 0 -13 2 -1 9 10 7 11 15 3 37 -6 16 -11 26 -12 22z"/>
<path d="M1213 433 c15 -2 37 -2 50 0 12 2 0 4 -28 4 -27 0 -38 -2 -22 -4z"/>
<path d="M2571 426 c-8 -10 -9 -16 -1 -21 6 -3 8 -10 5 -15 -3 -5 4 -14 16
-21 19 -10 25 -9 36 7 7 10 13 14 13 8 0 -5 53 -10 120 -11 67 0 120 3 120 8
0 5 10 9 23 9 22 -1 22 -1 2 -17 -19 -15 -19 -15 -1 -9 14 5 29 -3 53 -26 18
-17 33 -30 34 -27 0 2 2 11 4 19 1 10 -5 17 -17 17 -20 2 -48 20 -48 32 0 3
16 6 35 5 28 -2 34 1 25 11 -8 9 -30 12 -73 8 -107 -7 -201 -5 -205 5 -5 15
-40 3 -47 -16 -5 -14 -7 -14 -15 -2 -7 12 -12 12 -22 2 -6 -6 -18 -12 -26 -12
-9 0 -5 7 9 19 20 16 22 22 11 33 -11 11 -12 10 -6 -7 7 -19 7 -19 -13 -2 -17
15 -22 16 -32 3z m34 -16 c3 -5 -1 -10 -9 -10 -9 0 -16 5 -16 10 0 6 4 10 9
10 6 0 13 -4 16 -10z m105 -14 c0 -3 -4 -8 -10 -11 -5 -3 -10 -1 -10 4 0 6 5
11 10 11 6 0 10 -2 10 -4z"/>
<path d="M1199 405 c-1 -11 -2 -26 -2 -33 1 -9 -6 -12 -22 -8 -13 3 -27 2 -30
-4 -3 -5 3 -10 13 -10 11 0 22 -7 26 -15 4 -11 -1 -15 -17 -15 -18 0 -19 -2
-7 -10 9 -6 11 -13 5 -17 -5 -5 -11 -23 -11 -41 -2 -27 0 -31 12 -21 12 10 13
9 8 -5 -3 -9 -1 -16 6 -16 14 0 10 52 -5 62 -6 5 -5 8 3 8 6 0 12 7 12 15 0 8
5 15 10 15 10 0 14 -13 11 -42 -1 -10 2 -26 8 -35 8 -14 10 -8 11 28 0 35 -4
49 -17 53 -23 9 -1 30 23 22 11 -3 23 -5 29 -3 5 1 12 -10 15 -25 3 -18 9 -25
16 -20 16 9 22 64 8 69 -6 2 -9 -9 -8 -29 l3 -33 -11 33 c-10 30 -15 33 -40
28 -24 -5 -29 -2 -34 22 -9 43 -12 48 -15 27z"/>
<path d="M1501 401 c-7 -5 -3 -12 14 -19 14 -6 25 -8 25 -3 0 5 9 7 20 4 12
-3 20 0 20 8 0 7 -3 10 -6 7 -3 -4 -18 -3 -33 2 -16 4 -34 5 -40 1z"/>
<path d="M230 390 c0 -15 -43 -30 -51 -18 -3 5 -6 -4 -5 -21 1 -37 2 -37 27
-8 13 16 19 18 19 7 1 -8 5 -5 11 9 6 14 15 21 23 18 8 -3 17 -1 20 6 4 7 4
-9 2 -35 -3 -36 0 -45 10 -41 8 3 14 0 14 -6 0 -20 -37 -12 -43 9 -7 27 -48
21 -62 -8 -10 -22 -32 -25 -28 -4 3 12 -23 10 -34 -3 -4 -4 -3 -5 4 -1 6 3 15
1 18 -5 11 -17 1 -19 -33 -10 -22 7 -32 6 -32 -1 0 -7 -4 -7 -13 -1 -6 6 -21
13 -31 17 -16 5 -17 4 -6 -9 10 -13 9 -15 -8 -15 -11 0 -22 -7 -26 -15 -3 -8
-1 -15 5 -15 6 0 9 -7 6 -15 -8 -19 13 -31 24 -14 5 9 9 10 9 2 0 -6 9 -9 20
-6 14 4 20 1 18 -8 -4 -20 -21 -29 -34 -18 -8 6 -11 3 -9 -13 4 -41 6 -43 16
-20 5 13 13 20 19 17 5 -3 10 -1 10 5 0 6 5 8 10 5 6 -3 10 -1 10 4 0 6 -6 11
-12 12 -7 1 -2 4 12 8 14 5 34 3 45 -2 17 -9 18 -8 8 5 -7 8 -10 18 -6 21 6 6
-20 11 -39 8 -5 0 -8 3 -8 9 0 5 -5 10 -11 10 -5 0 -7 -6 -3 -12 6 -10 3 -9
-8 0 -13 10 -22 11 -37 3 -12 -7 -22 -7 -26 -2 -9 15 23 20 128 19 57 -1 97
-5 97 -11 0 -6 8 -3 18 6 10 10 25 17 33 16 8 0 4 -4 -8 -9 -14 -6 -23 -18
-23 -30 0 -14 -4 -19 -12 -14 -6 4 -4 -3 5 -17 9 -13 17 -31 17 -40 0 -9 7
-19 15 -23 18 -7 20 5 3 23 -10 11 -10 13 0 7 6 -4 12 -3 12 2 0 6 -7 12 -15
16 -29 11 -17 46 20 62 36 15 61 11 49 -7 -3 -5 -10 -7 -15 -4 -5 4 -16 2 -25
-3 -11 -6 -13 -11 -5 -16 6 -4 11 -2 11 3 0 6 5 11 12 11 6 0 8 -3 5 -6 -3 -4
0 -16 8 -26 7 -11 11 -26 9 -33 -3 -7 2 -15 11 -19 9 -3 13 -10 10 -16 -3 -5
-1 -10 6 -10 7 0 26 -12 41 -27 15 -15 28 -23 28 -17 -1 12 -30 51 -30 39 0
-4 -9 0 -20 10 -11 10 -17 22 -14 26 3 5 0 9 -6 9 -6 0 -10 10 -8 22 2 13 -2
23 -9 23 -14 0 -30 15 -17 16 9 1 47 7 61 11 4 1 28 -5 52 -12 27 -9 46 -10
48 -5 2 6 48 9 113 7 l110 -3 0 25 c0 26 0 26 85 26 73 0 84 -2 78 -16 -3 -9
0 -20 8 -26 9 -6 -12 -8 -63 -6 -43 2 -78 0 -78 -4 0 -5 36 -8 80 -8 l81 0 -7
35 c-5 26 -2 36 9 41 9 3 18 12 21 20 4 10 -3 9 -29 -4 -42 -23 -211 -31 -202
-10 22 55 22 54 3 36 -10 -10 -32 -18 -51 -18 -26 0 -33 -3 -29 -15 4 -8 14
-15 23 -15 14 0 14 2 1 10 -12 8 -9 10 11 10 37 0 48 -30 11 -31 -17 -1 -20
-3 -9 -6 9 -2 17 -9 17 -14 0 -12 -7 -11 -33 3 -12 6 -33 13 -47 14 -14 1 -19
0 -13 -3 21 -8 15 -23 -8 -23 -12 0 -28 8 -36 18 -9 12 -13 13 -11 2 3 -16
-23 -21 -34 -5 -5 6 -8 6 -8 -2 0 -7 -7 -13 -15 -13 -10 0 -15 7 -13 18 4 21
-32 24 -48 3 -9 -11 -17 -12 -50 -1 -21 7 -40 12 -42 11 -7 -5 -41 42 -36 50
3 5 1 9 -3 9 -5 0 -8 15 -8 33 0 29 -3 32 -32 35 -19 2 -33 -1 -33 -8z m17
-102 c2 -21 -17 -24 -35 -6 -18 18 -15 26 11 24 14 0 24 -8 24 -18z m223 -48
c0 -5 -9 -6 -20 -3 -11 3 -17 9 -15 14 7 10 35 1 35 -11z m185 -1 c-10 -15
-25 -10 -19 6 4 8 10 12 15 9 5 -3 7 -10 4 -15z m-575 -9 c0 -5 -4 -10 -10
-10 -5 0 -10 5 -10 10 0 6 5 10 10 10 6 0 10 -4 10 -10z m50 -10 c0 -5 -8 -10
-17 -10 -15 0 -16 2 -3 10 19 12 20 12 20 0z"/>
<path d="M1705 380 c-3 -5 -1 -10 4 -10 6 0 11 5 11 10 0 6 -2 10 -4 10 -3 0
-8 -4 -11 -10z"/>
<path d="M17 371 c-17 -6 -16 -8 8 -19 32 -15 35 -15 35 -1 0 5 -5 7 -12 3 -8
-5 -9 -2 -5 9 7 18 2 20 -26 8z"/>
<path d="M64 364 c3 -9 6 -18 6 -20 0 -2 7 -4 15 -4 17 0 20 -16 6 -25 -6 -3
-28 -1 -50 4 -23 5 -41 5 -41 1 0 -6 71 -20 105 -20 7 0 15 9 18 20 4 14 -2
23 -23 32 -16 7 -26 16 -24 20 3 4 0 8 -6 8 -7 0 -9 -7 -6 -16z"/>
<path d="M138 364 c-9 -8 3 -44 14 -44 5 0 7 4 4 9 -4 5 0 12 6 14 8 3 6 6 -5
6 -10 1 -15 6 -12 11 7 11 2 14 -7 4z"/>
<path d="M845 360 c-3 -5 -1 -10 4 -10 6 0 11 5 11 10 0 6 -2 10 -4 10 -3 0
-8 -4 -11 -10z"/>
<path d="M2246 347 c3 -10 9 -15 12 -12 3 3 0 11 -7 18 -10 9 -11 8 -5 -6z"/>
<path d="M2575 350 c-3 -5 1 -10 10 -10 9 0 13 5 10 10 -3 6 -8 10 -10 10 -2
0 -7 -4 -10 -10z"/>
<path d="M2709 347 c7 -9 -2 -12 -32 -13 -23 -1 -61 -4 -84 -7 -28 -3 -40 -1
-36 6 4 6 0 8 -8 5 -45 -17 -61 -20 -55 -9 10 16 -11 13 -39 -5 -15 -10 -25
-12 -25 -5 0 6 -5 11 -11 11 -6 0 -9 -7 -5 -15 7 -18 -10 -20 -18 -2 -3 6 -3
-4 0 -23 4 -28 3 -31 -6 -18 -6 9 -16 16 -23 14 -6 -1 -9 -1 -4 1 14 8 7 19
-12 19 -11 0 -17 -4 -15 -8 3 -4 0 -8 -6 -8 -6 0 -2 -10 9 -21 14 -16 28 -20
50 -17 17 2 32 2 34 -1 2 -3 2 -1 1 6 -2 7 5 21 14 32 18 21 37 24 165 22 60
-1 77 -4 77 -16 0 -23 39 -38 86 -32 23 2 47 1 54 -3 19 -12 -74 -20 -234 -20
-108 -1 -146 -4 -133 -11 9 -5 21 -8 26 -4 5 3 12 1 16 -5 4 -7 -38 -10 -122
-10 -74 0 -122 -4 -115 -9 8 -4 13 -11 13 -15 -3 -19 0 -26 10 -26 5 0 7 5 3
12 -5 7 -3 8 7 2 8 -4 25 -7 38 -5 13 1 27 -3 32 -10 6 -10 11 -10 21 -1 8 6
25 9 39 7 13 -3 38 -8 56 -11 24 -4 30 -10 26 -22 -3 -13 -2 -14 4 -4 6 7 17
10 28 6 16 -6 15 -4 -3 14 -12 12 -26 22 -32 22 -5 0 -10 5 -10 11 0 6 7 9 15
5 12 -4 14 0 11 18 l-4 24 121 1 c67 1 131 4 142 6 11 2 67 4 124 4 121 1 131
8 18 12 -60 3 -76 6 -72 17 2 7 1 10 -4 7 -5 -3 -12 -1 -15 3 -6 10 -48 8 -67
-4 -7 -4 -10 -3 -6 3 9 14 -16 23 -45 18 -22 -4 -22 -4 -4 10 14 11 23 12 33
4 10 -9 13 -8 13 5 0 9 -4 16 -10 16 -5 0 -9 5 -7 11 1 6 -6 13 -16 14 -13 3
-15 0 -8 -8z m-239 -167 c0 -5 -4 -10 -9 -10 -6 0 -13 5 -16 10 -3 6 1 10 9
10 9 0 16 -4 16 -10z"/>
<path d="M2754 338 c3 -13 6 -29 6 -35 0 -7 5 -13 11 -13 6 0 8 9 4 23 -5 19
-4 20 5 5 12 -20 30 -24 30 -7 0 5 -3 8 -7 6 -10 -5 -43 30 -35 37 3 3 0 6 -7
6 -9 0 -11 -8 -7 -22z"/>
<path d="M2820 349 c0 -6 -4 -7 -10 -4 -17 10 -11 -9 11 -35 l21 -25 -6 27
c-3 15 -2 30 4 33 5 3 7 0 4 -8 -3 -10 5 -18 25 -25 25 -9 29 -8 24 4 -3 8 1
14 10 14 21 0 31 -17 15 -24 -7 -3 -3 -3 10 0 28 7 29 -7 1 -25 -16 -10 -23
-10 -29 -1 -5 8 -9 8 -13 -2 -7 -20 20 -20 65 -1 l38 16 -22 18 c-11 11 -27
19 -35 19 -8 0 -12 3 -10 8 3 4 -7 8 -22 9 -15 1 -39 4 -54 7 -15 2 -27 0 -27
-5z m57 -15 c-3 -3 -12 -4 -19 -1 -8 3 -5 6 6 6 11 1 17 -2 13 -5z"/>
<path d="M1123 329 c-2 -23 3 -25 10 -4 4 8 3 16 -1 19 -4 3 -9 -4 -9 -15z"/>
<path d="M1000 311 c-8 -6 -18 -7 -22 -5 -4 3 -8 -18 -8 -45 0 -38 4 -51 14
-51 11 0 16 14 18 48 2 26 7 46 13 44 10 -2 11 -6 13 -59 1 -18 6 -33 11 -33
6 0 9 25 8 55 -2 57 -13 67 -47 46z"/>
<path d="M1240 305 c0 -8 5 -15 10 -15 6 0 10 7 10 15 0 8 -4 15 -10 15 -5 0
-10 -7 -10 -15z"/>
<path d="M1975 310 c-3 -5 -5 -10 -3 -11 29 -7 36 -5 31 7 -6 16 -19 18 -28 4z"/>
<path d="M1330 299 c0 -5 9 -9 20 -9 11 0 20 2 20 4 0 2 -9 6 -20 9 -11 3 -20
1 -20 -4z"/>
<path d="M1513 288 c-12 -16 -24 -48 -17 -48 2 0 8 10 13 23 8 21 15 22 132
25 68 2 126 6 128 8 2 2 -52 4 -121 4 -89 0 -128 -4 -135 -12z"/>
<path d="M2520 275 c0 -14 5 -25 10 -25 6 0 10 11 10 25 0 14 -4 25 -10 25 -5
0 -10 -11 -10 -25z"/>
<path d="M1365 280 c-74 -5 -80 -7 -83 -28 -3 -22 0 -23 35 -21 21 2 45 -1 52
-6 10 -5 12 -4 7 4 -5 8 5 11 36 9 44 -3 67 -23 68 -61 0 -14 5 -16 25 -11 16
4 25 2 25 -5 0 -7 -6 -11 -14 -9 -8 2 -15 0 -15 -4 -3 -28 2 -28 29 2 17 18
30 28 30 21 0 -7 5 -9 11 -5 8 4 7 9 -2 15 -10 6 -8 9 8 9 20 0 21 -2 11 -33
-6 -17 -15 -38 -21 -45 -5 -7 -7 -15 -5 -18 3 -3 15 7 27 22 14 18 27 25 41
21 13 -3 20 0 20 9 0 8 6 14 14 14 8 0 16 7 20 15 3 9 12 12 23 8 15 -6 16 -4
6 9 -7 8 -10 18 -6 22 4 4 0 4 -10 0 -10 -3 -17 -1 -17 6 0 6 -5 8 -11 4 -6
-3 -7 -9 -3 -13 20 -14 10 -41 -10 -28 -2 1 -13 -7 -25 -17 -19 -17 -21 -18
-21 -2 0 11 5 14 12 10 8 -5 9 -2 5 10 -4 10 -7 23 -7 29 0 7 -4 7 -9 -2 -8
-12 -14 -10 -33 10 -12 14 -17 17 -10 8 9 -12 10 -19 3 -24 -6 -3 -11 -1 -11
4 0 6 -5 11 -11 11 -6 0 -8 -9 -4 -20 4 -11 2 -20 -4 -20 -6 0 -11 6 -11 14 0
21 -26 40 -36 25 -5 -9 -11 -7 -21 7 -8 10 -23 20 -33 20 -11 1 -46 3 -77 4
l-58 3 45 8 c25 4 57 5 72 3 14 -3 29 -1 32 5 10 15 -2 16 -89 11z m145 -80
c0 -11 -4 -20 -9 -20 -7 0 -8 17 -2 38 4 10 11 -2 11 -18z"/>
<path d="M1476 275 c4 -8 8 -15 10 -15 2 0 4 7 4 15 0 8 -4 15 -10 15 -5 0 -7
-7 -4 -15z"/>
<path d="M1252 250 c0 -19 2 -27 5 -17 2 9 2 25 0 35 -3 9 -5 1 -5 -18z"/>
<path d="M1531 244 c0 -11 3 -14 6 -6 3 7 2 16 -1 19 -3 4 -6 -2 -5 -13z"/>
<path d="M1580 251 c0 -6 4 -13 10 -16 6 -3 7 1 4 9 -7 18 -14 21 -14 7z"/>
<path d="M1627 244 c-8 -8 14 -54 24 -49 8 6 0 43 -11 50 -4 2 -10 2 -13 -1z"/>
<path d="M176 221 c-4 -6 -2 -11 5 -11 7 0 9 -3 6 -7 -9 -9 13 -34 24 -27 5 3
9 10 9 16 0 6 -3 8 -7 4 -4 -3 -12 3 -19 15 -7 14 -14 18 -18 10z"/>
<path d="M206 219 c3 -5 12 -9 21 -9 19 0 9 13 -12 16 -8 1 -13 -2 -9 -7z"/>
<path d="M415 220 c-3 -5 1 -10 10 -10 9 0 13 5 10 10 -3 6 -8 10 -10 10 -2 0
-7 -4 -10 -10z"/>
<path d="M1342 212 c1 -4 -3 -17 -10 -28 -6 -12 -8 -24 -4 -28 3 -4 0 -11 -7
-16 -8 -4 -15 -19 -17 -33 -2 -21 1 -23 23 -19 18 3 23 10 20 23 -7 25 12 29
47 12 28 -15 29 -15 22 12 -4 17 -3 24 4 20 5 -3 10 -14 11 -23 0 -10 6 -5 14
13 12 26 14 27 15 8 0 -12 4 -24 9 -27 4 -3 5 13 1 35 -10 55 -49 78 -51 31 0
-12 -3 -10 -10 6 -5 13 -14 20 -20 17 -7 -5 -5 -13 5 -24 21 -23 20 -30 -4
-24 -11 3 -17 10 -13 16 3 6 1 7 -5 3 -18 -11 -14 -24 9 -31 11 -4 19 -9 16
-11 -2 -2 -19 2 -38 10 -19 9 -28 15 -20 16 8 0 11 3 8 7 -4 3 1 11 10 18 15
11 15 12 0 18 -9 3 -16 3 -15 -1z m100 -47 c-11 -21 -25 -4 -16 20 4 10 10 13
16 7 7 -7 7 -16 0 -27z"/>
<path d="M2074 189 c1 -23 4 -25 26 -19 18 5 34 0 58 -16 20 -13 27 -24 20
-27 -7 -2 -10 -7 -7 -11 4 -4 14 0 22 9 20 19 27 19 27 0 0 -17 16 -20 25 -5
3 6 14 10 23 10 16 -1 16 -1 0 -11 -10 -5 -18 -15 -18 -20 0 -6 5 -7 10 -4 6
3 10 2 10 -4 0 -5 9 -13 21 -16 11 -4 18 -12 16 -18 -2 -7 3 -17 12 -24 9 -6
12 -15 8 -19 -4 -5 -12 -2 -16 5 -9 14 -31 7 -31 -9 0 -11 41 -9 58 3 9 7 9
13 1 23 -6 8 -8 14 -5 14 4 0 -4 12 -18 27 -30 32 -27 44 4 15 12 -11 32 -19
45 -17 16 1 22 -2 18 -11 -2 -7 -12 -10 -21 -7 -14 4 -15 3 -2 -5 8 -6 17 -9
21 -6 4 2 10 -1 12 -6 3 -6 4 -5 3 2 -2 7 3 21 12 31 10 12 11 17 3 17 -7 0
-9 5 -5 13 6 9 5 9 -8 -1 -12 -10 -20 -8 -41 8 -14 11 -29 19 -34 18 -4 -1
-25 4 -46 11 -21 7 -50 11 -64 8 -15 -3 -27 1 -30 9 -3 8 -9 11 -14 8 -5 -3
-9 -1 -9 4 0 5 12 10 26 10 18 0 22 -3 13 -9 -10 -6 -10 -9 -2 -9 6 0 15 5 18
10 4 6 11 8 16 5 5 -4 9 3 9 14 0 18 -8 20 -83 23 l-84 3 1 -26z"/>
<path d="M1125 202 c-1 -2 -110 -5 -241 -6 -260 -4 -310 -9 -317 -34 -3 -14 3
-16 40 -13 32 2 43 7 43 20 0 15 30 16 334 16 272 0 333 2 328 13 -3 10 -27
13 -94 10 -49 -2 -91 -4 -93 -6z"/>
<path d="M1728 203 c6 -2 10 -8 8 -12 -3 -4 3 -7 12 -7 9 -1 47 -4 85 -6 61
-5 67 -4 67 13 0 17 -8 19 -92 18 -51 0 -87 -3 -80 -6z"/>
<path d="M2540 188 c0 -13 10 -34 21 -48 11 -14 17 -19 13 -11 -5 11 -1 13 22
8 16 -4 79 -11 139 -17 61 -6 144 -14 185 -19 78 -9 95 -6 70 9 -10 7 -11 10
-2 10 6 0 12 9 12 19 0 18 -9 19 -205 13 -140 -3 -205 -2 -205 6 0 5 -10 8
-21 5 -18 -5 -20 -3 -15 15 4 11 2 23 -4 27 -6 4 -10 -3 -10 -17z m430 -70 c0
-11 -12 -10 -30 2 -12 7 -10 9 8 7 12 0 22 -5 22 -9z"/>
<path d="M304 187 c15 -11 22 -28 25 -59 1 -5 8 -8 16 -8 8 0 14 -3 13 -7 -2
-5 0 -9 5 -10 4 -2 7 -1 7 2 0 3 0 12 0 20 0 9 -6 12 -17 8 -13 -5 -15 -2 -11
15 4 12 2 22 -3 22 -5 0 -9 6 -9 13 0 7 -10 13 -21 14 -19 2 -20 1 -5 -10z"/>
<path d="M396 185 c-3 -9 -2 -13 4 -10 6 3 10 -1 10 -10 0 -10 5 -13 12 -9 8
5 9 2 5 -10 -4 -10 -3 -15 3 -11 6 3 13 -1 16 -9 3 -9 12 -16 19 -16 19 0 26
-38 8 -44 -16 -7 -8 -26 10 -26 7 0 6 4 -3 10 -13 8 -12 10 3 10 20 0 22 -11
5 -28 -9 -9 -9 -15 -1 -23 20 -20 33 1 33 57 0 52 -1 54 -27 55 -18 1 -22 3
-10 6 30 8 73 33 57 33 -13 0 -13 1 0 10 12 8 11 10 -7 10 -13 0 -23 -6 -23
-12 0 -9 -4 -8 -10 2 -5 8 -10 11 -10 7 0 -5 -10 -1 -22 7 -26 19 -38 20 -38
5 0 -5 5 -7 10 -4 6 4 9 2 8 -3 -2 -6 2 -11 7 -12 20 -4 47 -22 41 -27 -3 -3
-12 0 -21 7 -10 8 -15 9 -15 1 0 -6 -4 -11 -10 -11 -5 0 -10 6 -10 13 0 8 -8
22 -19 31 -17 15 -19 15 -25 1z"/>
<path d="M7 171 c-3 -14 -1 -18 9 -14 8 3 14 11 14 19 0 21 -17 17 -23 -5z"/>
<path d="M133 175 c-10 -10 -9 -16 2 -25 8 -7 13 -16 10 -20 -3 -5 4 -6 14 -3
21 5 35 39 20 49 -5 3 -9 -4 -9 -15 0 -23 -15 -28 -26 -10 -3 6 -1 15 6 19 7
4 8 10 4 13 -5 3 -14 -1 -21 -8z"/>
<path d="M212 164 c-12 -8 -19 -20 -16 -26 4 -6 0 -14 -7 -19 -12 -7 -11 -9 1
-9 17 0 42 14 41 24 -3 22 0 36 8 36 6 0 6 -12 1 -29 -7 -24 -5 -29 6 -24 8 3
12 9 9 13 -3 5 -1 11 5 15 17 10 11 35 -8 35 -10 0 -28 -7 -40 -16z"/>
<path d="M1700 159 c0 -4 8 -13 18 -18 16 -10 16 -10 0 -11 -9 0 -20 5 -23 10
-12 20 -34 9 -40 -20 -4 -17 -11 -30 -15 -30 -5 0 -7 6 -4 14 4 10 -2 12 -20
9 -34 -7 -33 -19 2 -26 20 -4 32 -1 44 15 10 11 15 24 12 29 -3 5 -1 9 5 9 5
0 11 -5 13 -11 2 -6 23 -12 46 -12 28 -1 39 -4 32 -11 -5 -5 -10 -17 -10 -26
0 -11 5 -9 18 8 16 21 24 23 73 18 40 -5 50 -3 36 5 -9 5 -22 7 -29 3 -7 -4
-8 -3 -4 4 5 8 -2 11 -23 8 -21 -2 -28 0 -24 10 3 8 0 14 -6 14 -6 0 -14 1
-18 2 -44 10 -83 14 -83 7z m79 -18 c9 -6 5 -8 -13 -8 -14 0 -26 3 -26 8 0 11
21 11 39 0z"/>
<path d="M1920 161 c-20 -4 -41 -10 -47 -14 -6 -4 -13 -2 -15 4 -2 6 -11 7
-23 3 -19 -8 -18 -9 5 -14 14 -4 35 -3 47 1 12 5 25 4 28 -1 3 -4 0 -10 -7
-12 -8 -3 -6 -6 4 -10 11 -5 15 -2 13 10 -1 12 10 20 39 29 46 13 15 15 -44 4z"/>
<path d="M100 152 c0 -6 -7 -9 -15 -6 -8 4 -15 1 -15 -6 0 -6 5 -8 12 -4 7 4
8 3 4 -5 -4 -6 -21 -10 -37 -9 -22 2 -28 6 -24 18 3 9 -1 8 -10 -4 -20 -26
-19 -31 10 -50 32 -21 38 -20 25 4 -7 14 -7 20 0 20 5 0 10 -4 10 -9 0 -5 7
-12 16 -15 14 -5 15 -4 4 9 -10 12 -10 15 3 15 14 0 31 39 22 49 -3 2 -5 -1
-5 -7z m-75 -42 c3 -5 1 -10 -4 -10 -6 0 -11 5 -11 10 0 6 2 10 4 10 3 0 8 -4
11 -10z"/>
<path d="M2016 153 c-8 -8 -13 -10 -46 -12 -11 0 -20 -6 -20 -11 0 -12 38 -5
85 16 24 10 26 13 9 13 -11 1 -24 -2 -28 -6z"/>
<path d="M1547 131 c-4 -17 -3 -21 5 -13 5 5 8 16 6 23 -3 8 -7 3 -11 -10z"/>
<path d="M2383 142 c-8 -5 -9 -13 -3 -22 6 -8 10 -10 10 -4 0 7 10 9 25 6 15
-2 22 -9 18 -16 -4 -6 -6 -22 -4 -35 1 -13 -1 -21 -6 -18 -5 3 -10 -3 -10 -14
-1 -10 7 -24 18 -29 11 -7 19 -7 19 -1 0 5 -6 11 -12 14 -7 2 -10 7 -7 11 4 4
14 0 22 -9 19 -18 39 -19 106 -3 35 8 51 16 51 27 0 12 -2 13 -8 4 -5 -7 -21
-14 -38 -15 -16 -1 -34 -6 -41 -10 -7 -6 -14 -4 -19 3 -4 8 -3 9 4 5 7 -4 12
-2 12 3 0 6 15 11 34 11 19 0 38 5 41 10 9 15 35 12 35 -4 0 -10 7 -12 23 -9
45 12 4 -12 -51 -29 l-57 -18 50 6 c28 3 55 9 60 14 10 7 50 19 90 27 11 2 24
-2 30 -9 6 -8 34 -13 75 -13 36 0 84 -3 108 -6 32 -5 42 -3 42 7 0 8 -6 14
-12 15 -7 0 -20 2 -28 4 -8 1 -46 5 -85 9 -38 3 -92 9 -119 12 -33 4 -51 2
-56 -6 -6 -9 -12 -9 -29 0 -18 9 -20 14 -10 26 10 12 9 13 -6 8 -14 -6 -16 -4
-11 7 4 8 1 6 -6 -3 -16 -18 -42 -18 -60 0 -16 16 -25 15 -32 -4 -5 -14 -4
-15 8 -5 10 8 16 9 21 1 8 -14 -4 -32 -18 -27 -7 2 -20 0 -29 -4 -26 -14 -34
10 -9 27 12 8 21 20 21 26 0 7 -7 3 -15 -8 -9 -12 -14 -14 -15 -6 0 9 -7 11
-22 6 -20 -6 -21 -5 -9 10 15 18 1 22 -16 5 -8 -8 -13 -8 -17 0 -4 6 -16 11
-27 11 -11 0 -17 5 -14 10 7 12 -5 13 -22 2z m71 -53 c-4 -8 1 -9 16 -4 16 5
21 4 18 -6 -3 -8 -10 -14 -15 -14 -6 0 -15 -4 -20 -9 -5 -5 -3 -6 5 -2 7 5 12
1 12 -10 0 -16 1 -16 15 2 14 18 14 18 8 -3 -6 -26 -11 -28 -35 -9 -19 14 -25
66 -7 66 5 0 7 -5 3 -11z"/>
<path d="M115 130 c-3 -5 -1 -10 4 -10 6 0 11 5 11 10 0 6 -2 10 -4 10 -3 0
-8 -4 -11 -10z"/>
<path d="M646 131 c-5 -8 -4 -16 5 -22 11 -7 11 -12 -5 -26 -18 -17 -18 -17
-13 0 5 12 1 17 -13 17 -11 0 -20 -6 -20 -12 0 -7 -10 -1 -21 15 -11 15 -25
27 -31 27 -6 0 -4 -8 5 -18 10 -10 17 -25 17 -33 0 -11 13 -15 48 -16 26 -1
101 -6 167 -12 137 -12 326 -13 432 -3 64 7 72 6 76 -10 3 -10 0 -18 -6 -18
-7 0 -4 -5 6 -11 14 -8 22 -7 33 8 9 10 12 11 8 3 -4 -9 -3 -12 2 -7 5 5 9 16
9 25 0 9 6 16 13 14 6 -1 12 4 12 11 0 8 -12 14 -30 14 -23 0 -30 -5 -30 -20
0 -37 -17 -2 -19 41 -1 15 -31 16 -31 1 0 -5 -5 -7 -10 -4 -8 5 -7 12 2 23 11
14 9 14 -8 0 -18 -16 -47 -18 -280 -18 -142 0 -269 3 -281 6 -12 3 -23 13 -25
23 -3 13 -5 13 -12 2z m422 -47 c106 3 197 8 202 11 6 3 10 0 10 -8 0 -8 -6
-17 -12 -19 -22 -8 -500 -2 -550 7 -83 14 -52 21 55 12 56 -4 189 -6 295 -3z
m-448 -4 c0 -5 -5 -10 -11 -10 -5 0 -7 5 -4 10 3 6 8 10 11 10 2 0 4 -4 4 -10z"/>
<path d="M2106 133 c-10 -10 -7 -25 4 -18 6 3 10 1 10 -5 0 -8 -11 -10 -32 -6
-28 5 -29 4 -10 -4 23 -10 30 -34 12 -45 -5 -3 -10 -1 -10 4 0 6 -3 11 -8 11
-4 0 -7 -16 -8 -35 -1 -30 2 -35 23 -35 12 0 22 3 22 8 -3 19 2 26 11 12 5 -8
25 -15 44 -16 31 -1 36 2 36 22 0 13 5 26 12 30 8 5 9 2 5 -9 -8 -20 1 -47 15
-47 7 0 6 5 -1 13 -9 11 -5 13 18 12 20 -1 31 4 34 15 2 9 -2 17 -9 17 -7 0
-11 -4 -8 -9 3 -4 -4 -8 -15 -8 -20 0 -29 14 -13 23 4 2 1 2 -5 1 -7 -2 -13 2
-13 8 0 6 -3 8 -7 5 -3 -4 -11 -3 -17 2 -8 7 -11 -2 -9 -32 2 -23 0 -36 -3
-29 -3 6 -10 10 -15 6 -5 -3 -9 2 -9 11 0 9 5 13 10 10 13 -8 13 6 0 39 -5 14
-15 26 -22 26 -11 0 -10 -2 0 -8 8 -5 10 -16 6 -27 -6 -14 -4 -16 6 -10 9 5
11 4 6 -3 -10 -17 -26 -15 -26 3 0 8 -4 15 -10 15 -15 0 -12 -17 6 -35 23 -23
8 -32 -16 -10 -18 17 -19 20 -5 41 8 13 15 30 15 38 0 17 -14 28 -24 19z m-6
-95 c0 -10 -17 -10 -24 0 -3 5 1 9 9 9 8 0 15 -4 15 -9z"/>
<path d="M2145 130 c3 -5 8 -10 11 -10 2 0 4 5 4 10 0 6 -5 10 -11 10 -5 0 -7
-4 -4 -10z"/>
<path d="M2027 119 c7 -7 15 -10 18 -7 3 3 -2 9 -12 12 -14 6 -15 5 -6 -5z"/>
<path d="M2590 119 c0 -5 5 -7 10 -4 6 3 10 8 10 11 0 2 -4 4 -10 4 -5 0 -10
-5 -10 -11z"/>
<path d="M320 100 c6 -11 16 -20 23 -19 9 0 9 2 -1 6 -6 2 -10 8 -7 13 3 4 -2
11 -10 14 -13 4 -14 2 -5 -14z"/>
<path d="M1367 113 c-12 -12 -7 -19 12 -19 15 0 17 3 9 13 -12 15 -13 15 -21
6z"/>
<path d="M208 87 c-10 -19 -9 -20 4 -10 8 7 18 10 21 6 4 -3 7 0 7 8 0 12 2
11 11 -1 8 -12 10 -12 7 -1 -6 23 -37 21 -50 -2z"/>
<path d="M1516 95 c-3 -9 0 -15 9 -15 16 0 20 16 6 24 -5 3 -11 -1 -15 -9z"/>
<path d="M1732 103 c-6 -2 -10 -9 -6 -14 8 -14 21 -11 21 6 0 8 -1 15 -1 14
-1 0 -7 -3 -14 -6z"/>
<path d="M1945 101 c-3 -6 3 -9 14 -8 11 0 17 5 15 9 -7 11 -22 10 -29 -1z"/>
<path d="M1820 90 c12 -8 11 -10 -7 -10 -13 0 -23 -3 -24 -7 0 -5 -2 -17 -3
-29 -1 -11 3 -21 10 -21 7 0 11 4 9 8 -3 4 1 9 8 12 10 4 13 -2 9 -20 -3 -17
-1 -24 6 -19 5 3 9 18 7 34 -1 15 2 30 7 33 15 9 0 29 -20 29 -15 0 -15 -2 -2
-10z"/>
<path d="M1910 80 c-8 -15 -8 -18 3 -15 8 4 13 -3 14 -16 2 -18 0 -19 -14 -7
-12 9 -15 10 -9 1 5 -9 -2 -13 -25 -13 -27 0 -30 -2 -19 -15 7 -8 24 -15 39
-15 20 0 23 2 11 10 -13 8 -12 10 3 10 9 0 17 -5 17 -11 0 -6 7 -4 15 5 15 15
45 12 45 -4 0 -5 14 -8 30 -8 32 1 40 12 16 21 -8 3 -16 1 -18 -5 -3 -8 -11
-7 -26 4 -12 8 -19 18 -14 23 4 4 -3 3 -15 -3 -17 -9 -22 -9 -27 3 -3 8 3 19
12 25 15 9 15 10 -3 8 -12 -2 -19 2 -17 10 3 18 -6 15 -18 -8z"/>
<path d="M2010 84 c0 -8 7 -14 16 -14 11 0 14 -6 9 -20 -4 -13 -2 -20 7 -20
13 0 22 59 9 61 -3 0 -14 2 -23 4 -10 2 -18 -3 -18 -11z"/>
<path d="M1872 81 c-11 -7 -11 -9 1 -14 9 -3 18 1 21 9 6 16 -2 18 -22 5z"/>
<path d="M1983 83 c-15 -5 -17 -23 -4 -23 5 0 11 7 15 15 3 8 4 15 3 14 -1 0
-8 -3 -14 -6z"/>
<path d="M235 60 c-3 -6 1 -7 9 -4 18 7 21 14 7 14 -6 0 -13 -4 -16 -10z"/>
<path d="M542 48 c7 -15 15 -23 17 -17 2 6 -4 18 -13 27 -15 15 -15 15 -4 -10z"/>
<path d="M1858 43 c6 -2 18 -2 25 0 6 3 1 5 -13 5 -14 0 -19 -2 -12 -5z"/>
<path d="M1996 38 c3 -4 9 -8 15 -8 5 0 9 4 9 8 0 5 -7 9 -15 9 -8 0 -12 -4
-9 -9z"/>
<path d="M745 20 c-4 -6 -9 -9 -13 -6 -4 2 -27 0 -52 -4 -43 -8 -43 -8 17 -6
33 0 59 4 57 8 -2 4 6 9 18 11 23 4 23 4 1 6 -12 0 -25 -4 -28 -9z"/>
<path d="M997 9 c7 -7 15 -10 18 -7 3 3 -2 9 -12 12 -14 6 -15 5 -6 -5z"/>
<path d="M1085 10 c3 -5 11 -10 16 -10 6 0 7 5 4 10 -3 6 -11 10 -16 10 -6 0
-7 -4 -4 -10z"/>
<path d="M1127 9 c7 -7 15 -10 18 -7 3 3 -2 9 -12 12 -14 6 -15 5 -6 -5z"/>
<path d="M1240 10 c-9 -6 -10 -10 -3 -10 6 0 15 5 18 10 8 12 4 12 -15 0z"/>
<path d="M2250 10 c0 -5 5 -10 11 -10 5 0 7 5 4 10 -3 6 -8 10 -11 10 -2 0 -4
-4 -4 -10z"/>
<path d="M1958 3 c7 -3 16 -2 19 1 4 3 -2 6 -13 5 -11 0 -14 -3 -6 -6z"/>
</g>
</svg>
