<?xml version="1.0" standalone="no"?>
<!DOCTYPE svg PUBLIC "-//W3C//DTD SVG 20010904//EN"
 "http://www.w3.org/TR/2001/REC-SVG-20010904/DTD/svg10.dtd">
<svg version="1.0" xmlns="http://www.w3.org/2000/svg"
 width="900.000000pt" height="600.000000pt" viewBox="0 0 900.000000 600.000000"
 preserveAspectRatio="xMidYMid meet">
<metadata>
Created by potrace 1.10, written by Peter Selinger 2001-2011
</metadata>
<g transform="translate(0.000000,600.000000) scale(0.100000,-0.100000)"
fill="#000000" stroke="none">
<path d="M4310 5651 c0 -5 7 -14 15 -21 11 -9 15 -32 15 -82 0 -61 2 -69 18
-66 13 3 18 15 20 62 4 75 -12 116 -44 116 -13 0 -24 -4 -24 -9z"/>
<path d="M4347 5454 c-13 -13 -7 -71 8 -84 12 -10 15 -7 20 13 12 47 -6 93
-28 71z"/>
<path d="M4377 5323 c-3 -4 -7 -116 -8 -248 l-4 -240 23 -3 23 -4 -3 241 c-2
162 -7 244 -14 251 -7 7 -14 8 -17 3z"/>
<path d="M4250 5054 c0 -21 4 -33 10 -29 6 3 10 19 10 36 0 16 -4 29 -10 29
-5 0 -10 -16 -10 -36z"/>
<path d="M4258 4984 c-5 -4 -8 -25 -8 -46 0 -39 -13 -74 -35 -93 -6 -5 -18
-30 -25 -55 -8 -25 -33 -88 -57 -139 -25 -52 -47 -109 -50 -125 -3 -17 -14
-42 -25 -55 -17 -22 -24 -51 -13 -51 3 0 18 11 33 25 15 14 32 25 39 25 14 0
26 32 18 52 -6 16 19 83 35 93 15 9 40 73 40 102 0 14 16 44 35 67 31 38 35
49 34 97 -2 66 -11 113 -21 103z"/>
<path d="M4350 4748 c0 -77 13 -108 43 -108 14 0 42 -88 53 -162 6 -46 7 -48
40 -48 20 0 34 -5 34 -12 1 -7 0 -109 0 -225 -1 -207 0 -213 20 -213 19 0 20
4 13 213 l-6 212 31 35 c38 41 40 50 10 50 -46 0 -66 11 -60 32 3 11 -4 32
-17 48 -11 16 -21 44 -21 63 0 18 -7 42 -15 53 -8 10 -15 33 -15 51 0 35 -15
52 -24 27 -10 -27 -7 -57 10 -75 20 -22 12 -49 -13 -49 -14 0 -21 13 -29 58
-6 31 -21 73 -33 92 l-21 35 0 -77z"/>
<path d="M4285 4610 c-3 -6 -3 -19 0 -31 5 -15 2 -22 -14 -26 -12 -3 -21 -11
-21 -18 0 -8 -3 -20 -6 -29 -4 -10 -1 -16 9 -16 9 0 18 -4 21 -9 9 -14 11
-445 2 -459 -4 -7 -4 -26 -1 -43 8 -33 30 -36 49 -6 9 14 7 21 -7 32 -16 11
-17 18 -8 52 6 21 11 112 11 202 l0 163 35 32 c31 29 47 66 28 66 -5 0 -23 9
-41 20 -28 17 -32 23 -22 35 7 8 10 22 6 30 -6 17 -32 20 -41 5z"/>
<path d="M4220 4585 c0 -16 6 -25 15 -25 9 0 15 9 15 25 0 16 -6 25 -15 25 -9
0 -15 -9 -15 -25z"/>
<path d="M4381 4211 c1 -144 -3 -215 -11 -231 -26 -48 25 -102 80 -85 20 6 22
12 16 52 -3 25 -6 133 -6 240 l0 193 -24 10 c-13 5 -27 14 -31 19 -21 35 -26
-3 -24 -198z"/>
<path d="M4087 4395 c-25 -10 -26 -13 -13 -31 14 -18 16 -18 31 -3 9 9 15 23
13 31 -2 12 -8 13 -31 3z"/>
<path d="M4160 4328 c0 -7 3 -24 7 -36 4 -18 8 -20 14 -10 14 22 10 58 -6 58
-8 0 -15 -6 -15 -12z"/>
<path d="M4077 4303 c-3 -5 -7 -76 -8 -158 l-2 -150 -34 -41 c-18 -23 -33 -49
-33 -58 0 -10 -9 -20 -20 -23 -11 -3 -20 -12 -20 -19 0 -8 -3 -14 -7 -14 -5 0
-21 -16 -37 -36 -24 -30 -25 -34 -7 -25 11 7 21 16 21 21 0 6 9 10 19 10 10 0
21 7 25 15 3 8 17 15 31 15 21 0 25 5 25 30 0 29 4 34 50 69 l25 19 -2 167
c-1 149 -9 205 -26 178z"/>
<path d="M8833 4083 c-7 -2 -13 -12 -13 -20 0 -13 3 -13 16 -2 12 10 20 10 34
1 19 -12 30 -7 30 15 0 13 -41 17 -67 6z"/>
<path d="M8598 4069 c-10 -5 -18 -18 -18 -28 0 -29 -25 -45 -40 -26 -16 20
-30 19 -45 -2 -13 -18 -32 -13 -76 19 -13 9 -27 7 -65 -6 -32 -11 -86 -18
-155 -20 -93 -2 -110 -5 -139 -26 -27 -19 -36 -21 -51 -12 -10 7 -29 12 -42
12 -25 0 -65 -35 -53 -47 10 -10 365 -5 401 6 17 5 72 12 123 15 52 3 99 9
105 13 7 4 20 6 29 5 35 -6 56 16 60 63 3 46 -3 53 -34 34z"/>
<path d="M8970 4030 c0 -5 7 -10 15 -10 8 0 15 5 15 10 0 6 -7 10 -15 10 -8 0
-15 -4 -15 -10z"/>
<path d="M7820 3955 c-7 -9 -20 -13 -28 -10 -8 3 -56 -2 -106 -11 -123 -22
-119 -20 -107 -43 12 -21 15 -21 181 0 112 14 112 14 108 46 -3 32 -29 41 -48
18z"/>
<path d="M4564 3948 c-12 -19 8 -46 39 -51 39 -6 52 4 38 31 -11 20 -68 35
-77 20z"/>
<path d="M4180 3895 c-23 -19 -46 -35 -50 -35 -19 0 -200 -130 -200 -144 0
-12 66 7 77 23 7 9 20 26 29 39 10 13 28 22 43 22 14 1 42 14 61 30 41 36 52
37 90 8 34 -25 31 -38 -11 -38 -37 0 -37 -17 1 -49 28 -25 29 -28 20 -71 -14
-70 -12 -201 4 -232 15 -29 7 -38 -35 -38 -20 0 -26 -24 -9 -35 6 -4 26 -1 44
5 l34 11 2 192 c0 106 1 202 1 215 -1 17 5 22 23 22 13 0 29 -7 36 -15 11 -14
15 -14 32 2 36 32 168 7 206 -40 10 -12 19 -14 38 -6 32 12 65 11 84 -1 13 -9
12 -12 -5 -22 -19 -11 -19 -11 0 -18 18 -6 19 -18 20 -188 0 -139 -3 -182 -12
-182 -7 0 -13 -4 -13 -9 0 -5 25 -12 56 -16 67 -8 68 -27 1 -37 -58 -8 -67
-14 -67 -41 1 -61 23 -80 68 -59 103 49 124 76 82 105 -11 8 -20 20 -18 27 2
7 -8 16 -22 20 l-25 6 -3 163 c-2 106 1 168 8 176 8 9 8 15 0 20 -17 11 -11
49 11 68 11 10 19 26 17 35 -3 14 -18 17 -93 20 -50 2 -95 8 -104 15 -9 8 -44
11 -100 10 -69 -2 -102 3 -169 23 -46 15 -86 32 -89 40 -8 21 -17 18 -63 -21z"/>
<path d="M4348 3774 c-10 -9 1 -377 12 -388 5 -5 10 -24 10 -42 0 -34 21 -59
43 -51 10 4 13 40 11 163 -2 88 -3 164 -3 170 -1 7 -11 14 -22 17 -17 5 -20
11 -17 31 3 15 -1 31 -9 37 -11 10 -11 15 4 31 15 17 15 21 3 28 -17 11 -25
12 -32 4z"/>
<path d="M3860 3678 c0 -37 4 -58 11 -58 9 0 10 -33 6 -120 -5 -110 -7 -122
-29 -140 -12 -11 -32 -19 -44 -20 -26 0 -54 -30 -54 -58 0 -11 -4 -24 -10 -27
-5 -3 -10 -16 -10 -28 -1 -12 -9 -32 -19 -44 -16 -19 -22 -20 -57 -11 -66 18
-125 21 -153 8 -14 -6 -43 -21 -64 -31 -22 -12 -46 -17 -57 -14 -29 9 -26 -19
5 -43 43 -34 21 -57 -95 -101 -63 -24 -104 -30 -228 -35 -79 -3 -102 -8 -150
-32 -31 -16 -61 -40 -67 -52 -10 -23 -57 -42 -105 -42 -34 0 -113 -23 -185
-53 -37 -16 -64 -22 -69 -16 -13 11 -63 12 -70 0 -3 -5 12 -11 34 -15 29 -5
38 -10 34 -21 -4 -9 4 -23 17 -34 l24 -19 -27 -7 c-27 -7 -55 -31 -47 -40 8
-7 83 22 87 34 2 6 14 11 26 11 25 0 50 23 60 57 11 36 51 54 109 51 47 -3 52
-5 52 -27 0 -35 23 -38 36 -4 28 73 41 90 87 112 79 37 103 52 109 67 3 8 16
14 30 14 22 0 24 -3 18 -22 -4 -13 -7 -37 -6 -55 1 -23 -4 -33 -19 -38 -11 -3
-20 -11 -20 -16 0 -6 -15 -17 -32 -25 -31 -13 -43 -19 -85 -44 -10 -6 -27 -14
-38 -19 -12 -5 -27 -16 -34 -25 -7 -9 -25 -16 -40 -16 -14 0 -35 -7 -45 -15
-11 -8 -29 -15 -41 -15 -46 0 -110 -31 -130 -63 -11 -17 -42 -43 -70 -57 -104
-54 -116 -64 -110 -87 6 -26 -35 -63 -71 -63 -32 0 -74 -21 -74 -37 0 -16 1
-16 36 -3 20 8 35 6 66 -7 35 -15 39 -21 35 -46 -7 -48 15 -24 30 33 11 45 11
59 1 78 -11 21 -10 26 7 39 11 8 36 22 55 30 19 8 43 22 52 30 11 10 30 14 53
11 34 -4 36 -3 42 34 7 46 20 55 93 59 l55 4 1 -75 c1 -169 4 -230 14 -230 13
0 20 48 24 155 2 50 9 113 16 140 7 28 14 55 15 61 2 5 23 16 46 23 24 7 55
24 69 37 14 13 41 27 59 30 l33 7 -6 -194 c-3 -107 -10 -243 -15 -303 -12
-129 -16 -779 -6 -797 20 -31 26 46 31 363 4 229 9 349 17 362 7 13 12 85 13
191 2 211 1 202 17 186 17 -17 18 -401 1 -401 -16 0 -20 -55 -16 -263 3 -171
4 -179 23 -174 15 4 19 0 21 -19 0 -13 1 -29 2 -36 1 -6 -5 -13 -11 -15 -8 -3
-13 5 -13 22 0 15 -4 24 -10 20 -16 -10 -12 -39 13 -86 18 -33 22 -51 16 -73
-6 -21 -3 -39 11 -66 24 -47 29 -91 12 -98 -7 -2 -16 5 -19 16 -5 21 -31 37
-42 27 -3 -3 0 -15 7 -25 15 -24 16 -50 2 -50 -5 0 -10 -7 -10 -15 0 -20 19
-19 42 2 17 15 19 15 36 -1 18 -15 19 -15 29 6 6 13 7 32 3 43 -12 34 -3 966
10 1015 6 24 13 86 14 139 1 53 7 105 13 116 6 11 14 39 18 63 8 49 -5 72 -41
72 -12 0 -25 4 -28 9 -4 5 -26 9 -51 9 -57 -1 -69 9 -55 46 8 22 15 27 33 23
12 -4 41 -9 65 -13 36 -6 42 -4 42 11 0 23 41 60 74 69 14 3 26 11 26 16 0 6
6 10 14 10 8 0 21 6 28 13 7 8 23 19 35 25 12 7 24 25 28 41 4 21 16 34 43 46
47 20 81 40 95 54 14 14 64 14 72 1 5 -8 11 -7 21 1 11 9 18 9 26 1 30 -30
-53 -122 -114 -123 -18 -1 -40 0 -48 2 -11 3 -15 -5 -15 -31 0 -26 4 -34 15
-32 43 10 183 6 192 -5 6 -7 20 -12 32 -12 11 1 62 -3 112 -9 54 -5 118 -5
155 0 53 7 66 6 75 -7 17 -22 34 -18 34 8 0 32 -8 37 -35 27 -15 -6 -39 -4
-70 5 -26 8 -83 15 -128 16 -118 2 -117 1 -117 65 0 51 -2 54 -24 54 -14 0
-27 4 -30 9 -9 13 17 60 37 67 9 3 17 15 17 28 0 28 15 42 89 81 l56 30 0 149
c0 107 -3 151 -13 158 -10 9 -9 13 2 22 8 6 17 21 21 34 5 19 3 22 -19 22 -14
0 -30 8 -35 18 -8 13 -10 3 -11 -40z m-155 -667 c3 -5 1 -13 -5 -16 -14 -9
-70 4 -70 16 0 12 67 12 75 0z m-541 -87 c28 -11 17 -24 -18 -24 -34 0 -52 11
-39 24 8 8 37 8 57 0z m4 -220 c17 -12 22 -25 22 -58 0 -50 -11 -58 -64 -49
-38 6 -47 26 -20 41 15 8 15 10 0 15 -19 7 -22 53 -3 60 23 10 42 7 65 -9z"/>
<path d="M4055 3671 c-8 -14 10 -22 30 -15 13 5 14 8 3 15 -17 11 -26 11 -33
0z"/>
<path d="M4580 3655 c0 -14 -7 -28 -15 -31 -13 -5 -15 -43 -16 -253 0 -135 -4
-264 -8 -286 -8 -38 -9 -39 -10 -8 -1 44 -19 85 -34 80 -7 -2 -12 -25 -13 -63
-1 -95 2 -99 86 -102 l72 -3 -3 91 c-3 75 -7 94 -22 105 -17 12 -19 34 -24
202 -5 162 -3 193 11 220 22 44 21 73 -4 73 -15 0 -20 -7 -20 -25z"/>
<path d="M4001 3624 c-6 -15 -9 -29 -6 -32 7 -7 34 29 35 46 0 21 -16 13 -29
-14z"/>
<path d="M4469 3628 c-1 -2 -3 -77 -4 -168 -2 -115 0 -167 8 -172 6 -4 12 -21
13 -38 2 -35 8 -45 23 -36 11 7 7 389 -4 407 -6 8 -33 13 -36 7z"/>
<path d="M4063 3593 c-22 -14 -23 -23 -23 -126 0 -88 -3 -112 -16 -121 -12 -9
-13 -17 -4 -40 8 -22 13 -26 23 -17 10 8 17 7 25 -1 9 -9 15 -9 23 -1 9 9 9
20 -1 42 -9 24 -10 34 -1 45 7 8 14 40 16 73 3 32 7 82 10 111 4 45 3 52 -12
51 -10 0 -28 -7 -40 -16z"/>
<path d="M8490 3582 c0 -9 100 -42 127 -42 29 0 83 24 80 35 -4 12 -207 20
-207 7z"/>
<path d="M7868 3568 c9 -9 15 -9 24 0 9 9 7 12 -12 12 -19 0 -21 -3 -12 -12z"/>
<path d="M8162 3549 l-23 -9 28 -24 c17 -15 32 -21 38 -15 14 14 45 11 45 -6
0 -17 45 -21 55 -5 4 6 18 4 38 -7 19 -10 57 -17 92 -18 33 -1 82 -5 109 -9
47 -8 48 -8 37 13 -10 17 -21 21 -61 21 -37 0 -55 5 -70 20 -11 11 -33 20 -51
20 -17 0 -37 7 -45 15 -18 17 -153 20 -192 4z"/>
<path d="M8812 3503 c2 -13 12 -18 33 -18 43 0 40 29 -3 33 -28 3 -33 0 -30
-15z"/>
<path d="M8925 3510 c3 -5 15 -10 26 -10 10 0 19 5 19 10 0 6 -12 10 -26 10
-14 0 -23 -4 -19 -10z"/>
<path d="M7095 3469 c-38 -4 -131 -12 -205 -18 -233 -19 -423 -41 -484 -57
-32 -9 -78 -16 -102 -16 -33 0 -44 -4 -44 -15 0 -11 7 -14 27 -10 15 3 41 -2
57 -10 23 -12 46 -14 115 -7 47 5 94 7 105 6 10 -1 25 3 34 10 8 7 35 13 61
14 56 2 164 19 210 33 19 6 51 10 70 9 91 -3 273 24 299 45 35 28 -2 32 -143
16z"/>
<path d="M8920 3470 c-19 -12 -13 -16 38 -24 38 -6 42 -4 42 14 0 16 -7 20
-32 20 -18 0 -40 -4 -48 -10z"/>
<path d="M7966 3429 c-28 -4 -53 -6 -57 -3 -5 3 -16 0 -26 -6 -10 -5 -90 -18
-178 -28 -126 -14 -160 -21 -160 -32 0 -13 29 -15 195 -13 107 1 224 7 260 13
36 6 103 16 150 23 67 9 86 16 88 30 3 15 -7 17 -96 17 -55 0 -106 2 -114 4
-7 2 -35 0 -62 -5z"/>
<path d="M8665 3421 c-5 -5 -48 -13 -95 -18 -75 -7 -85 -10 -88 -29 -3 -20 0
-20 220 -20 123 0 240 -3 261 -7 54 -11 50 16 -5 31 -24 6 -70 18 -103 28 -73
21 -176 29 -190 15z"/>
<path d="M4190 3336 c-7 -19 -17 -26 -37 -26 -21 0 -24 -3 -15 -12 9 -9 23 -8
59 5 27 9 58 17 71 17 31 0 28 16 -5 24 -16 4 -36 9 -45 12 -13 4 -21 -2 -28
-20z"/>
<path d="M7495 3349 c-4 -6 -5 -13 -2 -16 7 -7 27 6 27 18 0 12 -17 12 -25 -2z"/>
<path d="M3971 3236 c-18 -19 -45 -36 -59 -39 -30 -6 -112 -57 -112 -69 0 -13
23 -8 60 12 49 26 93 46 118 54 17 6 24 2 33 -18 10 -20 17 -24 35 -20 17 4
26 1 30 -10 8 -21 23 -20 48 3 19 17 31 19 131 12 61 -4 117 -9 125 -12 8 -2
15 2 15 9 0 19 -67 41 -145 48 -36 3 -76 14 -90 23 -45 30 -99 44 -115 31 -11
-9 -19 -9 -28 -1 -10 8 -21 3 -46 -23z"/>
<path d="M5544 3225 c-17 -13 -15 -14 34 -15 50 0 68 12 36 24 -26 10 -49 7
-70 -9z"/>
<path d="M4940 3194 c0 -32 -2 -36 -21 -31 -15 4 -28 -2 -46 -24 -15 -17 -34
-29 -49 -29 -29 0 -104 -36 -104 -50 0 -15 24 -12 71 10 24 11 52 20 61 20 26
0 47 -27 41 -51 -4 -15 -3 -20 5 -15 7 4 12 16 12 27 0 11 7 19 16 19 23 0 12
-65 -16 -95 -15 -16 -19 -30 -15 -48 9 -35 -19 -85 -52 -93 -14 -4 -40 -2 -57
4 -18 7 -83 11 -151 10 -120 -2 -263 19 -292 44 -9 7 -17 7 -29 -3 -16 -13
-23 -8 -38 26 -3 6 -13 -1 -23 -13 -11 -13 -35 -27 -54 -31 -21 -4 -35 -13
-37 -25 -3 -16 2 -18 55 -15 l58 4 1 -630 c0 -545 -1 -632 -14 -648 -12 -13
-13 -22 -5 -40 21 -42 24 -62 24 -137 0 -109 21 -136 38 -49 6 27 9 35 10 19
2 -47 13 -70 32 -70 12 0 21 10 25 28 3 15 8 34 10 42 2 8 -1 49 -6 90 -17
135 -21 283 -9 348 9 49 9 69 -1 87 -10 19 -9 26 11 49 20 23 30 26 89 26 53
0 70 4 84 19 14 16 15 23 6 41 -7 13 -10 34 -7 49 7 34 -1 46 -35 55 -31 7
-33 2 -41 -87 -3 -26 -7 -51 -10 -54 -4 -3 -22 8 -41 25 -19 16 -40 32 -47 34
-10 3 -12 32 -10 119 4 133 4 115 -5 247 -4 56 -11 105 -15 108 -5 3 -9 -50
-9 -118 0 -142 -8 -362 -18 -528 l-7 -115 -8 175 c-12 288 -12 713 -1 733 7
12 8 37 1 73 -14 83 -14 83 100 78 54 -2 110 -4 125 -4 22 -1 29 -7 34 -28 10
-46 14 -53 23 -48 4 3 11 20 15 37 5 29 8 31 33 23 16 -4 47 -7 70 -6 53 3 83
-23 83 -71 0 -41 -26 -67 -66 -67 -28 0 -28 -1 14 -22 34 -18 42 -27 42 -50 0
-23 -4 -28 -26 -28 -27 0 -30 -24 -3 -26 35 -2 40 -6 50 -31 7 -19 13 -23 21
-15 8 8 11 61 10 159 -1 81 3 155 8 163 8 13 13 13 37 0 35 -20 39 -39 18
-102 -13 -40 -14 -53 -3 -65 9 -12 12 -79 9 -292 -2 -199 1 -284 9 -306 l13
-30 9 35 c6 22 7 134 1 305 -5 148 -9 302 -9 342 l-1 71 37 17 c31 14 60 16
186 11 161 -5 192 -10 211 -34 14 -17 45 -9 41 10 -2 10 13 12 57 11 33 -1 91
-3 128 -3 l68 -1 19 -45 c14 -31 25 -44 40 -44 21 0 29 30 8 31 -7 0 -3 4 9 9
18 7 32 3 65 -19 26 -17 57 -28 78 -29 244 -2 320 -13 320 -46 0 -7 9 -25 20
-39 11 -14 20 -32 20 -41 0 -27 48 -21 52 7 3 21 8 22 80 22 42 0 80 -3 83 -7
4 -4 10 -22 14 -39 4 -18 12 -34 19 -37 10 -3 12 5 7 30 -6 31 -3 37 29 62 63
47 51 55 -85 55 -141 0 -209 8 -209 25 0 6 7 22 16 34 20 29 13 37 -16 22 -17
-9 -56 -9 -164 0 -191 15 -201 17 -237 47 -26 22 -34 25 -50 15 -23 -14 -66
-16 -74 -2 -3 5 -25 14 -48 20 -23 6 -58 19 -77 27 -46 22 -275 36 -477 30
-106 -3 -155 -1 -162 7 -5 6 -9 39 -8 73 2 76 -4 74 200 73 84 -1 160 -1 170
0 9 0 17 7 17 16 0 9 9 29 21 45 25 36 17 52 -23 43 -30 -6 -31 -5 -25 23 6
33 -8 68 -17 43 -3 -8 -5 -28 -3 -45 2 -25 -1 -29 -18 -27 -11 2 -69 9 -130
16 -138 16 -155 24 -155 76 0 29 -4 40 -15 40 -11 0 -15 -11 -15 -36z m-606
-1608 c-5 -21 -8 -25 -15 -15 -11 17 -12 93 -2 103 11 11 23 -54 17 -88z m0
-118 c-3 -4 -10 -6 -15 -3 -11 7 -12 49 -2 59 9 9 24 -44 17 -56z"/>
<path d="M5422 3221 c-11 -7 -11 -9 1 -14 19 -7 57 2 57 14 0 11 -41 11 -58 0z"/>
<path d="M7312 3219 c2 -6 8 -10 13 -10 5 0 11 4 13 10 2 6 -4 11 -13 11 -9 0
-15 -5 -13 -11z"/>
<path d="M7486 3152 c-3 -6 -3 -18 0 -26 5 -14 20 -16 95 -14 48 2 91 7 96 11
11 12 -19 27 -35 18 -13 -8 -103 2 -133 14 -10 3 -20 2 -23 -3z"/>
<path d="M4020 3088 c0 -29 5 -60 10 -68 5 -8 10 -11 10 -6 0 5 11 -1 24 -13
30 -28 35 -20 29 52 -6 64 -18 73 -32 25 -8 -29 -9 -30 -10 -8 -2 37 -12 70
-22 70 -5 0 -9 -24 -9 -52z"/>
<path d="M7380 3130 c0 -5 9 -10 21 -10 11 0 17 5 14 10 -3 6 -13 10 -21 10
-8 0 -14 -4 -14 -10z"/>
<path d="M4150 3040 c-30 -30 -27 -54 8 -45 15 3 34 12 42 19 8 7 23 16 33 19
31 11 18 27 -23 27 -27 0 -47 -7 -60 -20z"/>
<path d="M6566 3021 c-33 -3 -61 -11 -63 -17 -9 -26 146 -34 167 -9 7 9 11 17
9 19 -9 10 -58 13 -113 7z"/>
<path d="M4287 2993 c-21 -20 -3 -30 53 -31 57 -1 80 11 43 21 -41 12 -90 17
-96 10z"/>
<path d="M8885 2981 c-9 -16 21 -24 42 -12 10 6 13 11 6 11 -6 0 -18 3 -26 6
-8 3 -18 1 -22 -5z"/>
<path d="M8628 2964 c-55 -29 -33 -37 97 -32 68 2 127 7 131 11 14 13 -6 20
-61 20 -31 0 -58 4 -61 8 -8 14 -76 10 -106 -7z"/>
<path d="M4675 2951 l-30 -7 36 -16 c20 -9 59 -18 85 -20 47 -3 49 -2 52 25 3
27 3 27 -55 26 -32 -1 -71 -5 -88 -8z"/>
<path d="M7978 2953 c-10 -2 -18 -9 -18 -14 0 -15 113 -7 118 9 4 12 -60 16
-100 5z"/>
<path d="M8540 2950 c-12 -8 -12 -10 3 -16 21 -8 35 2 21 16 -5 5 -15 6 -24 0z"/>
<path d="M5368 2943 c12 -2 32 -2 45 0 12 2 2 4 -23 4 -25 0 -35 -2 -22 -4z"/>
<path d="M5450 2936 c0 -17 16 -22 103 -31 56 -5 187 -63 195 -86 2 -5 19 -9
39 -9 l35 0 -29 28 c-83 82 -127 99 -270 109 -62 4 -73 2 -73 -11z"/>
<path d="M7178 2943 c12 -2 32 -2 45 0 12 2 2 4 -23 4 -25 0 -35 -2 -22 -4z"/>
<path d="M8427 2944 c-13 -13 -7 -24 14 -24 11 0 19 5 17 12 -5 14 -22 21 -31
12z"/>
<path d="M3470 2920 c0 -6 -10 -15 -22 -20 -13 -6 -31 -14 -40 -20 -10 -5 -26
-15 -35 -20 -10 -6 -29 -15 -43 -21 -13 -5 -27 -13 -30 -17 -3 -4 -14 -12 -24
-18 -36 -19 -30 -34 12 -34 29 0 54 9 91 36 39 26 61 34 84 32 l32 -3 -2 -70
c-2 -58 -6 -72 -24 -86 -15 -11 -18 -18 -10 -23 6 -4 11 -4 11 0 0 3 7 1 15
-6 10 -8 12 -18 6 -29 -16 -31 -21 -191 -19 -681 0 -272 1 -513 0 -535 0 -22
-2 -204 -4 -405 -2 -201 -8 -375 -12 -388 l-8 -22 135 0 c75 0 148 5 164 11
15 6 110 15 210 19 101 5 191 14 203 20 26 14 393 24 459 12 95 -16 42 -40
-94 -43 -27 -1 -63 -5 -80 -10 -16 -4 -85 -10 -152 -12 -81 -2 -127 -8 -137
-16 -42 -35 -16 -39 269 -45 242 -5 514 -21 645 -37 47 -6 155 -15 240 -19 85
-5 191 -14 235 -20 44 -6 100 -10 123 -7 24 3 72 -2 105 -10 34 -7 130 -18
212 -23 83 -6 168 -14 190 -20 22 -5 79 -10 127 -10 48 0 99 -5 115 -11 15 -6
87 -15 158 -20 141 -9 277 -23 395 -41 41 -6 125 -14 185 -18 119 -9 233 -22
390 -46 55 -8 118 -14 140 -14 22 0 72 -7 110 -15 39 -8 93 -15 122 -15 28 0
64 -5 79 -11 16 -5 71 -14 123 -19 113 -11 225 -26 301 -42 30 -6 93 -14 140
-17 47 -4 91 -10 98 -15 7 -4 52 -10 100 -13 48 -3 95 -9 104 -14 9 -5 44 -12
78 -16 l60 -6 0 45 c0 41 -3 47 -25 52 -14 4 -34 2 -44 -3 -12 -7 -21 -7 -28
0 -7 7 -21 8 -34 3 -31 -10 -60 -6 -81 13 -15 13 -22 14 -48 3 -24 -10 -36
-10 -60 0 -24 10 -33 10 -45 0 -17 -14 -50 -6 -40 10 14 22 -6 50 -36 50 -32
0 -38 -14 -11 -29 13 -8 8 -10 -25 -11 -23 0 -45 5 -48 10 -4 6 -23 7 -46 4
-47 -8 -53 8 -9 28 48 21 39 42 -15 35 -35 -5 -47 -3 -51 8 -4 10 -21 14 -60
14 -43 -1 -54 -5 -59 -20 -8 -25 -25 -24 -25 1 0 21 -4 24 -51 34 -31 7 -44
32 -28 53 7 7 10 16 7 18 -5 6 -62 -12 -102 -31 -25 -13 -30 -13 -41 2 -9 13
-21 16 -48 11 -20 -3 -39 -2 -41 2 -3 4 -46 7 -96 6 -65 -1 -94 2 -101 12 -6
7 -17 13 -24 13 -7 0 -24 12 -39 27 -14 14 -29 23 -33 19 -4 -4 6 -18 22 -32
18 -15 25 -28 19 -34 -15 -15 -111 -21 -165 -9 -33 7 -54 7 -62 1 -13 -11
-138 7 -191 27 -21 9 -32 8 -42 0 -11 -9 -26 -8 -62 2 -26 7 -55 12 -65 10
-10 -1 -24 3 -32 9 -7 6 -34 11 -59 12 -25 0 -51 7 -57 14 -13 16 -70 19 -84
5 -6 -5 -29 -12 -52 -16 -35 -5 -42 -4 -47 13 -6 17 -12 18 -49 11 -24 -4 -47
-9 -52 -10 -19 -5 -73 12 -78 25 -3 7 -1 19 4 27 7 11 12 12 29 1 39 -24 96
-8 83 24 -3 8 -15 14 -27 14 -28 0 -50 15 -42 29 4 6 18 11 31 11 13 0 27 4
30 10 4 6 -41 10 -127 10 -139 0 -158 5 -158 42 0 21 38 39 59 28 7 -4 30 -4
50 1 20 5 57 9 84 9 44 0 60 11 37 25 -5 3 -7 12 -4 20 4 9 -6 17 -33 24 -39
11 -40 12 -40 56 0 47 -15 77 -27 56 -4 -6 -18 -11 -30 -11 -19 0 -25 7 -30
37 -8 52 -7 135 2 150 5 9 19 9 50 2 23 -5 53 -7 65 -4 38 9 199 -20 212 -38
7 -9 15 -14 18 -11 3 3 23 7 44 9 21 1 48 6 60 10 18 6 25 1 39 -27 9 -18 24
-38 33 -44 12 -10 13 -17 4 -36 -10 -22 -16 -24 -77 -22 -70 2 -78 -4 -46 -36
11 -11 20 -27 20 -36 0 -9 3 -14 8 -12 4 2 24 12 45 21 20 10 37 23 37 30 1
21 18 -16 20 -43 8 -98 -8 -122 -66 -100 -27 11 -28 13 -12 24 39 29 14 47
-53 40 -95 -11 -114 -24 -61 -42 l27 -9 -40 -8 c-29 -6 -46 -4 -68 9 -47 27
-57 22 -57 -29 0 -43 1 -45 28 -45 16 0 37 9 46 19 15 17 30 19 133 17 107 -2
118 -4 131 -24 17 -26 40 -28 49 -4 4 9 14 22 22 28 13 10 12 12 -5 18 -33 10
-56 70 -45 114 11 46 12 70 1 102 -5 14 -11 47 -14 73 -6 48 -6 48 16 32 25
-17 64 -20 73 -5 3 6 -4 10 -15 10 -13 0 -24 8 -27 20 -3 13 -14 20 -29 20
-30 0 -36 23 -31 125 l4 80 39 2 c21 1 50 5 63 8 l24 6 -22 23 c-19 21 -21 33
-21 162 1 95 5 152 15 179 8 22 15 42 15 45 0 3 -37 5 -82 5 -46 0 -107 4
-135 8 l-53 8 0 -40 c0 -22 5 -43 10 -46 6 -4 43 1 82 10 69 15 72 15 91 -4
14 -14 21 -38 25 -89 4 -65 3 -71 -18 -82 -12 -6 -30 -10 -41 -7 -10 3 -23 -1
-29 -8 -8 -9 -5 -14 10 -18 16 -4 20 -13 20 -44 0 -62 -8 -81 -34 -76 -12 3
-28 -2 -35 -11 -11 -13 -9 -17 13 -27 l27 -12 -3 -110 c-2 -77 -7 -112 -15
-115 -7 -2 -13 3 -13 12 0 12 -11 16 -48 16 -36 0 -54 5 -67 20 -16 18 -20 19
-35 5 -15 -13 -22 -12 -73 16 -54 29 -57 33 -57 68 0 69 31 127 46 86 5 -12 9
-11 23 6 15 18 18 19 29 6 15 -17 99 -12 121 8 11 11 10 15 -9 25 -19 10 -22
19 -20 73 1 34 2 73 1 87 -1 29 -52 90 -76 90 -21 0 -38 -46 -25 -70 7 -13 6
-26 -4 -45 -14 -27 -12 -48 7 -73 7 -8 6 -21 -1 -37 -10 -21 -18 -25 -57 -25
-42 0 -46 3 -64 38 -13 25 -21 70 -26 140 -4 57 -11 100 -16 95 -4 -4 -9 -71
-12 -148 -2 -77 -7 -151 -12 -164 -7 -21 -6 -22 12 -13 30 17 53 -6 64 -62 5
-27 6 -52 3 -57 -6 -10 -94 -12 -118 -3 -10 4 -16 18 -16 40 0 19 -4 34 -8 34
-5 0 -16 6 -27 13 -17 13 -17 15 3 43 21 28 21 31 7 79 -10 31 -16 99 -18 185
-2 112 -5 135 -17 135 -13 0 -15 -28 -18 -182 -1 -111 -6 -183 -12 -183 -6 0
-11 19 -11 43 -1 23 -4 105 -8 182 -6 131 -7 140 -26 140 -23 0 -23 7 -10
-227 l8 -148 -27 -26 c-31 -32 -33 -44 -6 -37 11 3 27 0 35 -7 12 -10 16 -9
20 4 17 55 16 52 26 34 14 -25 16 -145 2 -159 -9 -9 -20 -6 -49 11 -30 19 -40
21 -55 12 -10 -7 -29 -12 -42 -12 -18 0 -23 5 -23 23 1 18 -5 22 -36 25 -33 3
-40 0 -50 -23 -9 -20 -17 -25 -32 -20 -81 25 -100 28 -104 17 -2 -7 -10 -12
-18 -12 -17 0 -17 -10 -4 -45 9 -25 14 -26 77 -26 197 1 211 0 222 -13 9 -11
18 -11 44 -2 17 6 38 15 45 20 20 12 24 3 29 -74 4 -59 2 -75 -13 -91 -23 -26
-39 -24 -61 7 -19 25 -21 26 -55 14 -40 -15 -61 -47 -47 -73 7 -11 3 -26 -11
-49 -11 -18 -20 -36 -20 -40 0 -11 67 -21 87 -13 16 6 16 8 -4 23 -12 9 -23
28 -25 42 -3 23 1 26 50 34 44 7 55 6 72 -9 17 -16 21 -16 42 -1 12 9 30 16
39 16 21 0 51 -44 43 -64 -7 -18 -30 -21 -39 -6 -8 13 -35 -6 -35 -25 0 -21
-66 -55 -79 -42 -7 7 -60 12 -141 13 -119 1 -132 3 -153 22 -13 12 -35 22 -49
22 -20 0 -29 7 -37 30 -12 37 -24 38 -39 5 -18 -40 -15 -45 27 -45 43 0 59
-13 41 -35 -8 -10 -7 -22 4 -49 18 -43 40 -46 58 -8 13 27 13 27 133 30 l121
3 21 -30 c17 -22 19 -31 10 -38 -13 -9 -193 0 -239 12 -39 10 -37 -15 3 -39
22 -13 29 -24 26 -37 -6 -23 15 -25 33 -4 8 10 17 12 28 6 11 -6 26 -4 45 6
35 17 57 11 57 -17 0 -27 -26 -36 -61 -23 -23 9 -31 8 -37 -4 -5 -9 -29 -17
-55 -20 -45 -5 -47 -5 -47 21 0 16 -5 26 -15 26 -8 0 -15 -4 -15 -9 0 -5 -21
-14 -46 -20 -40 -10 -48 -10 -58 5 -10 13 -17 14 -32 6 -14 -7 -24 -7 -37 3
-25 18 0 36 44 29 47 -8 89 10 89 37 0 21 -3 21 -82 16 -46 -3 -96 -9 -113
-12 -27 -6 -28 -5 -13 8 10 8 15 17 11 20 -11 12 -50 7 -62 -7 -6 -7 -38 -16
-71 -20 -51 -6 -64 -4 -88 14 -26 19 -42 21 -292 23 l-265 2 0 28 c0 31 -25
51 -53 43 -18 -6 -98 28 -137 57 -20 15 -20 16 3 40 14 15 20 30 16 40 -12 33
-48 6 -59 -43 -4 -19 -13 -45 -21 -58 -14 -21 -13 -23 13 -33 15 -6 42 -11 58
-11 43 1 82 -16 100 -44 8 -13 23 -24 32 -24 13 0 14 -3 5 -12 -10 -10 -17
-10 -32 0 -31 19 -217 16 -237 -3 -17 -18 -44 -16 -51 3 -2 8 7 12 27 12 27 0
31 4 37 35 3 19 11 38 16 41 16 10 -14 24 -53 24 -20 0 -42 -7 -49 -15 -18
-21 -180 -22 -180 -1 0 18 -40 47 -53 39 -5 -3 -7 -13 -4 -23 8 -32 -6 -40
-61 -33 -45 5 -52 9 -52 28 0 30 -24 48 -63 47 -35 -1 -71 24 -60 42 4 6 8 66
9 134 1 72 7 128 13 136 8 10 7 21 -4 42 -19 37 -19 50 1 58 12 5 14 10 5 20
-6 7 -10 30 -8 52 l2 39 -42 3 -43 3 -2 -48 c-1 -26 -1 -57 0 -68 14 -188 16
-285 10 -364 -6 -69 -21 -81 -94 -74 l-54 6 0 -38 c0 -34 -2 -37 -22 -30 -13
4 -43 10 -68 14 l-45 6 4 155 c3 85 5 189 5 232 1 42 4 80 9 84 4 4 36 8 70 8
55 1 62 3 60 21 -1 10 3 27 8 36 6 12 4 21 -6 29 -21 17 -55 -5 -55 -35 0 -21
-5 -25 -31 -25 l-31 0 6 93 c4 50 8 126 9 167 l2 75 -30 -4 c-16 -1 -34 -5
-39 -8 -5 -3 -6 -59 -4 -124 4 -100 2 -125 -13 -159 -20 -43 -45 -52 -73 -24
-20 20 -20 23 3 48 15 17 19 43 24 144 l5 122 -25 6 c-13 4 -34 2 -46 -4 -12
-6 -31 -13 -42 -15 -15 -4 -13 -5 7 -6 15 0 29 -5 32 -10 3 -5 8 -75 10 -156
4 -123 2 -147 -10 -152 -9 -3 -20 -1 -26 5 -5 5 -27 8 -48 5 -22 -3 -40 -1
-44 6 -4 7 1 11 13 11 26 0 51 10 51 21 0 4 -10 13 -21 20 -16 8 -27 8 -46 -2
l-24 -13 2 -218 c0 -126 5 -220 10 -224 6 -3 5 -11 -2 -20 -9 -11 -8 -18 5
-32 18 -21 22 -77 6 -87 -6 -4 -17 -1 -25 5 -29 24 -38 93 -37 275 1 277 18
371 64 369 13 -1 31 -4 40 -8 13 -6 19 -2 24 18 10 40 -1 56 -38 56 -18 0 -42
7 -52 15 -11 8 -28 15 -38 15 -10 0 -18 6 -18 13 -1 6 -1 268 0 582 0 373 3
571 10 573 5 2 10 21 10 43 0 27 5 42 15 46 24 8 28 -2 29 -64 1 -60 13 -74
46 -54 12 8 12 12 -3 29 -18 20 -14 52 7 52 6 1 25 7 41 14 l30 13 -55 16
c-30 9 -64 18 -75 19 -18 3 -20 11 -20 68 l0 65 70 6 c57 5 77 3 106 -12 25
-12 48 -16 72 -12 29 4 37 2 46 -15 6 -11 8 -28 5 -36 -4 -11 0 -16 11 -16 12
0 16 6 13 18 -3 10 1 27 8 37 13 17 18 18 49 6 24 -8 40 -9 53 -2 14 7 32 5
68 -8 l49 -19 0 -54 0 -53 -42 -3 c-45 -3 -61 -22 -19 -22 47 0 76 -61 42 -89
-13 -11 -12 -15 4 -31 15 -15 16 -25 8 -66 -8 -42 -13 -204 -9 -269 1 -11 -1
-135 -4 -275 -7 -306 -7 -332 5 -344 37 -37 48 77 49 494 2 357 15 656 31 718
10 39 5 58 -18 68 -9 4 -93 11 -187 15 -245 12 -343 27 -377 57 -15 12 -20 13
-34 1 -13 -11 -17 -10 -25 4 -11 18 -39 23 -39 7z m341 -1760 c24 -13 26 -76
3 -108 -11 -16 -13 -27 -6 -35 12 -15 20 -237 9 -254 -5 -7 -5 -18 -2 -24 5
-7 -3 -9 -21 -7 -25 2 -29 8 -32 36 -2 19 -9 32 -17 32 -18 0 -28 -17 -15 -25
20 -12 10 -25 -20 -25 -23 0 -30 5 -30 19 0 23 -22 40 -28 23 -7 -21 -22 -13
-22 12 0 16 -7 27 -19 31 -17 5 -19 13 -15 58 3 29 8 59 11 67 4 8 5 18 5 23
-1 4 11 7 26 7 15 0 32 4 37 9 6 5 28 11 49 13 40 3 40 3 42 48 2 30 -3 51
-14 63 -16 18 -15 20 3 33 23 17 30 17 56 4z m-104 -12 c5 -7 17 -32 26 -55
l17 -43 -26 -6 c-14 -4 -35 -2 -47 4 -12 6 -33 12 -47 14 -22 3 -25 8 -25 43
0 33 4 40 25 46 40 11 67 10 77 -3z m2767 -45 c1 -28 -3 -38 -14 -38 -17 0
-25 35 -15 72 9 36 27 15 29 -34z m-2196 -410 c2 -8 -6 -13 -22 -13 -26 0 -40
12 -29 24 11 11 46 2 51 -11z m2282 2 c0 -8 -4 -15 -9 -15 -13 0 -22 16 -14
24 11 11 23 6 23 -9z m-2835 -27 c8 -20 10 -37 5 -42 -15 -15 -105 6 -105 24
0 10 8 14 23 12 24 -4 32 22 10 31 -7 3 2 6 20 6 28 1 35 -4 47 -31z m413 -5
c6 -20 -26 -27 -56 -14 -21 10 -23 14 -11 22 19 12 61 7 67 -8z m2337 -112 c3
-5 1 -12 -4 -16 -14 -8 -92 6 -85 16 7 12 81 11 89 0z m75 -16 c0 -8 -4 -15
-10 -15 -5 0 -10 7 -10 15 0 8 5 15 10 15 6 0 10 -7 10 -15z m-32 -49 c20 -12
14 -54 -8 -61 -27 -9 -60 3 -60 21 0 16 -36 19 -45 4 -7 -12 -85 25 -85 41 0
12 178 8 198 -5z m-237 -29 c-13 -13 -26 -3 -16 12 3 6 11 8 17 5 6 -4 6 -10
-1 -17z m1419 -169 c0 -5 -4 -8 -10 -8 -5 0 -10 5 -10 10 0 6 -10 10 -22 10
-18 0 -20 2 -9 9 14 9 51 -6 51 -21z m280 9 c114 1 118 1 140 -24 12 -14 20
-26 18 -27 -2 -2 -34 1 -73 6 -38 5 -109 12 -157 16 -48 4 -90 11 -94 15 -4 3
-1 13 6 22 10 12 15 13 28 3 11 -9 51 -12 132 -11z m374 -57 c27 -10 34 -34
15 -45 -14 -9 -69 14 -69 30 0 26 15 30 54 15z"/>
<path d="M7467 2823 c-4 -6 -33 -15 -65 -18 -127 -14 -175 -26 -193 -48 -10
-12 -18 -27 -19 -33 0 -7 -17 -14 -37 -17 -21 -3 -74 -13 -118 -22 -50 -10
-102 -14 -140 -10 -49 5 -66 2 -92 -15 -36 -22 -42 -37 -17 -47 21 -8 276 25
288 37 6 6 23 10 40 10 17 0 41 10 55 23 35 32 103 55 181 61 67 6 164 23 143
25 -6 0 -13 16 -15 34 -2 19 -6 27 -11 20z"/>
<path d="M5973 2793 c9 -2 25 -2 35 0 9 3 1 5 -18 5 -19 0 -27 -2 -17 -5z"/>
<path d="M6130 2792 c0 -13 50 -45 58 -37 11 10 -14 40 -37 43 -11 2 -21 -1
-21 -6z"/>
<path d="M8000 2790 c0 -5 11 -10 24 -10 14 0 28 5 31 10 4 6 -7 10 -24 10
-17 0 -31 -4 -31 -10z"/>
<path d="M6400 2698 c25 -5 52 -16 61 -24 22 -20 31 -17 27 9 -3 20 -9 22 -68
24 l-65 1 45 -10z"/>
<path d="M4345 2603 c2 -37 4 -72 4 -77 1 -5 10 -1 21 9 14 13 17 22 10 36
-12 21 9 46 46 55 32 8 30 20 -5 27 -16 3 -40 9 -54 12 l-25 7 3 -69z"/>
<path d="M5018 2654 c-31 -6 -35 -21 -13 -50 17 -23 19 -60 4 -69 -7 -5 -3
-14 10 -26 20 -19 21 -30 21 -274 l0 -255 24 -6 c14 -3 33 -4 43 -2 17 3 18
18 15 263 -3 244 -5 261 -23 277 -20 17 -20 17 0 27 11 6 21 23 23 38 4 34 28
43 28 11 0 -33 22 -61 46 -57 10 2 27 21 37 41 10 20 27 40 38 43 44 14 46 1
53 -322 4 -168 10 -312 13 -320 7 -17 57 -17 71 0 8 9 7 56 -3 163 -18 196
-22 414 -8 439 10 17 12 16 27 -20 9 -21 16 -52 16 -69 0 -17 3 -140 6 -273 6
-215 9 -243 23 -243 39 1 45 15 31 77 -14 62 -29 441 -20 507 7 54 30 60 30 8
0 -23 7 -47 15 -56 11 -10 12 -17 4 -22 -8 -4 -9 -52 -3 -163 4 -86 7 -200 7
-253 -1 -74 2 -98 12 -102 18 -7 47 22 38 37 -4 6 -10 117 -14 247 -4 129 -8
240 -8 245 -3 26 13 82 27 98 25 29 4 36 -78 27 -67 -8 -77 -6 -96 11 -18 17
-40 19 -195 23 -95 3 -186 2 -201 0z"/>
<path d="M3895 2637 c-40 -16 -46 -26 -41 -67 2 -19 1 -71 -3 -115 -9 -93 1
-116 42 -98 23 11 24 15 19 81 -2 39 -1 95 3 127 5 47 11 58 31 65 13 5 24 12
24 15 0 8 -43 4 -75 -8z"/>
<path d="M6630 2635 c-10 -12 -10 -19 -2 -27 18 -18 106 2 110 25 3 14 -4 17
-46 17 -32 0 -54 -5 -62 -15z"/>
<path d="M3732 2568 c0 -40 -3 -103 -7 -140 -6 -58 -5 -69 9 -74 10 -4 26 -3
37 2 19 9 20 20 22 144 l2 135 -32 3 -32 3 1 -73z"/>
<path d="M4492 2498 l3 -143 29 0 29 0 1 143 2 142 -33 0 -34 0 3 -142z"/>
<path d="M4622 2618 c-14 -18 -15 -248 -1 -265 9 -9 8 -17 0 -27 -12 -15 -5
-23 37 -46 21 -10 26 -9 40 12 20 28 19 32 -9 38 -21 5 -21 9 -20 134 1 71 6
138 12 148 8 16 6 18 -19 18 -16 0 -34 -6 -40 -12z"/>
<path d="M8835 2620 c-3 -5 -3 -14 0 -20 7 -11 14 -11 -130 -16 -141 -4 -144
-5 -180 -15 -16 -4 -79 -13 -138 -18 -59 -6 -116 -15 -126 -20 -10 -6 -68 -16
-129 -22 -91 -10 -119 -10 -152 1 -32 10 -40 18 -40 37 0 30 -14 29 -103 -6
-105 -41 -136 -50 -204 -57 -73 -8 -94 -17 -76 -35 8 -8 53 -14 120 -16 60 -2
119 -4 133 -5 14 0 57 3 95 7 39 4 134 11 213 15 83 5 148 13 157 20 7 6 49
16 92 21 43 5 121 14 173 20 86 11 196 16 321 18 27 0 51 6 58 15 10 12 6 17
-23 27 -27 10 -36 19 -36 36 0 24 -14 31 -25 13z"/>
<path d="M3305 2606 c-17 -12 -18 -17 -7 -40 7 -17 9 -34 4 -44 -5 -9 -6 -60
-2 -112 3 -52 3 -99 -2 -104 -11 -14 -10 -104 2 -111 6 -4 10 7 10 27 1 36 15
61 43 71 23 9 22 34 -3 42 -22 7 -26 20 -10 30 14 9 12 83 -5 130 -13 36 -13
41 5 58 11 10 20 22 20 27 0 4 3 15 6 24 8 21 -34 22 -61 2z"/>
<path d="M5688 2583 c-7 -10 -22 -18 -33 -18 -20 0 -20 -6 -17 -289 1 -159 5
-292 7 -296 3 -5 74 -7 157 -6 84 1 162 -1 173 -4 25 -9 179 13 169 23 -4 4
-19 7 -33 7 -14 0 -37 9 -51 20 -31 24 -67 25 -92 4 -16 -16 -18 -16 -24 0 -8
22 -72 22 -81 0 -5 -14 -9 -13 -23 6 l-18 23 -6 -21 c-8 -24 -43 -39 -58 -24
-18 18 -28 85 -38 252 -5 91 -10 167 -10 170 0 2 -4 0 -10 -6 -5 -5 -10 -48
-11 -94 -4 -150 -17 -141 -18 12 l-1 147 26 -2 c22 -2 28 4 40 41 9 24 13 50
10 58 -8 20 -42 17 -58 -3z"/>
<path d="M2406 2571 c-15 -17 -16 -19 -1 -25 22 -8 35 1 35 25 0 24 -12 24
-34 0z"/>
<path d="M2884 2423 c1 -60 -1 -116 -6 -125 -7 -14 -21 -18 -61 -18 -29 -1
-63 -7 -76 -14 l-24 -13 21 -12 c17 -9 21 -18 16 -35 -3 -13 -1 -27 5 -30 16
-10 13 -42 -4 -56 -10 -8 -13 -21 -9 -33 4 -11 1 -23 -7 -28 -11 -6 -10 -11 3
-26 16 -17 16 -29 2 -163 -26 -243 -7 -485 44 -577 9 -16 11 -15 23 9 6 15 16
25 20 22 16 -9 9 -45 -11 -62 -17 -15 -18 -22 -8 -65 9 -36 9 -50 0 -59 -21
-21 -37 9 -35 63 1 34 -3 49 -10 46 -7 -2 -11 -19 -9 -40 2 -20 -2 -46 -9 -58
l-11 -22 -18 23 -18 23 -11 -22 c-10 -18 -15 -20 -26 -11 -16 13 -35 5 -35
-15 0 -9 14 -15 43 -17 29 -2 42 -8 42 -18 0 -12 -16 -16 -68 -18 -64 -3 -68
-4 -65 -25 2 -16 9 -21 23 -19 11 2 70 5 132 6 61 2 116 7 122 10 6 4 11 19
11 34 0 30 15 59 23 46 2 -5 8 -24 12 -42 8 -36 24 -41 49 -13 22 24 18 53 -9
65 -16 7 -21 19 -22 49 -1 22 -4 42 -7 44 -10 10 -38 -8 -43 -28 -6 -21 -39
-23 -37 -1 1 6 2 23 3 37 1 19 6 25 25 25 23 0 24 3 30 93 3 50 8 200 11 332
3 132 11 266 17 298 11 51 10 62 -6 92 -18 32 -18 36 -2 59 21 33 22 129 1
146 -21 17 -19 154 3 191 18 32 10 59 -17 59 -17 0 -19 -8 -17 -107z m-12
-225 c6 -61 -12 -573 -24 -653 -6 -44 -11 -101 -11 -127 0 -30 -4 -48 -11 -48
-12 0 -12 238 -1 495 3 72 7 177 8 235 2 58 6 111 10 118 14 21 25 13 29 -20z
m-56 -1099 c10 -18 -21 -42 -45 -34 -27 8 -27 23 2 35 30 12 35 12 43 -1z"/>
<path d="M5164 2507 c-3 -8 0 -97 6 -198 5 -101 10 -218 10 -260 0 -80 9 -96
46 -82 14 5 16 21 10 132 -3 69 -7 189 -8 266 -1 85 -6 143 -12 147 -18 12
-46 9 -52 -5z"/>
<path d="M5873 2508 c-6 -8 -8 -61 -5 -130 4 -108 6 -118 24 -118 27 0 31 21
21 103 -5 40 -6 87 -2 104 8 43 -16 69 -38 41z"/>
<path d="M5967 2503 c-4 -3 -7 -57 -7 -119 0 -89 3 -116 16 -128 8 -9 12 -16
8 -16 -3 0 -1 -7 6 -15 14 -17 60 -21 60 -5 0 6 -12 15 -26 20 -21 9 -24 13
-14 25 9 11 9 27 1 65 -6 28 -11 80 -11 115 0 48 -4 65 -13 65 -8 0 -17 -3
-20 -7z"/>
<path d="M6610 2490 c0 -5 16 -10 35 -10 19 0 35 5 35 10 0 6 -16 10 -35 10
-19 0 -35 -4 -35 -10z"/>
<path d="M3568 2454 c-2 -57 -7 -112 -14 -171 -4 -35 -2 -53 5 -53 22 0 28 38
25 144 -4 109 -13 154 -16 80z"/>
<path d="M1895 2470 c-4 -6 13 -10 44 -10 28 0 51 5 51 10 0 6 -20 10 -44 10
-25 0 -48 -4 -51 -10z"/>
<path d="M2030 2471 c0 -15 48 -22 103 -14 l52 7 -40 7 c-56 11 -115 11 -115
0z"/>
<path d="M2717 2474 c-4 -4 -30 -12 -59 -19 -47 -10 -53 -15 -59 -42 -3 -16
-4 -56 -1 -87 6 -79 26 -67 30 18 3 63 4 67 25 64 20 -3 22 -8 20 -54 l-2 -51
37 2 37 1 7 69 c8 80 -8 125 -35 99z"/>
<path d="M6445 2449 c-16 -5 -41 -9 -55 -8 -14 1 -42 -1 -62 -6 l-38 -7 0
-117 0 -116 35 -28 c35 -28 55 -29 55 -2 0 7 -9 17 -20 20 -16 5 -18 10 -9 26
7 14 6 36 -6 81 -19 76 -12 116 22 129 54 20 121 -20 97 -59 -9 -13 -9 -22 0
-34 7 -10 11 -68 10 -172 -1 -135 -4 -160 -19 -176 -20 -22 -21 -21 19 -38 27
-12 28 -14 13 -29 -15 -15 -14 -19 8 -45 14 -16 25 -38 25 -48 0 -10 5 -22 10
-25 6 -3 10 -18 10 -33 0 -33 32 -58 49 -39 5 7 8 23 4 35 -4 18 -1 22 20 22
23 0 26 -5 32 -49 4 -30 15 -57 26 -67 19 -17 21 -17 48 -1 16 9 39 17 51 17
11 0 18 5 15 10 -3 6 -19 10 -34 10 -16 0 -33 6 -38 13 -10 13 -31 78 -35 112
-3 18 -12 20 -77 23 -72 3 -73 3 -67 27 3 13 1 131 -6 262 -6 131 -12 256 -12
278 -1 45 -16 52 -71 34z"/>
<path d="M6217 2427 c-9 -13 -12 -29 -7 -38 4 -8 10 -59 13 -114 5 -109 12
-135 33 -135 19 0 29 29 15 43 -7 7 -11 57 -11 139 0 102 -3 128 -14 128 -7 0
-21 -10 -29 -23z"/>
<path d="M4790 2347 c0 -31 4 -57 9 -57 11 0 9 95 -2 106 -4 4 -7 -18 -7 -49z"/>
<path d="M2485 2332 c-7 -23 4 -54 16 -46 12 7 12 51 0 59 -5 3 -12 -3 -16
-13z"/>
<path d="M3883 2324 c-8 -4 -4 -16 10 -39 12 -19 24 -34 27 -35 6 0 30 60 30
73 0 8 -48 8 -67 1z"/>
<path d="M4496 2308 c-6 -30 -6 -53 0 -111 6 -47 24 -57 24 -12 0 13 4 26 10
30 6 4 5 15 -2 30 -15 32 -4 55 27 55 31 0 33 16 3 24 -42 11 -58 7 -62 -16z"/>
<path d="M3720 2288 c0 -18 -3 -43 -6 -55 -6 -20 -3 -23 24 -23 40 0 50 17 17
30 -37 14 -32 54 8 58 39 5 33 22 -8 22 -33 0 -35 -2 -35 -32z"/>
<path d="M2080 2290 c-12 -8 -11 -10 8 -10 12 0 22 5 22 10 0 13 -11 13 -30 0z"/>
<path d="M4789 2240 c-2 -19 -3 -69 -4 -110 0 -65 -2 -75 -18 -75 -17 0 -36
-20 -37 -37 0 -5 13 -8 29 -8 38 0 50 -37 20 -62 -19 -16 -19 -19 -4 -64 9
-28 13 -59 9 -80 -3 -19 -1 -55 6 -80 l13 -45 24 23 c25 24 25 27 7 115 -7 38
-3 40 119 46 42 2 80 6 82 9 10 10 -14 56 -32 61 -10 3 -49 8 -87 12 -54 5
-73 12 -91 30 -20 22 -21 32 -17 137 2 65 -1 124 -6 138 -10 24 -11 24 -13
-10z"/>
<path d="M2538 2241 c-26 -9 -50 -19 -54 -23 -4 -5 -21 -8 -38 -8 -51 0 -106
-12 -100 -21 3 -5 32 -9 64 -9 32 0 62 -4 65 -10 11 -18 24 -11 31 16 5 20 12
24 32 22 23 -3 28 -10 35 -48 7 -36 5 -54 -13 -97 -22 -54 -20 -73 7 -73 11 0
13 -6 8 -22 -4 -13 -10 -92 -12 -176 -4 -136 -3 -151 11 -146 12 5 16 0 16
-22 0 -26 -1 -26 -13 -9 -13 17 -15 17 -30 -6 -10 -13 -17 -29 -17 -35 0 -6
-7 -17 -15 -24 -8 -6 -14 -19 -13 -28 5 -38 -22 -99 -48 -111 -21 -9 -25 -16
-20 -36 3 -13 1 -27 -5 -31 -6 -3 -8 -15 -5 -27 3 -11 0 -29 -5 -39 -8 -14 -5
-27 10 -52 25 -40 27 -62 6 -70 -14 -5 -14 -9 0 -35 8 -17 15 -43 15 -58 1
-15 7 -39 15 -53 16 -28 19 -98 6 -119 -8 -12 -14 -13 -36 -3 -14 7 -41 12
-58 12 -18 0 -38 5 -44 11 -8 8 -17 7 -34 -5 -13 -9 -29 -16 -35 -16 -14 0
-27 111 -14 124 6 6 4 16 -6 27 -15 17 -14 19 17 27 22 6 33 14 30 23 -2 8 -4
23 -4 34 -1 11 -6 23 -11 27 -7 5 -11 64 -11 160 l0 153 -30 5 c-27 5 -30 9
-30 40 0 25 -9 47 -32 74 -36 44 -53 40 -53 -12 0 -30 -7 -43 -38 -68 -37 -31
-38 -31 -107 -22 -39 5 -93 7 -121 4 -39 -5 -55 -2 -64 9 -10 12 -16 13 -27 3
-11 -9 -52 -11 -138 -9 -67 1 -125 -1 -128 -6 -7 -11 28 -53 45 -53 7 0 23 -7
36 -15 20 -15 24 -14 59 10 46 31 83 33 83 6 0 -11 -6 -21 -12 -24 -8 -2 -13
-22 -13 -53 0 -43 -3 -49 -22 -52 -14 -2 -25 -12 -27 -25 -3 -12 -8 -35 -11
-52 -11 -55 -10 -67 6 -78 13 -8 21 -6 34 6 17 18 60 23 69 8 11 -17 60 -19
83 -4 19 13 22 23 22 67 -1 28 -8 63 -15 78 -8 14 -15 46 -17 70 -1 24 -6 49
-10 56 -20 31 35 36 60 5 10 -13 15 -12 41 1 17 9 45 17 64 18 l33 3 6 -85 c3
-47 10 -96 16 -110 7 -18 7 -33 -3 -55 -7 -16 -16 -56 -19 -88 -7 -57 -7 -59
-33 -52 -15 3 -34 14 -42 24 -9 10 -21 16 -28 13 -17 -5 -15 13 3 28 10 8 12
17 6 23 -12 12 -51 -1 -51 -18 0 -8 -5 -25 -11 -39 -12 -24 -12 -25 -38 -6
-14 10 -46 20 -70 23 -37 5 -44 3 -48 -14 -4 -13 -9 -16 -17 -10 -6 4 -41 9
-78 9 -67 1 -68 1 -95 -36 -15 -20 -36 -45 -47 -54 -42 -35 -37 -237 6 -246
17 -3 23 24 34 155 4 50 12 87 21 94 8 7 31 9 63 5 32 -4 61 -2 82 7 18 7 67
13 108 12 l75 0 -3 -52 -4 -51 56 -16 c66 -20 127 -33 215 -46 55 -9 65 -8 76
6 11 16 12 15 17 -3 6 -23 43 -30 178 -33 47 -1 89 -6 95 -11 12 -12 11 -87
-1 -99 -17 -17 -64 2 -80 31 -17 34 -34 37 -58 10 -10 -11 -30 -21 -44 -23
-32 -4 -63 -51 -45 -69 10 -10 40 -11 178 -6 35 2 40 -1 43 -21 6 -41 49 -53
220 -58 86 -2 244 -12 351 -21 l194 -17 28 32 c23 26 29 42 29 79 0 27 6 53
15 62 11 13 15 58 18 203 2 102 7 190 11 196 3 5 1 24 -5 42 -11 30 -14 31
-48 25 -20 -4 -50 -20 -68 -37 -27 -26 -35 -29 -48 -18 -12 10 -19 9 -40 -4
-14 -10 -34 -14 -45 -11 -10 3 -29 3 -43 0 -21 -6 -24 -10 -18 -33 7 -24 12
-27 41 -24 19 2 45 13 59 23 31 24 40 24 74 -6 l28 -25 -2 -139 c-1 -76 1
-144 5 -149 3 -5 -1 -22 -8 -38 -8 -15 -12 -39 -9 -54 4 -23 1 -28 -21 -34
-15 -4 -31 -4 -36 -1 -4 3 -53 5 -108 6 l-101 1 -23 46 c-18 37 -28 47 -45 45
-17 -2 -24 4 -29 22 -3 13 -2 30 3 37 4 7 9 47 9 88 1 41 3 84 5 95 3 17 -2
20 -33 22 -43 2 -46 -5 -50 -134 -3 -78 -2 -83 26 -112 16 -17 35 -46 41 -65
11 -32 10 -35 -9 -40 -42 -11 -77 -6 -83 11 -3 10 -22 37 -41 61 -27 34 -40
42 -61 40 -23 -3 -26 -7 -23 -38 2 -19 9 -41 14 -48 18 -21 1 -25 -64 -16
l-63 9 -6 55 c-4 33 -2 65 5 80 12 27 51 39 69 21 15 -15 54 -14 63 1 4 6 3
13 -3 15 -6 2 -19 10 -29 17 -15 11 -16 17 -6 29 10 12 10 16 -3 21 -27 10
-45 -4 -39 -30 4 -14 2 -24 -4 -24 -16 0 -45 67 -39 90 3 11 1 23 -4 26 -5 3
-9 27 -9 53 0 56 15 73 62 75 l31 1 -1 70 c0 40 4 75 11 84 8 9 11 46 10 99
-1 69 -5 90 -22 113 -27 37 -30 121 -4 117 23 -4 31 43 33 217 2 92 7 152 16
174 11 27 12 47 4 92 -7 36 -7 66 -2 76 5 10 12 33 15 51 6 31 4 34 -28 48
-40 16 -36 16 -97 -5z m-358 -811 c22 -22 29 -113 9 -126 -8 -4 -10 -26 -6
-63 6 -58 -2 -89 -22 -77 -6 4 -11 17 -11 28 0 12 -7 30 -17 40 -9 11 -11 18
-5 18 7 0 12 5 12 10 0 14 -27 12 -34 -2 -3 -7 -3 2 0 20 3 18 7 59 8 91 2 32
6 63 10 69 11 18 34 14 56 -8z m335 -171 c-2 -39 -6 -73 -8 -76 -12 -12 -29
11 -24 33 2 14 0 27 -5 30 -5 3 -6 22 -3 42 10 60 13 66 29 53 9 -8 13 -32 11
-82z m-400 -132 c4 -61 9 -68 44 -54 22 8 33 8 44 -1 16 -13 16 -12 -17 -112
-13 -38 -41 -48 -41 -15 0 13 -8 21 -22 23 -12 2 -27 10 -33 18 -16 18 -60 19
-60 0 0 -10 -17 -13 -70 -12 -66 0 -71 2 -77 24 -8 35 8 44 87 48 40 2 76 7
81 10 5 3 9 27 9 54 0 32 6 54 16 65 23 22 35 7 39 -48z m136 13 c30 -16 23
-30 -16 -30 -37 0 -43 8 -23 28 15 15 15 15 39 2z"/>
<path d="M7846 2251 c-3 -5 1 -11 9 -15 15 -6 29 7 18 18 -9 9 -21 8 -27 -3z"/>
<path d="M6861 2221 c-19 -12 -6 -41 17 -41 23 0 46 25 37 40 -8 12 -35 13
-54 1z"/>
<path d="M3553 2208 c-4 -7 -9 -172 -11 -365 -3 -368 -3 -369 38 -343 12 7 12
12 -4 29 -12 13 -16 29 -13 43 3 13 9 142 12 288 3 146 8 281 11 301 6 40 -16
72 -33 47z"/>
<path d="M6797 2193 c-13 -12 -7 -23 13 -23 11 0 20 7 20 15 0 15 -21 21 -33
8z"/>
<path d="M3909 2173 c-1 -5 -1 -17 0 -29 1 -14 -8 -24 -31 -35 -31 -13 -33
-17 -33 -69 -1 -30 -3 -103 -5 -163 -4 -114 1 -131 40 -125 23 3 23 6 25 148
2 123 5 153 23 198 12 29 22 59 22 67 0 15 -39 22 -41 8z"/>
<path d="M4668 2138 c-2 -25 -9 -34 -28 -38 -22 -5 -26 -13 -32 -60 -8 -64 -5
-70 30 -70 44 0 56 13 48 54 -8 41 11 115 31 123 23 9 14 23 -16 23 -26 0 -30
-4 -33 -32z"/>
<path d="M2295 2141 c-7 -12 12 -24 25 -16 11 7 4 25 -10 25 -5 0 -11 -4 -15
-9z"/>
<path d="M3719 2098 c-2 -13 -4 -95 -4 -183 l0 -160 28 -3 c16 -2 29 2 31 10
3 7 6 91 8 186 l4 172 -32 0 c-25 0 -33 -5 -35 -22z"/>
<path d="M3295 2097 c-4 -14 -15 -187 -21 -337 -2 -58 -6 -136 -9 -174 -5 -54
-4 -67 7 -64 9 3 14 29 15 87 1 46 7 89 13 96 8 9 8 15 0 20 -17 11 -11 25 15
35 23 9 25 15 25 72 0 35 3 106 6 158 l7 96 -27 12 c-21 9 -27 9 -31 -1z"/>
<path d="M6240 2074 c-6 -14 -7 -30 -4 -36 4 -5 1 -21 -6 -34 -19 -35 3 -58
47 -49 22 4 33 2 33 -6 0 -8 13 -10 43 -5 52 9 56 13 45 54 -8 31 -30 42 -43
22 -10 -16 -45 -12 -45 5 0 9 -6 18 -14 21 -8 3 -17 16 -20 30 -8 31 -24 31
-36 -2z"/>
<path d="M6040 2080 c-11 -7 -12 -12 -3 -21 13 -13 33 -4 33 17 0 16 -9 18
-30 4z"/>
<path d="M2388 2023 c-22 -3 -28 -10 -28 -29 0 -16 -8 -28 -22 -34 -19 -8 -18
-9 10 -4 18 3 32 1 32 -4 0 -17 26 -21 67 -10 32 8 42 16 52 45 15 39 8 52
-18 36 -11 -7 -23 -8 -32 -2 -8 5 -18 8 -24 7 -5 0 -22 -3 -37 -5z"/>
<path d="M2386 1888 c-11 -17 -16 -77 -22 -234 -7 -211 1 -344 17 -279 3 17 7
80 8 142 0 61 5 114 10 117 5 3 12 -30 15 -74 4 -44 12 -82 17 -85 5 -4 9 -5
10 -3 1 2 4 98 8 213 6 149 5 212 -3 217 -21 14 -46 8 -60 -14z"/>
<path d="M5240 1903 c-76 -11 -90 -15 -90 -24 0 -5 26 -10 58 -10 91 0 112 -3
122 -19 7 -12 15 -220 11 -315 -3 -87 1 -150 10 -161 6 -8 8 -25 5 -39 -11
-45 3 -94 30 -101 12 -3 29 -2 36 3 7 4 29 8 48 8 28 0 35 4 35 20 0 15 -9 21
-35 25 -54 10 -80 27 -81 58 -5 83 -3 164 3 169 13 8 9 76 -6 92 -8 9 -17 44
-21 77 -6 58 -6 62 17 67 39 11 56 8 77 -15 15 -15 18 -25 10 -34 -7 -9 -5
-21 8 -41 l18 -27 5 51 c5 51 19 79 27 56 7 -20 44 -63 54 -63 5 0 9 12 9 26
0 30 -37 87 -51 78 -6 -3 -24 0 -40 7 -28 11 -30 16 -28 55 2 24 1 45 -2 47
-6 6 -200 15 -229 10z m211 -98 c0 -5 -7 -12 -16 -13 -23 -5 -47 6 -40 19 8
13 56 8 56 -6z"/>
<path d="M5520 1898 c0 -4 4 -16 9 -26 5 -9 13 -26 16 -37 7 -20 7 -20 15 0 5
11 10 27 13 35 4 13 21 14 133 4 71 -6 143 -17 159 -23 45 -19 204 -23 235 -6
l25 14 -24 1 c-13 0 -72 9 -130 19 -113 21 -451 36 -451 19z"/>
<path d="M6747 1861 c-7 -34 1 -71 17 -72 11 -1 258 -7 342 -9 57 0 73 -16 84
-83 5 -33 12 -68 16 -79 5 -18 8 -18 24 10 24 39 52 54 85 46 18 -4 27 -2 31
10 4 9 18 16 34 16 15 0 41 5 59 11 27 10 35 8 52 -7 27 -24 98 -31 194 -18
28 4 91 8 141 9 50 1 108 8 129 15 30 10 39 10 46 -1 6 -11 12 -9 28 5 18 16
32 18 101 13 49 -4 80 -3 80 3 0 15 34 12 56 -5 18 -14 18 -16 2 -26 -29 -17
-21 -25 25 -25 35 1 41 4 39 20 -3 16 1 17 40 11 24 -4 59 -14 78 -22 22 -10
63 -15 110 -14 58 0 79 -3 95 -18 11 -10 52 -23 95 -30 41 -7 95 -17 120 -22
25 -6 64 -13 88 -16 l42 -5 0 40 c0 36 -3 40 -31 46 -17 3 -52 6 -77 6 -48 0
-127 25 -150 47 -10 9 -51 13 -140 13 -91 1 -134 5 -152 15 -14 8 -46 14 -72
15 -30 0 -68 10 -103 26 -34 17 -65 24 -81 21 -15 -3 -39 -2 -53 2 -14 4 -84
2 -156 -6 -71 -7 -282 -15 -468 -17 l-339 -3 6 28 c9 46 -18 53 -179 50 -104
-2 -153 2 -190 13 -64 20 -62 21 -68 -13z"/>
<path d="M4879 1728 c0 -13 -2 -79 -2 -148 l-2 -125 -34 -5 c-26 -4 -40 -13
-54 -38 -14 -24 -17 -36 -9 -44 19 -19 59 6 67 42 4 17 12 29 18 27 8 -2 12
-35 13 -95 1 -85 0 -91 -20 -94 -18 -3 -20 -9 -18 -38 5 -49 22 -68 39 -44 7
10 13 27 13 38 0 23 16 11 22 -17 1 -10 7 -17 13 -15 13 4 6 61 -9 73 -18 14
-9 120 11 137 11 9 22 9 45 0 31 -11 58 -7 58 10 0 5 -9 12 -19 15 -11 3 -22
15 -24 27 -4 21 -4 21 -6 -1 0 -13 -7 -23 -15 -23 -8 0 -17 10 -21 23 -3 12
-11 39 -17 60 -6 20 -8 40 -3 45 4 4 10 1 12 -5 3 -7 14 -13 25 -13 14 0 18 5
14 15 -3 8 -9 22 -12 30 -4 11 2 17 25 21 27 6 31 10 31 40 0 28 4 34 21 34
26 0 59 -18 59 -32 0 -6 7 -19 16 -29 23 -26 12 -45 -31 -53 -35 -7 -36 -8
-28 -39 7 -31 7 -46 0 -157 -4 -67 10 -145 28 -160 7 -6 24 -8 37 -5 24 6 25
9 24 95 -1 97 14 137 34 86 5 -15 14 -24 20 -21 15 9 12 23 -9 42 -18 15 -20
27 -15 142 4 121 5 127 34 163 34 41 25 58 -17 31 -20 -14 -53 -19 -134 -21
-109 -4 -149 5 -149 33 0 25 -30 17 -31 -7z"/>
<path d="M5790 1733 c-120 -4 -140 -8 -140 -33 0 -10 4 -21 9 -24 7 -5 26
-223 34 -396 l2 -45 35 3 c19 2 38 7 41 10 3 4 3 81 -1 172 -4 98 -3 172 2
183 13 25 -7 47 -43 47 -39 0 -38 25 2 39 32 11 116 5 135 -11 14 -11 44 0 44
16 0 33 -24 41 -120 39z"/>
<path d="M3899 1728 c-6 -21 -5 -107 2 -123 7 -19 8 -18 10 5 6 63 4 112 -3
116 -4 3 -8 4 -9 2z"/>
<path d="M4453 1723 c-22 -8 -14 -33 10 -33 l22 0 2 -197 c1 -175 3 -198 19
-210 16 -12 17 -14 0 -32 -12 -13 -14 -21 -6 -26 23 -15 5 -39 -29 -39 -19 -1
-36 -6 -38 -12 -2 -7 26 -11 89 -10 51 0 125 -3 165 -6 52 -5 76 -3 90 7 17
12 16 14 -12 21 -17 5 -35 7 -42 6 -19 -4 -24 15 -8 28 13 11 13 14 -2 26 -16
11 -16 16 -5 34 10 16 10 25 2 35 -7 8 -8 36 -3 81 4 38 6 123 3 189 l-5 120
-50 8 c-70 10 -188 16 -202 10z m189 -67 c4 -6 8 -85 8 -176 0 -176 3 -220 14
-261 7 -25 6 -26 -45 -32 -31 -4 -56 -2 -59 3 -4 6 -8 119 -9 251 l-2 241 43
-7 c24 -4 46 -13 50 -19z"/>
<path d="M4589 1538 c-5 -25 -3 -91 3 -100 4 -8 8 12 8 45 0 31 -2 57 -5 57
-3 0 -5 -1 -6 -2z"/>
<path d="M4586 1392 c-2 -4 -1 -14 3 -21 6 -10 10 -9 14 3 6 16 -8 32 -17 18z"/>
<path d="M5981 1716 c-10 -12 -10 -56 4 -206 3 -30 5 -100 6 -156 1 -56 4
-106 7 -111 4 -6 18 -10 32 -9 20 1 25 -4 25 -24 0 -20 -6 -26 -29 -30 -16 -3
-31 -11 -34 -17 -5 -17 15 -17 21 0 3 9 9 9 26 -1 12 -7 25 -10 30 -8 10 7 6
136 -10 284 -6 62 -9 130 -6 150 7 42 -6 62 -39 62 -30 0 -30 10 0 32 14 10
46 18 82 19 87 3 109 14 43 22 -87 11 -146 8 -158 -7z"/>
<path d="M6220 1716 c0 -3 14 -11 30 -20 28 -14 30 -13 30 5 0 14 -7 19 -30
19 -16 0 -30 -2 -30 -4z"/>
<path d="M3718 1697 c-5 -10 -8 -40 -8 -66 0 -54 17 -86 39 -72 13 8 13 12 0
27 -8 9 -16 42 -19 73 -3 38 -7 50 -12 38z"/>
<path d="M6442 1698 c-8 -8 -8 -17 -1 -30 12 -22 29 -15 29 12 0 24 -13 33
-28 18z"/>
<path d="M5819 1638 c-14 -11 -15 -25 -7 -108 5 -52 6 -151 3 -220 -8 -151 -6
-279 4 -300 4 -8 8 -55 10 -105 1 -49 7 -105 13 -123 7 -24 7 -37 -1 -45 -6
-6 -11 -19 -11 -29 0 -9 -7 -21 -16 -26 -14 -8 -12 -11 13 -20 16 -5 42 -8 56
-5 24 5 27 10 27 42 0 21 -3 41 -7 45 -11 11 -13 259 -2 272 6 7 6 22 -1 39
-11 28 -2 44 23 45 18 0 -1 25 -19 25 -10 0 -20 8 -22 18 -3 12 2 16 19 15 12
-2 24 3 26 10 3 7 -5 12 -21 12 -31 0 -44 23 -26 45 10 12 11 54 5 183 -8 164
-8 177 -3 217 4 24 -38 33 -63 13z"/>
<path d="M6090 1628 c0 -8 6 -20 13 -26 8 -9 12 -62 13 -182 2 -206 0 -190 24
-190 24 0 22 -18 21 215 l0 190 -36 3 c-24 2 -35 -1 -35 -10z"/>
<path d="M6199 1633 c-1 -14 4 -317 6 -348 6 -95 8 -109 12 -87 3 13 16 27 29
33 24 9 25 11 19 76 -3 38 -7 127 -9 198 l-3 130 -27 3 c-14 2 -26 0 -27 -5z"/>
<path d="M5552 1578 c-22 -27 -31 -309 -11 -334 11 -14 77 -11 106 5 23 12 22
36 -1 56 -7 6 -18 62 -26 125 -7 63 -17 125 -21 138 -9 24 -31 29 -47 10z"/>
<path d="M7 1544 c-11 -12 -8 -51 6 -61 19 -16 99 -32 128 -26 36 7 48 -14 54
-88 6 -78 0 -103 -26 -96 -10 3 -22 1 -25 -4 -3 -5 4 -9 14 -9 11 0 25 -7 32
-15 10 -12 8 -16 -15 -25 -21 -8 -26 -15 -23 -37 4 -33 29 -41 52 -18 15 15
16 15 16 -3 0 -20 -18 -32 -50 -32 -9 0 -23 -7 -30 -15 -7 -8 -23 -15 -36 -15
-22 0 -23 -2 -17 -52 6 -55 13 -72 20 -50 3 6 11 12 19 12 17 0 17 -2 3 -34
-15 -32 -4 -73 22 -81 25 -8 21 -40 -6 -40 -13 0 -22 10 -29 33 -10 37 -41 41
-41 5 0 -12 -3 -25 -7 -29 -5 -4 -8 -26 -8 -49 0 -22 -6 -65 -14 -95 -7 -30
-16 -97 -20 -148 -3 -51 -10 -102 -16 -112 -5 -10 -10 -67 -10 -126 0 -101 1
-106 18 -91 9 8 33 17 52 19 l35 3 3 82 c2 56 7 85 17 93 8 7 15 19 15 26 0 7
14 20 30 29 29 15 30 17 30 93 1 42 7 104 15 137 8 33 15 89 15 125 0 36 7 87
15 114 8 27 15 81 15 121 0 39 5 76 10 81 8 8 6 15 -5 24 -15 13 -15 15 3 29
16 13 21 31 24 93 3 73 2 78 -20 88 -29 13 -24 35 9 35 13 0 34 10 47 23 13
13 37 28 53 34 16 5 29 13 29 18 0 8 -60 18 -140 24 -25 2 -92 6 -150 11 -58
4 -108 4 -113 -1z m104 -838 c1 -66 -3 -91 -14 -104 -11 -11 -17 -42 -19 -86
-2 -44 -8 -71 -15 -74 -20 -6 -18 142 2 158 11 9 15 35 15 105 0 50 3 95 7 99
16 15 24 -16 24 -98z m-71 -300 c0 -8 -5 -18 -10 -21 -6 -3 -10 3 -10 14 0 12
5 21 10 21 6 0 10 -6 10 -14z"/>
<path d="M7248 1526 c-25 -25 -38 -111 -30 -196 7 -73 8 -74 40 -84 19 -5 32
-16 32 -25 1 -14 3 -13 14 2 12 16 18 17 38 6 13 -6 27 -18 31 -26 7 -12 11
-12 21 3 11 14 20 15 52 8 38 -9 39 -11 42 -58 2 -26 -2 -54 -8 -61 -9 -10 -7
-20 6 -40 14 -22 15 -30 4 -49 -10 -20 -9 -28 6 -52 26 -38 38 -196 18 -241
l-13 -33 -95 0 c-56 0 -97 4 -101 11 -12 18 4 23 80 21 51 -2 75 1 75 9 0 15
-40 79 -49 79 -4 0 -15 -15 -23 -34 -14 -29 -23 -34 -58 -38 -45 -4 -54 -1
-63 25 -3 9 -15 17 -26 17 -26 0 -33 25 -20 70 8 27 8 43 0 58 -6 11 -11 36
-11 54 0 19 -6 43 -14 53 -10 14 -11 25 -5 37 15 29 29 21 29 -16 0 -26 5 -35
22 -39 30 -8 31 -5 14 37 -14 33 -13 37 2 46 15 8 15 11 2 20 -8 6 -24 8 -34
6 -31 -8 -46 13 -46 61 0 31 -5 45 -16 50 -23 8 -33 -13 -27 -58 3 -21 1 -45
-5 -52 -6 -7 -9 -22 -7 -33 2 -10 9 -72 16 -137 10 -96 16 -120 31 -128 10 -5
18 -20 18 -32 0 -14 12 -32 30 -46 17 -12 28 -26 25 -32 -4 -5 -37 -9 -76 -9
-38 0 -69 -4 -69 -9 0 -12 101 -24 133 -16 18 5 37 0 60 -14 42 -26 64 -26 90
-3 23 20 135 22 206 3 29 -8 47 -9 54 -2 6 6 16 6 27 -2 14 -8 22 -8 32 0 8 7
55 11 121 11 96 -1 110 -3 139 -24 34 -25 51 -20 63 17 7 21 44 26 62 8 8 -8
36 -9 100 -1 97 11 113 6 113 -35 0 -21 4 -24 28 -21 21 2 27 8 27 28 0 25 2
25 75 23 131 -4 151 -7 165 -26 7 -10 26 -22 42 -26 17 -5 29 -15 31 -28 2
-14 13 -23 31 -26 16 -3 35 -12 42 -20 21 -21 57 -27 63 -11 3 8 15 14 27 14
16 0 20 -5 16 -19 -4 -16 5 -19 70 -27 41 -6 77 -6 79 -2 3 4 -1 8 -9 8 -8 0
-30 14 -48 31 -30 28 -42 32 -118 39 -95 8 -123 27 -114 74 4 21 0 28 -21 36
-21 8 -26 16 -26 45 0 50 -26 47 -35 -5 -7 -43 -24 -53 -32 -20 -3 11 -14 20
-24 20 -18 0 -69 47 -69 63 0 14 48 57 64 57 8 0 17 -9 21 -19 8 -25 43 -33
83 -18 31 11 36 10 52 -11 11 -13 22 -43 26 -68 7 -52 16 -59 44 -42 18 11 23
10 34 -4 7 -10 22 -18 32 -18 10 0 27 -11 39 -24 21 -26 31 -29 78 -27 23 1
27 5 27 31 0 28 -3 30 -35 30 -27 0 -35 4 -35 18 -1 28 -47 74 -69 67 -25 -7
-51 4 -51 22 0 8 -11 24 -24 34 -14 11 -26 29 -28 42 -3 19 -8 22 -40 19 -28
-2 -38 1 -38 12 0 8 -11 27 -25 42 -29 31 -33 69 -9 82 20 11 9 56 -11 48 -17
-6 -39 19 -30 34 4 6 15 8 26 5 13 -4 19 -2 19 9 0 9 -9 16 -20 16 -22 0 -27
19 -9 37 16 16 -21 88 -46 88 -17 0 -20 -7 -20 -45 l0 -45 -65 -2 c-75 -2 -90
9 -90 68 0 29 -5 39 -20 44 -11 3 -24 4 -29 0 -14 -8 -497 -8 -621 1 -58 4
-163 8 -235 8 l-130 1 3 41 c2 28 -2 45 -12 53 -9 8 -16 20 -16 28 0 8 -11 34
-25 59 -14 25 -25 50 -25 57 0 7 -6 21 -13 31 -12 17 -15 17 -29 2z m401 -323
c9 -17 10 -17 16 0 4 9 18 17 31 17 27 0 36 -23 32 -85 -3 -43 -4 -43 67 -30
17 4 37 6 45 5 8 0 56 -2 105 -3 50 -2 95 -6 101 -10 7 -4 10 -35 9 -82 -1
-47 3 -85 12 -101 19 -39 16 -54 -11 -54 -16 0 -27 -7 -31 -20 -8 -27 1 -40
29 -40 16 0 26 -7 30 -22 7 -27 -14 -78 -31 -78 -7 0 -13 -4 -13 -10 0 -13
-252 -4 -277 9 -10 5 -26 12 -36 15 -15 5 -17 12 -12 35 7 32 -16 64 -44 59
-20 -4 -28 -48 -9 -48 8 0 6 -4 -4 -11 -25 -14 -22 -28 7 -39 41 -16 32 -38
-12 -31 -34 6 -38 10 -46 46 -5 22 -12 87 -17 145 -5 58 -11 115 -15 127 -5
14 -1 27 13 41 19 19 19 20 2 35 -12 10 -16 23 -13 37 3 12 0 33 -8 47 -12 23
-11 27 10 44 29 24 57 24 70 2z m501 -103 c8 -5 15 -19 15 -32 0 -21 5 -23 45
-23 40 0 45 3 48 23 3 22 7 23 40 17 20 -4 37 -8 37 -8 0 -1 5 -11 11 -22 15
-28 49 -30 80 -6 49 39 153 24 113 -16 -7 -7 0 -16 25 -31 35 -21 48 -56 29
-76 -5 -4 -8 -24 -8 -44 0 -34 -2 -37 -25 -34 -14 2 -34 12 -45 23 -13 11 -29
16 -41 13 -15 -4 -23 0 -26 14 -4 12 -21 23 -52 32 -44 12 -48 11 -70 -9 -29
-27 -56 -28 -49 -1 6 23 -22 39 -39 22 -9 -9 -7 -17 7 -32 18 -20 18 -20 -19
-20 -30 0 -46 9 -86 46 -37 35 -50 54 -50 75 0 15 5 31 10 34 8 5 7 11 -1 21
-25 31 14 58 51 34z m95 -9 c3 -5 1 -12 -4 -15 -13 -8 -42 4 -35 15 7 12 31
12 39 0z m-58 -231 c11 0 26 -7 33 -15 7 -8 17 -12 22 -9 5 3 18 -2 28 -11 18
-16 20 -16 26 -1 8 20 34 21 59 2 10 -7 27 -11 37 -8 11 3 25 -3 33 -14 13
-19 14 -19 28 0 13 18 14 16 20 -22 4 -22 3 -51 -2 -64 -7 -15 -10 -17 -10 -7
-1 20 -21 29 -62 29 -29 0 -41 -22 -19 -35 21 -13 -3 -26 -39 -21 -20 4 -42 2
-49 -2 -8 -5 -35 -3 -65 5 -29 7 -60 12 -69 9 -13 -3 -18 2 -18 15 0 10 -4 19
-10 19 -5 0 -10 13 -10 30 0 22 7 33 28 44 27 15 27 16 5 22 -17 5 -23 14 -23
37 0 29 1 29 18 14 10 -10 28 -17 39 -17z m717 -339 c3 -5 -1 -14 -10 -21 -11
-10 -18 -10 -27 -1 -9 9 -9 14 3 21 19 12 27 12 34 1z"/>
<path d="M7810 1070 c-13 -9 -13 -11 0 -20 19 -12 41 -12 59 -1 11 7 10 11 -7
20 -25 13 -33 14 -52 1z"/>
<path d="M7675 1061 c-8 -15 6 -19 47 -14 21 3 35 9 32 14 -7 12 -71 12 -79 0z"/>
<path d="M7905 1061 c-3 -5 4 -12 15 -16 25 -8 110 4 110 16 0 12 -117 12
-125 0z"/>
<path d="M7760 965 c0 -20 5 -25 25 -25 17 0 25 -6 25 -17 0 -10 3 -27 5 -38
7 -29 -10 -52 -27 -37 -11 8 -17 6 -26 -9 -26 -42 36 -65 104 -39 19 8 30 8
38 0 16 -16 33 -12 41 13 6 19 8 15 17 -22 8 -37 7 -47 -6 -56 -20 -15 -10
-25 24 -25 25 0 26 2 24 58 -1 31 -5 65 -9 75 -9 21 11 47 36 47 10 0 21 5 24
10 4 6 -10 10 -34 10 -32 0 -44 5 -57 25 -20 31 -50 32 -73 3 -21 -25 -50 -19
-58 13 -5 18 -39 39 -64 39 -5 0 -9 -11 -9 -25z m210 -80 c15 -19 5 -35 -24
-35 -27 0 -46 18 -39 36 7 18 47 18 63 -1z m-88 -17 c-12 -12 -35 -1 -27 12 3
5 13 6 21 3 10 -4 12 -9 6 -15z"/>
<path d="M7640 960 c0 -5 7 -10 15 -10 8 0 15 5 15 10 0 6 -7 10 -15 10 -8 0
-15 -4 -15 -10z"/>
<path d="M7673 932 c-8 -20 14 -62 33 -62 13 0 14 3 4 15 -14 17 -4 37 17 33
9 -2 18 2 20 8 6 18 -68 24 -74 6z"/>
<path d="M8207 799 c-12 -7 -15 -15 -9 -22 5 -7 12 -24 16 -39 10 -42 66 -51
66 -10 0 20 -36 82 -47 82 -5 0 -16 -5 -26 -11z"/>
<path d="M4045 1515 c-16 -8 -23 -14 -15 -15 8 0 24 -3 35 -5 11 -3 27 -1 35
5 13 9 13 11 0 20 -18 12 -18 12 -55 -5z"/>
<path d="M1263 1485 c-36 -25 -165 -30 -266 -10 -122 24 -343 18 -363 -10 -14
-19 -27 -18 -134 11 -9 2 -33 -12 -53 -31 -36 -34 -37 -37 -22 -58 21 -29 19
-86 -4 -138 -16 -36 -19 -57 -14 -126 5 -64 2 -89 -11 -116 -11 -25 -16 -63
-16 -136 0 -71 -4 -108 -14 -124 -19 -30 -25 -229 -7 -251 10 -12 8 -15 -10
-18 -29 -4 -57 -90 -58 -179 l-1 -66 171 -2 c95 0 177 3 183 8 6 5 39 11 73
13 39 3 69 10 81 21 13 12 21 14 29 6 7 -7 35 -7 88 0 61 7 83 7 99 -4 12 -7
36 -16 54 -20 17 -4 32 -8 32 -11 0 -13 -38 -44 -54 -44 -14 0 -17 -3 -9 -11
5 -5 55 -12 109 -14 54 -2 117 -10 139 -16 22 -6 56 -12 75 -13 28 -1 36 3 38
20 3 19 -3 22 -49 27 -33 4 -58 2 -66 -5 -11 -9 -21 -3 -47 25 -23 26 -36 33
-47 26 -22 -14 -82 -11 -75 4 3 6 9 20 12 30 6 16 38 23 104 20 46 -2 69 7
105 42 19 20 35 38 35 41 0 3 -11 17 -24 31 -22 23 -23 28 -11 47 8 12 17 41
21 66 8 52 19 70 44 70 20 0 44 -47 32 -64 -14 -18 -22 -75 -12 -81 17 -11 11
-23 -15 -29 -36 -9 -31 -26 8 -26 73 0 104 -30 52 -50 -13 -5 -30 -18 -37 -29
-11 -18 -14 -18 -28 -6 -14 13 -19 12 -38 -5 -12 -12 -22 -27 -22 -35 0 -8 0
-18 0 -22 0 -4 38 -8 85 -10 82 -3 105 5 69 25 -9 5 -14 18 -12 33 3 21 9 25
53 29 48 5 50 6 50 37 1 18 3 34 6 37 9 10 109 -6 102 -16 -8 -15 17 -28 54
-28 43 0 51 17 11 25 -18 4 -37 10 -42 12 -17 11 20 23 69 23 28 0 77 7 108
15 33 8 101 15 157 15 62 0 101 4 106 11 25 40 -113 38 -508 -7 -37 -4 -63
-13 -74 -25 -10 -11 -25 -19 -36 -19 -16 0 -18 9 -18 77 0 67 -3 80 -24 102
-18 21 -22 34 -19 64 5 36 6 37 47 37 23 0 46 4 51 9 6 6 58 6 135 -1 119 -10
125 -9 140 10 16 19 17 19 28 2 8 -14 31 -19 108 -25 92 -7 98 -6 113 14 13
17 19 19 29 9 7 -7 12 -8 12 -2 0 6 15 27 34 46 26 26 33 42 29 58 -4 15 -9
18 -16 11 -6 -6 -24 -11 -39 -11 -18 0 -39 -10 -55 -26 l-27 -27 -47 27 c-52
29 -119 35 -138 12 -7 -8 -41 -20 -76 -27 -41 -8 -65 -18 -65 -26 0 -22 -24
-14 -50 17 -21 25 -32 30 -71 30 -70 0 -133 -25 -145 -58 -23 -59 -99 -67 -99
-9 0 14 -3 29 -7 33 -5 4 -8 17 -8 28 0 16 2 18 9 7 18 -29 31 28 31 136 0 61
5 114 10 119 6 6 11 41 12 78 1 37 7 71 14 77 7 5 9 28 7 57 -4 43 -2 51 30
86 19 21 40 36 46 32 13 -8 54 18 44 27 -3 4 -17 7 -30 7 -13 0 -49 12 -80 26
-54 26 -57 26 -69 8 -7 -10 -21 -27 -31 -37 -15 -15 -15 -19 -3 -27 8 -5 17
-34 21 -72 5 -56 4 -65 -14 -80 -17 -13 -19 -19 -9 -30 6 -8 10 -17 8 -19 -3
-2 -7 -35 -10 -71 -3 -37 -11 -77 -18 -88 -11 -17 -11 -22 1 -29 7 -5 16 -31
19 -59 6 -65 -11 -77 -48 -32 -27 34 -59 35 -41 2 5 -9 12 -39 16 -67 4 -27
13 -57 20 -65 17 -19 23 -184 7 -203 -6 -7 -12 -46 -14 -86 l-3 -73 -50 -29
c-27 -15 -60 -28 -73 -29 -13 0 -33 -5 -44 -11 -26 -14 -46 4 -50 46 -2 37 7
55 31 55 9 0 22 5 28 11 7 7 20 6 44 -4 l34 -15 -33 -12 c-25 -9 -30 -15 -20
-21 7 -5 23 -9 36 -9 19 0 22 5 22 38 0 21 -5 43 -12 50 -8 8 -8 15 0 25 9 10
7 23 -8 52 -16 31 -20 59 -20 129 0 70 -3 91 -16 101 -21 15 -11 48 19 63 21
10 21 11 -5 11 -22 1 -28 6 -28 22 0 19 4 20 34 15 25 -5 35 -3 39 8 4 9 1 18
-4 22 -6 3 -8 16 -5 28 2 11 1 41 -4 66 -8 39 -6 47 11 59 27 19 24 31 -10 31
-23 0 -30 5 -35 26 -10 38 10 54 30 26 20 -30 48 -30 41 0 -4 12 -1 28 5 35 8
10 8 17 -1 26 -10 9 -15 8 -25 -5 -12 -16 -36 -25 -36 -13 0 2 9 19 20 37 26
43 28 142 3 156 -23 13 -9 42 21 42 15 0 30 8 36 20 6 11 20 20 31 20 12 0 19
5 17 12 -6 18 -21 19 -45 3z m-373 -79 c97 -3 183 -8 193 -12 9 -3 17 -15 17
-25 0 -10 6 -19 13 -19 7 0 22 -6 32 -14 16 -11 17 -17 7 -29 -8 -10 -9 -17
-3 -21 6 -4 1 -24 -14 -51 -20 -38 -22 -49 -12 -74 9 -25 8 -33 -7 -50 -16
-17 -16 -24 -5 -55 7 -19 21 -37 31 -39 22 -6 24 -37 3 -37 -9 0 -18 7 -21 15
-5 12 -9 11 -23 -7 -12 -15 -22 -18 -32 -12 -8 5 -34 9 -59 9 -39 0 -45 3 -45
21 0 11 -6 28 -13 37 -21 24 -11 50 25 67 18 8 33 23 33 32 0 9 5 20 10 23 7
4 8 -18 4 -64 -4 -44 -3 -71 3 -71 18 0 36 55 39 119 2 45 8 67 19 73 8 5 15
13 15 18 0 17 -26 11 -45 -10 -25 -27 -43 -25 -47 5 -2 14 -7 25 -13 25 -6 0
-9 -27 -7 -65 2 -66 -8 -86 -33 -65 -9 8 -12 22 -8 40 6 30 -21 79 -44 80 -17
0 -16 -13 2 -57 19 -44 13 -66 -17 -61 -17 2 -25 13 -33 44 -10 42 -33 79 -43
69 -3 -3 -5 -30 -3 -59 1 -32 -2 -57 -9 -61 -8 -5 -8 -10 0 -21 15 -17 5 -251
-12 -292 -6 -15 -14 -65 -17 -111 -4 -54 -10 -86 -18 -89 -9 -2 -13 9 -13 35
0 47 -9 83 -21 83 -10 0 -12 -48 -3 -103 6 -31 10 -36 25 -32 43 14 29 -82
-15 -103 -24 -12 -30 -12 -46 3 -12 11 -20 13 -25 5 -4 -7 -19 -9 -36 -5 -35
8 -36 -1 -8 -49 17 -29 27 -36 53 -36 18 0 38 6 44 12 10 10 17 10 32 0 16
-10 21 -9 30 8 15 27 30 16 30 -21 0 -26 -3 -29 -27 -27 -26 3 -28 0 -31 -40
l-3 -42 -45 0 c-32 0 -44 4 -42 13 3 6 14 13 26 15 12 2 22 10 22 19 0 13 -3
13 -15 3 -13 -10 -19 -10 -34 4 -17 15 -19 15 -35 -3 -11 -12 -14 -21 -7 -26
6 -3 11 -10 11 -15 0 -11 -116 -3 -173 11 -35 9 -37 12 -37 52 -1 120 0 140 8
150 6 7 13 41 16 77 17 182 39 375 51 455 9 60 11 93 4 102 -7 8 -6 19 5 35 9
13 17 48 19 79 4 67 11 79 47 79 16 0 31 4 35 10 3 5 12 7 20 4 8 -4 28 7 45
25 17 16 36 28 43 26 7 -2 91 -6 187 -9z m26 -308 c14 -22 22 -103 12 -115 -7
-8 -3 -16 11 -25 12 -7 21 -23 21 -35 0 -13 5 -23 10 -23 6 0 10 11 10 25 0
18 5 25 20 25 14 0 20 -7 20 -21 0 -32 28 -55 50 -41 10 6 21 8 24 5 15 -15 1
-103 -25 -154 -8 -18 11 -40 44 -52 11 -4 17 -17 17 -37 0 -31 -17 -39 -37
-19 -9 9 -13 6 -17 -12 -3 -13 -8 -37 -11 -54 -4 -16 -7 -43 -7 -58 -1 -26 -3
-28 -32 -21 -43 9 -46 12 -46 42 0 33 -15 59 -24 44 -4 -6 -5 -24 -4 -39 1
-16 -1 -34 -6 -41 -18 -30 -65 2 -67 46 -1 23 -2 23 -8 -7 -7 -42 -35 -62 -54
-41 -19 21 -11 150 9 150 24 0 34 46 26 113 -5 34 -8 78 -8 97 1 32 4 35 34
38 31 3 47 22 18 22 -19 0 -40 26 -26 35 13 8 13 76 0 111 -16 40 25 77 46 42z
m187 -152 c6 -16 -16 -40 -26 -29 -4 3 -7 15 -7 25 0 21 25 24 33 4z m58 -19
c-5 -5 -17 -7 -26 -3 -14 5 -15 9 -5 21 10 12 16 13 27 4 9 -8 10 -16 4 -22z
m189 -113 c0 -11 -5 -14 -16 -10 -9 3 -18 6 -20 6 -3 0 -2 5 1 10 10 16 35 12
35 -6z m-184 -287 c1 -64 -5 -72 -43 -62 -22 5 -24 10 -19 38 4 18 6 45 6 60
0 25 3 28 27 25 27 -3 28 -5 29 -61z m-249 -99 c18 1 34 -2 38 -7 3 -6 20 -7
38 -4 43 7 64 -15 45 -46 -15 -24 -31 -27 -47 -7 -7 8 -33 14 -67 14 -57 0
-94 20 -94 50 0 11 7 12 28 6 15 -4 41 -7 59 -6z m-33 -79 c74 1 122 -13 75
-23 -13 -2 -61 -7 -106 -11 -77 -5 -83 -4 -83 14 0 20 18 32 34 23 4 -2 40 -4
80 -3z m196 -34 c0 -9 -51 -25 -61 -19 -17 10 1 24 32 24 16 0 29 -2 29 -5z"/>
<path d="M656 1271 c-16 -26 -35 -159 -35 -248 0 -77 -4 -108 -15 -125 -34
-47 -8 -268 30 -268 18 0 19 91 3 156 -9 34 -9 47 1 59 22 26 38 17 48 -27
l10 -43 1 60 c0 38 -5 67 -14 79 -13 17 -13 22 1 37 10 11 12 19 5 24 -6 3
-11 21 -11 39 0 19 -7 39 -15 46 -23 19 -18 40 10 40 19 0 26 -7 31 -27 3 -16
15 -51 26 -80 11 -30 17 -60 13 -72 -8 -26 3 -63 16 -55 12 7 0 137 -14 145
-15 10 -1 206 17 233 15 23 14 24 -31 30 -61 8 -71 8 -77 -3z m63 -20 c7 -5
10 -14 6 -20 -4 -7 -10 -33 -13 -58 -8 -51 -18 -60 -47 -39 -16 11 -17 17 -7
42 6 16 16 41 21 57 11 29 18 32 40 18z"/>
<path d="M566 633 c-9 -10 -7 -111 3 -117 4 -3 16 1 27 8 16 12 17 16 4 31 -8
10 -13 30 -12 45 3 27 -9 46 -22 33z"/>
<path d="M655 560 c-4 -6 -3 -16 3 -22 13 -13 23 4 13 21 -7 10 -10 10 -16 1z"/>
<path d="M981 777 c3 -64 8 -91 21 -103 13 -13 14 -22 6 -40 -12 -26 -4 -58
14 -52 11 4 19 154 8 165 -3 2 -9 28 -15 56 -5 28 -16 53 -24 55 -10 4 -12
-13 -10 -81z"/>
<path d="M903 775 c3 -16 12 -61 19 -100 l13 -70 5 60 c5 62 -3 99 -28 125
-12 13 -13 11 -9 -15z"/>
<path d="M3320 1485 c-15 -18 -57 -20 -63 -2 -2 6 -8 8 -13 4 -5 -4 2 -27 14
-51 20 -37 21 -46 11 -69 -11 -24 -10 -30 10 -51 25 -26 15 -42 -20 -31 -17 6
-20 3 -17 -12 4 -22 34 -28 71 -14 22 9 27 17 27 46 0 20 -4 45 -10 55 -7 13
-6 21 5 30 16 14 21 95 6 104 -5 3 -14 -1 -21 -9z"/>
<path d="M3540 1445 c0 -10 7 -15 18 -13 21 4 19 22 -2 26 -10 2 -16 -3 -16
-13z"/>
<path d="M4065 1451 c-7 -13 5 -90 16 -97 5 -3 21 8 34 25 14 16 36 32 48 34
21 4 21 4 1 6 -11 0 -29 10 -39 21 -19 21 -50 27 -60 11z"/>
<path d="M8627 1435 c-9 -22 3 -46 22 -43 10 2 16 13 16 28 0 28 -29 40 -38
15z"/>
<path d="M7634 1415 c-4 -9 -4 -18 -2 -21 9 -8 39 8 35 19 -6 18 -27 20 -33 2z"/>
<path d="M8870 1376 c0 -33 20 -44 37 -20 17 24 12 38 -15 42 -18 3 -22 -2
-22 -22z"/>
<path d="M7640 1346 c0 -40 15 -55 28 -29 11 20 -2 63 -18 63 -5 0 -10 -15
-10 -34z"/>
<path d="M2371 1298 c-1 -21 4 -38 9 -38 11 0 11 14 0 50 -7 22 -8 21 -9 -12z"/>
<path d="M5186 1305 c-3 -9 -6 -39 -6 -66 0 -43 2 -49 21 -49 20 0 21 3 14 58
-7 61 -18 83 -29 57z"/>
<path d="M8420 1285 c0 -40 26 -57 73 -48 36 7 34 20 -4 28 -18 4 -35 16 -41
31 -16 34 -28 30 -28 -11z"/>
<path d="M8900 1277 c0 -53 8 -62 32 -40 21 18 24 53 6 71 -24 24 -38 13 -38
-31z"/>
<path d="M3141 1276 c-6 -7 -9 -21 -5 -30 8 -21 -23 -33 -47 -18 -35 22 -43
12 -14 -18 46 -48 96 -35 110 30 10 46 -17 69 -44 36z"/>
<path d="M4040 1259 c-9 -16 -9 -28 0 -48 11 -25 12 -25 26 -6 18 24 18 49 0
64 -12 10 -17 8 -26 -10z"/>
<path d="M8746 1255 c-16 -12 -17 -17 -6 -30 8 -10 11 -30 7 -58 -7 -47 3 -73
25 -64 11 4 14 22 13 77 -3 80 -11 95 -39 75z"/>
<path d="M4299 1253 c-1 -5 -2 -25 -3 -46 -1 -37 0 -38 29 -34 17 3 38 0 48
-5 23 -12 34 -3 18 16 -7 8 -9 25 -5 42 6 24 5 27 -15 21 -11 -3 -24 -1 -27 4
-6 11 -43 12 -45 2z"/>
<path d="M5268 1223 c-1 -15 -1 -46 0 -68 2 -22 -2 -47 -8 -55 -9 -13 -12 -13
-23 0 -10 12 -39 15 -150 15 -76 -1 -141 3 -144 7 -7 12 -75 -2 -94 -19 -14
-12 -22 -11 -57 8 -39 21 -43 21 -60 6 -20 -19 -62 -23 -62 -7 0 14 -27 13
-32 -1 -4 -13 -10 -13 -184 -7 -92 3 -137 1 -148 -7 -24 -18 -20 -24 24 -31
22 -4 40 -10 40 -15 0 -11 -13 -13 -61 -10 -20 2 -40 -2 -44 -8 -7 -12 8 -14
63 -11 35 2 52 -20 33 -44 -8 -10 -8 -16 3 -26 20 -16 32 -7 39 29 4 20 14 30
32 35 20 5 25 11 20 25 -8 25 7 33 41 25 l27 -7 -23 -17 -23 -18 21 -11 c18
-9 20 -16 12 -30 -10 -20 -4 -31 16 -31 16 0 55 76 48 94 -7 17 28 30 56 21
14 -5 19 -12 15 -25 -4 -12 1 -19 16 -23 30 -8 43 1 28 20 -10 12 -10 16 2 24
8 5 18 7 23 6 11 -4 20 -149 12 -192 -5 -27 -10 -30 -45 -31 -31 -1 -40 3 -44
17 -8 32 -27 21 -27 -15 0 -35 11 -41 86 -49 11 -1 28 -8 36 -14 18 -15 25 -9
44 36 10 24 11 37 4 47 -11 13 -21 120 -12 142 2 6 14 12 26 13 20 0 20 1 -2
10 -35 14 -21 34 24 34 35 0 39 -3 39 -25 0 -22 4 -25 43 -27 41 -3 42 -2 42
27 0 19 5 30 14 30 28 0 46 -12 46 -30 0 -27 14 -32 67 -24 l46 7 -29 15 -29
15 30 10 c27 9 40 3 35 -19 -3 -11 35 -33 57 -34 30 0 38 17 13 30 -30 16 -7
42 34 38 26 -3 31 -8 38 -38 4 -19 5 -82 2 -140 -10 -190 -7 -221 26 -237 49
-25 130 -6 130 31 0 24 -37 49 -57 38 -46 -24 -83 29 -48 68 13 15 13 20 1 46
-12 23 -14 70 -13 214 1 168 0 185 -16 188 -13 3 -17 -4 -19 -25z m117 -523
c3 -5 -3 -10 -14 -10 -12 0 -21 5 -21 10 0 6 6 10 14 10 8 0 18 -4 21 -10z"/>
<path d="M2983 1228 c-13 -6 -23 -17 -23 -25 0 -15 41 -35 52 -24 11 11 14 54
3 57 -5 1 -20 -2 -32 -8z"/>
<path d="M7075 1209 c-4 -6 -3 -15 3 -21 6 -6 11 -4 15 6 7 18 -9 31 -18 15z"/>
<path d="M7225 1209 c-4 -6 -3 -15 3 -21 6 -6 11 -4 15 6 7 18 -9 31 -18 15z"/>
<path d="M8815 1174 c-6 -40 -4 -50 11 -61 19 -14 62 -17 88 -7 18 7 21 41 6
64 -8 12 -11 11 -16 -8 -5 -18 -13 -22 -33 -20 -21 2 -27 9 -29 33 -6 50 -19
49 -27 -1z"/>
<path d="M27 1204 c-4 -4 -7 -25 -7 -46 0 -21 -4 -38 -10 -38 -6 0 -10 -33
-10 -80 0 -44 4 -80 9 -80 15 0 21 29 11 56 -15 37 -2 101 21 107 15 4 18 11
13 39 -7 37 -17 52 -27 42z"/>
<path d="M86 1203 c-9 -10 -7 -73 3 -73 18 0 29 64 12 74 -4 3 -11 3 -15 -1z"/>
<path d="M6688 1192 c-4 -12 -2 -25 4 -28 16 -10 22 4 11 28 l-10 22 -5 -22z"/>
<path d="M8967 1168 c-6 -47 -3 -58 19 -58 10 0 14 13 14 50 0 64 -25 70 -33
8z"/>
<path d="M5395 1170 c3 -5 15 -10 26 -10 11 0 17 5 14 10 -3 6 -15 10 -26 10
-11 0 -17 -4 -14 -10z"/>
<path d="M5486 1151 c7 -35 -10 -48 -42 -31 -33 18 -104 -2 -104 -29 0 -11 7
-22 15 -25 9 -3 15 -14 13 -23 -2 -14 5 -19 30 -21 48 -5 68 4 52 23 -8 10 -9
15 -2 15 6 0 16 -8 21 -19 6 -11 26 -21 52 -25 47 -8 69 4 51 27 -14 16 -6 27
20 27 10 0 24 -11 30 -25 9 -21 18 -25 55 -25 46 0 57 13 21 25 -23 8 -23 8 2
12 55 8 68 14 74 29 9 23 -3 37 -20 23 -9 -8 -18 -8 -26 -2 -7 6 -32 13 -55
17 -32 5 -44 2 -51 -9 -7 -13 -13 -14 -38 -4 -16 7 -40 13 -54 13 -21 1 -25 5
-22 29 2 19 -2 27 -12 27 -12 0 -14 -7 -10 -29z"/>
<path d="M8693 1165 c-13 -22 -4 -65 12 -65 21 0 28 37 12 61 -14 19 -16 19
-24 4z"/>
<path d="M6754 1156 c-6 -16 12 -56 26 -56 15 0 22 40 10 55 -16 19 -29 19
-36 1z"/>
<path d="M2350 1140 c0 -5 7 -10 15 -10 8 0 15 5 15 10 0 6 -7 10 -15 10 -8 0
-15 -4 -15 -10z"/>
<path d="M3894 1106 c-4 -10 -2 -22 4 -28 8 -8 13 -7 18 6 4 10 2 22 -4 28 -8
8 -13 7 -18 -6z"/>
<path d="M2339 1094 c-6 -8 -9 -17 -6 -20 8 -8 47 5 47 16 0 15 -29 19 -41 4z"/>
<path d="M7314 1096 c-3 -8 -3 -20 1 -26 10 -16 55 -12 62 5 7 19 5 20 -30 29
-20 5 -29 2 -33 -8z"/>
<path d="M4044 1086 c-3 -8 -20 -18 -37 -21 -18 -4 -48 -14 -67 -23 l-35 -16
35 -9 c54 -14 121 -3 143 24 10 12 16 29 15 38 -4 21 -46 27 -54 7z"/>
<path d="M8863 1068 c-12 -17 -10 -67 5 -95 7 -12 12 -35 12 -50 0 -37 47 -74
90 -71 26 2 30 6 30 33 0 26 -4 31 -26 33 -14 1 -30 5 -36 8 -10 6 -6 67 7
110 5 17 2 22 -17 26 -13 3 -30 8 -39 12 -9 4 -20 1 -26 -6z"/>
<path d="M2307 1053 c-4 -3 -7 -14 -7 -24 0 -30 78 -40 88 -12 2 7 -5 16 -15
19 -10 3 -26 10 -35 15 -21 11 -23 11 -31 2z"/>
<path d="M3117 1030 c3 -11 9 -17 14 -15 10 7 1 35 -11 35 -5 0 -6 -9 -3 -20z"/>
<path d="M8767 1034 c-14 -14 -6 -24 19 -24 16 0 24 5 22 13 -5 14 -31 21 -41
11z"/>
<path d="M7344 996 c-3 -8 -19 -18 -35 -21 -36 -8 -37 -22 -4 -37 18 -8 28 -8
39 1 10 9 29 11 55 6 45 -7 66 10 28 24 -13 5 -27 17 -30 25 -8 20 -46 21 -53
2z"/>
<path d="M1255 971 c-7 -12 12 -24 25 -16 11 7 4 25 -10 25 -5 0 -11 -4 -15
-9z"/>
<path d="M5156 972 c-3 -5 0 -15 8 -21 8 -7 12 -21 9 -31 -4 -14 0 -20 11 -20
23 0 21 43 -3 64 -11 10 -22 13 -25 8z"/>
<path d="M2352 958 c6 -16 32 -22 64 -14 40 10 27 26 -22 26 -32 0 -44 -4 -42
-12z"/>
<path d="M5490 951 c0 -12 6 -21 15 -21 8 0 15 4 15 9 0 5 -7 14 -15 21 -13
10 -15 9 -15 -9z"/>
<path d="M5636 954 c-9 -22 -8 -24 9 -24 8 0 15 9 15 20 0 24 -15 27 -24 4z"/>
<path d="M6147 944 c-4 -4 -7 -18 -7 -30 0 -26 -25 -44 -85 -59 -51 -14 -62
-49 -18 -58 15 -3 36 -1 46 5 11 5 30 7 44 3 40 -10 51 8 48 78 -4 58 -12 77
-28 61z"/>
<path d="M5540 915 c0 -8 5 -15 10 -15 6 0 10 7 10 15 0 8 -4 15 -10 15 -5 0
-10 -7 -10 -15z"/>
<path d="M8776 917 c-15 -11 -16 -17 -5 -40 15 -34 26 -34 41 -2 9 21 9 29 -3
40 -12 13 -18 13 -33 2z"/>
<path d="M6625 908 c-2 -7 -5 -22 -7 -33 -2 -13 -12 -21 -31 -23 -33 -4 -35
-18 -5 -28 13 -4 28 -14 35 -23 10 -13 15 -14 32 -3 32 19 138 16 149 -4 5 -9
14 -14 21 -10 16 10 14 43 -4 50 -12 4 -13 10 -6 25 8 14 6 22 -8 35 -16 15
-19 15 -36 -4 -10 -11 -26 -20 -35 -20 -9 0 -25 -7 -36 -15 -27 -20 -37 -18
-31 7 10 37 -26 80 -38 46z"/>
<path d="M2992 873 c-9 -30 -17 -41 -27 -37 -8 4 -15 10 -15 15 0 5 -13 9 -30
9 -18 0 -30 -5 -30 -13 0 -17 34 -49 43 -41 3 3 51 6 107 5 93 -2 101 0 98 16
-3 13 -11 17 -30 15 -15 -1 -29 2 -32 7 -3 5 -14 7 -24 4 -21 -5 -38 12 -44
42 -2 14 -7 8 -16 -22z"/>
<path d="M4920 878 c0 -7 -3 -30 -6 -50 -5 -31 -4 -38 10 -38 12 0 16 10 16
44 0 25 -4 48 -10 51 -5 3 -10 0 -10 -7z"/>
<path d="M7299 874 c-9 -11 -10 -20 -3 -32 17 -26 33 -25 40 2 10 42 -12 60
-37 30z"/>
<path d="M5080 865 c0 -8 5 -15 10 -15 6 0 10 7 10 15 0 8 -4 15 -10 15 -5 0
-10 -7 -10 -15z"/>
<path d="M5217 858 c-7 -27 -30 -37 -41 -20 -7 12 -80 -1 -76 -13 2 -5 23 -18
47 -27 43 -16 44 -16 66 5 18 17 22 29 17 52 l-6 30 -7 -27z"/>
<path d="M2692 850 c-11 -28 -1 -46 22 -37 20 8 20 18 2 43 -14 18 -15 18 -24
-6z"/>
<path d="M5637 864 c-4 -4 -7 -18 -7 -30 0 -13 -4 -26 -10 -29 -5 -3 -10 -23
-10 -44 0 -20 -6 -46 -14 -56 -13 -18 -15 -18 -49 -2 -47 23 -61 21 -93 -8
l-27 -25 39 -2 c21 -1 53 -2 71 -3 18 0 35 -4 39 -7 4 -4 15 -3 25 2 24 14 46
3 53 -26 8 -31 32 -31 40 -1 4 16 17 27 43 34 l38 10 -43 2 c-49 1 -55 24 -9
29 30 4 27 22 -4 22 -22 0 -43 42 -34 69 5 18 -36 76 -48 65z"/>
<path d="M4369 838 c-13 -23 8 -55 24 -39 6 6 29 8 54 4 38 -5 43 -3 43 13 0
33 -14 42 -63 42 -36 -1 -50 -6 -58 -20z"/>
<path d="M4541 836 c-18 -19 -22 -33 -19 -72 3 -43 6 -49 27 -52 22 -3 23 -2
16 38 -5 28 -3 50 6 66 19 36 -1 50 -30 20z"/>
<path d="M5397 846 c-4 -9 -13 -16 -22 -16 -22 0 -18 -12 10 -33 23 -16 24
-16 34 0 8 15 12 16 34 4 19 -10 38 -11 73 -5 50 10 73 34 32 34 -13 0 -33 6
-44 14 -13 10 -23 11 -31 4 -12 -10 -29 -8 -64 6 -10 5 -19 1 -22 -8z"/>
<path d="M7394 849 c-9 -16 18 -30 33 -17 7 6 10 14 7 19 -7 13 -31 11 -40 -2z"/>
<path d="M4985 836 c-17 -14 -18 -17 -5 -26 8 -6 27 -13 42 -16 22 -5 29 -14
34 -40 5 -30 11 -35 44 -40 27 -4 41 -13 49 -30 11 -26 61 -35 61 -11 0 24
-31 57 -54 57 -23 0 -58 32 -70 64 -4 12 -12 16 -23 12 -11 -5 -24 2 -37 19
-19 24 -23 25 -41 11z"/>
<path d="M5724 839 c-7 -12 42 -41 63 -37 10 2 18 10 18 18 0 16 -72 33 -81
19z"/>
<path d="M8860 831 c-41 -5 -56 -10 -58 -23 -5 -28 41 -44 84 -29 19 7 43 10
53 6 23 -7 35 8 26 35 -7 21 -8 21 -105 11z"/>
<path d="M4020 820 c-24 -8 -24 -8 7 -9 17 -1 35 4 38 9 7 11 -9 11 -45 0z"/>
<path d="M7048 755 c-4 -38 4 -45 52 -45 37 0 45 13 20 35 -10 9 -16 23 -13
31 4 10 -3 14 -25 14 -27 0 -30 -4 -34 -35z"/>
<path d="M3896 753 c-5 -17 -3 -29 6 -34 34 -22 58 3 38 40 -15 29 -37 26 -44
-6z"/>
<path d="M3092 763 c-12 -2 -27 -14 -33 -26 -7 -12 -18 -26 -25 -30 -21 -12
-17 -27 7 -27 34 0 119 32 119 45 0 12 -32 46 -41 44 -2 -1 -14 -4 -27 -6z"/>
<path d="M2567 742 c-19 -20 -13 -32 14 -32 25 0 34 19 17 36 -12 13 -17 12
-31 -4z"/>
<path d="M5930 670 c0 -5 7 -10 15 -10 8 0 15 5 15 10 0 6 -7 10 -15 10 -8 0
-15 -4 -15 -10z"/>
<path d="M2383 653 c-7 -2 -13 -16 -13 -29 0 -23 3 -25 38 -22 29 2 38 8 40
24 4 26 -32 41 -65 27z"/>
<path d="M7078 582 c-33 -4 -37 -22 -7 -29 21 -6 21 -7 4 -19 -28 -21 -9 -29
62 -27 52 1 69 -3 84 -18 23 -23 79 -26 79 -4 0 8 9 19 20 25 11 6 20 17 20
24 0 8 8 17 17 20 37 15 -9 25 -127 28 -69 2 -137 2 -152 0z"/>
<path d="M3375 570 c3 -5 13 -10 21 -10 8 0 14 5 14 10 0 6 -9 10 -21 10 -11
0 -17 -4 -14 -10z"/>
<path d="M6706 571 c-3 -4 5 -18 19 -31 20 -18 30 -21 64 -15 23 4 43 11 47
16 9 14 42 10 52 -6 12 -23 102 1 102 27 0 16 -12 18 -139 18 -77 0 -142 -4
-145 -9z"/>
<path d="M7478 574 c-4 -4 5 -17 21 -28 24 -18 42 -21 132 -20 57 0 114 4 125
8 16 5 30 -1 53 -20 31 -26 31 -26 75 -9 43 17 92 13 80 -6 -8 -14 6 -51 19
-46 6 2 14 14 17 28 5 21 11 23 45 21 22 -2 48 -11 57 -19 20 -18 72 -12 98
12 12 11 28 13 68 6 29 -4 55 -4 58 0 3 5 25 6 49 2 72 -9 275 7 275 22 0 20
-68 25 -405 30 -165 2 -345 7 -400 10 -55 4 -125 3 -157 -2 -51 -9 -112 -5
-178 12 -14 4 -29 3 -32 -1z m692 -64 c0 -5 -9 -10 -19 -10 -11 0 -23 5 -26
10 -4 6 5 10 19 10 14 0 26 -4 26 -10z"/>
<path d="M7403 540 c-10 -11 -23 -20 -30 -20 -18 0 -16 -15 3 -31 13 -10 17
-10 25 2 5 8 9 17 9 21 0 4 11 10 25 14 14 3 25 12 25 20 0 21 -38 17 -57 -6z"/>
<path d="M7000 520 c0 -5 9 -10 19 -10 11 0 23 5 26 10 4 6 -5 10 -19 10 -14
0 -26 -4 -26 -10z"/>
<path d="M6840 485 c0 -8 5 -15 10 -15 6 0 10 7 10 15 0 8 -4 15 -10 15 -5 0
-10 -7 -10 -15z"/>
<path d="M7438 482 c-43 -17 -48 -29 -15 -41 16 -6 24 -4 31 8 5 9 14 19 19
22 24 16 -2 24 -35 11z"/>
<path d="M8670 490 c0 -5 10 -10 23 -10 13 0 28 -5 35 -12 15 -15 26 -4 19 17
-7 17 -77 22 -77 5z"/>
<path d="M2288 474 c-31 -6 -36 -19 -12 -28 9 -3 87 -6 175 -6 158 0 160 0
168 -23 8 -21 18 -25 80 -31 75 -7 148 0 168 16 7 5 25 7 42 3 22 -5 28 -11
24 -24 -3 -11 0 -22 6 -25 5 -4 58 -4 116 0 87 6 105 10 103 22 -2 11 8 18 30
23 18 4 36 10 40 13 24 25 -77 29 -393 15 -37 -1 -146 15 -177 27 -38 14 -316
27 -370 18z"/>
<path d="M2200 460 c-12 -8 -9 -10 13 -10 15 0 27 5 27 10 0 13 -20 13 -40 0z"/>
<path d="M8475 460 c-4 -6 5 -10 20 -10 15 0 24 4 20 10 -3 6 -12 10 -20 10
-8 0 -17 -4 -20 -10z"/>
<path d="M8298 423 c12 -2 30 -2 40 0 9 3 -1 5 -23 4 -22 0 -30 -2 -17 -4z"/>
<path d="M2445 390 c-22 -5 -49 -6 -61 -3 -13 2 -29 -3 -40 -14 -11 -11 -33
-18 -58 -18 -22 0 -41 -5 -43 -12 -6 -17 100 -18 130 -1 12 6 39 11 61 9 36
-2 76 19 76 41 0 9 -9 9 -65 -2z"/>
<path d="M8335 370 c-27 -6 -24 -7 27 -14 31 -5 62 -5 68 -1 6 4 17 1 25 -5 8
-6 19 -9 24 -5 6 3 26 -1 44 -10 22 -10 55 -14 102 -13 69 3 70 3 73 -23 3
-24 8 -27 40 -27 33 0 35 1 18 13 -22 17 -13 35 19 35 13 0 27 5 30 10 6 9
-18 14 -55 11 -8 0 -62 6 -120 15 -122 18 -252 24 -295 14z"/>
<path d="M1820 362 c0 -17 42 -53 57 -48 8 3 19 6 25 6 5 0 8 10 6 23 -2 18
-10 23 -45 25 -24 2 -43 -1 -43 -6z"/>
<path d="M1965 348 c-2 -7 -3 -24 -2 -38 2 -20 -2 -25 -20 -23 -28 3 -31 -23
-7 -68 11 -22 20 -28 33 -24 10 3 24 -1 31 -10 14 -16 85 -21 94 -6 4 5 -8 12
-25 16 -39 9 -75 43 -61 57 8 8 19 6 36 -6 34 -21 58 -20 90 5 45 35 22 90
-25 61 -28 -18 -41 -15 -79 18 -38 32 -58 37 -65 18z"/>
<path d="M1601 336 c-9 -11 -8 -18 4 -30 9 -9 23 -16 30 -16 14 0 45 37 45 52
0 14 -67 9 -79 -6z"/>
<path d="M2675 340 c-16 -4 -52 -8 -78 -9 -71 -2 -83 -11 -79 -60 2 -23 8 -41
13 -41 5 0 9 -11 9 -25 0 -16 -6 -25 -15 -25 -9 0 -15 9 -15 25 0 31 -9 31
-38 0 l-23 -24 20 -46 c14 -32 26 -45 40 -45 11 0 23 -4 26 -10 3 -5 17 -10
31 -10 14 0 36 -12 51 -26 34 -34 62 -25 29 11 -13 14 -31 25 -40 25 -20 0
-21 19 -1 26 23 9 18 19 -17 29 -40 13 -47 32 -14 41 34 8 33 15 -9 48 -38 30
-46 62 -17 70 23 6 181 -9 312 -30 148 -23 165 -23 165 1 0 18 -10 21 -87 30
-73 8 -90 14 -103 33 -14 19 -25 22 -73 21 -31 -1 -70 -5 -87 -9z"/>
<path d="M1696 281 c-14 -22 -30 -42 -36 -46 -5 -3 -10 -13 -10 -21 0 -11 9
-15 33 -14 17 1 37 1 42 -1 6 -2 44 -3 87 -3 81 -1 88 8 27 40 -16 8 -26 20
-24 27 6 17 -5 30 -38 45 -43 19 -55 15 -81 -27z"/>
<path d="M2215 282 c-13 -13 -3 -22 25 -22 27 0 30 -3 30 -31 l0 -32 75 5 c42
3 79 8 82 12 10 10 -18 26 -46 26 -20 0 -22 2 -11 15 7 9 11 17 9 19 -7 6
-158 13 -164 8z"/>
<path d="M8940 249 c0 -14 7 -19 30 -19 17 0 30 4 30 8 0 4 -13 13 -30 19 -27
10 -30 9 -30 -8z"/>
<path d="M5090 245 c0 -10 7 -15 18 -13 21 4 19 22 -2 26 -10 2 -16 -3 -16
-13z"/>
<path d="M8615 240 c3 -5 17 -10 30 -10 13 0 27 5 30 10 4 6 -8 10 -30 10 -22
0 -34 -4 -30 -10z"/>
<path d="M897 234 c-4 -4 -7 -13 -7 -21 0 -9 16 -13 55 -13 62 0 73 14 19 24
-19 4 -41 9 -48 12 -7 2 -15 1 -19 -2z"/>
<path d="M730 220 c0 -5 20 -10 45 -10 25 0 45 5 45 10 0 6 -20 10 -45 10 -25
0 -45 -4 -45 -10z"/>
<path d="M2184 220 c-13 -5 -27 -25 -34 -45 -7 -20 -21 -40 -31 -44 -20 -7
176 -3 199 4 22 8 12 23 -23 35 -19 6 -43 22 -54 36 -20 26 -25 27 -57 14z"/>
<path d="M8745 211 c6 -5 23 -13 39 -17 22 -5 28 -4 24 7 -2 8 -20 15 -39 17
-23 2 -31 0 -24 -7z"/>
<path d="M2700 195 c0 -9 -6 -12 -15 -9 -11 5 -15 -1 -15 -25 0 -31 13 -41 26
-20 13 22 22 -13 10 -43 -17 -47 6 -57 114 -51 86 4 89 4 105 -21 l17 -25 39
24 c49 31 59 31 59 0 0 -20 5 -25 25 -25 29 0 32 16 10 47 -14 20 -14 23 1 31
9 5 25 7 35 5 11 -3 31 8 53 31 43 42 45 50 11 42 -14 -4 -41 0 -61 9 -65 27
-112 11 -70 -25 12 -9 13 -17 4 -36 -12 -25 -32 -32 -43 -14 -3 6 -17 10 -30
10 -13 0 -27 -4 -30 -10 -3 -5 -35 -10 -71 -10 -57 0 -64 2 -64 20 0 10 9 24
20 30 27 15 25 39 -5 50 -14 5 -25 14 -25 20 0 5 -22 10 -50 10 -37 0 -50 -4
-50 -15z"/>
<path d="M155 190 c3 -5 22 -10 41 -10 21 0 33 4 29 10 -3 6 -22 10 -41 10
-21 0 -33 -4 -29 -10z"/>
<path d="M2905 190 c-11 -17 5 -32 21 -19 7 6 11 15 8 20 -7 12 -21 11 -29 -1z"/>
<path d="M1565 180 c-11 -5 -46 -9 -77 -9 -45 -1 -58 -4 -58 -16 0 -15 27 -21
82 -17 17 1 32 -5 40 -17 18 -26 111 -34 116 -10 2 10 -6 19 -20 22 -13 4 -27
16 -33 28 -12 27 -23 31 -50 19z"/>
<path d="M3243 144 c-7 -3 -13 -12 -13 -20 0 -8 -10 -14 -26 -14 -16 0 -24 -5
-22 -12 6 -16 48 -23 48 -9 0 6 17 10 38 9 20 0 47 2 58 6 19 7 22 3 28 -28 5
-25 11 -33 21 -30 8 3 29 -3 47 -13 45 -26 175 -24 194 2 20 27 6 38 -37 31
-24 -4 -39 -2 -39 4 0 5 5 10 10 10 6 0 10 5 10 11 0 6 -16 10 -37 8 -42 -3
-90 8 -112 25 -8 6 -30 12 -50 13 -20 1 -52 4 -71 7 -19 3 -41 3 -47 0z"/>
<path d="M1722 122 c-35 -23 -26 -32 32 -32 30 0 58 -5 62 -11 3 -6 17 -8 30
-5 15 4 33 1 47 -9 27 -19 77 -19 103 0 10 8 34 15 52 15 32 0 46 23 20 32
-25 9 -139 1 -151 -11 -16 -16 -27 -14 -36 11 -7 18 -16 21 -72 23 -43 2 -72
-3 -87 -13z"/>
<path d="M968 123 c-10 -2 -18 -13 -18 -23 0 -32 18 -32 35 0 16 30 15 31 -17
23z"/>
<path d="M2392 118 c-19 -19 -15 -48 7 -48 35 0 51 12 51 36 0 18 -5 24 -23
24 -13 0 -28 -5 -35 -12z"/>
<path d="M3663 68 c-27 -13 -29 -30 -7 -49 20 -17 431 -28 421 -11 -4 5 -56
10 -116 10 -61 1 -118 5 -128 10 -20 10 -109 42 -133 48 -8 2 -25 -2 -37 -8z"/>
<path d="M2074 56 c-21 -16 -16 -20 43 -30 43 -7 51 9 14 29 -36 18 -33 18
-57 1z"/>
<path d="M2183 51 c-15 -15 -14 -16 18 -22 19 -3 41 -8 49 -10 10 -3 15 3 15
16 0 27 -59 39 -82 16z"/>
<path d="M7803 63 c15 -2 37 -2 50 0 12 2 0 4 -28 4 -27 0 -38 -2 -22 -4z"/>
<path d="M2305 40 c-3 -6 1 -13 10 -16 19 -8 30 0 20 15 -8 14 -22 14 -30 1z"/>
<path d="M2441 24 c-17 -18 -19 -24 -8 -24 8 0 17 6 20 13 4 10 7 9 18 -1 16
-14 59 -16 59 -2 0 6 -8 10 -17 10 -9 0 -24 6 -32 14 -14 13 -19 12 -40 -10z"/>
<path d="M3285 39 c-8 -12 14 -31 30 -26 6 2 10 10 10 18 0 17 -31 24 -40 8z"/>
<path d="M4370 35 c0 -8 7 -15 15 -15 8 0 15 7 15 15 0 8 -7 15 -15 15 -8 0
-15 -7 -15 -15z"/>
<path d="M8235 40 c-4 -7 -3 -16 3 -22 14 -14 45 -2 40 15 -6 16 -34 21 -43 7z"/>
<path d="M8535 10 c-4 -6 5 -10 20 -10 15 0 24 4 20 10 -3 5 -12 10 -20 10 -8
0 -17 -4 -20 -10z"/>
</g>
</svg>
