<?xml version="1.0" standalone="no"?>
<!DOCTYPE svg PUBLIC "-//W3C//DTD SVG 20010904//EN"
 "http://www.w3.org/TR/2001/REC-SVG-20010904/DTD/svg10.dtd">
<svg version="1.0" xmlns="http://www.w3.org/2000/svg"
 width="300.000000pt" height="150.000000pt" viewBox="0 0 300.000000 150.000000"
 preserveAspectRatio="xMidYMid meet">
<metadata>
Created by potrace 1.10, written by Peter Selinger 2001-2011
</metadata>
<g transform="translate(0.000000,150.000000) scale(0.100000,-0.100000)"
fill="#000000" stroke="none">
<path d="M721 1484 c0 -11 3 -14 6 -6 3 7 2 16 -1 19 -3 4 -6 -2 -5 -13z"/>
<path d="M948 1493 c10 -4 9 -9 -4 -24 -10 -11 -12 -19 -6 -19 7 0 12 5 12 10
0 6 8 10 18 10 9 0 25 7 35 14 16 12 13 14 -25 14 -24 0 -37 -2 -30 -5z"/>
<path d="M1036 1485 c4 -8 10 -15 16 -15 5 0 7 4 3 9 -3 5 5 12 17 14 17 3 15
5 -9 6 -25 1 -31 -2 -27 -14z"/>
<path d="M2140 1490 c-11 -8 -7 -9 15 -4 37 8 45 14 19 14 -10 0 -26 -5 -34
-10z"/>
<path d="M2215 1490 c4 -6 11 -8 16 -5 14 9 11 15 -7 15 -8 0 -12 -5 -9 -10z"/>
<path d="M1450 1480 c0 -5 5 -10 10 -10 6 0 10 -5 10 -11 0 -5 -3 -8 -7 -6 -5
2 -16 -4 -25 -15 -24 -24 -7 -23 25 2 15 12 24 27 20 35 -6 17 -33 21 -33 5z"/>
<path d="M992 1450 c-12 -10 -18 -21 -14 -24 5 -3 20 6 32 19 28 29 15 33 -18
5z"/>
<path d="M1080 1459 c0 -5 5 -7 10 -4 6 3 10 8 10 11 0 2 -4 4 -10 4 -5 0 -10
-5 -10 -11z"/>
<path d="M1071 1423 c0 -11 3 -13 6 -6 3 10 8 10 19 -1 17 -18 18 -38 2 -54
-9 -9 -6 -12 14 -10 19 2 24 6 18 14 -6 6 -7 14 -3 17 7 8 -35 57 -49 57 -4 0
-8 -8 -7 -17z"/>
<path d="M1367 1433 c-10 -3 -30 -11 -45 -20 -26 -14 -26 -15 -2 -8 14 4 34 8
45 10 11 2 22 4 25 5 3 1 8 2 13 1 4 0 7 4 7 9 0 10 -12 11 -43 3z"/>
<path d="M930 1414 c0 -8 -4 -13 -9 -10 -5 3 -14 -1 -21 -9 -11 -13 -7 -15 22
-15 26 0 34 4 35 19 1 11 -5 22 -13 25 -8 3 -14 -1 -14 -10z"/>
<path d="M808 1413 c7 -3 16 -2 19 1 4 3 -2 6 -13 5 -11 0 -14 -3 -6 -6z"/>
<path d="M835 1400 c-7 -12 -7 -12 23 -15 25 -3 30 10 6 19 -21 8 -22 8 -29
-4z"/>
<path d="M783 1375 c13 -27 33 -35 23 -9 -3 9 -6 20 -6 25 0 5 -6 9 -14 9 -11
0 -12 -5 -3 -25z"/>
<path d="M1295 1380 c-3 -5 -1 -10 4 -10 6 0 11 5 11 10 0 6 -2 10 -4 10 -3 0
-8 -4 -11 -10z"/>
<path d="M701 1354 c0 -11 3 -14 6 -6 3 7 2 16 -1 19 -3 4 -6 -2 -5 -13z"/>
<path d="M1670 1359 c0 -5 5 -7 10 -4 6 3 10 8 10 11 0 2 -4 4 -10 4 -5 0 -10
-5 -10 -11z"/>
<path d="M2495 1340 c-17 -19 -17 -20 1 -20 10 0 28 7 38 15 11 8 15 15 10 15
-6 0 -16 -6 -23 -12 -11 -11 -13 -10 -8 5 8 22 4 22 -18 -3z"/>
<path d="M2437 1329 c-25 -28 -12 -38 13 -11 11 12 20 24 20 27 0 12 -17 4
-33 -16z"/>
<path d="M1287 1334 c-4 -4 -7 -12 -7 -18 0 -6 4 -4 10 4 8 13 10 13 14 0 6
-19 9 -40 7 -64 -1 -26 -18 -9 -24 24 -4 23 -6 -3 -6 -105 0 -22 0 -60 -1 -85
0 -25 -1 -82 -2 -127 -1 -55 -5 -80 -12 -76 -6 3 -5 0 1 -7 7 -8 15 -11 18 -8
3 3 7 83 9 179 1 96 7 174 12 174 5 0 12 -43 15 -95 l6 -95 0 125 c0 69 -3
136 -7 149 -6 26 -21 36 -33 25z"/>
<path d="M1506 1325 c4 -8 8 -15 10 -15 2 0 4 7 4 15 0 8 -4 15 -10 15 -5 0
-7 -7 -4 -15z"/>
<path d="M710 1326 c0 -2 7 -6 15 -10 8 -3 15 -1 15 4 0 6 -7 10 -15 10 -8 0
-15 -2 -15 -4z"/>
<path d="M694 1265 c4 -20 1 -25 -16 -25 -19 0 -19 -1 3 -19 12 -10 31 -16 40
-14 21 6 35 36 18 42 -6 2 -20 12 -30 22 -19 19 -19 19 -15 -6z"/>
<path d="M1351 1274 c0 -11 3 -14 6 -6 3 7 2 16 -1 19 -3 4 -6 -2 -5 -13z"/>
<path d="M1439 1273 c-13 -16 -12 -17 4 -4 16 13 21 21 13 21 -2 0 -10 -8 -17
-17z"/>
<path d="M2980 1280 c0 -5 5 -10 10 -10 6 0 10 5 10 10 0 6 -4 10 -10 10 -5 0
-10 -4 -10 -10z"/>
<path d="M2459 1260 c-1 -5 -2 -14 -3 -18 0 -5 -14 -21 -31 -35 -16 -15 -25
-27 -19 -27 14 0 84 65 84 79 0 14 -30 14 -31 1z"/>
<path d="M462 1210 c-7 -11 -10 -20 -6 -20 7 0 34 27 34 34 0 13 -16 5 -28
-14z"/>
<path d="M1767 1216 c-7 -17 10 -21 32 -7 9 6 10 11 2 15 -6 4 -11 1 -11 -6 0
-11 -2 -10 -9 0 -7 11 -9 11 -14 -2z"/>
<path d="M520 1209 c0 -13 14 -17 35 -9 17 6 16 7 -8 12 -15 3 -27 2 -27 -3z"/>
<path d="M1035 1209 c-4 -6 -4 -13 -1 -16 3 -4 6 -1 6 6 0 7 5 9 10 6 6 -3 10
-1 10 4 0 14 -17 14 -25 0z"/>
<path d="M636 1195 c-3 -9 0 -15 9 -15 16 0 20 16 6 24 -5 3 -11 -1 -15 -9z"/>
<path d="M898 1203 c7 -3 16 -2 19 1 4 3 -2 6 -13 5 -11 0 -14 -3 -6 -6z"/>
<path d="M161 1191 c-10 -6 -10 -10 -1 -16 13 -8 24 -1 19 14 -3 6 -10 7 -18
2z"/>
<path d="M595 1190 c-3 -5 1 -10 9 -10 9 0 16 5 16 10 0 6 -4 10 -9 10 -6 0
-13 -4 -16 -10z"/>
<path d="M208 1173 c-10 -2 -18 -12 -18 -20 0 -14 3 -14 20 2 17 15 26 28 18
24 -2 -1 -11 -3 -20 -6z"/>
<path d="M255 1169 c-4 -6 -5 -13 -2 -15 9 -10 57 -11 57 -3 0 5 -12 9 -26 9
-14 0 -23 4 -19 10 3 6 4 10 1 10 -3 0 -8 -5 -11 -11z"/>
<path d="M733 1168 c-23 -11 -31 -28 -14 -28 10 0 41 28 41 36 0 5 0 5 -27 -8z"/>
<path d="M1498 1173 c-10 -2 -18 -9 -18 -14 0 -14 16 -11 30 6 7 8 11 14 9 14
-2 -1 -12 -3 -21 -6z"/>
<path d="M1566 1170 c-43 -13 -68 -40 -62 -66 7 -26 -12 -43 -25 -23 -5 8 -9
9 -9 3 0 -6 6 -17 14 -23 11 -10 19 -5 40 22 31 40 34 57 6 32 -18 -17 -20
-17 -20 -1 0 9 8 19 18 22 9 3 25 10 34 15 10 5 24 9 32 9 8 0 18 5 21 10 7
12 -9 12 -49 0z"/>
<path d="M2366 1164 c-5 -14 -4 -15 9 -4 17 14 19 20 6 20 -5 0 -12 -7 -15
-16z"/>
<path d="M1655 1160 c-3 -5 -1 -10 4 -10 6 0 11 5 11 10 0 6 -2 10 -4 10 -3 0
-8 -4 -11 -10z"/>
<path d="M2450 1160 c0 -5 5 -10 11 -10 5 0 7 5 4 10 -3 6 -8 10 -11 10 -2 0
-4 -4 -4 -10z"/>
<path d="M505 1150 c3 -5 11 -10 16 -10 6 0 7 5 4 10 -3 6 -11 10 -16 10 -6 0
-7 -4 -4 -10z"/>
<path d="M1420 1150 c-9 -6 -10 -10 -3 -10 6 0 15 5 18 10 8 12 4 12 -15 0z"/>
<path d="M1595 1142 c-23 -12 -26 -17 -13 -20 10 -2 27 6 40 17 26 24 15 25
-27 3z"/>
<path d="M2705 1149 c-4 -6 -4 -13 -1 -16 3 -4 6 -1 6 6 0 7 5 9 10 6 6 -3 10
-1 10 4 0 14 -17 14 -25 0z"/>
<path d="M2360 1131 c-14 -4 -27 -16 -29 -26 -3 -19 -2 -19 16 -2 11 9 25 17
31 17 6 0 14 5 17 10 7 11 2 11 -35 1z"/>
<path d="M2047 1099 c7 -7 15 -10 18 -7 3 3 -2 9 -12 12 -14 6 -15 5 -6 -5z"/>
<path d="M655 1090 c3 -5 8 -10 11 -10 2 0 4 5 4 10 0 6 -5 10 -11 10 -5 0 -7
-4 -4 -10z"/>
<path d="M300 1082 c0 -7 -7 -12 -15 -12 -8 0 -15 -4 -15 -10 0 -5 4 -10 9
-10 13 0 35 29 27 37 -3 3 -6 1 -6 -5z"/>
<path d="M510 1080 c-13 -8 -12 -10 3 -10 9 0 17 5 17 10 0 12 -1 12 -20 0z"/>
<path d="M2312 1076 c7 -8 17 -12 22 -9 4 3 2 9 -5 14 -22 13 -31 11 -17 -5z"/>
<path d="M2430 1079 c0 -5 5 -7 10 -4 6 3 10 8 10 11 0 2 -4 4 -10 4 -5 0 -10
-5 -10 -11z"/>
<path d="M2460 1079 c0 -5 5 -7 10 -4 6 3 10 8 10 11 0 2 -4 4 -10 4 -5 0 -10
-5 -10 -11z"/>
<path d="M2392 1060 c-7 -11 -8 -20 -3 -20 9 0 24 30 18 36 -1 2 -8 -6 -15
-16z"/>
<path d="M2490 1070 c0 -5 5 -10 10 -10 6 0 10 5 10 10 0 6 -4 10 -10 10 -5 0
-10 -4 -10 -10z"/>
<path d="M324 1062 c4 -7 2 -19 -4 -27 -7 -9 -8 -15 -2 -15 16 0 24 32 11 44
-9 8 -10 8 -5 -2z"/>
<path d="M2225 1045 c-30 -14 -30 -14 -4 -15 14 0 29 4 35 9 5 5 18 11 29 14
16 4 15 5 -5 5 -14 0 -38 -6 -55 -13z"/>
<path d="M375 1040 c-3 -5 -1 -10 4 -10 6 0 11 5 11 10 0 6 -2 10 -4 10 -3 0
-8 -4 -11 -10z"/>
<path d="M1301 973 c2 -98 17 -119 18 -25 1 48 -3 82 -9 82 -6 0 -10 -25 -9
-57z"/>
<path d="M1630 1014 c-13 -15 -6 -16 50 -5 6 2 -23 21 -31 21 -4 0 -12 -7 -19
-16z"/>
<path d="M2428 1023 c7 -3 16 -2 19 1 4 3 -2 6 -13 5 -11 0 -14 -3 -6 -6z"/>
<path d="M2720 1021 c0 -6 4 -13 10 -16 6 -3 7 1 4 9 -7 18 -14 21 -14 7z"/>
<path d="M1332 948 c-2 -64 1 -78 13 -78 12 0 15 -22 17 -132 l2 -133 3 130
c3 106 1 132 -11 141 -10 7 -16 33 -19 80 l-3 69 -2 -77z"/>
<path d="M1418 1013 c7 -3 16 -2 19 1 4 3 -2 6 -13 5 -11 0 -14 -3 -6 -6z"/>
<path d="M1490 1009 c0 -5 -4 -8 -9 -5 -5 4 -8 -1 -7 -9 4 -25 14 -28 21 -6 3
12 11 21 17 21 5 0 8 -6 5 -14 -4 -10 0 -12 15 -8 14 3 19 1 14 -6 -4 -7 -1
-12 9 -12 12 0 15 5 11 16 -5 13 -2 15 14 11 11 -3 23 -1 26 4 3 5 -7 10 -23
10 -15 1 -43 3 -60 5 -19 2 -33 -1 -33 -7z"/>
<path d="M1439 993 c-13 -16 -12 -17 4 -4 16 13 21 21 13 21 -2 0 -10 -8 -17
-17z"/>
<path d="M528 993 c7 -3 16 -2 19 1 4 3 -2 6 -13 5 -11 0 -14 -3 -6 -6z"/>
<path d="M2312 991 c-11 -7 -11 -9 0 -14 9 -3 15 1 15 9 0 8 -1 14 -1 14 -1 0
-7 -4 -14 -9z"/>
<path d="M270 953 c-13 -12 -21 -23 -17 -23 5 0 16 7 24 16 12 11 26 14 52 9
41 -8 38 2 -5 14 -24 6 -34 3 -54 -16z"/>
<path d="M404 970 c-12 -5 -25 -15 -29 -22 -6 -10 -5 -11 6 0 7 6 21 12 31 12
10 0 18 5 18 10 0 6 -1 10 -2 9 -2 0 -13 -4 -24 -9z"/>
<path d="M1406 963 c-6 -14 -5 -15 5 -6 7 7 10 15 7 18 -3 3 -9 -2 -12 -12z"/>
<path d="M455 960 c-18 -9 -18 -9 5 -8 63 3 89 -2 93 -19 4 -14 5 -12 6 5 1
18 -4 22 -28 22 -16 0 -35 2 -43 4 -7 3 -22 1 -33 -4z"/>
<path d="M1435 940 c-19 -8 -19 -9 2 -9 12 -1 25 4 28 9 7 12 -2 12 -30 0z"/>
<path d="M1490 929 c0 -5 5 -7 10 -4 6 3 10 8 10 11 0 2 -4 4 -10 4 -5 0 -10
-5 -10 -11z"/>
<path d="M2826 932 c-2 -4 -3 -20 -2 -35 2 -19 -1 -27 -13 -27 -14 0 -14 -2
-1 -10 26 -17 31 -11 29 35 -3 46 -4 51 -13 37z"/>
<path d="M1575 914 c9 -9 19 -13 23 -10 3 4 0 11 -8 16 -24 15 -33 11 -15 -6z"/>
<path d="M470 916 c0 -2 7 -6 15 -10 8 -3 15 -1 15 4 0 6 -7 10 -15 10 -8 0
-15 -2 -15 -4z"/>
<path d="M8 903 c7 -3 16 -2 19 1 4 3 -2 6 -13 5 -11 0 -14 -3 -6 -6z"/>
<path d="M54 895 c11 -8 22 -12 25 -9 6 6 -19 24 -34 24 -5 -1 -1 -7 9 -15z"/>
<path d="M288 899 c-10 -7 -10 -9 2 -10 8 0 25 -2 38 -5 12 -2 22 0 22 5 0 12
-46 20 -62 10z"/>
<path d="M1430 900 c0 -5 5 -10 10 -10 6 0 10 5 10 10 0 6 -4 10 -10 10 -5 0
-10 -4 -10 -10z"/>
<path d="M1460 901 c0 -5 11 -8 25 -8 13 0 22 3 19 8 -3 5 -14 9 -25 9 -10 0
-19 -4 -19 -9z"/>
<path d="M2580 875 c-19 -23 -8 -25 14 -4 11 11 15 19 9 19 -6 0 -16 -7 -23
-15z"/>
<path d="M2856 875 c-12 -31 -6 -74 11 -83 14 -8 12 -12 -13 -25 -16 -9 -24
-16 -17 -17 6 0 10 -9 8 -20 -2 -11 3 -26 11 -34 17 -18 19 -49 2 -44 -7 3
-15 18 -18 34 l-6 29 -7 -25 c-9 -34 -9 -42 2 -35 5 3 13 0 16 -6 4 -5 13 -8
20 -5 16 6 38 -17 27 -29 -4 -5 -1 -5 6 -1 6 4 12 3 12 -2 0 -17 -13 -22 -28
-9 -11 8 -14 8 -9 0 4 -6 1 -13 -5 -16 -7 -2 -9 -8 -5 -13 4 -5 12 -2 17 6 6
8 10 10 10 5 0 -6 -5 -16 -12 -23 -9 -9 -9 -12 0 -12 14 0 45 57 37 70 -3 5 3
14 14 20 13 7 22 7 26 0 3 -5 2 -10 -3 -10 -16 0 -24 -33 -10 -42 18 -11 28
-10 28 2 0 6 -8 10 -17 10 -17 1 -17 1 0 11 9 5 17 18 17 28 0 22 -29 24 -52
3 -11 -9 -18 -10 -18 -4 0 6 5 14 10 17 6 4 8 11 4 16 -4 6 -11 5 -20 -2 -12
-10 -15 -10 -12 2 2 8 8 17 13 21 6 4 0 8 -12 8 -18 0 -23 6 -23 26 0 14 7 32
15 41 12 12 13 18 4 29 -6 8 -8 14 -3 14 5 0 2 5 -6 11 -12 8 -10 9 7 4 12 -3
24 -1 28 5 4 6 -5 10 -22 11 -24 1 -25 2 -7 7 20 7 20 8 4 25 -16 16 -18 16
-24 2z"/>
<path d="M258 873 c7 -3 16 -2 19 1 4 3 -2 6 -13 5 -11 0 -14 -3 -6 -6z"/>
<path d="M1520 876 c0 -9 30 -14 35 -6 4 6 -3 10 -14 10 -12 0 -21 -2 -21 -4z"/>
<path d="M2755 870 c-3 -5 -2 -10 4 -10 5 0 13 5 16 10 3 6 2 10 -4 10 -5 0
-13 -4 -16 -10z"/>
<path d="M126 861 c-3 -5 6 -8 20 -8 19 0 22 2 13 8 -18 11 -26 11 -33 0z"/>
<path d="M1253 790 c0 -47 2 -66 4 -42 2 23 2 61 0 85 -2 23 -4 4 -4 -43z"/>
<path d="M1470 866 c0 -2 7 -6 15 -10 8 -3 15 -1 15 4 0 6 -7 10 -15 10 -8 0
-15 -2 -15 -4z"/>
<path d="M2688 863 c7 -3 16 -2 19 1 4 3 -2 6 -13 5 -11 0 -14 -3 -6 -6z"/>
<path d="M193 853 c9 -2 23 -2 30 0 6 3 -1 5 -18 5 -16 0 -22 -2 -12 -5z"/>
<path d="M1301 735 c1 -103 -2 -131 -12 -133 -12 -2 -13 -39 -9 -210 4 -136 2
-210 -5 -214 -6 -5 -5 -8 4 -8 8 0 11 -7 8 -20 -3 -11 -1 -22 3 -25 5 -3 7
-14 5 -25 -4 -19 5 -24 34 -20 8 1 17 -3 21 -10 4 -7 14 -8 31 -1 20 8 21 10
5 10 -11 1 -16 4 -12 9 7 7 12 8 38 11 7 1 6 7 -4 19 -9 9 -13 23 -11 30 3 6
0 12 -6 12 -10 0 -8 -31 4 -50 3 -6 -1 -7 -9 -4 -9 3 -14 10 -13 14 1 4 -1 8
-5 9 -24 3 -38 0 -38 -9 0 -5 7 -10 15 -10 8 0 15 -4 15 -10 0 -5 -7 -10 -16
-10 -19 0 -43 28 -44 50 0 13 1 13 10 0 7 -12 12 -12 22 -2 9 9 9 12 0 12 -7
0 -12 5 -12 11 0 5 5 7 10 4 6 -3 10 -2 10 4 0 5 -4 11 -9 13 -5 2 -11 89 -12
193 -2 111 -7 193 -13 197 -7 4 -6 15 3 30 9 17 11 56 7 138 -3 62 -8 116 -11
119 -4 3 -5 -53 -4 -124z m-4 -212 c-3 -10 -5 -4 -5 12 0 17 2 24 5 18 2 -7 2
-21 0 -30z m10 -265 c-2 -35 -3 -9 -3 57 0 66 1 94 3 63 2 -32 2 -86 0 -120z
m0 -90 c-3 -8 -6 -5 -6 6 -1 11 2 17 5 13 3 -3 4 -12 1 -19z"/>
<path d="M1329 728 c-1 -350 3 -533 12 -536 5 -2 9 -12 9 -22 0 -10 7 -21 16
-24 8 -3 12 -2 9 4 -3 6 1 13 10 17 10 3 21 0 25 -7 4 -7 12 -10 18 -6 6 3 13
2 17 -4 3 -5 11 -10 16 -10 6 0 7 5 3 12 -4 7 -3 8 5 4 6 -4 14 0 17 8 3 9 12
16 20 16 17 0 19 -16 3 -26 -8 -5 -8 -9 1 -14 7 -4 -6 -8 -29 -8 -22 0 -41 3
-41 8 0 5 -7 7 -15 4 -28 -11 7 -29 54 -29 49 0 81 13 62 24 -6 4 -3 11 9 19
12 7 20 8 20 2 0 -5 3 -10 8 -10 4 0 7 85 7 189 0 104 -3 184 -7 178 -4 -7 -8
-81 -8 -165 0 -147 -7 -192 -32 -192 -6 0 -3 11 6 25 14 21 16 50 13 188 l-3
162 -2 -166 c-2 -142 -4 -168 -18 -173 -25 -9 -46 -7 -39 4 4 6 1 17 -5 25 -8
9 -10 59 -8 158 2 80 0 143 -4 140 -5 -2 -9 -68 -10 -146 l-2 -142 -6 150 -6
150 -3 -142 c-4 -163 -4 -159 -13 -168 -4 -4 0 -17 8 -30 13 -21 13 -23 -5
-28 -14 -3 -19 1 -19 17 -4 274 -6 342 -13 369 -4 19 -7 -51 -6 -171 1 -111
-1 -202 -5 -202 -3 0 -15 -3 -25 -6 -17 -5 -17 -5 0 6 13 8 17 24 17 63 0 37
-3 48 -10 37 -8 -13 -10 -12 -10 3 0 9 5 17 10 17 6 0 10 24 9 53 -1 39 -3 46
-8 27 -4 -14 -6 30 -4 98 4 104 2 122 -11 122 -13 0 -14 -27 -9 -207 4 -155 3
-205 -6 -197 -8 7 -11 106 -11 337 -1 180 -3 327 -5 327 -3 0 -5 -60 -6 -132z
m151 -508 c0 -5 -10 -10 -22 -10 -19 0 -20 2 -8 10 19 13 30 13 30 0z m0 -35
c0 -8 -2 -15 -4 -15 -2 0 -6 7 -10 15 -3 8 -1 15 4 15 6 0 10 -7 10 -15z"/>
<path d="M1490 830 c-11 -7 -5 -8 20 -4 43 8 51 14 19 14 -13 0 -31 -5 -39
-10z"/>
<path d="M2805 830 c-11 -5 -14 -9 -6 -9 8 -1 11 -7 7 -17 -4 -12 -1 -14 14
-9 15 5 18 3 14 -9 -4 -9 -18 -16 -34 -16 -16 0 -32 -4 -35 -10 -6 -10 64 -44
73 -35 3 3 0 5 -7 5 -7 0 -9 5 -6 10 3 6 0 10 -7 10 -7 1 -1 8 15 16 25 14 26
16 12 38 -8 12 -12 26 -8 29 9 9 -7 8 -32 -3z"/>
<path d="M128 813 c7 -3 16 -2 19 1 4 3 -2 6 -13 5 -11 0 -14 -3 -6 -6z"/>
<path d="M1689 803 c-13 -15 -12 -15 11 -3 34 17 36 20 18 20 -9 0 -22 -7 -29
-17z"/>
<path d="M238 803 c7 -3 16 -2 19 1 4 3 -2 6 -13 5 -11 0 -14 -3 -6 -6z"/>
<path d="M1745 800 c-8 -13 5 -13 25 0 13 8 13 10 -2 10 -9 0 -20 -4 -23 -10z"/>
<path d="M1279 748 c-1 -29 -3 -72 -5 -95 -2 -24 0 -43 5 -43 5 0 9 43 10 95
1 52 -1 95 -4 95 -3 0 -5 -24 -6 -52z"/>
<path d="M534 765 c-18 -13 -18 -14 4 -8 12 3 25 9 28 14 8 14 -10 11 -32 -6z"/>
<path d="M2885 759 c-15 -15 -15 -21 -5 -34 7 -8 17 -12 23 -8 6 4 3 9 -9 14
-16 6 -14 8 10 8 24 1 27 3 16 16 -11 13 -10 14 4 9 9 -3 16 -2 16 3 0 17 -38
12 -55 -8z"/>
<path d="M588 763 c6 -2 18 -2 25 0 6 3 1 5 -13 5 -14 0 -19 -2 -12 -5z"/>
<path d="M1426 761 c-4 -5 3 -7 14 -4 23 6 26 13 6 13 -8 0 -17 -4 -20 -9z"/>
<path d="M1476 749 c4 -8 84 -3 92 6 4 3 -16 5 -45 3 -28 -2 -49 -6 -47 -9z"/>
<path d="M808 743 c7 -3 16 -2 19 1 4 3 -2 6 -13 5 -11 0 -14 -3 -6 -6z"/>
<path d="M750 730 c-13 -9 -13 -10 0 -10 8 0 22 5 30 10 13 9 13 10 0 10 -8 0
-22 -5 -30 -10z"/>
<path d="M2966 725 c-3 -8 -17 -15 -31 -15 -16 0 -25 -6 -25 -16 0 -10 5 -14
15 -10 9 3 18 -1 21 -8 7 -19 34 -14 46 8 9 16 8 17 -14 5 -19 -10 -21 -10
-12 2 16 21 25 49 15 49 -5 0 -11 -7 -15 -15z"/>
<path d="M445 720 c-19 -8 -19 -9 3 -9 12 -1 22 4 22 9 0 6 -1 10 -2 9 -2 0
-12 -4 -23 -9z"/>
<path d="M841 719 c8 -4 30 -4 49 1 33 7 33 8 -14 8 -29 -1 -43 -4 -35 -9z"/>
<path d="M2760 715 c0 -7 -3 -21 -7 -31 -5 -13 -3 -15 8 -10 8 4 5 0 -5 -8
-18 -15 -15 -21 8 -17 5 1 6 -5 3 -14 -8 -18 4 -20 21 -3 9 9 12 9 12 0 0 -7
6 -11 13 -10 6 2 11 -2 10 -9 -1 -6 3 -13 10 -16 7 -3 13 3 13 13 0 10 -4 16
-8 14 -4 -3 -8 -1 -8 5 0 5 -9 13 -20 16 -27 9 -46 43 -31 58 8 8 14 8 22 0 8
-8 8 -13 0 -17 -14 -9 -14 -26 0 -26 5 0 7 5 4 10 -3 6 -1 10 5 10 6 0 10 8 8
17 -4 21 -58 38 -58 18z"/>
<path d="M1218 713 c7 -3 16 -2 19 1 4 3 -2 6 -13 5 -11 0 -14 -3 -6 -6z"/>
<path d="M1423 713 c11 -10 108 -12 101 -2 -3 5 -28 9 -56 9 -28 0 -48 -3 -45
-7z"/>
<path d="M790 689 c0 -5 5 -7 10 -4 6 3 10 8 10 11 0 2 -4 4 -10 4 -5 0 -10
-5 -10 -11z"/>
<path d="M1253 665 c0 -22 2 -30 4 -17 2 12 2 30 0 40 -3 9 -5 -1 -4 -23z"/>
<path d="M1415 690 c-3 -5 -2 -10 4 -10 5 0 13 5 16 10 3 6 2 10 -4 10 -5 0
-13 -4 -16 -10z"/>
<path d="M1585 690 c-19 -8 -19 -9 3 -9 12 -1 22 4 22 9 0 6 -1 10 -2 9 -2 0
-12 -4 -23 -9z"/>
<path d="M1488 663 c6 -2 18 -2 25 0 6 3 1 5 -13 5 -14 0 -19 -2 -12 -5z"/>
<path d="M448 643 c7 -3 16 -2 19 1 4 3 -2 6 -13 5 -11 0 -14 -3 -6 -6z"/>
<path d="M900 640 c20 -13 33 -13 25 0 -3 6 -14 10 -23 10 -15 0 -15 -2 -2
-10z"/>
<path d="M1198 643 c6 -2 18 -2 25 0 6 3 1 5 -13 5 -14 0 -19 -2 -12 -5z"/>
<path d="M2720 630 c-13 -9 -8 -14 12 -12 3 1 12 -6 20 -16 11 -15 11 -16 -3
-5 -18 15 -41 -1 -32 -23 8 -20 23 -17 17 4 -5 14 -4 15 5 2 9 -13 12 -13 20
-1 12 19 41 23 34 5 -6 -16 5 -18 25 -6 9 7 8 13 -8 27 -15 14 -23 16 -32 7
-8 -8 -15 -6 -27 9 -12 14 -20 16 -31 9z"/>
<path d="M985 620 c28 -12 37 -12 30 0 -3 6 -16 10 -28 9 -21 0 -21 -1 -2 -9z"/>
<path d="M1205 613 c-11 -3 -24 -10 -30 -15 -7 -7 -3 -8 12 -4 19 6 22 3 26
-26 l4 -33 1 33 c2 25 6 32 22 32 11 0 20 5 20 10 0 10 -20 11 -55 3z"/>
<path d="M1140 599 c0 -5 5 -7 10 -4 6 3 10 8 10 11 0 2 -4 4 -10 4 -5 0 -10
-5 -10 -11z"/>
<path d="M2833 565 c-13 -14 -19 -53 -10 -75 3 -8 8 -22 10 -30 4 -10 6 -7 6
7 1 12 6 25 13 29 8 5 9 2 5 -10 -6 -14 -3 -16 16 -10 12 3 22 7 23 8 0 0 5
17 11 37 10 35 10 36 -13 25 -17 -8 -20 -14 -12 -24 8 -9 8 -16 -2 -25 -9 -8
-11 -8 -6 0 7 12 -11 12 -31 0 -9 -6 -13 0 -13 19 0 22 2 25 15 14 12 -10 15
-10 14 1 0 8 -3 21 -7 30 -6 14 -9 14 -19 4z"/>
<path d="M2927 568 c12 -15 9 -46 -6 -61 -6 -6 -11 -16 -11 -21 0 -6 7 -3 14
6 7 10 24 22 37 27 l24 10 -24 7 c-23 7 -23 8 -5 14 12 4 23 2 29 -7 9 -12 11
-10 11 6 0 22 -22 36 -31 21 -4 -6 -11 -10 -16 -10 -6 0 -7 5 -4 10 3 6 -1 10
-11 10 -12 0 -14 -4 -7 -12z"/>
<path d="M1775 560 c28 -12 37 -12 30 0 -3 6 -16 10 -28 9 -21 0 -21 -1 -2 -9z"/>
<path d="M2695 549 c-11 -35 -13 -59 -5 -54 16 10 21 -30 5 -41 -13 -10 -12
-12 10 -16 20 -4 23 -3 14 8 -7 9 -7 14 -1 14 5 0 15 -7 23 -16 10 -13 10 -17
-2 -24 -8 -6 -18 -5 -23 0 -6 6 -15 10 -21 10 -5 0 -3 -5 5 -10 13 -8 11 -14
-13 -35 -15 -14 -31 -23 -36 -20 -5 3 -12 1 -15 -4 -4 -5 -2 -12 3 -16 16 -9
1 -33 -17 -30 -9 2 -21 4 -25 4 -5 1 -6 5 -3 10 16 25 -16 50 -72 56 -13 1
-27 8 -32 14 -5 9 -9 8 -14 -5 -3 -9 -4 -19 -1 -22 3 -3 5 0 5 7 0 7 5 9 10 6
6 -4 8 -10 5 -15 -3 -5 -1 -11 4 -14 10 -6 3 -46 -8 -46 -3 0 -14 11 -23 25
-14 18 -16 29 -8 50 7 17 7 24 0 20 -6 -3 -10 -13 -10 -21 0 -8 -5 -12 -10 -9
-6 4 -10 12 -9 18 4 34 -1 41 -16 20 -15 -21 -11 -53 7 -53 5 0 6 5 2 12 -4 7
-3 8 4 4 7 -4 12 -13 12 -20 0 -7 11 -25 25 -40 17 -18 20 -26 10 -26 -17 0
-19 -9 -7 -27 11 -18 74 -21 80 -4 3 10 0 11 -14 3 -12 -7 -25 -7 -40 0 -21
10 -22 10 -3 29 11 11 22 33 26 49 4 22 10 29 25 27 26 -4 40 -28 26 -44 -8
-11 -7 -12 7 -7 13 5 16 4 11 -4 -4 -7 -17 -10 -32 -6 -15 4 -24 2 -24 -6 0
-6 -4 -8 -10 -5 -5 3 -10 1 -10 -4 0 -12 67 -5 85 8 6 4 16 6 23 5 6 -1 21 -2
33 -3 12 -1 17 -5 13 -13 -4 -7 -3 -8 4 -4 7 4 12 2 12 -4 0 -6 4 -9 9 -6 5 4
12 0 14 -6 4 -10 6 -9 6 1 1 11 4 11 17 1 8 -8 14 -9 13 -4 -4 24 2 45 14 42
6 -3 13 -22 14 -44 0 -21 -1 -33 -4 -26 -2 6 -12 12 -21 12 -15 0 -15 -2 -2
-10 10 -6 11 -10 3 -10 -7 0 -13 -4 -13 -9 0 -5 12 -8 28 -7 20 2 27 9 28 25
1 11 -2 21 -7 21 -14 0 1 27 21 36 16 8 16 11 4 22 -12 11 -14 10 -14 -3 0 -8
-4 -15 -10 -15 -5 0 -7 7 -4 15 4 10 0 15 -14 15 -11 0 -23 -6 -25 -12 -3 -9
-14 -2 -30 17 -14 16 -23 34 -20 38 3 5 12 0 20 -10 8 -10 12 -13 9 -7 -8 16
18 36 38 28 11 -4 16 -1 16 11 0 9 -5 13 -11 9 -8 -5 -8 -1 0 14 6 11 14 22
18 24 5 3 2 3 -6 1 -19 -5 -51 26 -44 43 4 11 10 11 34 -2 26 -13 29 -13 29 1
0 9 -4 14 -9 10 -5 -3 -13 -1 -16 5 -4 6 -14 10 -23 9 -29 -2 -42 1 -42 10 0
10 51 8 70 -4 10 -6 12 -4 7 8 -3 10 -2 17 3 17 19 0 10 16 -10 17 -11 1 -18
-2 -15 -8 4 -5 -3 -9 -14 -9 -11 0 -24 7 -29 16 -8 14 -10 13 -17 -7z m35
-154 c-7 -8 -18 -15 -24 -15 -6 0 -2 7 8 15 25 19 32 19 16 0z m-36 -67 c-2
-4 5 -13 16 -21 17 -12 18 -16 6 -20 -8 -3 -22 1 -33 8 -10 8 -14 15 -10 15 4
0 3 8 -2 19 -6 10 -8 21 -5 24 8 7 33 -16 28 -25z"/>
<path d="M1698 553 c7 -3 16 -2 19 1 4 3 -2 6 -13 5 -11 0 -14 -3 -6 -6z"/>
<path d="M1028 543 c18 -2 45 -2 60 0 15 2 0 4 -33 4 -33 0 -45 -2 -27 -4z"/>
<path d="M2797 544 c-4 -4 -7 -14 -7 -23 0 -11 3 -12 11 -4 6 6 10 16 7 23 -2
6 -7 8 -11 4z"/>
<path d="M1246 481 c-4 -32 -6 -122 -5 -200 1 -110 4 -141 14 -141 16 0 18
104 3 134 -6 10 -6 21 -2 25 11 8 13 51 3 51 -5 0 -6 43 -2 95 7 105 -1 129
-11 36z"/>
<path d="M1620 341 c0 -128 4 -201 10 -201 13 0 13 387 0 395 -6 4 -10 -70
-10 -194z"/>
<path d="M988 338 c2 -106 8 -200 13 -208 6 -9 8 23 5 85 -3 55 -5 148 -6 208
0 59 -4 107 -9 107 -4 0 -6 -87 -3 -192z"/>
<path d="M1034 501 c3 -18 6 -109 6 -202 0 -146 2 -168 15 -163 12 5 15 29 13
138 l-2 131 -6 -130 -6 -130 -2 180 c-1 108 -7 186 -13 195 -8 11 -9 7 -5 -19z"/>
<path d="M1063 470 c0 -36 2 -50 4 -32 2 17 2 47 0 65 -2 17 -4 3 -4 -33z"/>
<path d="M1135 324 c0 -112 2 -199 3 -194 2 6 10 10 18 10 12 0 14 33 12 198
l-2 197 -6 -190 -6 -190 -2 182 c-1 100 -5 184 -9 186 -5 3 -8 -87 -8 -199z"/>
<path d="M1204 469 c3 -34 6 -122 6 -195 0 -85 4 -134 10 -134 7 0 9 31 6 88
-3 48 -5 135 -6 195 0 73 -4 107 -11 107 -8 0 -10 -18 -5 -61z"/>
<path d="M1737 511 c-4 -17 -3 -21 5 -13 5 5 8 16 6 23 -3 8 -7 3 -11 -10z"/>
<path d="M1765 510 c-4 -6 9 -10 29 -10 20 0 36 3 36 8 0 11 -58 13 -65 2z"/>
<path d="M2140 507 c0 -9 -4 -17 -8 -17 -5 0 -9 -7 -9 -15 0 -20 21 -19 37 1
11 12 10 18 -3 32 -16 15 -17 15 -17 -1z"/>
<path d="M2960 490 c-11 -11 -22 -20 -25 -20 -28 0 -29 -1 -15 -10 11 -7 20
-4 33 11 9 12 17 16 17 10 0 -6 7 -11 15 -11 8 0 15 5 15 10 0 6 -6 10 -12 10
-9 0 -8 4 2 10 10 6 11 10 3 10 -7 0 -22 -9 -33 -20z"/>
<path d="M2172 476 c-7 -15 -10 -32 -7 -37 4 -5 1 -9 -4 -9 -6 0 -11 4 -11 8
0 12 -33 11 -45 -2 -6 -6 -11 -21 -12 -32 -1 -17 3 -21 19 -16 18 4 20 2 16
-16 -4 -15 -2 -19 8 -15 29 11 -6 -42 -37 -56 -32 -14 -39 -31 -11 -31 13 -1
11 -4 -8 -15 -29 -17 -22 -19 15 -5 17 7 25 16 23 28 -4 17 39 60 54 55 5 -2
8 1 8 6 0 5 8 11 18 13 12 4 18 -1 19 -13 1 -11 -3 -19 -8 -19 -6 0 -7 5 -3
11 4 7 1 10 -7 7 -21 -7 -24 -37 -3 -34 20 3 55 -24 48 -36 -8 -12 10 -10 23
3 18 18 43 2 43 -26 0 -27 14 -34 23 -11 3 8 1 17 -6 19 -7 2 1 4 17 4 26 0
28 -1 13 -12 -9 -7 -17 -15 -17 -19 0 -4 -7 -14 -15 -22 -21 -21 -19 -29 7
-31 18 -2 20 0 8 8 -13 8 -12 12 5 25 19 14 20 13 26 -13 l7 -28 1 28 c0 15 8
30 16 33 8 4 15 11 15 17 0 5 -9 2 -19 -7 -13 -11 -21 -14 -26 -7 -3 6 0 14 8
17 9 3 13 13 10 25 -4 13 0 19 11 19 10 0 14 -4 11 -10 -3 -5 1 -10 10 -10 9
0 13 -4 10 -10 -3 -6 1 -7 9 -4 13 5 10 11 -12 34 -19 20 -31 25 -39 18 -9 -7
-15 -5 -19 6 -6 15 -9 15 -30 -5 -17 -16 -24 -18 -24 -8 0 12 -2 12 -9 0 -5
-8 -14 -10 -21 -6 -10 6 -10 10 2 19 16 12 20 46 6 46 -5 0 -8 -7 -6 -16 2
-10 -3 -19 -11 -22 -10 -3 -12 0 -8 12 4 9 2 16 -3 16 -13 0 -13 -37 0 -45 6
-4 8 -11 5 -16 -12 -18 -37 21 -31 46 5 18 -2 33 -25 60 -30 34 -30 45 1 25
19 -12 32 8 17 25 -9 9 -18 10 -30 3 -22 -11 -38 -1 -18 11 7 5 11 17 9 27 -2
14 -5 13 -16 -10z m24 -82 c22 -23 21 -34 -3 -34 -17 0 -47 31 -51 53 -4 22
25 12 54 -19z m174 -119 c0 -3 -11 -4 -24 -3 -15 1 -22 7 -19 15 4 9 10 10 24
2 10 -5 19 -12 19 -14z"/>
<path d="M2165 401 c-6 -11 13 -26 22 -17 4 3 1 6 -6 6 -7 0 -9 5 -6 10 3 6 4
10 1 10 -3 0 -7 -4 -11 -9z"/>
<path d="M1928 459 c-17 -18 -17 -19 4 -30 15 -8 17 -13 8 -19 -10 -6 -9 -9 1
-13 9 -3 9 -6 2 -6 -6 -1 -18 6 -26 14 -27 26 -27 3 0 -32 14 -18 23 -36 19
-40 -3 -3 -6 0 -6 8 0 11 -2 11 -10 -1 -8 -12 -12 -9 -21 16 -12 30 -46 61
-56 50 -3 -3 2 -12 11 -21 9 -9 16 -21 16 -26 0 -17 28 -39 49 -39 13 0 21 -6
21 -16 0 -13 3 -14 15 -4 13 11 13 15 0 40 -8 16 -11 30 -6 32 4 2 11 18 14
36 6 28 4 32 -16 33 -17 1 -18 2 -4 6 9 2 17 11 17 19 0 19 -11 17 -32 -7z"/>
<path d="M2880 459 c0 -5 5 -7 10 -4 6 3 10 8 10 11 0 2 -4 4 -10 4 -5 0 -10
-5 -10 -11z"/>
<path d="M1093 445 c0 -8 4 -15 9 -15 4 0 8 7 8 15 0 8 -4 15 -8 15 -5 0 -9
-7 -9 -15z"/>
<path d="M2850 439 c-10 -17 -14 -18 -27 -7 -13 10 -17 10 -20 0 -3 -6 -9 -10
-13 -7 -5 3 -12 0 -16 -6 -5 -8 -3 -9 6 -4 9 6 10 2 5 -15 -5 -15 -4 -20 4
-16 17 11 13 -10 -4 -24 -10 -9 -15 -9 -15 -1 0 6 -9 11 -20 11 -22 0 -27 -15
-8 -26 7 -4 8 -3 4 4 -10 17 -2 15 40 -9 26 -14 40 -17 47 -10 8 8 7 11 -2 11
-7 0 -9 5 -6 10 3 6 1 10 -4 10 -6 0 -11 5 -11 11 0 6 7 9 15 6 8 -4 17 -2 20
3 4 6 18 10 33 10 27 0 26 -1 -7 -17 -19 -9 -29 -19 -23 -21 6 -2 22 4 35 12
13 9 27 13 30 9 4 -3 7 -1 7 5 0 7 -4 12 -9 12 -5 0 -8 11 -8 25 0 25 0 25 18
9 14 -12 23 -14 30 -7 8 8 8 13 0 17 -6 4 -11 2 -11 -4 0 -6 -5 -8 -10 -5 -6
4 -8 11 -5 16 7 11 -15 12 -31 1 -6 -4 -10 -15 -8 -25 1 -10 -3 -16 -9 -14 -7
2 -11 16 -10 30 2 32 -3 34 -17 6z m5 -38 c-6 -11 -55 -11 -55 0 0 8 40 17 53
11 4 -2 5 -7 2 -11z m-45 -51 c0 -5 -2 -10 -4 -10 -3 0 -8 5 -11 10 -3 6 -1
10 4 10 6 0 11 -4 11 -10z"/>
<path d="M2968 446 c3 -6 5 -18 4 -28 -2 -9 2 -19 8 -23 7 -4 7 -12 -1 -26 -5
-11 -8 -28 -6 -37 3 -12 5 -11 6 6 0 12 5 22 10 22 10 0 9 19 -2 38 -5 6 -4
12 1 12 5 0 7 11 5 23 -3 13 -11 24 -18 24 -8 0 -11 -5 -7 -11z"/>
<path d="M1512 420 c0 -14 2 -19 5 -12 2 6 2 18 0 25 -3 6 -5 1 -5 -13z"/>
<path d="M2667 421 c4 -14 -1 -21 -19 -24 -21 -4 -20 -4 5 -6 21 -1 27 4 27
18 0 11 -4 22 -9 25 -5 4 -7 -3 -4 -13z"/>
<path d="M505 411 c-3 -5 -1 -12 5 -16 5 -3 10 1 10 9 0 18 -6 21 -15 7z"/>
<path d="M1707 409 c20 -6 51 -6 80 0 46 8 45 9 -32 9 -66 0 -74 -1 -48 -9z"/>
<path d="M453 393 c-9 -15 -13 -16 -24 -5 -27 25 -29 11 -4 -25 21 -32 23 -39
10 -41 -9 -2 -23 2 -31 9 -25 21 -29 0 -4 -26 18 -19 20 -28 12 -38 -9 -11 -8
-14 4 -14 12 0 14 7 10 29 -7 37 9 36 23 -2 6 -18 6 -30 0 -30 -5 0 -8 -5 -6
-12 1 -6 -6 -14 -17 -16 -11 -2 -16 0 -12 7 4 6 0 11 -8 11 -9 0 -16 5 -16 10
0 21 -18 9 -22 -15 -5 -21 -2 -25 13 -20 15 5 19 1 19 -15 0 -11 7 -23 15 -26
8 -4 12 -10 9 -15 -3 -5 -1 -9 4 -9 6 0 12 7 16 15 3 8 11 15 17 15 8 0 8 -4
-1 -15 -7 -9 -10 -18 -6 -22 3 -3 6 -1 6 5 0 7 4 12 9 12 6 0 8 -9 6 -20 -2
-11 0 -18 5 -15 5 3 8 19 8 35 -1 21 -6 30 -18 30 -11 0 -16 7 -15 20 2 33 17
39 60 25 31 -11 36 -11 23 -1 -10 7 -14 16 -10 20 4 4 3 7 -3 6 -28 -6 -56 1
-52 13 2 6 -2 20 -11 30 -12 14 -13 17 -1 17 12 0 11 2 -1 10 -8 5 -12 12 -9
15 9 9 40 -6 33 -16 -3 -5 2 -9 10 -9 20 0 20 -9 -1 -32 -15 -17 -14 -18 16
-14 21 2 34 -1 38 -10 6 -17 23 -8 23 11 0 9 -6 12 -15 9 -10 -4 -15 0 -15 16
0 13 -4 19 -12 14 -7 -4 -8 -3 -4 4 10 17 26 15 26 -3 0 -8 8 -15 18 -15 13 0
14 2 3 9 -7 5 -10 14 -7 20 4 6 1 11 -7 11 -8 0 -21 8 -28 17 -12 14 -12 16 0
8 9 -5 12 -4 7 3 -3 6 -2 13 4 17 5 3 10 11 10 17 0 6 -8 4 -18 -5 -16 -15
-21 -15 -38 -2 -25 19 -27 18 -41 -2z m50 -26 c3 -9 -2 -13 -16 -11 -12 1 -25
3 -29 3 -5 1 -8 6 -8 11 0 15 47 12 53 -3z m27 -77 c0 -5 -4 -10 -10 -10 -5 0
-10 5 -10 10 0 6 5 10 10 10 6 0 10 -4 10 -10z m-88 -87 c-6 -3 -9 -9 -6 -15
4 -6 1 -9 -6 -6 -8 2 -16 10 -18 18 -3 7 0 10 6 6 6 -3 14 -1 17 5 4 5 10 7
14 3 3 -4 0 -9 -7 -11z"/>
<path d="M1776 392 c-3 -6 -1 -14 5 -18 8 -5 7 -9 -2 -15 -8 -4 -19 -3 -26 3
-8 6 -16 8 -19 5 -8 -8 27 -53 51 -67 14 -8 15 -9 3 -6 -20 6 -24 -4 -8 -20 6
-6 1 -10 -15 -12 -13 -1 -27 4 -31 10 -5 8 -2 9 10 5 13 -5 15 -3 7 11 -9 17
-11 24 -11 42 0 6 -4 10 -9 10 -12 0 -8 -61 6 -85 8 -14 14 -16 25 -8 13 11
18 13 39 13 5 0 8 4 5 9 -3 4 6 6 20 3 17 -3 24 0 22 9 -5 21 60 15 77 -8 10
-13 13 -14 12 -3 -4 28 -18 40 -48 40 -17 0 -28 3 -26 8 2 4 -11 22 -30 40
-18 19 -33 30 -33 25 0 -4 -4 -2 -9 6 -5 8 -11 9 -15 3z m52 -79 l3 -33 -23
23 c-13 12 -19 24 -14 26 4 2 2 7 -5 12 -10 6 -6 8 12 7 21 -2 26 -7 27 -35z"/>
<path d="M2937 385 c-4 -8 -3 -16 1 -19 13 -8 35 11 28 23 -10 15 -23 14 -29
-4z"/>
<path d="M89 380 c-1 -8 0 -22 1 -30 1 -11 -1 -12 -10 -4 -6 7 -24 9 -43 5
-24 -5 -33 -13 -35 -30 -3 -21 -1 -23 25 -16 15 3 25 3 21 0 -9 -9 34 -45 44
-38 16 9 8 22 -9 16 -17 -6 -17 -5 0 13 17 18 17 18 35 0 12 -14 13 -17 2 -12
-8 4 -4 -1 10 -12 14 -12 23 -23 20 -25 -12 -10 -60 -17 -60 -8 0 5 -8 7 -18
4 -10 -2 -24 3 -31 11 -8 9 -21 16 -30 16 -24 0 37 -47 72 -55 15 -4 27 -11
27 -16 0 -6 5 -7 10 -4 8 5 7 11 -1 21 -14 17 -5 18 23 3 18 -10 20 -9 15 5
-3 8 -2 18 3 21 6 4 10 -1 10 -9 0 -13 5 -14 27 -5 14 5 31 16 37 23 13 16 46
29 46 18 0 -4 -9 -13 -20 -20 -12 -7 -18 -18 -14 -24 5 -7 2 -9 -7 -6 -8 3
-23 2 -34 -3 -18 -7 -18 -8 5 -9 14 -1 39 -4 55 -6 24 -2 27 -1 13 7 -10 6
-18 15 -18 20 0 13 61 -22 67 -38 3 -6 11 -9 19 -6 11 4 12 9 3 19 -16 20 -7
58 16 62 36 6 46 12 39 23 -4 8 -8 8 -13 0 -13 -20 -48 -1 -48 26 0 18 2 21 8
12 5 -8 9 -9 9 -4 -1 6 -7 18 -14 28 -13 16 -14 16 -30 -7 -9 -14 -16 -35 -16
-46 0 -17 -3 -19 -20 -10 -16 8 -26 5 -55 -21 -20 -18 -38 -29 -41 -26 -3 2 7
14 21 25 15 12 24 26 20 32 -3 5 -1 10 5 10 6 0 8 5 4 13 -5 8 -2 8 9 -2 10
-8 17 -9 17 -3 0 6 -4 14 -10 17 -5 3 -11 16 -11 28 -1 17 -2 18 -6 5 -2 -10
-9 -18 -15 -18 -5 0 -8 -7 -5 -15 4 -8 2 -17 -4 -20 -5 -4 -7 -11 -3 -16 3 -6
0 -9 -7 -8 -8 2 -24 -2 -36 -9 -20 -11 -22 -10 -21 18 1 17 5 30 11 30 5 0 5
6 -2 13 -6 8 -8 17 -4 20 3 4 1 7 -6 7 -7 0 -9 5 -6 10 3 6 2 10 -3 10 -6 0
-12 -7 -16 -15 -3 -8 -1 -15 4 -15 5 0 8 -9 7 -20 -1 -11 -7 -20 -14 -20 -14
0 -18 16 -5 22 4 2 2 14 -5 28 -8 16 -13 19 -14 10z m-10 -49 c11 -7 11 -10 0
-17 -7 -4 -14 -3 -17 4 -2 7 -8 10 -13 6 -5 -3 -9 0 -9 5 0 13 20 14 39 2z
m-54 -11 c3 -5 1 -10 -4 -10 -6 0 -11 5 -11 10 0 6 2 10 4 10 3 0 8 -4 11 -10z
m315 -52 c0 -6 -7 -5 -15 2 -8 7 -15 17 -15 22 0 6 7 5 15 -2 8 -7 15 -17 15
-22z m-145 1 c-4 -5 -16 -9 -28 -9 -20 0 -20 0 -2 14 21 15 40 12 30 -5z m129
-18 c3 -5 -1 -11 -9 -15 -15 -6 -29 7 -18 18 9 9 21 8 27 -3z"/>
<path d="M1655 265 c0 -77 4 -125 10 -125 6 0 9 44 7 120 -2 74 0 120 6 120
15 0 22 -28 9 -34 -9 -4 -9 -7 -1 -11 8 -4 9 -17 4 -40 -6 -27 -4 -37 11 -51
11 -10 18 -24 17 -32 -2 -8 4 -16 12 -18 8 -1 40 -11 72 -22 31 -11 59 -18 62
-15 3 4 6 1 6 -6 0 -9 -9 -11 -29 -6 -20 4 -41 0 -63 -12 -32 -17 -33 -17 -8
-21 14 -2 30 -8 35 -14 7 -7 0 -9 -22 -6 -40 6 -39 -15 1 -22 16 -3 31 -11 34
-18 3 -11 0 -12 -18 -2 -12 6 -31 10 -41 7 -13 -3 -19 0 -19 10 0 9 -8 22 -17
29 -16 12 -16 13 4 8 18 -5 21 -3 16 15 -4 15 1 23 18 30 21 8 22 10 7 16 -9
4 -22 4 -28 0 -5 -3 -10 0 -10 7 0 7 -5 5 -11 -6 -9 -14 -8 -20 1 -26 26 -16
-27 -27 -163 -34 -78 -4 -97 -9 -84 -23 4 -4 13 -1 19 5 22 22 29 12 11 -15
l-18 -27 32 24 c18 13 36 20 40 16 4 -4 1 -11 -6 -15 -8 -6 -9 -11 -3 -15 6
-3 13 -2 17 4 8 13 25 13 25 -1 0 -5 -4 -8 -9 -5 -5 3 -11 0 -14 -7 -8 -22 47
-13 71 11 26 26 27 32 6 32 -8 0 -12 -4 -9 -10 3 -5 1 -10 -4 -10 -6 0 -11 4
-11 10 0 5 -7 7 -15 4 -8 -4 -15 -1 -15 5 0 6 18 11 43 11 41 0 43 -1 42 -28
-2 -18 -1 -20 2 -4 5 25 7 26 32 10 11 -7 16 -18 13 -30 -3 -13 0 -17 11 -13
8 4 21 0 29 -8 10 -10 20 -12 31 -6 11 6 28 5 52 -5 20 -9 33 -11 30 -6 -3 6
1 11 9 11 9 1 25 3 36 4 11 1 27 3 35 4 8 0 12 7 9 15 -4 11 -12 13 -28 6 -26
-9 -52 2 -42 19 4 6 22 11 39 11 18 0 39 5 47 11 11 7 1 8 -34 3 -56 -8 -93
-35 -68 -50 11 -7 5 -10 -24 -11 -34 -1 -36 1 -21 12 17 13 23 26 10 24 -5 -1
-15 -1 -23 0 -12 1 -12 3 2 17 13 13 20 14 39 4 13 -7 21 -9 17 -5 -4 4 0 15
9 24 18 17 54 22 64 7 4 -4 9 -3 13 2 4 6 -3 16 -15 22 -15 8 -19 9 -15 1 4
-6 2 -11 -3 -11 -6 0 -11 8 -11 18 0 14 -3 13 -18 -6 -10 -13 -21 -20 -25 -16
-10 10 12 44 28 44 8 0 15 7 15 15 0 22 -22 65 -33 65 -6 0 -8 2 -5 5 11 11
56 -17 51 -31 -3 -8 0 -14 7 -14 6 0 8 4 5 10 -3 5 0 7 9 4 12 -5 13 -10 4
-24 -7 -10 -16 -16 -21 -13 -5 3 -8 0 -5 -7 4 -13 14 -16 76 -23 19 -2 38 -10
43 -18 5 -8 9 -9 9 -4 0 20 -17 35 -33 29 -14 -5 -16 0 -11 32 5 45 14 58 14
21 0 -17 5 -27 15 -27 13 0 13 3 3 20 -10 16 -8 26 10 60 19 36 20 41 4 36
-24 -8 -41 6 -38 29 3 20 -9 35 -30 35 -16 0 -10 -37 10 -59 10 -11 15 -24 12
-30 -4 -5 -2 -12 4 -16 5 -3 10 1 10 9 0 9 4 16 9 16 15 0 6 -32 -12 -42 -9
-5 -17 -16 -17 -23 0 -8 -6 -15 -12 -15 -10 0 -9 -3 1 -9 7 -5 9 -11 4 -14
-12 -8 -37 9 -30 20 9 14 -4 26 -45 45 -21 10 -38 21 -38 26 0 5 -7 9 -15 9
-11 0 -13 -8 -10 -28 4 -21 0 -28 -18 -33 -31 -8 -37 -7 -37 4 0 6 9 10 20 10
11 0 20 5 20 10 0 17 -20 11 -46 -15 -32 -32 -39 -32 -75 7 -28 31 -29 36 -23
90 l7 58 -29 0 -29 0 0 -125z m239 -54 c10 -16 -21 -31 -62 -29 -59 2 -74 15
-26 23 21 4 44 8 49 10 19 6 34 5 39 -4z m81 -31 c3 -5 1 -10 -4 -10 -6 0 -11
5 -11 10 0 6 2 10 4 10 3 0 8 -4 11 -10z m-120 -54 l30 -13 -35 -1 c-49 -2
-77 7 -59 19 18 11 28 11 64 -5z m-60 -86 c3 -5 -1 -10 -9 -10 -9 0 -16 5 -16
10 0 6 4 10 9 10 6 0 13 -4 16 -10z"/>
<path d="M2370 380 c-8 -6 -11 -10 -6 -10 5 0 3 -6 -3 -13 -6 -8 -8 -17 -4
-20 11 -12 23 -8 23 8 0 8 5 15 11 15 6 0 9 -7 5 -15 -6 -16 3 -19 19 -7 17
12 -28 53 -45 42z"/>
<path d="M1513 305 c0 -44 2 -61 4 -37 2 23 2 59 0 80 -2 20 -4 1 -4 -43z"/>
<path d="M590 355 c-6 -47 7 -65 49 -65 19 0 21 -2 11 -15 -10 -12 -15 -12
-38 2 -15 9 -24 13 -20 8 4 -4 1 -13 -7 -19 -9 -6 -17 -21 -20 -34 l-4 -23 25
20 c14 11 32 17 40 14 8 -3 14 0 14 7 0 6 5 8 12 4 6 -4 8 -3 5 3 -7 11 22 28
31 18 3 -3 0 -5 -8 -5 -8 0 -9 -4 -3 -12 16 -20 22 -57 12 -64 -17 -10 12 -35
35 -29 12 2 8 -1 -9 -9 -25 -12 -27 -14 -10 -19 17 -4 17 -5 3 -6 -10 0 -18
-5 -18 -10 0 -5 -8 -7 -19 -4 -10 3 -21 0 -25 -5 -3 -5 5 -12 19 -14 14 -3 25
-2 25 3 0 4 16 16 37 25 28 14 59 17 140 16 l104 -2 -2 88 c-1 49 -7 102 -14
118 l-13 29 -1 -37 c-1 -21 -6 -38 -12 -38 -5 0 -7 -4 -4 -10 3 -5 1 -10 -4
-10 -6 0 -11 -8 -11 -17 0 -16 2 -16 11 -3 9 12 10 12 5 -3 -3 -10 -6 -25 -6
-34 0 -8 -6 -13 -12 -10 -8 2 -12 18 -11 38 l2 34 -9 -35 c-5 -21 -5 -36 1
-38 5 -2 9 -10 9 -17 0 -8 10 -16 23 -18 12 -2 7 -4 -10 -3 -18 1 -34 -2 -36
-8 -2 -5 -11 -5 -23 2 -19 11 -19 11 1 12 40 1 -28 29 -72 30 -24 0 -43 5 -43
11 0 5 -4 8 -9 5 -12 -8 -34 20 -27 33 8 13 -33 41 -61 41 -12 0 -25 4 -28 10
-3 6 2 8 12 5 11 -4 9 -1 -4 6 -12 6 -24 21 -26 33 -4 20 -4 20 -7 1z m20 -94
c0 -5 -7 -12 -16 -15 -14 -5 -15 -4 -4 9 14 17 20 19 20 6z m343 -33 c-4 -7
-8 -17 -8 -22 0 -5 -6 -11 -12 -13 -18 -6 -16 12 3 31 19 19 28 21 17 4z
m-185 -28 c6 0 12 -9 12 -20 0 -22 -15 -27 -26 -9 -3 6 -17 8 -29 5 -13 -3
-27 -2 -30 4 -3 5 1 10 10 10 10 0 13 5 9 12 -5 8 0 9 17 5 13 -4 30 -7 37 -7z
m47 -8 c6 -4 11 -13 13 -20 2 -10 -2 -10 -18 0 -20 13 -27 28 -12 28 4 0 12
-4 17 -8z"/>
<path d="M2880 346 c0 -9 -7 -16 -16 -16 -12 0 -15 -6 -10 -26 4 -16 3 -23 -3
-20 -5 4 -13 1 -17 -5 -4 -8 -3 -9 4 -5 11 6 17 -12 13 -37 -1 -4 6 -10 14
-13 8 -3 12 -10 9 -15 -3 -5 6 -8 20 -7 15 1 26 6 26 10 0 4 6 5 14 2 11 -4
13 0 9 16 -6 24 15 72 29 64 5 -3 5 -11 -1 -17 -11 -14 14 -55 26 -43 4 4 2
11 -6 15 -14 9 -12 42 4 53 6 4 0 8 -12 8 -13 0 -23 6 -23 14 0 8 -10 18 -22
21 -13 4 -31 9 -40 11 -12 4 -18 0 -18 -10z m47 -12 c13 -4 20 -10 17 -15 -3
-5 -10 -7 -15 -4 -5 4 -16 -1 -25 -9 -17 -18 -39 -22 -29 -6 3 6 1 10 -6 10
-7 0 -4 7 7 15 22 17 22 17 51 9z m13 -49 c0 -14 -12 -19 -32 -16 -5 0 -8 -3
-8 -8 0 -5 -9 -7 -20 -4 -11 3 -20 10 -20 15 0 6 7 7 16 4 8 -3 22 1 30 9 20
19 34 19 34 0z m-13 -47 c-2 -7 -10 -12 -16 -10 -6 1 -11 -3 -11 -9 0 -8 -5
-7 -16 2 -14 12 -14 14 3 20 28 12 45 10 40 -3z"/>
<path d="M2536 341 c-4 -7 -5 -15 -2 -18 9 -9 19 4 14 18 -4 11 -6 11 -12 0z"/>
<path d="M733 313 c-17 -36 -16 -73 1 -73 8 0 18 5 22 12 5 8 2 9 -9 5 -10 -3
-17 -2 -17 3 0 6 9 10 20 10 19 0 24 -10 21 -37 -2 -15 8 -16 28 -4 9 6 10 11
2 15 -6 4 -11 16 -11 27 0 16 -5 19 -19 14 -16 -5 -20 0 -23 24 l-3 31 -12
-27z"/>
<path d="M2427 310 c5 -21 18 -26 27 -12 6 10 -5 26 -20 29 -7 1 -10 -6 -7
-17z"/>
<path d="M2149 308 c-1 -7 -1 -16 0 -20 0 -5 -3 -8 -9 -8 -5 0 -7 -7 -4 -15 7
-18 -23 -31 -75 -34 -10 -1 -11 -4 -2 -15 6 -7 9 -20 6 -27 -8 -22 9 -41 30
-33 17 7 17 8 -1 21 -10 7 -14 13 -10 13 5 0 2 8 -5 17 -12 15 -12 16 4 10 10
-4 17 -2 17 6 0 8 4 6 10 -3 9 -13 10 -13 10 0 0 13 1 13 10 0 14 -21 12 -30
-4 -24 -8 3 -17 0 -22 -7 -4 -8 -3 -10 4 -5 7 4 12 3 12 -2 0 -7 30 -9 49 -3
2 0 -4 10 -14 21 -10 11 -15 21 -12 21 4 1 10 3 15 4 4 2 17 6 30 10 24 8 29
20 10 29 -10 5 -10 7 0 12 17 8 5 24 -13 17 -9 -3 -15 1 -15 11 0 19 -19 22
-21 4z m27 -55 c-3 -10 -15 -19 -26 -20 -20 -2 -20 -1 2 22 25 26 33 26 24 -2z"/>
<path d="M350 306 c0 -2 7 -6 15 -10 8 -3 15 -1 15 4 0 6 -7 10 -15 10 -8 0
-15 -2 -15 -4z"/>
<path d="M475 300 c3 -5 8 -10 11 -10 2 0 4 5 4 10 0 6 -5 10 -11 10 -5 0 -7
-4 -4 -10z"/>
<path d="M1106 294 c-7 -18 -8 -150 -1 -143 5 5 14 159 10 159 -2 0 -6 -7 -9
-16z"/>
<path d="M846 282 c-5 -14 -2 -27 8 -37 20 -21 26 -6 11 29 -12 28 -13 29 -19
8z"/>
<path d="M1955 291 c-3 -2 -5 -8 -5 -13 0 -13 20 -9 36 6 12 13 12 15 -6 13
-12 -1 -23 -3 -25 -6z"/>
<path d="M1083 255 c0 -22 2 -30 4 -17 2 12 2 30 0 40 -3 9 -5 -1 -4 -23z"/>
<path d="M1492 270 c0 -14 2 -19 5 -12 2 6 2 18 0 25 -3 6 -5 1 -5 -13z"/>
<path d="M2625 272 c1 -9 8 -16 14 -14 14 3 14 -1 0 -32 -7 -14 -17 -23 -22
-19 -6 4 -8 0 -4 -10 3 -10 3 -17 -1 -17 -14 0 -11 -41 4 -47 7 -3 11 -10 8
-15 -4 -6 6 -2 22 8 40 25 42 28 15 21 -17 -4 -21 -3 -13 5 12 12 4 41 -9 32
-13 -8 -11 3 6 36 10 19 20 27 30 24 8 -4 12 -11 8 -18 -3 -6 -3 -8 2 -4 4 4
14 3 22 -3 10 -9 13 -7 13 8 0 12 -8 19 -22 20 -12 1 -34 11 -49 22 -24 18
-27 18 -24 3z m9 -119 c-17 -18 -27 -13 -18 10 3 9 12 13 20 10 11 -4 11 -7
-2 -20z"/>
<path d="M806 272 c-3 -6 0 -17 8 -25 8 -8 13 -17 10 -20 -3 -3 3 -10 14 -16
17 -9 19 -8 15 7 -7 28 -39 66 -47 54z"/>
<path d="M2560 270 c0 -5 5 -10 10 -10 6 0 10 5 10 10 0 6 -4 10 -10 10 -5 0
-10 -4 -10 -10z"/>
<path d="M2806 272 c-3 -5 1 -15 9 -22 16 -14 20 -3 6 19 -5 8 -11 9 -15 3z"/>
<path d="M1990 260 c0 -5 5 -10 11 -10 5 0 7 5 4 10 -3 6 -8 10 -11 10 -2 0
-4 -4 -4 -10z"/>
<path d="M2591 254 c-1 -18 26 -37 34 -24 3 5 0 10 -9 10 -8 0 -17 6 -19 13
-4 7 -6 8 -6 1z"/>
<path d="M2221 245 c-1 -6 -16 -17 -33 -25 -24 -10 -28 -15 -16 -18 15 -3 16
-7 7 -24 -8 -16 -8 -22 2 -29 11 -6 11 -11 1 -21 -19 -19 -15 -23 35 -26 26
-1 52 -8 58 -14 7 -8 5 -9 -8 -5 -11 4 -16 3 -12 -3 8 -13 35 -13 35 -1 0 6
-4 13 -10 16 -16 10 -11 35 8 36 11 0 12 2 4 6 -7 3 -21 -2 -31 -11 -21 -19
-34 -10 -21 14 8 15 6 17 -11 13 -15 -4 -17 -8 -8 -14 10 -6 9 -9 -4 -15 -23
-9 -26 -4 -16 24 9 24 47 30 66 11 6 -6 29 -12 51 -13 22 0 38 -4 36 -8 -6 -9
22 -10 54 -2 25 7 30 24 6 24 -14 0 -15 2 -3 18 13 15 12 16 -3 3 -10 -7 -16
-17 -13 -21 9 -15 -15 -22 -30 -10 -8 7 -22 9 -31 6 -10 -4 -25 1 -35 10 -10
9 -23 13 -30 8 -7 -4 -10 -3 -6 2 3 6 1 16 -5 24 -8 12 -9 11 -4 -3 4 -12 2
-17 -6 -14 -7 2 -21 0 -30 -4 -10 -6 -19 -5 -23 1 -3 5 -2 10 4 10 6 0 8 7 5
15 -4 8 -2 15 4 15 6 0 12 -6 14 -12 3 -8 10 -4 17 11 7 13 8 21 3 17 -6 -3
-13 0 -15 6 -3 7 -6 8 -6 3z"/>
<path d="M2546 235 c-11 -8 -18 -17 -15 -19 2 -3 15 4 29 14 14 11 21 20 15
19 -5 0 -19 -6 -29 -14z"/>
<path d="M2950 236 c0 -8 5 -18 10 -21 6 -3 10 1 10 9 0 8 -4 18 -10 21 -5 3
-10 -1 -10 -9z"/>
<path d="M648 231 c-22 -5 -25 -9 -17 -21 8 -11 12 -12 16 -2 2 6 11 12 19 12
8 0 14 5 14 10 0 6 -1 9 -2 9 -2 -1 -15 -4 -30 -8z"/>
<path d="M1760 230 c0 -5 5 -10 10 -10 6 0 10 5 10 10 0 6 -4 10 -10 10 -5 0
-10 -4 -10 -10z"/>
<path d="M2285 230 c3 -5 8 -10 11 -10 2 0 4 5 4 10 0 6 -5 10 -11 10 -5 0 -7
-4 -4 -10z"/>
<path d="M2420 221 c0 -10 7 -22 16 -25 23 -9 34 -7 34 4 0 5 -7 7 -15 4 -8
-4 -15 -1 -15 5 0 6 8 11 18 12 14 0 14 2 -3 9 -30 13 -35 12 -35 -9z"/>
<path d="M3 212 c0 -19 17 -33 29 -26 13 9 9 23 -10 33 -15 8 -19 6 -19 -7z"/>
<path d="M470 223 c0 -18 33 -33 71 -33 42 0 33 8 -16 14 -21 3 -42 11 -46 18
-6 9 -9 10 -9 1z"/>
<path d="M2487 210 c-6 -25 4 -32 21 -14 8 9 9 14 2 14 -6 0 -8 5 -5 10 3 6 2
10 -3 10 -5 0 -12 -9 -15 -20z"/>
<path d="M2580 221 c0 -5 -16 -15 -35 -21 -19 -6 -35 -15 -35 -20 0 -5 12 -3
26 5 15 7 33 11 42 8 9 -4 13 -2 9 4 -4 6 -2 13 5 15 9 3 9 6 0 12 -7 4 -12 3
-12 -3z"/>
<path d="M2820 217 c0 -7 9 -13 19 -13 15 0 17 3 9 13 -6 7 -14 13 -19 13 -5
0 -9 -6 -9 -13z"/>
<path d="M596 211 c-4 -5 -2 -12 3 -15 5 -4 12 -2 15 3 4 5 2 12 -3 15 -5 4
-12 2 -15 -3z"/>
<path d="M1693 180 c0 -25 2 -35 4 -22 2 12 2 32 0 45 -2 12 -4 2 -4 -23z"/>
<path d="M2993 185 c0 -22 2 -30 4 -17 2 12 2 30 0 40 -3 9 -5 -1 -4 -23z"/>
<path d="M65 202 c16 -12 17 -49 1 -55 -8 -3 -24 3 -37 14 -27 23 -26 23 -26
4 0 -8 7 -15 16 -15 14 0 14 -2 1 -11 -12 -8 -10 -9 8 -4 23 7 29 -4 12 -21
-6 -6 -1 -10 15 -12 26 -2 36 23 13 30 -7 3 -5 7 6 11 10 4 15 3 11 -3 -3 -6
-1 -10 5 -10 6 0 9 -4 5 -9 -3 -5 -1 -12 4 -16 6 -3 15 4 21 16 8 14 18 19 31
16 11 -3 16 -1 13 4 -3 6 -19 8 -34 5 -35 -5 -44 2 -27 22 7 10 8 13 1 9 -7
-4 -14 2 -17 13 -3 11 -11 20 -19 20 -8 0 -9 -3 -3 -8z"/>
<path d="M2270 200 c0 -5 5 -10 11 -10 5 0 7 5 4 10 -3 6 -8 10 -11 10 -2 0
-4 -4 -4 -10z"/>
<path d="M2671 180 c29 -39 49 -45 66 -20 14 20 40 29 28 10 -4 -6 1 -7 11 -3
12 4 15 3 10 -5 -4 -7 -16 -12 -27 -12 -10 0 -19 -4 -19 -10 0 -5 -8 -10 -17
-11 -13 0 -12 -3 5 -10 13 -5 28 -7 33 -3 5 3 9 1 9 -4 0 -5 11 -14 25 -20 14
-7 22 -17 19 -25 -5 -13 8 -14 84 -8 6 1 12 6 12 12 0 5 -5 7 -12 3 -8 -5 -9
0 -6 14 4 12 2 22 -4 22 -5 0 -6 5 -2 12 5 8 2 9 -12 4 -37 -16 -84 -24 -84
-15 0 5 9 9 20 9 12 0 20 7 20 18 0 12 -2 14 -8 4 -5 -7 -25 -15 -46 -17 -44
-6 -40 10 4 20 17 4 28 11 24 16 -3 5 0 9 5 9 6 0 11 4 11 9 0 4 -12 6 -26 3
-19 -3 -25 -1 -20 7 4 6 3 11 -3 11 -5 0 -13 -5 -16 -10 -4 -7 -13 -7 -26 0
-13 7 -19 7 -19 0 0 -5 5 -10 12 -10 9 0 9 -3 1 -11 -9 -9 -18 -5 -36 15 -33
35 -43 33 -16 -4z m196 -95 c8 -9 13 -19 9 -22 -3 -4 -12 -1 -18 5 -9 9 -15 9
-26 -1 -13 -10 -14 -9 -3 11 14 26 18 27 38 7z"/>
<path d="M153 180 c-1 -11 4 -20 13 -20 14 0 18 -10 15 -42 -1 -10 3 -18 9
-18 6 0 9 -4 6 -9 -10 -15 22 -6 42 12 10 9 22 14 27 10 4 -5 5 -3 1 4 -7 13
-36 7 -36 -8 0 -5 -5 -9 -11 -9 -5 0 -7 5 -3 12 4 6 3 8 -3 5 -15 -9 -24 34
-11 50 6 8 23 12 38 9 15 -2 34 0 41 5 10 6 7 9 -11 10 -14 1 -36 2 -50 3 -15
0 -24 -4 -22 -11 1 -7 -5 -13 -13 -13 -9 0 -12 6 -9 15 4 9 0 15 -8 15 -7 0
-14 -9 -15 -20z"/>
<path d="M370 189 c0 -5 5 -7 10 -4 6 3 10 8 10 11 0 2 -4 4 -10 4 -5 0 -10
-5 -10 -11z"/>
<path d="M2911 193 c-13 -3 -26 -14 -28 -24 -7 -26 -39 -20 -35 6 2 15 1 17
-6 6 -11 -15 -4 -51 9 -51 5 0 18 9 29 20 12 12 26 18 32 14 7 -4 8 -3 4 5 -4
6 -4 11 1 10 18 -3 33 2 33 11 0 6 -3 9 -7 9 -5 -1 -19 -4 -32 -6z"/>
<path d="M2960 189 c0 -5 5 -7 10 -4 6 3 10 8 10 11 0 2 -4 4 -10 4 -5 0 -10
-5 -10 -11z"/>
<path d="M585 180 c3 -5 16 -10 28 -9 21 0 21 1 2 9 -28 12 -37 12 -30 0z"/>
<path d="M125 170 c3 -5 8 -10 11 -10 2 0 4 5 4 10 0 6 -5 10 -11 10 -5 0 -7
-4 -4 -10z"/>
<path d="M315 170 c5 -9 2 -10 -14 -5 -13 4 -21 2 -21 -5 0 -7 -7 -10 -15 -7
-8 4 -17 2 -20 -4 -4 -5 -11 -7 -16 -4 -5 4 -9 1 -9 -4 0 -15 60 -7 70 9 6 9
8 10 12 0 3 -9 7 -8 16 3 10 12 10 17 1 23 -8 5 -9 3 -4 -6z"/>
<path d="M495 170 c-3 -5 -2 -10 4 -10 6 0 15 -10 22 -22 9 -18 9 -20 -4 -15
-9 3 -18 -1 -21 -9 -6 -16 13 -53 29 -55 5 -1 -1 -5 -15 -9 -22 -7 -20 -8 13
-7 42 1 48 11 15 22 l-23 8 23 4 c21 4 57 -19 46 -30 -3 -2 4 -7 16 -10 11 -3
20 -1 20 4 0 6 9 5 21 -1 11 -7 23 -9 27 -6 10 10 -6 19 -38 20 -16 1 -28 6
-26 11 2 6 8 9 13 8 5 -1 9 8 9 19 0 20 0 20 -14 -1 -20 -29 -34 -27 -26 4 5
20 3 24 -10 19 -9 -3 -13 -11 -9 -17 3 -6 1 -7 -5 -3 -6 4 -21 2 -32 -4 -33
-18 -23 3 11 23 18 10 29 21 25 25 -4 3 -10 1 -14 -5 -5 -7 -14 -2 -26 14 -18
25 -18 25 3 18 12 -4 21 -2 21 4 0 14 -47 14 -55 1z"/>
<path d="M2543 167 c0 -7 10 -14 22 -15 13 -1 22 4 22 13 0 10 -4 12 -12 5 -7
-6 -15 -6 -22 1 -6 6 -10 5 -10 -4z"/>
<path d="M350 163 c0 -16 25 -23 41 -11 11 8 11 9 -2 5 -9 -3 -22 0 -28 6 -8
8 -11 8 -11 0z"/>
<path d="M664 161 c5 -8 0 -10 -18 -7 -18 3 -24 1 -20 -6 5 -7 1 -9 -9 -5 -11
4 -14 2 -10 -8 4 -11 10 -12 24 -4 11 5 23 7 28 5 5 -3 11 1 15 9 3 8 0 17 -6
21 -7 4 -8 3 -4 -5z"/>
<path d="M2449 154 c-12 -16 -12 -17 4 -11 13 5 17 3 14 -5 -2 -7 -13 -11 -23
-10 -15 3 -17 1 -6 -9 18 -19 48 12 35 36 -9 15 -11 15 -24 -1z"/>
<path d="M2487 154 c3 -7 9 -14 14 -14 14 0 10 17 -5 23 -10 4 -13 1 -9 -9z"/>
<path d="M2925 150 c-4 -11 -11 -18 -16 -15 -5 4 -9 -1 -9 -9 0 -20 10 -20 24
-1 7 9 16 12 25 6 18 -11 5 -31 -20 -31 -11 0 -17 -5 -14 -10 3 -6 18 -7 32
-4 18 5 24 3 19 -5 -4 -6 -2 -11 3 -11 15 0 14 13 -1 29 -11 11 -9 13 8 9 17
-4 20 -2 17 13 -3 10 -9 17 -13 14 -11 -7 -40 5 -40 15 0 5 10 11 23 13 19 4
19 4 -5 6 -19 1 -29 -5 -33 -19z"/>
<path d="M2105 138 c-11 -12 -14 -18 -6 -13 8 4 17 2 21 -6 13 -20 0 -32 -18
-17 -13 11 -15 11 -10 -4 11 -27 -18 -29 -32 -2 -8 13 -23 24 -34 24 -17 0
-18 2 -6 10 8 5 10 10 4 10 -6 0 -17 -6 -23 -14 -9 -11 -7 -15 11 -21 13 -4
28 -8 33 -9 6 -1 10 -12 9 -24 0 -16 4 -21 13 -18 8 3 11 1 8 -4 -3 -6 -12
-10 -20 -10 -8 0 -18 -6 -22 -14 -4 -7 -15 -15 -23 -18 -8 -3 4 -6 28 -6 23 0
42 4 42 9 0 5 -7 6 -15 3 -8 -4 -15 -2 -15 4 0 12 29 24 40 17 5 -3 7 -12 3
-20 -3 -8 1 -15 8 -15 7 0 9 3 6 7 -4 3 -2 12 4 19 9 10 7 15 -5 20 -9 3 -16
10 -16 16 0 5 6 6 13 2 6 -4 9 -4 5 1 -5 5 2 13 15 20 12 6 21 17 20 23 -2 7
2 12 7 12 6 0 10 5 10 11 0 6 -9 8 -20 4 -15 -5 -18 -3 -14 9 8 21 3 19 -21
-6z"/>
<path d="M333 126 c8 -21 -8 -29 -25 -12 -13 12 -16 11 -28 -8 -12 -18 -11
-20 2 -8 13 10 18 9 28 -3 7 -8 8 -15 2 -15 -11 0 -23 -36 -14 -44 3 -3 11 -1
18 5 8 6 21 9 29 5 8 -3 15 0 15 5 0 7 -11 9 -25 6 l-26 -4 21 19 c11 10 20
25 20 33 0 8 9 13 20 12 11 -1 20 -5 20 -9 0 -4 10 -8 23 -8 21 0 21 1 -4 14
-14 7 -38 16 -53 20 -23 6 -27 4 -23 -8z"/>
<path d="M1095 130 c3 -5 10 -10 16 -10 5 0 9 5 9 10 0 6 -7 10 -16 10 -8 0
-12 -4 -9 -10z"/>
<path d="M1180 129 c0 -5 5 -7 10 -4 6 3 10 8 10 11 0 2 -4 4 -10 4 -5 0 -10
-5 -10 -11z"/>
<path d="M2525 130 c5 -9 2 -10 -13 -6 -11 4 -23 2 -27 -3 -3 -7 0 -8 9 -5 9
3 16 2 16 -4 0 -6 13 -7 38 -1 45 10 57 11 49 2 -4 -3 -1 -13 5 -22 10 -13 10
-14 -2 -3 -8 6 -21 12 -29 12 -28 0 5 -22 39 -26 17 -2 36 -6 41 -9 5 -4 9 -4
9 0 0 3 -11 10 -25 15 -14 5 -25 16 -25 24 0 19 -36 40 -45 26 -4 -7 -13 -6
-27 1 -16 8 -19 8 -13 -1z"/>
<path d="M2691 124 c0 -11 3 -14 6 -6 3 7 2 16 -1 19 -3 4 -6 -2 -5 -13z"/>
<path d="M773 117 c-3 -5 4 -22 16 -38 21 -28 20 -56 -1 -43 -6 4 -5 10 3 16
14 10 2 7 -36 -8 -8 -3 -15 -1 -15 5 0 6 9 11 20 11 22 0 25 7 11 29 -5 8 -16
11 -26 8 -9 -4 -13 -12 -10 -18 4 -6 -2 -13 -14 -16 -24 -6 -28 -23 -6 -23 8
0 15 -4 15 -10 0 -5 -15 -9 -32 -8 -18 0 -48 -2 -65 -6 -18 -4 -33 -4 -33 1 0
4 -13 8 -30 8 -16 0 -30 -4 -30 -10 0 -10 28 -11 158 -5 44 2 62 7 62 16 0 8
5 14 11 14 5 0 7 -4 4 -10 -3 -5 3 -10 14 -10 12 0 21 5 21 12 0 6 8 4 19 -6
20 -18 91 -28 91 -14 0 5 -6 8 -12 9 -7 0 -2 5 11 10 13 5 22 11 20 13 -7 8
-59 -6 -54 -14 3 -5 -11 -3 -30 2 -36 12 -38 30 -2 27 12 0 37 -1 55 0 29 1
32 3 22 21 -10 19 -8 20 31 20 l42 0 -7 -39 -6 -39 49 2 c27 0 53 4 57 9 4 4
17 7 28 7 18 0 19 -2 6 -11 -13 -9 -13 -10 0 -6 10 3 14 15 12 40 -3 34 -1 36
25 33 15 -2 29 -8 31 -15 2 -6 8 -9 13 -5 5 3 9 -11 9 -31 0 -40 21 -55 51
-37 23 14 32 15 24 3 -5 -10 40 -5 57 5 13 8 9 31 -8 45 -13 10 -17 10 -25 -2
-7 -11 -11 -12 -18 -1 -4 8 -11 13 -15 13 -16 -2 -18 0 -7 13 8 10 8 16 -3 25
-11 9 -15 8 -20 -4 -4 -11 -2 -14 6 -9 7 4 8 3 4 -4 -4 -6 -13 -9 -21 -6 -8 4
-13 10 -10 14 2 4 -73 8 -167 9 -94 1 -176 5 -182 8 -16 11 -106 10 -113 0z
m77 -7 c12 6 21 7 25 0 3 -5 -7 -12 -22 -16 -15 -3 -34 -7 -40 -9 -7 -3 -17 5
-23 15 -10 18 -8 19 15 10 18 -7 33 -7 45 0z m260 -20 c0 -5 -5 -10 -11 -10
-5 0 -7 -5 -4 -10 8 -13 -15 -36 -35 -35 -10 0 -14 9 -13 25 1 14 0 18 -3 10
-3 -9 -14 -22 -26 -29 -18 -11 -20 -11 -14 4 3 9 6 23 6 30 0 7 8 16 18 18 33
9 82 7 82 -3z m-192 -15 c3 -3 -4 -5 -16 -5 -11 0 -23 4 -27 9 -6 10 33 6 43
-4z m-65 -2 c-7 -2 -19 -2 -25 0 -7 3 -2 5 12 5 14 0 19 -2 13 -5z m436 -24
c29 -21 57 -18 45 4 -4 7 -1 7 7 -1 12 -11 11 -15 -5 -27 -16 -12 -22 -12 -43
2 -19 13 -23 13 -21 2 2 -8 -7 -15 -19 -17 -24 -4 -31 12 -11 24 7 5 8 3 3 -6
-6 -9 -4 -11 4 -5 7 4 11 16 8 26 -6 24 -3 24 32 -2z"/>
<path d="M1060 70 c0 -5 5 -10 11 -10 5 0 7 5 4 10 -3 6 -8 10 -11 10 -2 0 -4
-4 -4 -10z"/>
<path d="M2655 119 c-10 -15 3 -25 16 -12 7 7 7 13 1 17 -6 3 -14 1 -17 -5z"/>
<path d="M444 105 c3 -10 -1 -15 -12 -16 -10 0 -12 -3 -5 -5 7 -3 20 -1 30 5
11 6 13 11 5 11 -7 0 -10 5 -7 10 3 6 1 10 -5 10 -7 0 -10 -7 -6 -15z"/>
<path d="M2288 108 c9 -9 15 -9 24 0 9 9 7 12 -12 12 -19 0 -21 -3 -12 -12z"/>
<path d="M2338 113 c7 -3 16 -2 19 1 4 3 -2 6 -13 5 -11 0 -14 -3 -6 -6z"/>
<path d="M2390 116 c0 -2 9 -6 20 -9 11 -3 18 -1 14 4 -5 9 -34 13 -34 5z"/>
<path d="M1918 103 c7 -3 16 -2 19 1 4 3 -2 6 -13 5 -11 0 -14 -3 -6 -6z"/>
<path d="M357 86 c-3 -8 2 -16 14 -19 15 -4 18 -2 10 7 -6 7 -8 16 -4 19 3 4
2 7 -4 7 -6 0 -13 -6 -16 -14z"/>
<path d="M1435 90 c-4 -6 -10 -8 -14 -6 -4 3 -8 0 -8 -7 0 -7 8 -13 18 -13 10
0 16 2 14 5 -3 2 0 10 6 18 8 9 8 13 1 13 -6 0 -14 -5 -17 -10z"/>
<path d="M2305 90 c-3 -5 -1 -10 4 -10 6 0 11 -4 11 -10 0 -5 -3 -9 -7 -9 -18
3 -33 -2 -33 -10 0 -6 12 -6 30 -1 17 5 28 5 25 1 -2 -5 12 -8 33 -7 21 1 35
5 32 11 -3 6 -15 9 -28 8 -13 -1 -20 2 -16 8 3 6 -2 9 -12 7 -11 -2 -18 2 -16
10 2 14 -14 16 -23 2z"/>
<path d="M2391 79 c20 -14 26 -26 23 -46 -3 -27 -1 -28 39 -28 40 0 43 2 39
25 -3 21 -14 29 -65 47 -58 20 -60 20 -36 2z m87 -44 c3 -3 -4 -5 -14 -5 -11
0 -25 -5 -31 -11 -9 -9 -11 -7 -8 7 2 11 4 20 4 21 2 4 44 -6 49 -12z"/>
<path d="M2451 84 c8 -10 15 -11 25 -4 9 8 15 7 22 -6 8 -15 9 -15 15 0 4 10
3 14 -2 11 -5 -3 -12 -1 -15 4 -3 4 -17 9 -31 9 -21 0 -23 -3 -14 -14z"/>
<path d="M2533 86 c3 -8 1 -17 -6 -20 -9 -5 -9 -7 0 -12 8 -3 11 -16 8 -32 -4
-22 -4 -24 4 -7 7 16 10 17 15 5 10 -23 109 -21 114 3 2 11 -3 17 -15 16 -10
0 -13 -3 -5 -6 16 -6 6 -23 -14 -23 -8 0 -12 4 -9 10 3 6 -1 7 -10 4 -26 -10
-66 5 -64 24 3 34 -1 52 -12 52 -6 0 -9 -6 -6 -14z"/>
<path d="M2674 75 c1 -15 6 -21 15 -17 9 3 12 1 7 -6 -4 -7 -2 -12 3 -12 6 0
12 5 12 10 1 6 2 15 3 20 0 6 4 10 9 10 29 0 31 -2 15 -14 -20 -15 -24 -36 -7
-36 5 0 7 4 4 10 -3 5 3 15 15 22 36 23 24 39 -29 37 -44 -2 -49 -4 -47 -24z"/>
<path d="M17 75 c-11 -7 -17 -22 -14 -32 3 -15 6 -13 15 10 12 29 27 35 35 15
3 -8 6 -6 6 5 1 20 -17 22 -42 2z"/>
<path d="M80 80 c-13 -8 -13 -10 1 -10 9 0 20 -7 23 -16 3 -9 12 -14 19 -11 6
2 23 0 37 -5 13 -5 21 -6 17 -2 -4 4 -2 13 4 21 8 8 8 13 1 13 -6 0 -12 -5
-14 -11 -3 -8 -13 -9 -28 -4 -25 8 -24 8 10 21 l35 12 -32 1 c-17 1 -35 -4
-39 -10 -4 -8 -9 -8 -13 -1 -4 7 -12 8 -21 2z"/>
<path d="M400 78 c23 -24 73 -38 86 -24 8 8 0 12 -28 12 -21 1 -46 7 -55 15
-16 12 -16 11 -3 -3z"/>
<path d="M655 78 c11 -6 23 -16 26 -21 4 -5 9 -4 14 3 9 15 3 20 -31 25 -26 5
-27 4 -9 -7z"/>
<path d="M1151 74 c0 -11 3 -14 6 -6 3 7 2 16 -1 19 -3 4 -6 -2 -5 -13z"/>
<path d="M2154 76 c-3 -9 -13 -12 -22 -9 -14 5 -15 3 -5 -7 10 -11 16 -11 30
2 15 14 21 14 36 3 12 -9 14 -14 6 -17 -7 -2 -9 -10 -5 -17 5 -8 18 -10 39 -5
27 5 30 4 20 -8 -10 -11 -8 -14 6 -14 29 0 14 50 -21 71 -25 14 -32 15 -39 4
-6 -10 -9 -11 -9 -1 0 17 -29 15 -36 -2z m102 -28 c5 -7 2 -9 -8 -5 -9 3 -22
0 -29 -6 -11 -10 -11 -9 0 6 16 20 27 22 37 5z"/>
<path d="M217 74 c-13 -13 5 -25 19 -13 8 6 23 9 34 6 11 -3 20 -1 20 4 0 10
-63 12 -73 3z"/>
<path d="M1970 67 c0 -22 37 -51 46 -36 4 7 3 10 -3 6 -6 -4 -16 0 -23 8 -13
15 -5 20 28 16 6 -1 12 3 12 9 0 5 -13 10 -30 10 -18 0 -30 -5 -30 -13z"/>
<path d="M2785 73 c3 -3 -4 -12 -15 -20 -21 -15 -27 -33 -11 -33 5 0 12 8 14
18 4 13 5 11 6 -5 0 -13 5 -23 10 -23 10 0 9 56 -2 64 -4 3 -5 3 -2 -1z"/>
<path d="M2570 59 c0 -5 9 -9 20 -9 11 0 20 2 20 4 0 2 -9 6 -20 9 -11 3 -20
1 -20 -4z"/>
<path d="M2920 59 c0 -6 8 -9 18 -7 10 2 16 -2 14 -10 -1 -8 2 -11 9 -7 8 5 8
10 0 18 -14 14 -41 18 -41 6z"/>
<path d="M2985 59 c-4 -6 -5 -12 -2 -15 2 -3 7 2 10 11 7 17 1 20 -8 4z"/>
<path d="M39 47 c13 -13 15 -31 3 -23 -5 3 -9 -1 -9 -8 0 -7 6 -13 13 -13 7 0
11 4 9 8 -10 15 29 19 45 4 13 -12 23 -13 41 -5 20 8 21 9 3 7 -11 -1 -31 5
-45 14 -31 20 -77 33 -60 16z"/>
<path d="M1165 50 c-8 -14 3 -30 21 -30 8 0 12 5 9 10 -4 6 -11 8 -16 5 -5 -4
-9 -2 -9 4 0 5 6 12 13 14 9 4 9 6 0 6 -6 1 -15 -3 -18 -9z"/>
<path d="M228 43 c-10 -2 -18 -12 -18 -21 0 -14 9 -17 47 -15 60 2 63 3 38 12
-11 5 -24 5 -30 1 -5 -4 -19 -4 -30 0 -17 7 -15 9 15 18 34 10 13 14 -22 5z"/>
<path d="M408 43 c7 -3 16 -2 19 1 4 3 -2 6 -13 5 -11 0 -14 -3 -6 -6z"/>
<path d="M1380 38 c0 -6 3 -8 7 -5 3 4 12 2 20 -4 10 -9 13 -8 13 5 0 9 -8 16
-20 16 -11 0 -20 -5 -20 -12z"/>
<path d="M1449 23 c19 -27 36 -30 22 -4 -6 10 -8 21 -5 24 4 3 -3 5 -14 4 -19
-1 -19 -2 -3 -24z"/>
<path d="M1633 35 c-7 -20 -5 -22 30 -30 22 -6 26 -4 21 9 -3 9 -10 13 -15 10
-5 -3 -9 2 -9 10 0 21 -19 21 -27 1z"/>
<path d="M1690 40 c0 -8 4 -20 8 -26 10 -16 42 -13 42 3 0 8 -5 11 -11 8 -6
-4 -17 1 -24 11 -11 15 -14 16 -15 4z"/>
<path d="M2160 40 c0 -5 -7 -10 -15 -10 -8 0 -15 -4 -15 -9 0 -4 11 -6 23 -4
22 4 35 33 15 33 -4 0 -8 -4 -8 -10z"/>
<path d="M2500 40 c0 -5 5 -10 11 -10 5 0 7 5 4 10 -3 6 -8 10 -11 10 -2 0 -4
-4 -4 -10z"/>
<path d="M2840 34 c0 -10 -5 -14 -15 -10 -8 3 -15 1 -15 -4 0 -6 4 -10 9 -10
5 0 17 -3 27 -7 11 -4 15 -3 10 5 -3 6 -2 13 4 17 5 3 10 2 10 -4 0 -6 7 -8
15 -5 8 4 15 2 15 -3 0 -5 14 -8 30 -5 34 5 33 14 -2 16 -13 1 -29 5 -35 9 -7
5 -13 6 -13 2 0 -3 -9 -1 -20 5 -16 9 -20 8 -20 -6z"/>
<path d="M446 31 c-3 -5 1 -11 9 -14 9 -4 12 -1 8 9 -6 16 -10 17 -17 5z"/>
<path d="M1480 30 c0 -5 5 -10 10 -10 6 0 10 5 10 10 0 6 -4 10 -10 10 -5 0
-10 -4 -10 -10z"/>
<path d="M361 12 c0 -10 3 -12 5 -5 3 7 11 10 19 7 8 -3 21 -2 30 3 11 7 6 9
-20 10 -27 1 -35 -3 -34 -15z"/>
<path d="M487 24 c-8 -8 1 -24 12 -24 4 0 8 7 8 15 0 16 -9 20 -20 9z"/>
<path d="M944 21 c4 -5 0 -11 -6 -13 -7 -3 4 -5 25 -5 37 0 38 1 15 13 -27 16
-41 18 -34 5z"/>
<path d="M2337 19 c7 -7 15 -10 18 -7 3 3 -2 9 -12 12 -14 6 -15 5 -6 -5z"/>
<path d="M2970 20 c0 -5 7 -7 15 -4 8 4 15 8 15 10 0 2 -7 4 -15 4 -8 0 -15
-4 -15 -10z"/>
<path d="M1380 9 c0 -5 5 -7 10 -4 6 3 10 8 10 11 0 2 -4 4 -10 4 -5 0 -10 -5
-10 -11z"/>
<path d="M1568 13 c7 -3 16 -2 19 1 4 3 -2 6 -13 5 -11 0 -14 -3 -6 -6z"/>
<path d="M1975 10 c3 -5 8 -10 11 -10 2 0 4 5 4 10 0 6 -5 10 -11 10 -5 0 -7
-4 -4 -10z"/>
<path d="M2370 10 c0 -5 5 -10 11 -10 5 0 7 5 4 10 -3 6 -8 10 -11 10 -2 0 -4
-4 -4 -10z"/>
<path d="M2681 16 c2 -2 24 -6 49 -9 30 -4 38 -3 25 3 -19 8 -83 14 -74 6z"/>
<path d="M1028 3 c7 -3 16 -2 19 1 4 3 -2 6 -13 5 -11 0 -14 -3 -6 -6z"/>
<path d="M1068 3 c7 -3 16 -2 19 1 4 3 -2 6 -13 5 -11 0 -14 -3 -6 -6z"/>
<path d="M1128 3 c12 -2 32 -2 45 0 12 2 2 4 -23 4 -25 0 -35 -2 -22 -4z"/>
<path d="M1528 3 c7 -3 16 -2 19 1 4 3 -2 6 -13 5 -11 0 -14 -3 -6 -6z"/>
</g>
</svg>
