<?xml version="1.0" standalone="no"?>
<!DOCTYPE svg PUBLIC "-//W3C//DTD SVG 20010904//EN"
 "http://www.w3.org/TR/2001/REC-SVG-20010904/DTD/svg10.dtd">
<svg version="1.0" xmlns="http://www.w3.org/2000/svg"
 width="300.000000pt" height="210.000000pt" viewBox="0 0 300.000000 210.000000"
 preserveAspectRatio="xMidYMid meet">
<metadata>
Created by potrace 1.10, written by Peter Selinger 2001-2011
</metadata>
<g transform="translate(0.000000,210.000000) scale(0.050000,-0.050000)"
fill="#000000" stroke="none">
<path d="M567 3980 c-5 -5 20 -19 57 -31 l66 -23 0 -598 0 -598 -70 -24 c-91
-31 -110 -30 490 -27 545 3 622 12 730 86 213 145 212 468 -1 569 l-87 41 64
33 c192 99 179 411 -21 516 -78 40 -118 45 -465 50 -209 4 -464 9 -567 11
-102 3 -191 1 -196 -5z m912 -289 c137 -124 -4 -248 -284 -250 l-95 -1 0 153
0 152 169 -9 c128 -7 180 -18 210 -45z m-500 -328 c-4 -91 -31 -113 -62 -51
-21 42 -23 66 -8 81 28 29 71 11 70 -30z m376 -123 c322 0 234 -297 -94 -316
l-161 -9 0 175 0 175 75 -12 c41 -7 122 -13 180 -13z"/>
<path d="M4920 3980 c-286 -9 -321 -13 -265 -34 l65 -24 0 -382 c0 -494 -36
-581 -241 -584 -238 -3 -267 56 -275 558 l-7 405 67 29 c61 27 42 29 -264 30
-278 1 -322 -3 -280 -24 l50 -25 10 -450 c15 -690 115 -809 680 -809 619 0
696 128 700 1155 0 96 6 115 35 115 42 1 96 32 72 43 -9 4 -165 3 -347 -3z"/>
<path d="M2040 3945 c53 -27 128 -120 315 -395 l246 -360 -6 -230 -5 -230 -70
-24 c-38 -13 -65 -25 -60 -26 44 -12 720 -7 720 5 0 8 -16 15 -36 15 -71 0
-84 41 -84 271 l0 223 249 370 c137 203 270 379 295 391 36 17 -27 22 -274 21
-176 0 -304 -5 -285 -10 60 -15 40 -78 -87 -276 -67 -104 -125 -190 -128 -190
-3 0 -61 86 -128 190 -127 198 -147 261 -87 276 19 5 -118 10 -305 12 -336 2
-339 2 -270 -33z m828 -734 c-31 -98 -32 -116 -7 -132 22 -14 23 -18 3 -19
-16 0 -24 -18 -21 -45 6 -42 -3 -55 -38 -55 -8 0 -14 56 -14 125 1 69 -11 155
-26 192 l-27 67 61 -14 c43 -9 61 -6 61 12 0 19 6 20 22 4 15 -15 11 -53 -14
-135z"/>
<path d="M625 2315 c11 -32 4535 -37 4535 -5 0 13 -774 22 -2272 25 -1814 4
-2270 0 -2263 -20z"/>
<path d="M1510 1820 c-14 -23 -18 -159 -5 -172 8 -7 22 9 33 36 23 61 58 76
174 76 l88 0 -1 -215 c-3 -298 -19 -393 -69 -402 -115 -20 -60 -43 106 -43
170 0 256 29 129 44 l-55 6 -6 305 -5 305 96 0 c102 0 145 -25 145 -84 0 -68
40 -36 43 34 2 39 4 79 5 91 2 21 -665 40 -678 19z"/>
<path d="M0 1801 c0 -10 20 -21 45 -25 71 -10 71 -622 0 -632 -110 -16 -30
-44 125 -44 159 0 237 30 115 44 -66 7 -90 161 -72 446 13 196 60 233 172 135
76 -67 11 -285 -84 -285 -12 0 -21 -9 -21 -20 0 -52 159 11 223 87 77 92 30
233 -95 285 -75 31 -408 39 -408 9z"/>
<path d="M990 1795 c-139 -416 -252 -655 -310 -655 -22 0 -40 -9 -40 -20 0
-11 57 -20 130 -20 73 0 130 9 130 20 0 11 -15 20 -32 20 -35 0 -26 109 14
185 39 71 232 49 265 -32 54 -128 58 -153 24 -153 -17 0 -31 -9 -31 -20 0 -11
60 -20 140 -20 149 0 170 9 91 40 -59 22 -111 123 -233 445 -80 215 -125 278
-148 210z m26 -371 c-103 -8 -102 -12 -51 125 l43 117 44 -118 44 -118 -80 -6z"/>
<path d="M2420 1800 c0 -11 16 -20 36 -20 73 0 84 -39 84 -312 0 -291 -7 -328
-61 -328 -20 0 -42 -9 -49 -20 -8 -13 50 -20 160 -20 110 0 168 7 160 20 -7
11 -29 20 -49 20 -44 0 -60 53 -61 195 l0 105 201 0 201 0 -6 -145 c-6 -133
-10 -146 -51 -151 -107 -16 -32 -44 115 -44 147 0 222 28 115 44 -44 6 -45 12
-51 310 l-5 305 50 13 c101 25 48 48 -109 48 -157 0 -210 -23 -110 -48 46 -12
76 -189 45 -264 -3 -7 -93 -14 -200 -15 l-195 -3 0 106 c0 125 26 184 81 184
21 0 39 9 39 20 0 12 -70 20 -170 20 -100 0 -170 -8 -170 -20z"/>
<path d="M3440 1800 c0 -11 11 -20 25 -20 65 -1 147 -164 274 -547 46 -139 88
-170 119 -88 10 25 42 99 72 165 l54 120 39 -90 c22 -49 50 -124 63 -165 44
-139 78 -100 215 248 111 284 134 326 183 345 91 34 65 52 -74 52 -73 0 -130
-9 -130 -20 0 -11 14 -20 30 -20 48 0 35 -72 -59 -320 -79 -208 -89 -225 -107
-180 -11 28 -39 98 -62 156 -54 136 25 344 131 344 15 0 27 9 27 20 0 12 -97
20 -250 20 -232 0 -315 -19 -203 -47 33 -9 64 -49 107 -144 l62 -131 -53 -119
c-67 -153 -59 -159 -158 126 -96 276 -96 275 -55 275 17 0 30 9 30 20 0 11
-60 20 -140 20 -80 0 -140 -9 -140 -20z m610 -40 c7 -12 2 -54 -12 -95 l-25
-75 -25 60 c-45 104 8 197 62 110z"/>
<path d="M4763 1625 c-110 -317 -193 -485 -242 -485 -22 0 -41 -9 -41 -20 0
-11 58 -20 135 -19 126 1 132 3 92 31 -42 29 -42 33 -11 129 l32 99 114 0 114
0 32 -80 c40 -102 40 -119 -3 -152 -30 -23 -13 -27 123 -27 159 -1 172 6 87
47 -55 27 -105 127 -219 437 -108 295 -124 298 -213 40z m132 -95 l40 -110
-89 0 c-69 0 -88 7 -80 28 6 15 22 65 36 110 32 107 44 104 93 -28z"/>
<path d="M5240 1802 c0 -10 23 -23 50 -30 110 -28 273 -324 266 -484 -5 -119
-11 -139 -46 -145 -116 -21 -59 -43 110 -43 169 0 226 22 110 43 -35 6 -41 26
-46 147 l-6 140 116 170 c79 116 130 172 161 176 96 14 38 44 -85 44 -127 0
-172 -24 -87 -47 40 -10 41 -14 13 -57 -16 -25 -54 -89 -85 -141 -64 -112 -65
-112 -158 46 -76 127 -87 159 -53 159 11 0 20 9 20 20 0 11 -60 20 -140 20
-77 0 -140 -8 -140 -18z"/>
<path d="M540 668 c0 -6 18 -27 40 -45 22 -18 70 -118 107 -222 79 -221 95
-234 142 -112 47 125 64 127 105 12 49 -140 66 -129 153 100 43 111 94 212
115 225 59 37 45 54 -42 54 -73 0 -110 -27 -60 -43 12 -4 -4 -74 -38 -167
l-58 -160 -42 96 c-45 103 -24 199 49 227 70 27 18 47 -121 47 -87 0 -150 -8
-150 -20 0 -11 9 -20 20 -20 32 0 104 -161 92 -207 -34 -136 -64 -126 -119 39
-32 94 -45 161 -33 165 52 17 11 43 -70 43 -49 0 -90 -5 -90 -12z m400 -36 c0
-66 -51 -90 -66 -32 -8 30 0 40 28 40 21 0 38 -4 38 -8z"/>
<path d="M1375 650 c-134 -76 -157 -276 -44 -383 174 -163 464 -12 421 219
-28 151 -238 242 -377 164z m193 -33 c90 -41 137 -192 89 -283 -92 -172 -317
-90 -317 115 0 151 102 226 228 168z"/>
<path d="M1840 660 c0 -11 14 -20 30 -20 25 0 30 -36 30 -200 0 -164 -5 -200
-30 -200 -16 0 -30 -9 -30 -20 0 -11 50 -20 110 -20 109 0 148 25 70 46 -56
14 -59 154 -3 154 20 0 49 -23 64 -52 58 -108 259 -208 259 -128 0 11 -15 20
-33 20 -18 0 -68 37 -111 82 l-79 83 42 44 c72 77 51 173 -46 210 -70 27 -273
28 -273 1z m256 -44 c59 -59 20 -176 -58 -176 -55 0 -58 4 -58 87 0 113 52
153 116 89z"/>
<path d="M2400 660 c0 -11 14 -20 30 -20 25 0 30 -36 30 -200 0 -164 -5 -200
-30 -200 -16 0 -30 -9 -30 -21 0 -56 326 -12 345 47 18 54 -1 111 -20 59 -18
-52 -71 -87 -123 -81 -65 7 -95 365 -33 388 63 24 28 48 -69 48 -55 0 -100 -9
-100 -20z"/>
<path d="M2855 647 c41 -29 45 -48 45 -207 0 -159 -4 -178 -45 -207 -43 -29
-36 -31 117 -32 352 -2 494 326 195 451 -100 42 -373 37 -312 -5z m271 -29
c162 -83 152 -328 -14 -369 -113 -29 -122 -15 -128 196 l-5 195 52 0 c28 0 71
-10 95 -22z"/>
<path d="M3360 671 c0 -5 21 -30 46 -55 25 -25 76 -130 113 -232 73 -203 90
-214 140 -87 42 108 60 108 102 0 50 -128 67 -117 151 105 42 112 93 213 112
225 57 36 42 53 -44 53 -74 0 -109 -27 -58 -44 15 -5 4 -60 -32 -161 -60 -170
-70 -175 -110 -55 -30 92 10 220 70 220 16 0 30 9 30 20 0 12 -67 20 -160 20
-148 0 -202 -20 -130 -47 63 -25 99 -144 70 -232 -36 -110 -44 -105 -104 79
-29 88 -44 160 -34 160 10 0 18 9 18 20 0 11 -40 20 -90 20 -49 0 -90 -4 -90
-9z"/>
<path d="M4120 662 c0 -9 18 -22 40 -28 36 -9 40 -27 40 -194 0 -167 -4 -185
-40 -194 -78 -21 -39 -46 70 -46 61 0 110 9 110 20 0 11 -12 20 -27 20 -36 0
-59 167 -41 300 9 65 23 100 41 100 15 0 27 9 27 20 0 11 -49 20 -110 20 -60
0 -110 -8 -110 -18z"/>
<path d="M4440 660 c0 -11 12 -20 28 -20 35 0 51 -62 51 -200 0 -138 -16 -200
-51 -200 -16 0 -28 -9 -28 -20 0 -44 309 -23 382 26 155 104 144 316 -22 399
-77 39 -360 50 -360 15z m306 -42 c144 -65 150 -308 8 -357 -145 -51 -174 -18
-174 196 1 181 40 219 166 161z"/>
<path d="M4960 660 c0 -11 14 -20 30 -20 25 0 30 -36 30 -200 0 -164 -5 -200
-30 -200 -16 0 -30 -9 -30 -21 0 -13 60 -18 165 -15 l165 6 7 60 6 60 -43 -46
c-76 -81 -149 -54 -156 58 l-6 91 61 -9 c34 -5 61 -17 61 -26 0 -10 9 -18 20
-18 11 0 20 28 20 62 0 52 -6 60 -35 48 -111 -47 -125 -40 -125 58 0 77 6 92
38 92 60 0 102 -22 102 -52 0 -15 9 -28 20 -28 11 0 20 27 20 60 l0 60 -160 0
c-93 0 -160 -8 -160 -20z"/>
</g>
</svg>
