<?xml version="1.0" standalone="no"?>
<!DOCTYPE svg PUBLIC "-//W3C//DTD SVG 20010904//EN"
 "http://www.w3.org/TR/2001/REC-SVG-20010904/DTD/svg10.dtd">
<svg version="1.0" xmlns="http://www.w3.org/2000/svg"
 width="180.000000pt" height="180.000000pt" viewBox="0 0 180.000000 180.000000"
 preserveAspectRatio="xMidYMid meet">
<metadata>
Created by potrace 1.10, written by Peter Selinger 2001-2011
</metadata>
<g transform="translate(0.000000,180.000000) scale(0.100000,-0.100000)"
fill="#000000" stroke="none">
<path d="M862 1515 c-24 -7 -52 -21 -62 -30 -14 -13 -22 -14 -43 -4 -39 18
-96 3 -132 -35 -17 -18 -47 -39 -67 -45 -51 -17 -85 -46 -110 -94 -26 -52 -28
-130 -5 -174 12 -23 17 -57 17 -123 0 -109 14 -143 65 -160 20 -7 42 -10 48
-7 10 4 13 -35 11 -183 -3 -205 4 -252 41 -276 15 -10 25 -26 25 -41 0 -27 17
-64 34 -75 6 -4 101 -8 212 -8 223 0 230 2 237 68 2 20 16 45 35 63 24 23 32
40 32 65 0 31 3 34 30 34 53 0 99 26 115 64 18 42 21 270 5 327 -13 47 -47 69
-105 69 l-45 0 0 40 c0 33 7 46 44 84 59 59 69 113 35 183 -13 27 -39 58 -58
71 -19 12 -47 45 -63 72 -33 59 -81 97 -144 116 -57 17 -95 17 -152 -1z m151
-69 c40 -16 91 -73 106 -118 8 -25 20 -37 44 -46 58 -21 84 -96 51 -147 -22
-34 -64 -45 -173 -45 -62 0 -101 -4 -109 -12 -8 -8 -12 -58 -12 -157 0 -144 0
-145 27 -173 55 -58 23 -142 -53 -142 -41 0 -84 39 -84 75 0 24 18 60 37 74
11 8 13 44 11 170 l-3 160 -130 0 -130 0 -3 -65 c-3 -96 -9 -112 -35 -108 -21
3 -22 9 -27 114 -3 61 -10 117 -16 125 -25 30 -26 78 -4 123 21 44 42 58 107
71 22 4 35 15 43 36 15 36 50 47 97 30 29 -11 37 -10 62 8 59 43 133 53 194
27z m122 -481 c0 -45 -4 -65 -12 -65 -7 0 -13 -4 -13 -9 0 -5 6 -11 13 -14 9
-3 11 -54 7 -223 l-5 -219 -215 -3 c-118 -1 -225 0 -237 3 -23 5 -23 6 -23
220 0 184 2 215 15 215 8 0 15 7 15 15 0 8 -7 15 -15 15 -12 0 -15 13 -15 60
l0 60 73 0 72 0 -3 -60 c-2 -33 -8 -60 -13 -60 -5 0 -9 -7 -9 -15 0 -8 5 -15
10 -15 19 0 11 -70 -11 -100 -33 -44 -36 -117 -7 -160 33 -48 99 -84 141 -76
46 9 94 41 118 78 26 43 22 122 -9 165 -26 37 -30 103 -7 103 8 0 15 5 15 10
0 6 -7 10 -15 10 -12 0 -15 14 -15 65 l0 65 73 0 72 0 0 -65z m65 -55 c4 -3
-3 -13 -16 -23 -27 -20 -32 -16 -8 7 14 15 14 16 -1 16 -13 0 -14 2 -3 14 9
10 14 11 17 3 2 -7 7 -14 11 -17z m-573 -20 c-1 -15 -8 -20 -29 -20 -15 0 -30
4 -33 10 -3 6 1 7 9 4 9 -3 16 -1 16 5 0 6 7 8 17 4 11 -4 14 -3 9 5 -4 7 -3
12 3 12 5 0 9 -9 8 -20z m651 -12 c17 -17 17 -289 0 -306 -7 -7 -27 -12 -45
-12 l-33 0 0 165 0 165 33 0 c18 0 38 -5 45 -12z m-208 -533 l0 -25 -175 0
-175 0 0 25 0 25 175 0 175 0 0 -25z"/>
</g>
</svg>
