<?xml version="1.0" standalone="no"?>
<!DOCTYPE svg PUBLIC "-//W3C//DTD SVG 20010904//EN"
 "http://www.w3.org/TR/2001/REC-SVG-20010904/DTD/svg10.dtd">
<svg version="1.0" xmlns="http://www.w3.org/2000/svg"
 width="300.000000pt" height="375.000000pt" viewBox="0 0 300.000000 375.000000"
 preserveAspectRatio="xMidYMid meet">
<metadata>
Created by potrace 1.10, written by Peter Selinger 2001-2011
</metadata>
<g transform="translate(0.000000,375.000000) scale(0.050000,-0.050000)"
fill="#000000" stroke="none">
<path d="M214 6795 c3 -388 5 -709 7 -715 7 -34 -4 -729 -12 -741 -5 -9 0 -22
11 -29 11 -7 16 -21 10 -31 -7 -10 -13 -203 -16 -428 -2 -259 -11 -411 -24
-411 -11 0 -11 -7 2 -15 23 -16 31 -345 8 -345 -6 0 -8 -32 -4 -70 5 -41 -3
-84 -19 -104 -15 -19 -17 -28 -5 -21 24 15 27 -260 3 -298 -9 -13 -4 -28 10
-34 14 -5 16 -11 5 -11 -11 -1 -18 -52 -16 -117 7 -207 7 -233 -1 -415 -4 -99
-14 -196 -22 -215 -10 -22 -7 -35 8 -35 13 0 17 -10 10 -22 -8 -12 -17 -154
-20 -315 -8 -358 -26 -687 -39 -700 -5 -5 0 -21 13 -36 17 -21 13 -27 -16 -27
-27 -1 -30 -5 -11 -17 36 -23 51 -133 24 -182 -16 -30 -15 -41 2 -41 17 0 16
-8 -2 -30 -14 -16 -17 -30 -7 -30 10 0 20 -18 21 -40 2 -22 17 -58 33 -81 39
-56 48 23 63 541 57 2009 70 2451 79 2720 10 291 14 1129 12 2435 l-1 565 -55
0 -55 0 4 -705z"/>
<path d="M838 6555 c-2 -520 -5 -976 -9 -1015 -19 -209 -26 -3905 -7 -3860 13
32 24 603 29 1620 5 863 13 2162 17 2885 5 779 1 1315 -10 1315 -10 0 -19
-395 -20 -945z"/>
<path d="M931 6985 c8 -283 14 -1586 12 -2895 l-3 -2380 50 60 c26 33 49 67
49 76 1 15 69 117 111 166 11 13 38 49 60 79 96 133 99 136 176 121 143 -27
591 -392 481 -392 -8 0 -4 -11 9 -24 37 -37 29 -130 -15 -171 -40 -37 -80
-750 -81 -1420 l0 -205 50 0 c49 0 50 4 50 145 -1 637 45 1529 84 1610 36 78
95 125 68 54 -8 -21 -3 -26 13 -17 20 11 20 8 0 -13 -17 -19 -25 -107 -25
-286 0 -283 11 -320 30 -102 7 76 16 171 20 209 40 377 33 588 -17 568 -18 -7
-33 36 -50 146 -15 100 -42 182 -73 230 -28 41 -50 89 -50 107 0 17 -12 55
-28 85 -31 62 -66 237 -70 359 -1 25 -11 45 -22 45 -30 0 -24 -156 12 -280 17
-60 38 -141 47 -180 9 -38 46 -127 81 -197 68 -133 103 -303 63 -303 -13 0
-23 -13 -23 -29 0 -18 12 -25 30 -18 22 8 27 2 18 -21 -7 -17 -23 -32 -35 -32
-17 -1 -17 -5 -1 -15 27 -18 48 -143 25 -157 -21 -13 -93 34 -107 69 -9 24 -5
24 20 3 37 -30 40 -3 7 69 -13 28 -34 51 -46 51 -25 0 -74 116 -54 128 27 17
-5 252 -35 252 -49 0 -120 202 -120 340 1 165 -15 203 -34 83 -7 -46 -20 -83
-27 -83 -33 0 16 -182 88 -326 73 -148 114 -315 78 -313 -27 1 -133 100 -120
112 6 6 -6 53 -26 104 -20 51 -42 143 -50 203 -22 176 -28 190 -63 146 -41
-51 14 87 93 232 l59 109 -38 73 c-28 54 -37 109 -34 212 2 76 -2 172 -9 213
-9 50 -5 87 13 110 31 41 37 113 8 95 -11 -7 -20 2 -20 20 0 18 9 27 22 19 15
-10 16 -3 3 24 -11 20 -16 109 -13 197 3 88 7 174 7 190 2 73 4 455 2 505 -1
30 8 55 19 55 11 0 20 10 20 21 0 12 -8 17 -17 11 -9 -6 -17 140 -18 324 0
184 -7 369 -16 412 -10 52 -8 74 6 65 14 -8 18 13 11 62 -21 171 -22 225 -1
212 14 -9 16 3 7 35 -18 57 -17 42 -13 268 2 99 -2 214 -9 255 -7 41 -5 75 4
75 9 0 16 50 16 110 0 61 -8 110 -17 110 -10 0 -12 29 -5 65 7 36 12 79 12 95
0 17 -1 46 -1 67 -1 20 -10 58 -20 85 -11 30 -11 48 1 48 11 0 16 29 12 65 -5
36 0 81 11 100 12 23 11 35 -2 35 -12 0 -21 13 -21 29 0 18 12 25 30 18 21 -8
30 2 30 33 0 31 -9 41 -30 33 -42 -16 -38 21 5 45 27 16 11 21 -70 21 l-104 1
10 -2436 9 -2436 -50 -99 c-27 -55 -50 -109 -50 -120 0 -12 -27 -57 -59 -100
-33 -44 -60 -90 -60 -103 -2 -60 -68 -162 -99 -152 -21 6 -24 4 -9 -7 18 -13
16 -27 -5 -56 -15 -21 -29 -35 -30 -30 -2 12 -18 139 -23 184 -2 19 -8 35 -14
35 -12 0 -8 431 5 692 6 108 20 179 44 215 39 59 30 70 -19 22 -27 -28 -31
-28 -31 -2 0 16 11 33 24 38 15 5 17 21 7 46 -22 51 -25 96 -6 110 8 6 6 41
-5 78 -13 45 -12 76 1 93 13 15 14 29 2 36 -28 18 -40 111 -22 175 9 31 8 61
-2 67 -22 14 20 110 49 110 11 0 1 14 -22 30 -44 31 -46 125 -6 210 7 17 8 53
0 80 -7 28 -6 70 3 95 9 25 8 45 -1 45 -9 0 -12 23 -7 50 6 29 0 50 -13 50
-31 0 -27 32 8 67 16 16 21 33 12 36 -17 6 -32 135 -22 187 7 40 3 206 -7 282
-6 43 -6 68 -1 55 12 -27 88 -12 88 17 0 11 -13 15 -29 9 -37 -14 -50 6 -51
79 -1 100 5 137 26 165 16 19 13 31 -7 45 -25 16 -24 22 6 40 32 18 32 24 5
51 -33 33 -41 87 -12 87 9 0 23 20 29 44 12 47 -20 103 -49 85 -10 -6 -18 -2
-18 9 0 11 9 25 20 32 11 7 20 30 20 51 0 22 10 39 21 39 12 0 16 9 9 20 -7
12 -21 16 -30 10 -9 -6 -23 -1 -30 10 -7 11 1 26 18 32 28 11 28 15 1 42 -27
27 -27 36 1 78 17 27 23 48 14 48 -10 0 -16 41 -16 90 1 50 -4 90 -12 90 -7 0
-12 18 -11 40 2 22 10 40 17 40 18 0 11 53 -8 73 -21 21 -17 87 6 87 11 0 20
10 20 21 0 12 -8 16 -18 10 -9 -6 -22 7 -28 29 -6 22 -3 35 6 30 10 -6 23 -2
30 10 7 11 3 20 -9 20 -12 0 -21 45 -20 105 0 58 -3 134 -7 170 -3 36 2 65 12
65 11 0 8 13 -5 29 -26 31 -34 133 -14 167 8 12 4 27 -8 35 -13 7 -20 72 -19
156 4 195 4 193 -33 193 -29 0 -31 -46 -16 -515z m545 -4510 c16 -19 24 -35
16 -35 -7 0 -4 -18 8 -40 18 -34 15 -40 -20 -40 -32 0 -40 12 -39 55 2 30 -3
78 -10 105 -6 28 -6 37 1 20 7 -16 27 -46 44 -65z"/>
<path d="M1760 7477 c0 -9 9 -17 20 -17 11 0 20 -25 20 -55 -1 -38 -6 -47 -18
-28 -10 17 -18 -25 -20 -107 -1 -74 -7 -141 -12 -149 -5 -8 -1 -63 9 -123 11
-71 10 -112 -4 -121 -11 -7 -15 -38 -7 -70 22 -96 25 -165 7 -154 -20 12 -11
-72 12 -108 8 -14 8 -25 -1 -25 -10 0 -16 -81 -14 -180 1 -99 -6 -180 -15
-180 -10 0 -9 -17 2 -39 28 -51 27 -141 -1 -141 -17 0 -16 -8 0 -28 18 -22 18
-30 -2 -37 -21 -7 -21 -19 2 -61 21 -39 24 -82 12 -168 -9 -64 -17 -158 -18
-209 -1 -52 -9 -100 -17 -109 -8 -8 -15 -24 -15 -36 0 -12 9 -8 20 8 13 20 19
-63 17 -250 -1 -184 -7 -259 -18 -220 -10 36 -11 4 -4 -80 15 -159 15 -148 9
-510 -3 -190 -11 -261 -25 -240 -14 21 -18 -73 -12 -300 5 -195 2 -260 -5
-160 -13 159 -14 149 -23 -150 -5 -176 -8 -323 -6 -326 1 -3 34 37 72 90 69
94 91 306 32 306 -9 0 -17 14 -17 31 0 17 8 27 17 21 9 -6 18 257 20 584 1
327 7 632 13 678 5 46 2 88 -7 94 -10 6 -13 50 -7 97 5 47 9 200 8 341 -1 157
5 251 17 243 10 -6 19 12 19 40 0 28 -10 51 -22 51 -15 0 -13 12 5 34 18 23
19 29 2 19 -17 -10 -25 -2 -25 26 0 22 8 41 19 41 11 0 11 24 0 62 -9 34 -13
162 -7 285 14 287 16 664 3 686 -13 22 -5 86 16 136 10 25 8 41 -7 46 -13 5
-24 26 -24 48 0 22 9 34 20 27 28 -17 25 17 -4 46 -19 19 -19 29 0 48 38 38
32 309 -6 309 -16 0 -30 -7 -30 -16z"/>
<path d="M1932 7395 c-6 -58 -16 -618 -22 -1245 -6 -627 -15 -1243 -20 -1370
-5 -126 -14 -503 -21 -837 l-12 -606 50 33 c49 32 50 39 52 286 2 140 6 407
10 594 38 1610 55 3284 33 3200 -9 -33 -18 -334 -20 -670 -3 -335 -8 -673 -12
-750 -5 -77 -9 -309 -11 -515 -2 -218 -11 -375 -22 -375 -12 0 -15 177 -8 455
19 815 33 1905 23 1905 -5 0 -14 -47 -20 -105z m9 -2538 c-2 -135 -7 -250 -12
-255 -5 -5 -9 111 -9 258 0 147 6 261 12 254 7 -6 11 -122 9 -257z m-26 -762
c-5 -47 -8 -8 -8 85 0 94 3 132 8 85 4 -47 4 -123 0 -170z"/>
<path d="M2106 7310 c4 -210 12 -228 49 -110 42 133 34 300 -14 300 -37 0 -40
-13 -35 -190z"/>
<path d="M2217 7265 c-2 -129 -4 -311 -5 -405 -1 -93 3 -201 10 -240 8 -45 14
-4 15 115 2 102 10 185 19 185 8 0 13 -61 11 -135 -2 -74 -5 -342 -7 -595 -2
-253 -11 -443 -18 -422 -8 21 -12 138 -8 260 4 122 -1 249 -10 282 -17 59 -30
-358 -55 -1820 -5 -330 -15 -700 -21 -823 -8 -151 -5 -227 10 -236 16 -9 22
68 23 263 0 152 4 384 8 516 17 497 38 1461 33 1487 -2 15 5 21 16 14 14 -9
18 -137 12 -387 -5 -206 -14 -706 -21 -1113 -6 -406 -17 -747 -23 -757 -12
-20 36 -14 239 27 l115 23 -3 83 c-3 74 -4 76 -11 18 -8 -65 -32 -84 -56 -45
-7 12 -23 14 -36 6 -13 -8 -41 -12 -61 -9 -27 4 -33 -1 -21 -20 12 -21 7 -20
-19 1 -27 22 -29 32 -9 45 14 9 17 17 5 17 -33 0 -69 -44 -69 -85 0 -21 -9
-32 -21 -24 -13 8 -17 54 -11 116 6 57 16 499 22 983 6 484 15 948 20 1030 22
349 31 1880 11 1880 -14 0 -21 -102 -21 -280 0 -173 -8 -280 -20 -280 -13 0
-17 101 -11 280 6 172 2 280 -10 280 -11 0 -20 -100 -22 -235z"/>
<path d="M2437 7415 c-2 -47 -2 -98 0 -115 14 -138 1 -565 -31 -990 -12 -163
-13 -216 -8 -600 1 -121 1 -233 0 -250 -8 -115 23 -549 41 -567 15 -15 21 -8
21 25 0 25 15 77 32 114 23 47 26 76 13 93 -11 14 -17 79 -13 145 12 184 7
282 -21 445 -14 79 12 123 35 60 6 -17 14 -13 24 11 9 20 6 56 -5 80 -29 63
-65 154 -65 165 0 5 14 9 30 9 17 0 30 -16 30 -36 0 -20 13 -54 29 -75 29 -37
30 -37 30 15 1 29 -12 66 -28 82 -32 32 -91 165 -91 206 0 49 30 30 69 -42 39
-73 71 -91 71 -40 0 17 -10 30 -22 30 -13 0 -18 18 -12 40 6 22 2 40 -9 40
-11 0 -14 8 -8 18 6 10 -6 14 -26 9 -25 -7 -41 2 -47 27 -11 42 23 83 59 71
14 -5 25 1 25 13 0 12 -22 22 -50 22 -37 0 -50 11 -50 40 0 48 56 54 74 7 11
-30 15 -29 39 3 24 33 27 33 39 3 7 -19 2 -46 -11 -61 -14 -18 -16 -33 -3 -41
10 -6 25 -3 32 9 18 29 71 25 59 -6 -5 -14 4 -43 22 -65 30 -37 31 -34 22 46
-10 94 11 105 116 65 40 -15 51 -33 51 -82 0 -52 5 -59 28 -39 24 19 30 15 35
-23 5 -30 23 -48 52 -52 25 -4 45 -16 45 -27 0 -10 10 -13 22 -6 15 9 15 20 1
34 -15 15 -14 34 3 63 28 50 35 112 12 112 -9 0 -22 -32 -29 -71 -16 -82 -50
-82 -72 1 -31 114 -158 185 -287 161 -84 -16 -91 12 -22 96 30 36 52 49 61 35
7 -12 30 -22 51 -22 20 0 40 -9 43 -20 5 -13 30 -13 77 0 103 30 143 25 139
-15 -8 -80 8 -109 19 -35 8 54 4 85 -13 96 -14 9 -25 30 -25 48 0 28 5 28 40
-4 39 -35 40 -35 40 14 0 27 5 55 12 61 6 7 11 103 11 213 0 111 6 203 13 203
8 1 34 6 59 10 35 7 46 -1 48 -36 2 -41 5 -70 14 -151 2 -15 11 -21 22 -15 11
7 12 -12 1 -49 -11 -37 -10 -56 1 -49 11 6 19 -3 19 -21 0 -18 -9 -27 -20 -20
-11 7 -20 -2 -20 -20 0 -18 9 -27 20 -20 11 7 20 3 20 -9 0 -11 -9 -21 -20
-21 -11 0 -4 -16 15 -35 45 -45 53 -455 10 -455 -14 0 -25 -7 -25 -15 0 -8 0
-24 0 -35 0 -11 26 -20 59 -20 32 0 65 -11 73 -23 10 -16 4 -20 -19 -11 -23 9
-33 2 -33 -22 0 -73 -43 -184 -71 -184 -16 0 -29 11 -29 25 -1 17 -7 15 -20
-5 -11 -16 -20 -22 -20 -11 0 10 -13 1 -29 -20 -28 -39 -28 -38 -41 1 -31 94
-47 122 -49 85 0 -19 -11 -35 -22 -35 -12 0 -15 -10 -7 -23 8 -13 3 -19 -14
-13 -15 5 -42 47 -59 93 -17 46 -37 79 -43 72 -14 -13 14 -115 46 -175 27 -50
7 -103 -52 -134 -27 -14 -45 -32 -40 -40 4 -7 -5 -13 -21 -13 -34 0 -37 17 -7
47 15 15 15 25 -2 36 -38 23 -61 -128 -62 -415 0 -19 -6 -35 -12 -35 -6 0 -23
16 -38 35 -24 32 -26 29 -27 -25 0 -128 -25 -233 -52 -222 -29 11 -59 -85 -52
-168 l5 -50 -27 50 c-15 28 -20 55 -11 62 10 6 22 145 28 310 7 164 12 303 12
308 9 169 -8 320 -35 320 -23 0 -26 -9 -11 -36 19 -37 17 -184 -4 -218 -18
-29 -22 -716 -4 -746 11 -17 8 -21 -7 -12 -15 9 -23 -1 -23 -27 0 -24 13 -41
31 -41 17 0 26 -8 20 -19 -7 -10 -16 -197 -20 -415 -5 -218 -4 -380 2 -361 18
61 60 36 49 -30 -1 -8 8 -15 19 -15 12 0 20 -16 18 -35 -9 -89 3 -226 19 -216
51 31 103 -169 57 -224 -34 -42 -55 -28 -57 40 -3 65 -3 64 -17 -12 -9 -42
-28 -85 -43 -95 -21 -13 -17 -17 17 -18 25 0 45 10 45 21 0 12 16 19 35 16 19
-3 46 1 60 10 19 12 20 3 5 -37 -13 -35 -13 -83 2 -146 39 -173 28 -698 -21
-959 -18 -99 2 -128 37 -52 35 78 88 522 77 657 -5 66 -2 147 6 180 8 33 15
44 17 25 1 -19 11 -35 22 -35 27 0 25 12 -9 79 -80 155 -109 290 -64 307 19 7
24 -3 18 -37 -10 -49 85 -275 137 -329 81 -84 222 -310 232 -372 10 -63 17
-70 61 -59 l49 13 -10 -186 c-5 -102 -20 -285 -33 -406 -12 -121 -25 -382 -29
-580 -7 -332 -18 -483 -74 -950 -34 -285 -37 -408 -12 -426 18 -13 18 -20 -1
-27 -14 -6 -24 -25 -23 -44 1 -20 5 -24 11 -8 14 35 67 31 67 -5 0 -51 4 -59
42 -86 20 -14 31 -38 25 -55 -7 -19 1 -29 26 -29 29 0 38 16 40 80 1 44 -5 80
-13 80 -9 0 -12 16 -7 36 5 20 -5 49 -24 64 -29 25 -32 23 -29 -21 7 -80 1
-109 -17 -88 -9 10 -11 73 -5 139 8 77 17 107 26 85 26 -63 46 -37 47 60 1 90
15 261 42 505 7 61 15 146 17 190 2 44 11 136 20 205 8 70 7 125 -2 125 -10 0
-19 83 -20 185 -2 102 -5 289 -8 415 -2 127 0 248 6 270 6 22 21 84 33 138 30
132 42 146 73 90 26 -47 27 -46 27 27 1 54 -8 75 -29 75 -16 0 -30 9 -30 20 0
11 12 20 28 20 57 0 49 72 -11 98 -80 36 -272 214 -333 311 -122 192 -207 378
-197 430 6 28 16 78 23 111 7 33 17 81 22 107 9 44 17 46 154 41 121 -5 395
74 284 82 -11 0 2 18 29 38 52 41 24 102 -47 102 -17 0 -36 21 -43 46 -6 27
-26 45 -48 45 -20 0 -33 -9 -28 -21 10 -27 -107 -116 -132 -101 -10 6 -21 4
-26 -4 -5 -8 -6 -4 -3 8 3 13 -30 38 -74 55 -101 41 -131 42 -99 3 14 -16 18
-39 11 -51 -8 -13 2 -40 22 -62 54 -59 51 -98 -8 -120 -100 -38 -184 26 -184
142 0 21 -15 82 -33 134 -18 53 -32 132 -31 176 0 44 -8 115 -19 157 -15 59
-12 101 14 184 21 68 29 131 20 173 -37 183 -35 200 64 385 52 98 120 197 150
218 65 48 339 71 385 33 16 -13 70 -25 120 -27 50 -2 98 -14 107 -28 9 -14 47
-28 84 -31 38 -3 100 -21 137 -40 38 -19 80 -34 95 -34 15 0 27 -10 27 -23 0
-13 6 -18 13 -11 7 7 41 -6 75 -28 60 -40 60 -39 -7 20 -38 34 -90 62 -115 62
-28 0 -46 12 -46 31 0 17 -9 26 -19 19 -11 -6 -31 7 -45 29 -14 23 -33 41 -43
41 -9 0 -41 17 -70 38 -50 35 -144 64 -233 72 -49 4 -42 31 16 66 43 26 43 26
-6 13 -151 -40 -186 -37 -159 14 l24 47 -52 -48 c-46 -43 -53 -44 -53 -13 0
31 -4 32 -33 8 -30 -24 -33 -22 -22 19 10 37 7 42 -15 24 -15 -13 -31 -43 -36
-66 -7 -38 -9 -37 -11 8 -2 29 15 73 37 98 61 70 48 78 -16 10 -31 -33 -66
-91 -78 -130 l-22 -70 -5 80 -5 80 -12 -90 c-16 -117 -73 -137 -86 -31 -19
161 208 391 385 391 42 0 64 14 83 54 23 49 73 69 61 24 -17 -60 -11 -68 49
-70 36 -1 78 -13 95 -27 17 -14 45 -20 62 -13 18 6 26 3 19 -8 -7 -11 1 -20
18 -20 21 0 27 11 18 35 -20 58 -51 87 -79 77 -15 -6 -24 0 -22 14 3 13 -11
21 -30 18 -20 -3 -55 8 -80 25 -24 17 -60 31 -79 31 -45 0 -45 9 -2 60 19 22
54 40 78 40 24 0 54 13 67 29 24 29 -72 71 -164 71 -26 0 -35 16 -35 65 1 113
20 155 72 155 29 0 48 12 48 30 0 20 -20 30 -60 30 l-60 0 0 229 c0 274 16
330 89 316 28 -5 52 -20 53 -32 1 -13 4 -45 8 -73 4 -27 9 -197 11 -376 3
-277 8 -329 35 -339 17 -7 35 -2 40 12 4 13 15 18 25 12 9 -5 13 48 8 120 -5
79 -1 131 11 131 11 0 18 -16 17 -35 -6 -67 3 -105 25 -105 29 0 2 124 -34
152 -15 12 -22 28 -14 35 21 21 7 200 -16 215 -16 9 -16 17 0 27 12 7 23 2 23
-13 1 -14 9 -8 18 14 11 25 8 47 -7 60 -12 11 -22 31 -20 45 2 14 4 35 6 46 1
12 12 15 25 7 15 -9 18 -5 8 10 -8 13 -3 37 10 53 14 17 19 35 13 42 -6 6 12
49 41 94 32 51 52 109 51 151 -2 41 4 58 13 43 21 -33 39 13 25 64 -7 29 -31
35 -135 35 l-127 0 11 -95 c17 -155 -10 -197 -121 -188 l-92 7 0 87 c0 47 9
109 20 138 19 51 19 51 -91 51 -78 0 -109 -7 -105 -25 8 -39 -140 -175 -191
-175 -36 0 -44 -11 -43 -55 1 -30 -10 -70 -25 -88 -22 -27 -22 -34 1 -43 36
-13 30 -425 -5 -422 -11 1 -48 3 -81 5 -71 4 -69 128 3 221 45 57 47 99 7 115
-54 20 -41 187 15 188 44 0 44 1 -5 28 -68 38 -80 24 -80 -90 l0 -99 -94 0
c-86 0 -90 2 -55 28 39 28 42 36 47 110 1 23 22 43 54 51 46 11 51 20 40 74
-6 34 -12 88 -12 120 0 81 -35 71 -145 -41 -92 -94 -138 -242 -75 -242 24 0
27 -93 3 -108 -9 -6 -12 -39 -7 -74 8 -54 4 -62 -24 -51 -20 7 -29 4 -22 -7 7
-11 3 -20 -7 -20 -12 0 -18 55 -14 135 3 74 1 143 -5 154 -17 29 -3 235 18
275 16 30 11 36 -31 36 -46 0 -51 -8 -54 -85z m215 -211 c-48 -48 -62 -12 -20
50 32 49 38 51 44 19 4 -21 -6 -52 -24 -69z m37 -263 c7 -11 1 -39 -13 -63
-21 -34 -21 -45 -1 -52 41 -15 32 -126 -10 -126 -20 0 -44 -19 -55 -42 -20
-42 -121 -114 -137 -97 -56 63 2 269 65 230 10 -6 22 15 29 47 17 88 93 151
122 103z"/>
<path d="M2853 7487 c-7 -8 -12 -41 -10 -75 2 -49 4 -52 11 -16 8 42 74 84
129 84 13 0 18 -29 13 -70 -9 -76 12 -88 75 -42 92 68 52 132 -82 132 -67 0
-128 -6 -136 -13z"/>
<path d="M5138 7456 c-12 -50 -11 -76 2 -76 10 0 21 -16 26 -35 5 -19 10 -6
12 29 1 48 -31 117 -40 82z"/>
<path d="M4454 7325 c-6 -30 -2 -68 7 -85 21 -35 21 -34 30 65 8 86 -21 102
-37 20z"/>
<path d="M4458 7028 c-2 -87 -3 -176 -3 -198 -2 -74 5 -110 20 -110 18 0 16
436 -2 454 -7 7 -14 -59 -15 -146z"/>
<path d="M2105 6708 c6 -229 31 -236 33 -8 1 106 -7 180 -18 180 -12 0 -18
-69 -15 -172z"/>
<path d="M4443 6460 c-12 -36 -13 -56 -2 -50 28 18 23 -38 -6 -67 -20 -20 -19
-28 2 -41 19 -12 21 -21 5 -31 -13 -8 -16 -24 -8 -37 26 -43 5 -358 -26 -389
-29 -29 -19 -74 12 -55 9 6 14 -6 11 -25 -3 -19 -18 -33 -34 -30 -40 7 -84
-113 -47 -128 16 -6 38 -5 49 2 26 17 50 -39 30 -70 -19 -31 -23 -218 -4 -206
8 5 16 -11 17 -37 2 -27 9 -13 19 34 17 82 28 1168 12 1183 -4 5 -18 -19 -30
-53z"/>
<path d="M5133 6347 c-7 -8 -13 -31 -13 -52 0 -24 -9 -32 -25 -22 -19 11 -20
7 -4 -14 31 -43 37 -159 8 -159 -18 0 -18 -7 1 -30 19 -23 19 -37 2 -57 -12
-16 -17 -44 -9 -64 9 -23 6 -31 -8 -22 -34 21 -41 -31 -12 -86 30 -57 35 -114
12 -128 -8 -5 -12 -98 -8 -206 3 -108 8 -586 10 -1062 1 -476 10 -865 18 -865
8 0 15 133 16 295 1 265 5 566 26 2060 4 234 5 425 3 425 -2 0 -9 -6 -17 -13z"/>
<path d="M2588 6268 c7 -17 12 -40 12 -51 0 -11 9 -14 20 -7 33 20 23 90 -12
90 -21 0 -28 -11 -20 -32z"/>
<path d="M5320 6140 c-2 -27 -3 -58 -1 -68 2 -11 -6 -60 -18 -110 -37 -154
-39 -181 -20 -193 12 -7 12 -25 0 -48 -11 -19 -15 -41 -9 -47 6 -5 13 -25 16
-43 2 -18 13 -34 23 -37 25 -6 51 189 29 216 -10 12 -10 33 -1 48 9 15 10 52
1 83 -9 30 -10 63 -2 72 7 9 8 53 1 97 -10 58 -15 67 -19 30z"/>
<path d="M2111 6122 c-6 -9 -15 -201 -20 -425 -6 -241 -3 -395 8 -379 13 22
19 17 24 -20 4 -26 7 152 7 397 0 245 -2 445 -4 445 -2 0 -9 -8 -15 -18z"/>
<path d="M4925 5927 c0 -123 -5 -231 -10 -240 -13 -24 -20 -699 -7 -686 31 31
59 965 33 1080 -12 48 -16 1 -16 -154z"/>
<path d="M4668 5940 c-2 -57 18 -79 40 -43 12 20 -8 103 -25 103 -7 0 -14 -27
-15 -60z"/>
<path d="M4803 5860 c-3 -53 -8 -63 -23 -40 -24 37 -24 -62 -1 -140 19 -64 49
98 36 191 -9 56 -9 55 -12 -11z"/>
<path d="M4092 5839 c5 -68 -67 -168 -136 -190 -39 -13 -39 -16 -8 -33 24 -14
49 -10 83 13 46 30 73 68 29 41 -36 -22 -21 13 31 75 28 33 46 74 40 89 -6 16
-11 38 -11 48 0 10 -7 18 -16 18 -9 0 -14 -27 -12 -61z"/>
<path d="M3270 5840 c-7 -11 1 -14 19 -8 43 17 39 -25 -4 -50 -27 -16 -28 -21
-5 -21 17 0 43 8 60 18 19 13 39 10 60 -8 16 -14 50 -32 75 -40 25 -8 41 -22
34 -32 -10 -17 32 -33 130 -46 27 -4 52 -17 57 -30 9 -27 44 -31 44 -5 0 10
-38 37 -85 61 -48 24 -63 38 -35 31 28 -7 61 -14 74 -17 14 -3 31 -11 39 -19
21 -21 51 -17 37 6 -7 11 -1 21 14 22 90 7 112 7 166 -6 56 -14 57 -13 21 15
-21 16 -63 29 -93 29 -31 0 -69 14 -85 30 -17 17 -42 30 -57 29 -15 0 -8 -15
19 -38 35 -29 38 -39 15 -48 -16 -6 -36 0 -44 13 -41 62 -93 86 -76 35 15 -49
15 -49 -32 -15 -130 94 -173 114 -252 114 -46 0 -89 -9 -96 -20z"/>
<path d="M4679 5745 c5 -63 12 -92 16 -65 4 28 17 71 30 96 19 37 17 50 -6 65
-47 30 -49 24 -40 -96z"/>
<path d="M2774 5705 c-6 -52 -3 -104 8 -114 11 -12 18 25 18 95 0 139 -11 147
-26 19z"/>
<path d="M5719 5678 c-19 -119 -5 -195 41 -229 43 -32 46 -33 22 -2 -15 19
-30 75 -33 125 -4 72 -24 145 -30 106z"/>
<path d="M4207 5610 c-6 -16 -20 -30 -30 -30 -11 0 -14 11 -7 25 7 14 0 9 -16
-10 -32 -39 -64 -48 -42 -12 9 15 5 18 -9 9 -13 -8 -19 -23 -13 -32 6 -9 1
-23 -10 -30 -11 -7 -16 -21 -9 -31 15 -25 169 79 169 114 0 36 -18 34 -33 -3z"/>
<path d="M5299 5519 c-13 -25 -16 -67 -7 -105 9 -35 13 -79 11 -97 -3 -19 2
-38 11 -43 9 -6 17 56 18 138 3 161 0 168 -33 107z"/>
<path d="M4260 5475 c0 -36 -82 -84 -98 -58 -7 12 -23 15 -36 7 -15 -9 -6 -23
26 -37 26 -13 48 -15 48 -5 0 10 14 18 30 18 17 0 28 -8 25 -18 -3 -10 3 -18
13 -18 10 0 25 -13 34 -27 13 -19 17 -14 18 18 0 48 30 61 47 20 6 -16 10 -14
11 6 1 18 -21 51 -48 75 -58 51 -70 54 -70 19z"/>
<path d="M4722 5475 c-2 -40 -34 -47 -49 -10 -5 14 -10 -6 -9 -45 0 -38 5 -54
10 -35 10 38 39 47 49 15 4 -11 19 -1 34 22 14 23 17 37 6 30 -11 -7 -24 3
-29 23 -9 33 -9 33 -12 0z"/>
<path d="M4300 5280 c0 -11 11 -20 25 -20 19 -1 19 -4 1 -16 -14 -9 -17 -26
-8 -41 29 -46 -17 -182 -55 -168 -30 12 -30 8 1 -39 32 -49 32 -51 -2 -42 -30
8 -34 -1 -26 -57 l10 -65 -52 34 c-46 30 -54 30 -69 3 -10 -17 -48 -31 -93
-33 -42 -1 -80 -14 -85 -27 -10 -26 -87 -55 -84 -32 11 80 -7 107 -29 43 -32
-92 -20 -240 19 -240 16 0 24 9 17 20 -7 11 -3 20 7 20 11 0 20 27 19 60 -3
77 -9 73 151 106 117 24 140 24 165 0 42 -43 36 -241 -10 -326 -208 -380 -253
-685 -128 -857 69 -94 69 -118 3 -194 -34 -39 -58 -75 -52 -81 14 -13 135 153
135 186 0 14 7 26 16 26 8 0 12 38 9 85 -15 206 -14 495 2 501 9 3 21 50 26
105 6 54 36 185 67 289 32 105 63 235 70 290 6 55 16 115 22 133 5 19 0 39
-11 46 -44 28 -25 155 19 131 49 -26 51 -8 8 100 -29 71 -88 112 -88 60z"/>
<path d="M3225 5266 c-38 -14 -30 -82 14 -105 49 -27 121 -27 121 -1 0 11 -13
20 -30 20 -16 0 -30 12 -30 28 0 36 -43 69 -75 58z"/>
<path d="M3694 5160 c-6 -22 -2 -40 8 -40 10 0 18 -13 18 -29 0 -17 12 -25 28
-19 29 11 29 32 3 93 -20 46 -44 44 -57 -5z"/>
<path d="M3406 5125 c-36 -33 -89 -54 -168 -65 -137 -20 -160 -31 -145 -71 6
-16 2 -29 -9 -29 -11 0 -26 -25 -33 -55 -7 -30 -41 -94 -75 -142 -71 -101
-129 -266 -90 -261 72 9 94 -4 94 -55 0 -29 -16 -65 -35 -80 -28 -22 -29 -27
-4 -23 58 11 47 -34 -12 -47 -56 -12 -55 -12 17 -15 68 -2 73 -6 55 -40 -18
-34 -12 -41 44 -53 36 -8 71 -23 78 -34 7 -12 28 8 46 43 37 71 27 102 -32
102 -22 0 -61 16 -87 36 l-46 36 68 47 c37 25 68 55 68 66 0 11 14 9 30 -5 17
-14 37 -19 45 -11 8 8 0 25 -17 38 -25 18 -28 35 -14 73 10 27 13 70 7 95 -7
27 -3 45 11 45 14 0 18 19 10 50 -12 45 -7 50 48 50 40 0 60 10 60 30 0 17 8
30 18 30 9 0 28 -13 42 -30 18 -22 19 -30 2 -30 -17 0 -18 -11 -3 -37 49 -92
156 -38 109 55 -33 66 -44 70 -193 63 -83 -4 -95 0 -95 35 0 99 283 64 395
-49 68 -67 81 34 14 107 -75 82 -89 105 -89 142 0 52 -51 47 -114 -11z m-358
-578 c7 -18 9 -37 4 -41 -11 -12 -92 40 -92 59 0 30 76 14 88 -18z"/>
<path d="M4434 5075 c-14 -63 -5 -570 10 -586 7 -7 14 132 15 309 2 312 -3
371 -25 277z"/>
<path d="M2077 5000 c-5 -50 0 -80 14 -80 27 0 36 134 10 149 -9 6 -20 -25
-24 -69z"/>
<path d="M2834 4997 c-19 -11 -30 -28 -23 -38 15 -25 129 -25 129 0 0 35 -68
59 -106 38z"/>
<path d="M2561 4616 c-1 -123 1 -220 5 -215 18 20 33 439 16 439 -10 0 -19
-101 -21 -224z"/>
<path d="M3540 4705 c0 -19 -18 -61 -39 -94 -42 -63 -38 -96 10 -78 62 24 100
-11 51 -46 -34 -24 -40 -37 -22 -54 17 -17 28 -14 42 12 22 38 78 6 78 -45 0
-12 10 -16 22 -9 14 9 19 -6 15 -44 -4 -37 2 -55 18 -52 14 3 25 -4 25 -15 0
-33 -57 -22 -78 15 -20 33 -21 33 -21 -1 -1 -19 12 -40 27 -46 16 -6 26 -32
23 -59 -3 -27 1 -49 10 -49 8 0 11 -18 5 -40 -6 -22 -18 -35 -28 -29 -10 6
-12 -3 -5 -21 20 -53 54 -24 114 96 32 63 70 114 85 114 16 0 28 13 28 28 0
52 69 150 112 161 38 9 62 49 77 121 2 11 -6 32 -16 47 -14 18 -13 31 2 40 14
9 16 25 5 43 -14 23 -22 17 -38 -26 -12 -30 -29 -54 -39 -54 -9 0 -13 -23 -8
-51 13 -68 -55 -152 -78 -95 -12 30 -14 31 -16 3 0 -18 -14 -57 -30 -87 l-28
-55 -51 55 c-28 30 -64 50 -79 44 -21 -8 -26 5 -22 53 5 66 -51 202 -66 158
-5 -14 -18 -25 -29 -25 -12 0 -10 14 6 32 44 53 39 88 -14 88 -32 0 -48 -11
-48 -35z"/>
<path d="M2048 4489 c-7 -28 -7 -93 -1 -143 7 -51 5 -102 -4 -114 -16 -21 10
-165 28 -148 4 4 11 105 15 223 6 208 -11 291 -38 182z"/>
<path d="M4433 4447 c-21 -21 -15 -123 8 -138 13 -8 19 16 16 69 -3 45 -6 82
-8 82 -1 0 -8 -6 -16 -13z"/>
<path d="M3334 4427 c-8 -7 -41 -12 -74 -11 -75 2 -75 -9 -1 -107 33 -44 60
-90 60 -104 1 -42 87 -15 104 33 12 33 10 40 -8 29 -19 -11 -19 -7 0 17 26 32
15 96 -17 96 -10 0 -18 14 -18 30 0 31 -24 40 -46 17z"/>
<path d="M1687 4220 c0 -82 3 -116 8 -75 4 41 4 109 0 150 -5 41 -8 8 -8 -75z"/>
<path d="M3995 4308 c-30 -16 -55 -43 -55 -59 0 -85 -169 -299 -265 -335 -19
-7 -35 -31 -35 -53 0 -48 31 -55 47 -11 9 22 27 27 63 18 30 -7 50 -4 50 9 0
59 89 172 99 126 6 -25 20 -45 30 -45 27 1 38 122 12 122 -12 0 -21 11 -21 23
0 13 6 18 12 11 7 -7 39 39 70 100 67 130 66 132 -7 94z"/>
<path d="M2037 3951 c-24 -52 -12 -111 23 -111 12 0 19 34 15 80 -6 94 -9 96
-38 31z"/>
<path d="M2546 3800 c0 -71 4 -101 8 -65 5 36 5 94 0 130 -4 36 -8 7 -8 -65z"/>
<path d="M3897 3865 c-2 -8 -5 -24 -8 -35 -2 -11 -5 -36 -7 -55 -1 -19 -16
-35 -33 -35 -18 0 -30 -15 -28 -35 10 -98 -2 -147 -34 -141 -26 5 -34 -11 -36
-74 -1 -49 -12 -80 -27 -80 -63 0 -91 -184 -31 -204 27 -9 92 88 82 120 -11
32 40 80 67 63 15 -10 18 0 8 31 -10 33 -7 42 13 35 15 -6 25 -21 22 -34 -4
-13 4 -18 15 -11 12 8 20 28 19 47 -2 18 -2 38 0 43 14 37 13 380 -1 380 -10
0 -19 -7 -21 -15z"/>
<path d="M2038 3767 c0 -31 -5 -75 -10 -97 -5 -22 -14 -92 -20 -155 l-11 -115
52 23 c63 29 79 146 24 182 -15 10 -16 20 -3 30 33 24 32 138 0 165 -25 21
-30 16 -32 -33z"/>
<path d="M3503 3762 c-36 -22 -50 -229 -15 -215 14 5 40 -27 60 -73 40 -92 66
-75 86 53 5 35 17 77 26 93 47 88 -73 196 -157 142z"/>
<path d="M5080 3471 c0 -49 9 -94 20 -101 20 -12 30 20 20 60 -3 11 -4 45 -3
75 2 30 -6 55 -17 55 -11 0 -20 -40 -20 -89z"/>
<path d="M4235 3503 c29 -18 -95 -160 -209 -239 -35 -25 -92 -95 -128 -157
-35 -61 -112 -159 -171 -217 -109 -108 -136 -180 -72 -196 30 -8 30 -10 2 -12
-33 -2 -66 -162 -33 -162 9 0 16 7 16 16 0 9 17 35 38 57 21 23 38 54 37 69
-4 78 7 139 23 129 10 -6 33 21 51 59 21 45 47 70 72 70 21 0 39 12 39 28 0
15 13 38 30 52 22 18 24 34 8 64 -19 36 -17 37 23 16 26 -14 39 -16 31 -3 -7
11 3 30 23 41 19 12 26 21 14 21 -12 1 -32 -10 -46 -24 -20 -20 -23 -18 -12
10 7 19 21 35 31 35 33 0 176 110 177 136 1 15 11 20 24 12 16 -10 20 -4 11
18 -21 56 92 97 134 48 42 -49 166 -79 216 -52 51 28 -57 93 -115 70 -15 -5
-29 -2 -33 8 -3 9 -19 20 -35 24 -16 3 -52 26 -80 51 -28 25 -60 45 -71 45
-11 0 -9 -8 5 -17z"/>
<path d="M2572 3420 c-18 -45 -32 -122 -32 -171 0 -50 -13 -151 -28 -225 -69
-324 -57 -352 44 -94 65 165 75 232 52 346 -9 48 -4 73 18 90 21 16 28 42 20
79 -15 76 -36 69 -74 -25z"/>
<path d="M2009 3354 c-6 -14 -2 -61 8 -105 l19 -79 2 105 c2 102 -9 132 -29
79z"/>
<path d="M2100 3270 c-3 -66 -4 -147 -3 -180 7 -211 19 -544 21 -566 5 -62 35
1 39 83 3 49 13 119 24 156 35 124 18 289 -60 567 -15 52 -18 43 -21 -60z"/>
<path d="M3128 3303 c71 -137 280 -363 416 -451 l59 -38 80 78 c91 89 226 265
213 279 -5 5 -57 -15 -116 -43 -125 -60 -240 -84 -240 -51 0 13 -13 23 -29 23
-40 0 -221 108 -328 195 l-87 71 32 -63z"/>
<path d="M2222 3333 c-3 -27 61 -241 76 -258 8 -8 8 -67 0 -130 -36 -286 -9
-342 50 -103 35 143 38 312 6 332 -11 7 -14 2 -6 -11 8 -13 6 -23 -5 -23 -11
0 -26 27 -33 60 -7 33 -25 67 -39 75 -14 8 -30 29 -36 45 -7 17 -13 22 -13 13z"/>
<path d="M3920 3281 c-27 -22 -90 -54 -140 -73 -98 -36 -145 -68 -101 -68 45
0 278 122 289 152 14 35 12 35 -48 -11z"/>
<path d="M1900 3249 c0 -29 9 -68 20 -89 11 -20 25 -125 32 -233 7 -109 18
-246 26 -307 l14 -110 16 180 c8 99 18 205 22 235 4 30 -2 55 -12 55 -10 0
-18 25 -18 56 0 78 -57 264 -81 264 -10 0 -19 -23 -19 -51z"/>
<path d="M2404 3223 c-25 -73 0 -122 31 -58 40 84 45 115 16 115 -15 0 -36
-26 -47 -57z"/>
<path d="M4680 3270 c0 -6 23 -20 51 -30 28 -11 46 -29 39 -40 -7 -11 -3 -20
9 -20 11 0 21 14 21 31 0 20 9 26 25 16 35 -22 75 -26 75 -8 0 8 -35 25 -77
38 -82 24 -143 30 -143 13z"/>
<path d="M3380 3212 c0 -35 49 -55 93 -38 29 11 29 15 -4 39 -47 35 -89 34
-89 -1z"/>
<path d="M4920 3202 c0 -11 28 -25 61 -32 34 -8 66 -26 72 -41 6 -14 23 -22
39 -16 19 8 28 -3 28 -32 0 -24 9 -38 20 -31 11 7 20 -2 20 -19 0 -41 38 -40
54 1 14 38 -90 132 -130 118 -14 -5 -21 -1 -14 9 6 11 -7 28 -28 40 -49 26
-122 27 -122 3z"/>
<path d="M1827 3130 c5 -33 15 -112 23 -176 13 -116 86 -354 89 -290 0 18 -13
99 -31 180 -18 80 -36 182 -42 226 -5 44 -19 89 -29 100 -12 13 -16 -1 -10
-40z"/>
<path d="M1682 2930 c0 -22 12 -67 27 -100 36 -77 36 -22 1 70 -17 45 -27 56
-28 30z"/>
<path d="M5301 2828 c-1 -58 11 -93 40 -119 48 -43 42 12 -13 141 l-26 60 -1
-82z"/>
<path d="M2052 2635 c-20 -154 -10 -428 17 -428 14 0 19 82 15 241 -7 300 -12
332 -32 187z"/>
<path d="M2977 2666 c-7 -159 -21 -230 -60 -326 -12 -27 -25 -72 -30 -99 -5
-28 -17 -59 -26 -70 -48 -62 -76 -428 -29 -389 12 10 29 11 38 3 9 -8 11 1 4
20 -7 19 -6 35 2 35 8 0 11 42 7 93 -7 89 10 169 70 334 43 117 74 427 44 445
-9 6 -18 -15 -20 -46z"/>
<path d="M1720 2607 c0 -29 121 -215 152 -233 16 -9 28 -38 28 -65 0 -27 10
-49 21 -49 35 0 1 76 -96 218 -104 154 -105 155 -105 129z"/>
<path d="M3223 2390 c-13 -44 -34 -116 -46 -160 -12 -44 -29 -103 -37 -132 -9
-30 -7 -64 4 -80 16 -23 18 -22 10 4 -6 17 0 31 14 31 15 0 20 -24 15 -66 -4
-40 -19 -67 -35 -67 -15 0 -28 -9 -28 -19 0 -11 14 -15 30 -8 17 6 30 1 30
-11 0 -12 -13 -22 -30 -22 -31 0 -33 -9 -39 -159 -1 -48 -13 -92 -26 -96 -12
-4 -17 -23 -10 -41 10 -29 8 -30 -18 -9 -21 16 -30 53 -27 105 3 43 -2 75 -10
70 -8 -5 -10 16 -6 46 8 49 6 50 -16 15 -32 -50 -25 -230 12 -319 17 -39 30
-98 30 -131 0 -34 10 -61 21 -61 13 0 16 -17 9 -41 -16 -50 -20 -555 -5 -571
6 -6 11 21 11 59 0 39 6 80 13 91 26 43 31 229 11 394 -16 129 -16 179 2 200
18 22 17 28 -5 28 -16 0 -19 6 -7 15 11 8 21 38 23 65 2 28 23 104 47 170 27
74 47 182 51 280 5 88 18 219 31 290 29 164 17 246 -19 130z"/>
<path d="M3063 2371 c-15 -41 -21 -79 -15 -86 6 -6 2 -23 -9 -36 -13 -15 -13
-30 -2 -37 21 -13 70 147 60 199 -5 23 -16 10 -34 -40z"/>
<path d="M2321 1987 c-14 -75 -26 -159 -28 -187 -2 -27 -10 -55 -18 -61 -14
-10 -34 -112 -43 -220 -2 -27 -10 -60 -18 -72 -7 -12 -19 -57 -25 -100 -6 -42
-15 -89 -20 -103 -5 -14 0 -21 11 -14 11 7 20 3 20 -9 0 -11 -10 -21 -22 -21
-15 0 -20 -43 -14 -130 4 -72 2 -130 -4 -130 -7 0 -10 -38 -7 -85 3 -47 6
-125 8 -175 l4 -90 27 63 c28 67 43 367 19 405 -7 12 -6 22 4 22 9 0 18 16 19
35 2 19 13 94 26 165 38 214 39 225 49 358 5 71 18 134 29 140 10 7 19 64 19
127 0 63 6 123 13 134 7 12 4 35 -6 53 -13 23 -24 -6 -43 -105z"/>
<path d="M2582 2045 c-12 -30 -25 -116 -27 -190 -3 -74 -10 -135 -16 -135 -13
0 -56 -207 -66 -318 -4 -38 -21 -78 -37 -90 -17 -12 -31 -29 -32 -37 -1 -9 -8
-45 -14 -80 -7 -36 -15 -87 -19 -115 -3 -27 -12 -63 -18 -80 -20 -50 -32 -141
-45 -330 -7 -99 -17 -187 -22 -196 -6 -10 -14 -73 -18 -140 -4 -68 -15 -167
-25 -219 -16 -83 -13 -95 19 -106 56 -17 71 1 75 90 1 45 11 97 22 116 25 46
49 150 41 175 -14 45 -12 153 3 162 10 6 17 24 17 40 0 17 -8 25 -18 19 -10
-6 -23 4 -30 21 -8 22 -4 29 13 23 19 -8 27 22 30 113 1 69 13 149 24 180 12
30 16 63 10 73 -5 9 -2 33 9 53 18 34 46 104 51 126 1 6 10 23 20 39 11 18 10
31 -3 36 -26 8 -9 85 18 85 11 0 16 12 10 28 -6 15 0 39 13 52 18 20 17 22 -7
9 -25 -15 -25 -10 2 32 31 47 60 195 60 299 0 28 -1 111 -1 185 0 150 -6 160
-39 80z"/>
<path d="M1560 1915 c0 -3 9 -35 19 -72 16 -56 14 -65 -11 -55 -17 6 -25 3
-19 -7 7 -10 3 -24 -9 -31 -11 -7 -20 -1 -20 14 -1 19 -5 18 -19 -3 -10 -17
-25 -23 -33 -16 -8 8 1 31 19 51 44 49 42 63 -7 50 -22 -6 -40 -1 -40 12 0 12
-10 22 -22 22 -15 0 -16 -8 -3 -25 29 -37 16 -216 -17 -237 -15 -9 -20 -18
-11 -18 10 0 7 -13 -7 -30 -20 -24 -20 -30 1 -30 20 0 18 -7 -4 -25 -41 -33
-62 -95 -33 -95 14 0 11 -13 -7 -35 -16 -19 -40 -61 -54 -92 -18 -44 -34 -55
-65 -47 -41 11 -194 -121 -283 -246 -19 -26 -35 -37 -35 -24 0 13 -14 24 -31
24 -23 0 -26 -8 -11 -37 26 -47 -25 -127 -70 -110 -17 7 -42 -4 -57 -25 -34
-47 -49 -34 -58 49 -8 63 -7 64 39 34 60 -40 66 -39 54 7 -5 21 0 43 11 50 28
18 6 72 -29 72 -15 0 -28 -7 -28 -16 0 -9 -45 -40 -100 -70 -100 -54 -180 -70
-180 -36 0 10 -5 32 -11 48 -8 21 13 41 70 66 44 20 81 43 81 52 0 9 18 16 40
16 22 0 40 9 40 20 0 11 36 25 80 32 90 15 144 61 101 87 -27 17 -4 83 31 86
86 7 143 111 139 254 -3 94 -34 96 -119 5 -49 -51 -110 -89 -179 -110 -108
-34 -337 -176 -443 -274 -75 -69 -134 -100 -194 -100 -43 0 -42 -3 16 -38 54
-33 127 -150 106 -171 -32 -31 -118 -32 -118 -1 0 23 -10 30 -32 22 -17 -7
-35 -12 -40 -12 -4 0 -8 -90 -8 -200 l0 -200 195 1 c348 2 613 79 825 240 39
30 89 60 113 67 98 30 382 390 336 425 -26 19 -24 24 14 34 39 10 40 15 15 46
-24 30 -24 33 2 19 17 -9 15 -3 -5 14 -38 31 -49 65 -14 43 12 -7 20 -1 18 14
-8 56 2 77 36 77 30 1 31 3 5 20 -22 14 -23 19 -4 20 15 0 21 9 14 20 -7 11
-3 20 8 20 11 0 16 13 10 28 -18 46 32 124 56 90 16 -22 18 -21 9 5 -5 17 0
42 11 53 34 34 39 169 5 156 -15 -5 -33 -2 -40 9 -10 17 -49 28 -49 14z m-940
-592 c0 -10 24 -13 53 -7 36 7 48 3 39 -13 -8 -13 8 -27 42 -36 48 -12 27 -23
-154 -80 -222 -70 -280 -80 -280 -47 0 11 16 20 35 20 49 0 225 65 225 83 0 8
-18 27 -40 43 -22 15 -34 34 -27 41 20 19 107 16 107 -4z m3 -458 c-19 -35
-23 -49 -23 -84 0 -11 -13 -15 -29 -9 -24 10 -22 22 14 70 48 65 66 76 38 23z"/>
<path d="M4015 1717 c15 -218 80 -306 80 -107 0 61 -8 110 -17 110 -10 0 -17
7 -16 15 9 52 -6 105 -29 105 -20 0 -25 -29 -18 -123z"/>
<path d="M1111 1769 c-17 -18 -31 -65 -31 -106 0 -41 -12 -121 -27 -179 -32
-123 -3 -143 66 -45 35 49 59 359 27 361 -2 0 -17 -14 -35 -31z"/>
<path d="M3780 1717 c0 -13 -7 -17 -15 -9 -23 23 -63 -210 -45 -258 9 -24 7
-58 -5 -79 -14 -26 -14 -33 2 -23 26 16 28 -18 5 -76 -8 -21 -9 -77 -2 -125 8
-48 6 -87 -4 -87 -10 0 -12 -10 -5 -22 8 -12 2 -30 -13 -40 -19 -12 -20 -17
-4 -18 18 0 22 -38 15 -138 -7 -108 -3 -140 20 -149 17 -6 26 -29 21 -53 -4
-22 1 -36 11 -29 31 19 22 109 -11 109 -16 0 -30 10 -30 21 0 12 9 16 20 9 22
-13 22 -12 27 143 2 57 -1 101 -7 97 -6 -4 -7 29 -3 72 9 93 53 105 70 18 8
-38 24 -60 45 -60 24 0 27 7 12 26 -12 14 -24 81 -26 150 -3 68 -10 124 -16
124 -7 0 -12 67 -12 150 0 102 -8 150 -24 150 -16 0 -18 18 -6 60 10 36 10 60
-1 60 -11 0 -19 -10 -19 -23z"/>
<path d="M1952 1275 c-7 -234 -16 -616 -20 -850 l-8 -425 58 0 58 0 4 335 4
335 11 -310 c10 -271 13 -294 26 -182 22 191 18 419 -9 468 -13 24 -21 71 -19
104 3 33 -9 149 -27 258 -18 109 -33 310 -34 445 -3 396 -30 285 -44 -178z"/>
<path d="M4139 1645 c-1 -8 -4 -44 -8 -80 -4 -36 2 -70 11 -76 10 -6 18 30 18
80 0 74 -16 133 -21 76z"/>
<path d="M5410 1506 c-22 -6 -51 -19 -65 -30 -13 -11 -37 -16 -53 -10 -16 7
-34 -1 -40 -17 -8 -21 -44 -29 -126 -29 -116 0 -306 -53 -306 -85 0 -10 -8
-12 -19 -6 -35 22 -44 -159 -19 -360 33 -262 29 -444 -8 -482 -8 -7 -2 -27 11
-44 20 -24 20 -28 0 -16 -14 9 -25 6 -25 -5 0 -11 9 -25 20 -32 35 -22 24
-112 -13 -106 -22 4 -39 -13 -48 -49 -9 -30 -8 -55 1 -55 10 0 21 25 26 55 6
39 9 31 11 -29 3 -83 31 -129 49 -81 5 14 8 -6 7 -43 -4 -81 35 -106 41 -27 3
30 7 174 10 320 4 148 14 265 25 265 10 0 2 12 -18 27 -25 18 -30 31 -15 41
15 9 16 29 4 61 -10 27 -14 72 -8 102 5 29 0 65 -12 79 -12 15 -21 61 -19 103
1 42 -3 113 -10 157 l-11 81 225 45 c316 63 314 63 377 95 72 37 78 37 78 -9
0 -26 18 -40 61 -46 73 -11 96 14 40 44 -23 12 -41 34 -41 49 0 15 -14 32 -32
39 -33 13 -36 13 -98 -2z"/>
<path d="M2932 1426 c17 -69 20 -73 47 -57 34 21 24 68 -20 91 -37 20 -39 18
-27 -34z"/>
<path d="M4070 1440 c-7 -11 -3 -68 8 -125 12 -58 20 -132 19 -165 -2 -85 64
-397 88 -413 11 -7 23 -47 27 -90 4 -42 25 -126 48 -187 30 -82 38 -92 29 -40
-6 39 -15 97 -20 130 -14 105 -33 179 -50 201 -10 11 -16 38 -15 60 3 68 -26
219 -44 225 -10 4 -13 20 -7 35 6 16 4 45 -4 64 -8 19 -13 51 -11 71 3 20 -6
49 -19 65 -19 23 -18 29 4 29 23 1 23 3 -1 18 -18 12 -23 35 -15 69 13 52 -14
90 -37 53z"/>
<path d="M1673 1386 c-42 -56 -77 -384 -73 -686 1 -93 1 -179 0 -190 -13 -121
-29 -448 -23 -475 7 -33 86 -52 81 -20 -2 8 -1 20 1 25 13 33 24 183 32 420
16 503 31 850 39 904 12 73 -12 82 -57 22z"/>
<path d="M2854 1345 c-5 -19 -10 -84 -12 -143 -1 -59 -20 -166 -42 -236 -22
-71 -42 -187 -44 -257 -2 -71 -9 -129 -15 -129 -6 0 -13 -46 -16 -103 -3 -56
-19 -148 -35 -203 -17 -56 -30 -127 -30 -158 0 -31 -9 -56 -20 -56 -50 0 -13
-36 45 -45 82 -12 131 3 92 28 -20 13 -16 20 18 29 26 7 39 22 31 35 -8 13 2
11 20 -4 30 -25 34 -22 34 23 0 57 31 89 47 49 7 -19 10 -18 11 2 1 15 -16 31
-38 37 -22 6 -40 24 -40 40 0 15 7 24 15 19 8 -5 16 14 18 42 2 37 -2 43 -15
23 -22 -35 -23 -30 -27 85 -3 69 3 90 23 83 18 -7 26 8 25 47 -2 50 -4 52 -19
17 -24 -56 -24 -4 0 60 13 35 13 48 0 40 -11 -7 -20 10 -20 39 0 29 14 57 30
64 32 12 42 107 11 107 -11 0 -11 24 -1 61 10 34 13 74 7 90 -6 16 -3 29 7 29
21 0 31 103 24 235 -2 30 -8 44 -13 30 -14 -42 -50 -28 -39 15 6 22 3 40 -7
40 -9 0 -20 -16 -25 -35z"/>
<path d="M5370 1311 c-20 -46 -23 -130 -5 -176 8 -19 4 -39 -6 -46 -11 -6 -14
-20 -8 -30 6 -11 -5 -20 -25 -21 -21 0 -26 -5 -11 -11 14 -6 25 -31 25 -57 0
-26 9 -72 21 -102 15 -41 14 -59 -5 -71 -20 -13 -19 -16 4 -17 19 0 31 -21 32
-55 2 -30 10 -77 19 -103 9 -28 8 -44 -3 -37 -10 6 -18 -39 -17 -102 1 -62
-10 -132 -24 -155 -21 -36 -19 -49 14 -84 21 -23 35 -54 30 -68 -33 -99 -26
-175 14 -153 32 17 35 25 13 39 -16 9 -18 18 -7 18 31 0 37 594 8 734 -12 60
-29 205 -37 323 -10 146 -20 201 -32 174z"/>
<path d="M5487 1056 c7 -136 21 -403 32 -596 10 -192 19 -375 20 -405 2 -81
56 -71 72 13 16 83 2 429 -19 474 -9 20 -2 45 17 64 36 36 40 68 10 78 -22 7
-31 240 -11 273 6 10 -2 30 -18 43 -38 31 -39 78 -2 92 29 11 22 78 -13 123
-13 17 -13 25 3 25 53 0 16 52 -41 56 l-62 5 12 -245z"/>
<path d="M1470 1128 c-38 -28 -40 -57 -47 -579 l-6 -549 51 0 c51 0 52 3 54
145 1 80 4 302 8 494 7 442 -4 530 -60 489z"/>
<path d="M1328 520 c0 -137 3 -194 7 -125 4 69 4 181 0 250 -4 69 -7 13 -7
-125z"/>
<path d="M932 555 c-6 -25 -12 -160 -12 -300 l0 -255 50 0 c40 0 51 10 53 55
2 30 5 82 8 115 14 190 11 319 -8 326 -11 3 -16 19 -10 34 5 15 -8 36 -29 48
-33 18 -42 14 -52 -23z"/>
<path d="M3691 549 c-21 -16 -29 -29 -18 -29 25 0 23 -118 -3 -160 -23 -38
-28 -101 -7 -88 10 6 17 1 17 -11 0 -11 -9 -21 -20 -21 -11 0 -20 -19 -20 -41
0 -23 9 -36 20 -29 18 11 29 -15 22 -55 -1 -8 6 -15 17 -15 10 0 22 -11 27
-25 4 -14 6 -9 3 10 -3 19 2 40 12 46 9 5 17 102 16 215 0 141 -6 192 -19 164
-16 -34 -17 -32 -11 15 4 30 6 55 5 54 -1 0 -19 -13 -41 -30z"/>
<path d="M793 452 c-21 -57 -15 -452 7 -452 25 0 23 -10 29 220 6 199 -10 299
-36 232z"/>
<path d="M103 355 c-44 -139 -38 -344 10 -351 41 -6 42 2 46 205 3 215 -18
269 -56 146z"/>
</g>
</svg>
