<?xml version="1.0" standalone="no"?>
<!DOCTYPE svg PUBLIC "-//W3C//DTD SVG 20010904//EN"
 "http://www.w3.org/TR/2001/REC-SVG-20010904/DTD/svg10.dtd">
<svg version="1.0" xmlns="http://www.w3.org/2000/svg"
 width="180.000000pt" height="180.000000pt" viewBox="0 0 180.000000 180.000000"
 preserveAspectRatio="xMidYMid meet">
<metadata>
Created by potrace 1.10, written by Peter Selinger 2001-2011
</metadata>
<g transform="translate(0.000000,180.000000) scale(0.100000,-0.100000)"
fill="#000000" stroke="none">
<path d="M790 1405 c-164 -37 -302 -154 -368 -311 -121 -290 52 -626 360 -699
180 -42 357 10 488 144 161 166 195 401 87 605 -38 71 -123 161 -188 199 -112
65 -258 89 -379 62z m65 -325 c32 -44 62 -80 65 -80 4 0 38 36 76 80 66 76 71
79 113 80 51 0 56 9 -61 -123 -43 -48 -78 -92 -78 -98 0 -11 11 -26 137 -191
l83 -108 -90 0 -89 0 -70 90 -70 90 -77 -90 c-77 -88 -79 -90 -123 -90 -41 0
-43 1 -29 18 9 9 54 62 102 116 l85 100 -26 35 c-15 20 -62 82 -105 138 -43
56 -78 105 -78 108 0 3 40 5 88 5 l88 0 59 -80z"/>
<path d="M734 1088 c9 -13 80 -107 159 -210 112 -148 147 -187 165 -188 13 0
22 4 20 8 -1 4 -72 99 -157 210 -125 165 -158 202 -178 202 -23 0 -23 -1 -9
-22z"/>
</g>
</svg>
