<?xml version="1.0" standalone="no"?>
<!DOCTYPE svg PUBLIC "-//W3C//DTD SVG 20010904//EN"
 "http://www.w3.org/TR/2001/REC-SVG-20010904/DTD/svg10.dtd">
<svg version="1.0" xmlns="http://www.w3.org/2000/svg"
 width="180.000000pt" height="180.000000pt" viewBox="0 0 180.000000 180.000000"
 preserveAspectRatio="xMidYMid meet">
<metadata>
Created by potrace 1.10, written by Peter Selinger 2001-2011
</metadata>
<g transform="translate(0.000000,180.000000) scale(0.050000,-0.050000)"
fill="#000000" stroke="none">
<path d="M1580 2810 c-730 -165 -1053 -1026 -610 -1628 516 -701 1618 -480
1839 367 190 728 -492 1428 -1229 1261z m130 -650 c142 -193 115 -193 282 -1
133 154 141 160 225 160 103 1 112 20 -122 -244 -197 -223 -212 -146 120 -580
l165 -215 -180 0 -179 0 -139 180 -140 181 -155 -181 c-152 -177 -157 -180
-244 -180 -83 0 -87 2 -58 35 17 19 108 125 202 234 l172 199 -53 71 c-29 39
-124 163 -210 275 -86 113 -156 209 -156 215 0 6 79 11 176 11 l176 0 118
-160z"/>
<path d="M1469 2175 c228 -329 607 -794 648 -794 61 -1 78 -28 -274 435 -252
330 -317 404 -357 404 -46 0 -47 -2 -17 -45z"/>
</g>
</svg>
