<?xml version="1.0" standalone="no"?>
<!DOCTYPE svg PUBLIC "-//W3C//DTD SVG 20010904//EN"
 "http://www.w3.org/TR/2001/REC-SVG-20010904/DTD/svg10.dtd">
<svg version="1.0" xmlns="http://www.w3.org/2000/svg"
 width="180.000000pt" height="180.000000pt" viewBox="0 0 180.000000 180.000000"
 preserveAspectRatio="xMidYMid meet">
<metadata>
Created by potrace 1.10, written by Peter Selinger 2001-2011
</metadata>
<g transform="translate(0.000000,180.000000) scale(0.050000,-0.050000)"
fill="#17bdd3" stroke="none">
<path d="M2075 3266 c35 -5 98 -5 140 -1 41 5 12 8 -65 8 -77 1 -111 -3 -75
-7z"/>
<path d="M1851 3218 c-43 -11 -95 -33 -114 -51 -30 -27 -87 -41 -193 -46 -15
0 -21 -10 -14 -21 7 -11 -4 -26 -24 -34 -20 -8 -69 -48 -109 -90 -41 -42 -84
-76 -95 -76 -12 0 -22 -8 -22 -19 0 -10 -27 -48 -61 -85 -33 -36 -65 -86 -72
-110 -7 -28 -30 -47 -64 -52 -52 -8 -52 -9 -8 -24 58 -19 58 -58 0 -84 -35
-16 -52 -14 -74 10 -26 28 -31 24 -46 -34 -10 -37 -35 -85 -56 -108 -40 -42
-46 -60 -41 -114 2 -23 -2 -21 -18 5 -31 50 -60 43 -60 -15 0 -28 -17 -61 -40
-75 -22 -13 -40 -36 -40 -50 0 -14 -8 -25 -18 -25 -21 0 -52 -112 -45 -162 2
-17 -18 -77 -46 -133 -28 -55 -51 -107 -51 -114 0 -33 -57 -71 -68 -46 -6 14
-5 3 3 -25 8 -27 14 -93 13 -145 -1 -52 6 -95 16 -95 10 0 16 -11 15 -25 -12
-87 47 -167 191 -257 l60 -38 -65 0 c-36 0 -65 -9 -65 -20 0 -25 62 -26 128
-1 32 12 69 13 97 2 25 -10 35 -19 22 -20 -12 0 -29 -21 -38 -46 -8 -25 -21
-63 -28 -85 -10 -30 1 -49 43 -75 31 -19 56 -52 56 -73 0 -36 66 -76 106 -65
10 2 12 -4 7 -13 -11 -16 64 -93 90 -94 8 0 21 -8 30 -18 10 -11 7 -12 -8 -4
-28 16 -33 -5 -10 -41 51 -79 265 -41 265 47 0 14 10 26 21 26 12 0 15 -10 7
-23 -9 -14 -5 -18 8 -9 12 7 17 28 10 46 -8 21 -5 28 10 19 22 -14 164 -36
229 -36 19 0 33 -6 32 -13 -6 -41 6 -64 33 -64 17 0 30 -9 30 -20 0 -32 116
-23 171 12 27 18 49 46 49 63 0 25 5 25 31 4 27 -22 29 -15 19 63 -8 64 -5 77
8 48 15 -32 19 -33 21 -7 2 65 140 65 142 0 1 -22 7 -18 20 12 15 37 29 44 74
34 52 -11 53 -10 16 19 -21 18 -31 38 -23 46 8 8 22 2 32 -14 10 -16 24 -23
32 -15 7 8 1 29 -14 48 -25 30 -24 33 6 22 31 -12 70 15 74 50 1 8 3 20 5 25
1 6 3 30 5 55 1 33 16 47 57 51 30 4 55 14 55 23 0 8 34 15 75 13 61 -2 74 5
72 35 -3 38 49 113 79 113 9 0 14 -20 10 -45 -4 -34 5 -47 39 -51 34 -5 45 3
45 35 0 22 -13 41 -29 41 -39 0 -62 81 -29 101 16 10 33 7 42 -7 11 -17 15
-14 16 9 0 46 42 75 117 81 45 3 61 13 53 32 -5 15 -10 32 -10 38 0 6 -14 0
-30 -14 -52 -43 -54 -8 -3 52 26 32 47 63 46 68 -2 6 22 42 52 82 35 46 58
105 64 165 6 51 20 112 31 134 12 22 17 57 11 77 -7 19 1 66 17 104 25 60 25
72 -2 102 -39 44 -22 90 38 102 41 8 40 9 -9 11 -44 2 -55 13 -55 51 0 27 -6
64 -13 84 -9 23 -6 30 9 20 16 -9 19 -3 11 19 -10 25 -16 27 -29 6 -29 -47
-41 -2 -21 73 17 62 16 69 -7 50 -23 -19 -31 -13 -43 33 -19 69 -21 81 -24
109 -2 12 -16 17 -33 11 -20 -8 -30 1 -30 25 0 48 -108 158 -185 188 -20 7
-41 41 -48 76 -11 51 -16 56 -31 30 -16 -29 -22 -29 -49 -2 -16 16 -48 30 -71
30 -23 0 -53 16 -67 35 -14 19 -36 36 -47 38 -48 5 -50 12 -6 24 74 21 -578
22 -665 1z m523 -43 c24 -7 61 -22 83 -34 22 -11 57 -21 77 -21 62 0 331 -213
444 -350 162 -199 254 -671 171 -880 -13 -33 -20 -70 -16 -82 5 -12 -5 -33
-22 -47 -17 -14 -31 -42 -31 -62 0 -20 -9 -42 -20 -49 -11 -7 -20 -26 -20 -42
0 -17 -27 -59 -60 -94 -33 -35 -60 -73 -60 -84 -1 -22 -140 -98 -140 -76 0 7
13 27 29 45 31 34 21 121 -13 121 -10 0 -13 9 -6 20 21 34 90 23 90 -15 1 -30
3 -30 19 -5 12 19 12 37 0 49 -10 10 -19 35 -19 56 0 34 -4 34 -62 4 -69 -36
-174 15 -113 55 19 12 13 25 -22 53 -50 39 -53 103 -5 119 15 5 23 1 17 -9 -6
-9 2 -35 19 -57 26 -32 29 -33 19 -5 -6 19 -5 35 3 35 9 0 17 23 19 50 5 52
-23 68 -43 25 -6 -14 -6 4 0 40 6 36 4 65 -6 65 -9 0 -29 -29 -45 -65 -15 -36
-39 -74 -53 -85 -14 -11 -28 -38 -33 -60 -7 -32 -11 -28 -23 20 -8 33 -23 74
-34 90 -10 17 -37 58 -59 92 -25 39 -69 72 -122 89 -47 16 -87 43 -92 63 -12
44 -33 46 -72 6 -40 -40 -73 -38 -73 5 -1 20 -29 48 -65 65 -43 20 -63 42 -59
65 3 19 -4 35 -16 35 -30 0 -143 119 -131 138 16 27 -75 56 -147 47 -40 -5
-74 2 -83 17 -12 19 -23 17 -47 -7 -44 -44 -40 -75 8 -75 22 0 40 -8 40 -18 0
-10 22 -23 49 -30 84 -21 248 -202 273 -301 l22 -88 106 11 c191 20 341 -86
397 -279 21 -71 34 -87 84 -95 281 -47 242 -458 -44 -461 -608 -8 -1637 6
-1680 22 -205 78 -248 394 -73 541 48 40 62 71 72 159 38 315 297 559 595 559
88 0 97 4 116 61 19 53 86 129 189 212 178 145 528 166 755 45 111 -59 299
-232 299 -275 0 -12 9 -26 20 -33 27 -16 3 47 -43 112 -20 29 -31 57 -25 63 9
10 -109 104 -132 105 -67 4 -82 48 -27 77 58 29 63 29 129 -24 74 -61 193
-115 211 -97 11 12 -53 74 -78 75 -8 0 -36 22 -64 49 -27 28 -70 50 -96 50
-26 0 -58 11 -71 24 -19 19 -24 18 -24 -3 0 -68 -120 -103 -173 -51 -16 17
-58 30 -93 31 -35 1 -109 4 -164 7 -124 8 -252 -20 -370 -82 -53 -28 -92 -39
-96 -27 -4 12 -22 21 -41 20 -30 0 -30 -2 1 -20 39 -23 27 -79 -17 -79 -16 0
-44 -27 -63 -60 -34 -60 -62 -77 -66 -40 -2 11 -4 28 -5 38 -6 41 -27 38 -84
-11 -48 -41 -60 -45 -65 -19 -9 40 -44 42 -44 3 0 -18 -12 -25 -30 -18 -18 7
-38 -8 -53 -41 -23 -50 -57 -71 -57 -34 0 89 304 480 373 482 13 0 27 10 31
22 36 108 614 214 830 153z m-1194 -2108 c0 -133 -98 -263 -178 -238 -111 36
-34 251 89 251 49 0 89 -6 89 -13z m300 -1 c0 -18 -115 -341 -151 -421 -32
-72 -104 -89 -150 -34 -27 33 -21 63 61 269 24 61 49 130 54 155 10 43 186 73
186 31z m300 0 c0 -48 -130 -345 -155 -355 -105 -40 -137 49 -73 203 26 64 47
127 48 141 0 26 180 37 180 11z m292 -21 c-113 -354 -163 -454 -232 -466 -98
-16 -98 38 -5 296 l75 205 86 0 c74 0 85 -5 76 -35z m308 29 c0 -95 -94 -254
-150 -254 -93 0 -107 131 -25 235 17 21 175 38 175 19z"/>
<path d="M1820 3060 c-32 -20 -27 -23 44 -27 23 -1 47 9 51 23 10 29 -52 32
-95 4z"/>
<path d="M1860 2942 c0 -9 18 -22 40 -28 24 -6 35 -2 27 10 -8 13 15 16 65 8
43 -7 92 -3 108 7 21 15 -9 20 -105 21 -74 0 -135 -8 -135 -18z"/>
<path d="M2253 2945 c-7 -11 9 -15 38 -10 27 5 49 1 49 -10 0 -28 70 -44 102
-24 15 9 23 21 17 26 -21 21 -195 36 -206 18z"/>
<path d="M1732 2890 c-21 -16 -48 -32 -60 -37 -15 -6 -15 -16 3 -34 20 -21 31
-20 61 7 20 19 48 34 61 34 12 0 23 14 23 30 0 38 -38 38 -88 0z"/>
<path d="M1877 2714 c13 -16 47 -24 84 -18 76 11 66 22 -31 35 -61 8 -71 4
-53 -17z"/>
<path d="M2814 2565 c-5 -8 8 -51 28 -95 32 -68 37 -73 37 -30 1 101 -37 174
-65 125z"/>
<path d="M2812 2375 c10 -25 17 -137 17 -250 0 -113 7 -205 16 -205 18 0 20
389 2 455 -6 25 -21 45 -32 45 -12 0 -13 -17 -3 -45z"/>
<path d="M2560 2340 c0 -11 9 -20 20 -20 12 0 20 -67 20 -160 0 -93 8 -160 20
-160 33 0 25 298 -9 331 -33 34 -51 37 -51 9z"/>
<path d="M2786 2130 c0 -66 4 -91 8 -55 5 36 5 90 0 120 -4 30 -8 1 -8 -65z"/>
<path d="M1854 1902 c5 -86 -2 -123 -24 -142 -16 -14 -30 -37 -30 -52 0 -16
-11 -28 -25 -28 -18 -1 -17 -6 3 -18 37 -24 102 17 102 63 0 20 11 53 25 75
20 32 20 48 0 80 -14 22 -25 57 -25 79 0 21 -7 43 -16 49 -9 5 -14 -42 -10
-106z"/>
<path d="M1009 1862 c-27 -26 62 -77 115 -66 8 2 30 -23 49 -56 41 -70 107
-81 107 -19 0 23 -9 36 -20 29 -11 -7 -41 11 -67 39 -31 33 -60 47 -81 39 -22
-9 -29 -4 -22 15 10 27 -58 43 -81 19z"/>
<path d="M2264 1579 c4 -27 18 -47 31 -44 14 3 24 -2 23 -10 -7 -39 5 -45 32
-18 34 34 39 85 12 102 -10 6 -22 0 -27 -14 -7 -19 -17 -18 -44 4 -32 27 -34
25 -27 -20z"/>
<path d="M920 1520 c-37 -12 -18 -17 75 -18 71 -1 125 7 125 18 0 23 -127 23
-200 0z"/>
<path d="M2516 905 c-12 -43 1 -85 26 -85 10 0 18 27 18 60 0 65 -30 82 -44
25z"/>
<path d="M1150 420 c-7 -12 16 -20 59 -20 39 0 71 9 71 20 0 11 -26 20 -59 20
-32 0 -64 -9 -71 -20z"/>
</g>
</svg>
