<?xml version="1.0" standalone="no"?>
<!DOCTYPE svg PUBLIC "-//W3C//DTD SVG 20010904//EN"
 "http://www.w3.org/TR/2001/REC-SVG-20010904/DTD/svg10.dtd">
<svg version="1.0" xmlns="http://www.w3.org/2000/svg"
 width="300.000000pt" height="187.000000pt" viewBox="0 0 300.000000 187.000000"
 preserveAspectRatio="xMidYMid meet">
<metadata>
Created by potrace 1.10, written by Peter Selinger 2001-2011
</metadata>
<g transform="translate(0.000000,187.000000) scale(0.100000,-0.100000)"
fill="#000000" stroke="none">
<path d="M1740 1675 c-106 -33 -214 -142 -245 -249 -8 -27 -15 -84 -15 -126
l0 -76 -67 7 c-240 26 -448 127 -634 306 l-86 83 -16 -34 c-14 -31 -20 -53
-31 -126 -6 -44 11 -138 37 -194 14 -31 49 -78 76 -106 l51 -51 -38 7 c-20 4
-59 15 -86 25 l-48 18 6 -52 c16 -126 104 -243 224 -300 l67 -32 -78 -3 c-75
-3 -78 -4 -72 -25 13 -43 78 -128 126 -163 55 -40 142 -74 191 -74 l33 0 -25
-20 c-50 -39 -181 -101 -257 -121 -50 -13 -114 -21 -179 -22 -56 -1 -97 -6
-90 -10 31 -22 149 -77 213 -100 212 -77 513 -77 725 -1 203 73 364 190 492
357 137 180 226 430 226 635 l0 76 73 70 c40 39 84 86 97 105 22 31 22 34 4
26 -33 -14 -148 -45 -166 -45 -12 0 -2 14 31 45 44 41 109 140 98 151 -2 2
-28 -8 -58 -23 -30 -15 -81 -34 -114 -43 l-59 -17 -59 43 c-32 24 -82 51 -110
59 -62 18 -177 18 -237 0z m-230 -675 c36 -49 68 -89 72 -90 3 0 44 41 91 91
64 69 90 90 106 87 19 -3 9 -17 -74 -106 -52 -56 -95 -105 -95 -109 0 -5 61
-88 198 -270 l24 -33 -84 0 -84 0 -74 100 c-41 55 -77 99 -80 98 -4 -2 -47
-47 -96 -100 -66 -73 -95 -98 -113 -98 l-25 0 25 28 c14 15 62 67 107 116 55
58 80 92 74 100 -39 50 -190 254 -196 264 -5 9 12 12 76 12 l83 -1 65 -89z"/>
<path d="M1350 1055 c0 -4 286 -390 336 -453 1 -2 18 -2 38 0 l37 3 -171 228
c-165 221 -171 227 -205 227 -19 0 -35 -2 -35 -5z"/>
</g>
</svg>
